<?xml version="1.0" encoding="utf-8"?>
<!-- Generator: Adobe Illustrator 24.0.2, SVG Export Plug-In . SVG Version: 6.00 Build 0)  -->
<svg version="1.1" id="Layer_1" xmlns="http://www.w3.org/2000/svg" xmlns:xlink="http://www.w3.org/1999/xlink" x="0px" y="0px"
	 viewBox="0 0 202 136" enable-background="new 0 0 202 136" xml:space="preserve">
<g>
	<rect fill="#009900" width="202" height="136"/>
	<rect fill="#BF0000" width="134.667" height="136"/>
	<rect width="67.333" height="136"/>
	<g>
		<path fill="#FFFFFF" stroke="#BD6B00" stroke-width="0.5" d="M107.565,76.786l2.812,0c0.011,1.073,0.634,2.227,1.508,2.888h-5.389
			C107.339,78.901,107.57,77.986,107.565,76.786L107.565,76.786z"/>
		<path fill="#FFFFFF" d="M89.792,60.7l1.54,1.714l19.168,0.032l1.571-1.714l-4.902-0.063l-2.388-1.682l-7.699-0.032L94.852,60.7
			H89.792L89.792,60.7z"/>
		<path fill="#FFFFFF" stroke="#BD6B00" stroke-width="0.5" d="M97.64,58.732l6.619-0.007c0.896-0.478,1.176-2.006,1.171-2.861
			c-0.012-2.526-1.762-3.737-3.517-3.801c-0.263-0.013-0.568-0.22-0.638-0.462c-0.173-0.548-0.128-0.898-0.318-0.879
			c-0.169-0.002-0.119,0.32-0.269,0.834c-0.082,0.256-0.367,0.508-0.651,0.523c-2.185,0.11-3.594,1.721-3.539,3.785
			C96.535,57.229,96.692,58.044,97.64,58.732L97.64,58.732z"/>
		<path fill="#FFFFFF" d="M86.746,82.562h28.438l-2.546-2.094H89.291L86.746,82.562L86.746,82.562z"/>
		<path fill="#FFFFFF" stroke="#BD6B00" stroke-width="0.5" d="M99.784,74.694l0.519,1.571h1.178l-0.942-1.571H99.784L99.784,74.694
			z M99.125,76.265l0.299,1.555l1.382,0.016l-0.503-1.571L99.125,76.265L99.125,76.265z M101.466,76.281l0.958,1.539h1.964
			l-1.54-1.555L101.466,76.281L101.466,76.281z M89.871,79.804c1.042-0.979,1.707-1.814,1.713-3.015h2.545
			c0.005,0.672,0.246,1.074,0.613,1.047l2.577-0.016l-0.016-1.539h-1.87l0-8.394c-0.068-2.967,3.571-4.696,5.059-4.681l-8.846-0.016
			v-0.27h18.602l0.015,0.27l-8.971,0.016c2.66,0.005,5.227,2.549,5.248,4.697v2.38h-0.346l-0.016-2.348
			c0-2.348-2.929-4.543-5.279-4.475c-2.032,0.059-5.184,2.015-5.153,4.459v0.73l4.823,0.032l-0.047,0.841l0.757,0.488l1.51,0.486
			l-0.022,1.261l1.082,0.322l0.009,1.26l1.298,0.562v1.304l0.823,0.512l-0.038,1.325l1.116,0.793h-2.639l1.65,1.857h-2.435
			l-1.21-1.857h-1.602l0.723,1.841l-1.712-0.016l-0.409-1.825h-2.089l0.016,1.967L89.871,79.804L89.871,79.804z M97.334,74.71v1.555
			h1.791l-0.362-1.555H97.334z"/>
		<rect x="97.428" y="71.964" fill="none" stroke="#BD6B00" stroke-width="0.5" width="1.116" height="2.586"/>
		<path fill="none" stroke="#BD6B00" stroke-width="0.5" d="M95.852,74.732h1.089l-0.007-1.903
			c-0.014-0.827,0.721-1.661,1.073-1.689c0.39-0.015,0.965,0.781,0.985,1.624l0.016,1.974l1.155-0.003v-4.899l-4.31,0.023V74.732
			L95.852,74.732z"/>
		<rect x="104.468" y="75.868" fill="none" stroke="#BD6B00" stroke-width="0.5" width="1.351" height="1.063"/>
		<rect x="103.666" y="74.042" fill="none" stroke="#BD6B00" stroke-width="0.5" width="1.351" height="1.063"/>
		<rect x="102.363" y="72.216" fill="none" stroke="#BD6B00" stroke-width="0.5" width="1.351" height="1.063"/>
		<rect x="101.249" y="70.679" fill="none" stroke="#BD6B00" stroke-width="0.5" width="1.351" height="1.063"/>
		<path fill="none" stroke="#BD6B00" stroke-width="0.5" d="M100.353,74.739l1.382,0.047l2.466,2.206v-1.301l-0.832-0.603v-1.032
			l-1.21-0.698v-1.111l-1.178-0.396v-1.508l-0.597-0.492L100.353,74.739L100.353,74.739z"/>
		<rect x="106.195" y="71.519" fill="#FFFFFF" stroke="#BD6B00" stroke-width="0.5" width="0.33" height="2.396"/>
		<g id="c">
			<path fill="#FFFFFF" stroke="#BD6B00" stroke-width="0.5" d="M86.631,63.42c-0.415-0.674-0.913,0.935-2.622,2.132
				c-0.796,0.547-1.35,2.004-1.355,2.962c-0.026,0.658,0.073,1.315,0,1.952c-0.046,0.403-0.462,1.298-0.177,1.526
				c0.752,0.564,1.726,1.847,2.177,2.289c0.391,0.345,0.729-1.784,1.022-2.738c0.314-1.021,0.173-2.242,1.045-3.186
				c0.617-0.637,2.174-1.265,2-1.548L86.631,63.42L86.631,63.42z"/>
			<path fill="#BF0000" stroke="#BD6B00" stroke-width="0.5" d="M86.543,68.639c-0.13-0.301-0.322-0.613-0.558-0.882
				c-0.235-0.269-0.513-0.495-0.821-0.606c-0.297-0.11-0.599-0.256-0.81-0.521c-0.106-0.132-0.197-0.3-0.242-0.499
				c-0.042-0.185-0.041-0.412-0.011-0.669c-0.037,0.027-0.057,0.058-0.095,0.085c-0.795,0.547-1.352,2.006-1.357,2.964
				c-0.011,0.265-0.011,0.523,0,0.786c0.059,0.165,0.116,0.325,0.2,0.425c0.11,0.13,0.24,0.216,0.379,0.276
				c0.277,0.12,0.598,0.144,0.894,0.255c0.307,0.111,0.624,0.36,0.894,0.659c0.258,0.285,0.457,0.612,0.589,0.903
				c0.022-0.083,0.052-0.206,0.074-0.276C85.965,70.614,85.915,69.538,86.543,68.639L86.543,68.639z"/>
			<path fill="none" stroke="#BD6B00" stroke-width="0.5" d="M84.106,65.413c-0.163,1.141,0.466,1.521,1.06,1.742
				c0.614,0.22,1.118,0.886,1.378,1.488"/>
			<path fill="none" stroke="#BD6B00" stroke-width="0.5" d="M82.584,69.169c0.259,0.984,0.942,0.861,1.535,1.082
				c0.615,0.22,1.261,1.005,1.521,1.608"/>
			<path fill="#FFFFFF" stroke="#BD6B00" stroke-width="0.5" d="M86.055,62.723l0.311-0.202l5.976,10.165l-0.311,0.202
				L86.055,62.723L86.055,62.723z"/>
			<path fill="#FFFFFF" stroke="#BD6B00" stroke-width="0.5" d="M86.698,62.319c0,0.384-0.308,0.696-0.689,0.696
				c-0.38,0-0.689-0.311-0.689-0.696l0,0c0-0.384,0.308-0.696,0.689-0.696C86.39,61.623,86.698,61.934,86.698,62.319z"/>
			<rect x="91.809" y="54.152" fill="#FFFFFF" stroke="#BD6B00" stroke-width="0.5" width="2.422" height="0.561"/>
			<rect x="91.809" y="55.216" fill="#FFFFFF" stroke="#BD6B00" stroke-width="0.5" width="2.422" height="4.687"/>
			<path fill="#FFFFFF" stroke="#BD6B00" stroke-width="0.5" d="M91.661,53.513l2.687,0.016c0.105-0.92-0.805-1.914-1.335-1.904
				C92.487,51.65,91.64,52.63,91.661,53.513L91.661,53.513z"/>
			<path fill="#BD6B00" d="M98.515,52.959c-0.512,0.217-0.905,0.808-1.147,1.487c-0.242,0.679-0.334,1.451-0.221,2.072v0.011
				c0.043,0.214,0.101,0.368,0.168,0.478c0.067,0.11,0.142,0.175,0.231,0.191c0.089,0.017,0.173-0.032,0.221-0.106
				c0.048-0.075,0.071-0.173,0.063-0.287c-0.049-0.639-0.046-1.269,0.105-1.838c0.151-0.569,0.45-1.076,0.999-1.487
				c0.099-0.074,0.156-0.158,0.168-0.244c0.012-0.087-0.034-0.161-0.095-0.213C98.888,52.919,98.694,52.883,98.515,52.959
				L98.515,52.959z M98.568,53.107c0.125-0.052,0.283-0.022,0.347,0.032c0.032,0.027,0.036,0.045,0.031,0.074
				c-0.004,0.029-0.026,0.08-0.105,0.138c-0.577,0.432-0.894,0.976-1.052,1.572c-0.158,0.596-0.154,1.245-0.105,1.891
				c0.007,0.088-0.018,0.155-0.042,0.191c-0.023,0.037-0.036,0.048-0.063,0.042c-0.027-0.005-0.083-0.04-0.137-0.127
				c-0.053-0.087-0.107-0.223-0.147-0.425c-0.106-0.583-0.012-1.342,0.221-1.998C97.749,53.844,98.123,53.296,98.568,53.107
				L98.568,53.107z"/>
			<path fill="#BD6B00" d="M99.38,53.628c-0.511,0.217-0.842,0.779-1.021,1.424c-0.178,0.644-0.206,1.382-0.095,1.998
				c0.088,0.436,0.315,0.667,0.537,0.701c0.111,0.017,0.218-0.027,0.284-0.117c0.066-0.09,0.088-0.21,0.053-0.361
				c-0.125-0.509-0.174-1.145-0.084-1.721c0.089-0.577,0.317-1.092,0.747-1.403c0.1-0.073,0.156-0.157,0.168-0.244
				c0.012-0.087-0.033-0.172-0.095-0.223C99.753,53.579,99.56,53.553,99.38,53.628L99.38,53.628z M99.444,53.777
				c0.125-0.052,0.273-0.022,0.337,0.032c0.032,0.027,0.046,0.045,0.042,0.074c-0.004,0.029-0.036,0.08-0.116,0.138
				c-0.475,0.343-0.716,0.906-0.81,1.509c-0.093,0.603-0.035,1.246,0.095,1.774c0.028,0.12,0,0.201-0.032,0.244
				c-0.032,0.043-0.072,0.063-0.137,0.053c-0.129-0.02-0.331-0.189-0.41-0.584c-0.107-0.589-0.077-1.315,0.095-1.934
				C98.679,54.465,98.998,53.966,99.444,53.777L99.444,53.777z"/>
			<rect x="91.678" y="63.713" fill="#FFFFFF" stroke="#BD6B00" stroke-width="0.5" width="2.703" height="3.776"/>
			<rect x="91.836" y="69.649" fill="#FFFFFF" stroke="#BD6B00" stroke-width="0.5" width="2.608" height="0.794"/>
			<rect x="91.772" y="71.043" fill="#FFFFFF" stroke="#BD6B00" stroke-width="0.5" width="2.671" height="2.951"/>
			<rect x="91.583" y="74.599" fill="#FFFFFF" stroke="#BD6B00" stroke-width="0.5" width="2.923" height="1.65"/>
			<path fill="#FFFFFF" stroke="#BD6B00" stroke-width="0.5" d="M91.944,68.938h2.355l0.467-0.785h-3.244L91.944,68.938
				L91.944,68.938z"/>
			<path fill="#FFFFFF" stroke="#BD6B00" stroke-width="0.5" d="M95.118,66.045l0.022-2.064h1.622
				C96.126,64.512,95.533,65.155,95.118,66.045z"/>
			<path fill="none" stroke="#BD6B00" stroke-width="0.5" d="M92.098,66.892c0.016,0.442,0.511,0.245,0.511,0.022
				c0-0.681,0.009-1.418-0.018-1.9c-0.003-0.355,0.839-0.266,0.834-0.048c0.003,0.575,0.01,1.364,0.013,2.037
				c-0.006,0.328,0.544,0.299,0.536,0c-0.004-0.752-0.004-1.844,0-2.398c0.005-0.713-1.852-0.697-1.867-0.016
				C92.108,65.15,92.098,66.151,92.098,66.892L92.098,66.892z"/>
			<rect x="92.102" y="71.393" fill="none" stroke="#BD6B00" stroke-width="0.5" width="1.917" height="2.412"/>
			<rect x="93.327" y="72.393" fill="#FFFFFF" stroke="#BD6B00" stroke-width="0.5" width="0.676" height="0.396"/>
			<rect x="92.149" y="72.393" fill="#FFFFFF" stroke="#BD6B00" stroke-width="0.5" width="0.66" height="0.396"/>
			<rect x="92.809" y="71.424" fill="#FFFFFF" stroke="#BD6B00" stroke-width="0.5" width="0.519" height="0.983"/>
			<rect x="92.809" y="72.774" fill="#FFFFFF" stroke="#BD6B00" stroke-width="0.5" width="0.519" height="1.047"/>
			<path fill="#FFFFFF" stroke="#BD6B00" stroke-width="0.5" d="M82.143,47.25c0.12,1.893-0.462,2.932-1.454,2.774
				C80.415,48.974,81.038,48.269,82.143,47.25z"/>
			<path fill="#FFFFFF" stroke="#BD6B00" stroke-width="0.5" d="M79.965,51.445c-0.882-0.453-0.246-3.914,0.093-5.365
				C80.308,47.949,80.728,50.605,79.965,51.445z"/>
			<path fill="#FFFFFF" stroke="#BD6B00" stroke-width="0.5" d="M80.278,51.609c1.483,0.521,2.658-1.092,3.054-2.961
				C82.109,50.354,80.116,50.356,80.278,51.609z"/>
			<path fill="#FFFFFF" stroke="#BD6B00" stroke-width="0.5" d="M79.153,53.356c-1.16-0.31-0.461-3.981-0.251-5.45
				C79.158,49.423,79.958,52.854,79.153,53.356z"/>
			<path fill="#FFFFFF" stroke="#BD6B00" stroke-width="0.5" d="M79.551,53.241c0.065-1.266,1.315-0.9,2.177-1.576
				C81.587,52.297,81.057,53.419,79.551,53.241z"/>
			<path fill="#FFFFFF" stroke="#BD6B00" stroke-width="0.5" d="M78.13,54.937c-1.149-0.313-0.458-4.265-0.523-5.892
				C77.944,50.451,79.01,54.556,78.13,54.937z"/>
			<path fill="#FFFFFF" stroke="#BD6B00" stroke-width="0.5" d="M78.666,54.767c0.941,0.309,2.189-0.309,2.287-1.441
				C80.141,53.882,78.847,53.457,78.666,54.767z"/>
			<path fill="#FFFFFF" stroke="#BD6B00" stroke-width="0.5" d="M77.272,56.681c-1.099,0.088-0.607-3.277-0.607-6.411
				C77.069,53.2,78.169,55.882,77.272,56.681z"/>
			<path fill="#FFFFFF" stroke="#BD6B00" stroke-width="0.5" d="M77.652,56.529c0.743,0.376,2.073-0.225,2.452-1.492
				C78.763,55.626,77.866,55.05,77.652,56.529z"/>
			<path fill="#FFFFFF" stroke="#BD6B00" stroke-width="0.5" d="M86.281,49.004c-0.195,1.642-0.86,2.597-1.852,2.439
				C84.155,50.393,84.96,49.722,86.281,49.004z"/>
			<path fill="#FFFFFF" stroke="#BD6B00" stroke-width="0.5" d="M83.655,53.217c1.649,0.236,2.243-1.042,3.353-2.676
				C85.452,51.678,83.592,51.914,83.655,53.217L83.655,53.217z"/>
			<path fill="#FFFFFF" stroke="#BD6B00" stroke-width="0.5" d="M83.187,53.03c-0.899-1.089-0.03-2.457,0.657-3.623
				C83.696,51.141,84.281,52.106,83.187,53.03z"/>
			<path fill="#FFFFFF" stroke="#BD6B00" stroke-width="0.5" d="M82.79,54.829c-0.102-1.065,1.696-1.302,2.509-1.895
				C85.025,53.55,84.611,55.207,82.79,54.829z"/>
			<path fill="#FFFFFF" stroke="#BD6B00" stroke-width="0.5" d="M82.413,54.852c-1.243-0.142-0.727-2.273,0.164-3.458
				C82.201,53.029,83.233,54.165,82.413,54.852z"/>
			<path fill="#FFFFFF" stroke="#BD6B00" stroke-width="0.5" d="M81.477,56.627c-1.414-0.632-0.508-2.423,0.024-3.481
				C81.273,54.535,82.407,55.593,81.477,56.627z"/>
			<path fill="#FFFFFF" stroke="#BD6B00" stroke-width="0.5" d="M81.756,56.46c0.742,0.979,2.189-0.292,2.486-1.776
				C82.983,55.742,82.053,55.568,81.756,56.46z"/>
			<path fill="#FFFFFF" stroke="#BD6B00" stroke-width="0.5" d="M78.524,63.349c-0.146-1.458,0.94-4.109,0.17-5.521
				c-0.105-0.194,0.23-0.71,0.447-0.397c0.339,0.499,0.687,1.922,0.833,1.397c0.155-0.571,0.178-1.581,0.679-1.778
				c0.32-0.115,0.771-0.19,0.648,0.318c-0.122,0.488-0.397,1.162-0.093,1.206c0.176,0.026,0.684-0.665,1.111-0.984
				c0.345-0.285,0.858,0.161,0.355,0.587C81.037,59.549,79.452,60.166,78.524,63.349L78.524,63.349z"/>
			<path fill="#FFFFFF" stroke="#BD6B00" stroke-width="0.5" d="M75.585,85.289c-0.192-0.037-0.455-0.103-0.216,0.199
				c1.912,2.379,2.465,3.034,5.253,2.699c2.816-0.374,3.487-1.143,5.459-2.261c1.053-0.624,2.593-0.762,3.761-0.376
				c0.543,0.18,0.872,0.191,0.483-0.203c-0.39-0.393-0.85-0.929-1.329-1.297c-1.05-0.814-2.83-1.167-4.283-0.905
				c-2.055,0.325-3.753,1.647-5.783,2.146C77.863,85.537,76.693,85.499,75.585,85.289L75.585,85.289z"/>
			<path fill="#FFFFFF" stroke="#BD6B00" stroke-width="0.5" d="M91.674,89.539c0.355,0.045,0.581,0.74,0.756,0.27
				c0.297-0.762,0.089-1.369-0.244-1.302C91.792,88.613,91.126,89.504,91.674,89.539L91.674,89.539z"/>
			<path fill="#FFFFFF" d="M74.269,62.193c-0.409-0.431-0.291-0.596,0.314-0.603c0.48-0.031,1.43,0.297,1.791,0.032
				c0.331-0.243,0.199-1.271,0.346-1.745c0.064-0.264,0.248-0.68,0.659-0.032c1.219,1.974,2.743,4.343,3.394,6.664
				c0.356,1.301,0.021,3.332-1.163,4.697c0.042-1.164-0.388-1.946-0.911-2.92C78.052,67.006,75.65,63.542,74.269,62.193
				L74.269,62.193z"/>
			<path fill="#FFFFFF" stroke="#BD6B00" stroke-width="0.5" d="M79.295,72.569c1.341,0.007,1.572-1.809,1.572-2.316
				C80.206,70.38,79.044,71.491,79.295,72.569z"/>
			<path fill="#FFFFFF" stroke="#BD6B00" stroke-width="0.5" d="M90.883,90.188c0.953,0.219,0.94-2.1-0.034-3.084
				C91.278,88.595,90.133,89.957,90.883,90.188z"/>
			<path fill="#FFFFFF" stroke="#BD6B00" stroke-width="0.5" d="M90.513,90.168c0.063,1.103-2.679-0.144-3.384-1.002
				C88.749,89.862,90.433,89.286,90.513,90.168z"/>
			<path fill="#FFFFFF" stroke="#BD6B00" stroke-width="0.5" d="M89.311,88.594c0.098,1.068-2.378,0.129-3.11-0.705
				C87.827,88.419,89.203,87.715,89.311,88.594z"/>
			<path fill="#FFFFFF" stroke="#BD6B00" stroke-width="0.5" d="M89.765,88.743c0.953,0.219,0.799-2.18-0.128-3.004
				C90.082,87.34,89.015,88.512,89.765,88.743z"/>
			<path fill="#FFFFFF" stroke="#BD6B00" stroke-width="0.5" d="M88.762,87.285c0.954,0.219,0.406-1.847-0.301-2.672
				C88.576,86.12,88.106,87.164,88.762,87.285z"/>
			<path fill="#FFFFFF" stroke="#BD6B00" stroke-width="0.5" d="M88.257,87.278c0.098,1.1-1.828,0.255-2.576-0.785
				C87.292,87.024,88.149,86.399,88.257,87.278z"/>
			<path fill="#FFFFFF" stroke="#BD6B00" stroke-width="0.5" d="M87.732,86.442c0.625-0.454-0.038-1.653-1.227-1.579
				C86.621,85.587,87.032,86.861,87.732,86.442z"/>
			<path fill="#FFFFFF" stroke="#BD6B00" stroke-width="0.5" d="M92.428,91.416c0.063,1.103-2.68,0.554-3.542-0.621
				C90.617,91.125,92.348,90.534,92.428,91.416z"/>
			<path fill="#FFFFFF" stroke="#BD6B00" stroke-width="0.5" d="M81.534,89.444c0.098,1.1-2.896-0.11-3.644-1.15
				C79.5,88.824,81.426,88.565,81.534,89.444z"/>
			<path fill="#FFFFFF" stroke="#BD6B00" stroke-width="0.5" d="M83.369,89.913c0.625-0.454-0.651-1.622-1.667-1.897
				C81.818,88.741,82.669,90.333,83.369,89.913z"/>
			<path fill="#FFFFFF" stroke="#BD6B00" stroke-width="0.5" d="M83.561,90.674c0.067,0.989-3.211,0.447-4.068-0.467
				C82.313,90.722,83.468,89.828,83.561,90.674z"/>
			<path fill="#FFFFFF" stroke="#BD6B00" stroke-width="0.5" d="M85.096,91.334c0.364,0.919-2.782,0.694-3.887,0.16
				C82.994,91.479,84.846,90.694,85.096,91.334z"/>
			<path fill="#FFFFFF" stroke="#BD6B00" stroke-width="0.5" d="M86.567,92.004c0.348,0.823-2.562,0.805-3.981,0.351
				C84.465,92.339,86.222,91.19,86.567,92.004z"/>
			<path fill="#FFFFFF" stroke="#BD6B00" stroke-width="0.5" d="M88.685,92.446c0.516,0.974-2.555,1.068-3.551,0.589
				C86.909,92.789,88.245,91.679,88.685,92.446z"/>
			<path fill="#FFFFFF" stroke="#BD6B00" stroke-width="0.5" d="M85.089,90.78c-0.976,0.622-0.924-1.212-1.701-2.482
				C84.609,89.421,85.751,90.187,85.089,90.78z"/>
			<path fill="#FFFFFF" stroke="#BD6B00" stroke-width="0.5" d="M86.82,91.439c-0.819,0.733-1.474-1.784-2.22-3.195
				C85.805,89.588,87.575,90.831,86.82,91.439z"/>
			<path fill="#FFFFFF" stroke="#BD6B00" stroke-width="0.5" d="M89.109,92.14c-0.694,0.812-2.7-2.386-3.429-4.052
				C86.79,89.385,89.661,91.452,89.109,92.14z"/>
			<path fill="#FFFFFF" stroke="#BD6B00" stroke-width="0.5" d="M87.156,94.581c-0.346,1.235-5.451-1.164-6.021-2.407
				C84.056,93.738,87.226,93.411,87.156,94.581z"/>
			<path fill="#FFFFFF" stroke="#BD6B00" stroke-width="0.5" d="M70.75,69.489c-0.119-0.156-0.462,0.004-0.377,0.381
				c0.08,0.51,0.825,3.129,2.105,4.03c0.913,0.665,5.712,1.735,7.887,2.189c1.197,0.243,2.2,0.846,2.985,1.809
				c-0.325-1.259-0.586-2.191-1.005-3.332c-0.408-1.003-1.488-2.099-2.608-2.158c-2.079-0.076-4.77-0.254-6.724-1.111
				C72.004,70.872,71.4,70.297,70.75,69.489L70.75,69.489z"/>
			<path fill="#FFFFFF" stroke="#BD6B00" stroke-width="0.5" d="M82.665,79.856c0.655,0.487,1.379-1.259,0.546-2.92
				C83.185,78.534,81.927,79.071,82.665,79.856z"/>
			<path fill="#FFFFFF" stroke="#BD6B00" stroke-width="0.5" d="M83.295,81.457c0.906,0.281,1.19-1.339,0.593-2.634
				C83.987,80.215,82.463,81.053,83.295,81.457z"/>
			<path fill="#FFFFFF" stroke="#BD6B00" stroke-width="0.5" d="M83.985,82.742c0.876,0.44,1.207-1.196,0.578-2.411
				C84.631,81.882,83.31,82.338,83.985,82.742z"/>
			<path fill="#FFFFFF" stroke="#BD6B00" stroke-width="0.5" d="M83.624,82.841c-0.347,1.047-2.359-0.903-2.698-1.964
				C82.175,82.131,83.875,81.992,83.624,82.841z"/>
			<path fill="#FFFFFF" stroke="#BD6B00" stroke-width="0.5" d="M82.712,81.239c-0.394,1.047-2.924-1.649-3.484-2.947
				C80.477,79.545,82.994,80.502,82.712,81.239z"/>
			<path fill="#FFFFFF" stroke="#BD6B00" stroke-width="0.5" d="M82.21,79.669c-0.394,1.19-3.144-1.982-3.923-3.106
				C79.599,77.8,82.508,78.804,82.21,79.669z"/>
			<path fill="#FFFFFF" stroke="#BD6B00" stroke-width="0.5" d="M82.123,78.492c0.969-0.19-0.055-1.005-1.242-2.328
				C80.825,77.558,81.052,78.532,82.123,78.492z"/>
			<path fill="#FFFFFF" stroke="#BD6B00" stroke-width="0.5" d="M80.49,77.7c0.418-0.46-0.401-0.655-1.415-1.805
				C78.926,76.67,80.016,78.089,80.49,77.7z"/>
			<path fill="#FFFFFF" stroke="#BD6B00" stroke-width="0.5" d="M85.177,82.868c0.53,0.313,0.893-0.784,0.232-1.777
				C85.258,82.166,84.691,82.464,85.177,82.868z"/>
			<path fill="#FFFFFF" stroke="#BD6B00" stroke-width="0.5" d="M73.666,75.949c-1.125,0.682-2.913-2.037-3.389-3.156
				C71.264,74.077,73.878,75.25,73.666,75.949z"/>
			<path fill="#FFFFFF" stroke="#BD6B00" stroke-width="0.5" d="M74.622,77.534c-0.623,0.697-2.583-1.196-3.264-2.156
				C72.409,76.296,74.897,76.406,74.622,77.534z"/>
			<path fill="#FFFFFF" stroke="#BD6B00" stroke-width="0.5" d="M75.689,78.955c-0.205,0.952-3.065-1.189-3.734-2.202
				C73.188,77.927,75.877,77.821,75.689,78.955z"/>
			<path fill="#FFFFFF" stroke="#BD6B00" stroke-width="0.5" d="M75.252,79.985c-0.441,0.857-2.768-1.267-3.326-2.375
				C73.347,78.862,75.612,79.137,75.252,79.985z"/>
			<path fill="#FFFFFF" stroke="#BD6B00" stroke-width="0.5" d="M74.056,75.81c0.734-0.782,0.422-1.148-0.114-2.38
				C73.65,74.695,73.209,75.2,74.056,75.81z"/>
			<path fill="#FFFFFF" stroke="#BD6B00" stroke-width="0.5" d="M75.029,77.286c1.332,0.059,0.013-1.577-0.302-2.951
				C74.843,75.9,74.386,77.135,75.029,77.286z"/>
			<path fill="#FFFFFF" stroke="#BD6B00" stroke-width="0.5" d="M75.878,78.584c0.923-0.211,0.657-1.529-0.051-3.126
				C75.974,77.183,75.046,78.18,75.878,78.584z"/>
			<path fill="#FFFFFF" stroke="#BD6B00" stroke-width="0.5" d="M75.565,81.192c-0.347,1.048-2.972-1.379-3.389-2.297
				C73.503,80.021,75.799,80.407,75.565,81.192z"/>
			<path fill="#FFFFFF" stroke="#BD6B00" stroke-width="0.5" d="M77.137,82.827c-0.394,1.048-3.144-1.076-3.986-2.233
				C74.808,81.911,77.34,81.789,77.137,82.827z"/>
			<path fill="#FFFFFF" stroke="#BD6B00" stroke-width="0.5" d="M78.74,84.476c-0.441,1.46-3.317-0.871-4.174-2.011
				C76.395,83.877,78.974,83.437,78.74,84.476z"/>
			<path fill="#FFFFFF" stroke="#BD6B00" stroke-width="0.5" d="M76.036,80.726c0.781,0.408,1.097-1.83,0.656-3.411
				C76.698,79.04,75.125,80.322,76.036,80.726z"/>
			<path fill="#FFFFFF" stroke="#BD6B00" stroke-width="0.5" d="M77.369,82.504c0.939,0.282,0.641-2.132-0.161-3.697
				C77.105,80.358,76.412,81.831,77.369,82.504z"/>
			<path fill="#FFFFFF" stroke="#BD6B00" stroke-width="0.5" d="M79.036,84.171c1.048,0.059,0.327-2.069-0.538-3.268
				C78.645,82.468,78.157,83.989,79.036,84.171z"/>
			<path fill="#FFFFFF" stroke="#BD6B00" stroke-width="0.5" d="M77.198,85.078c-0.315,0.539-1.086-0.458-2.352-1.186
				C75.984,84.193,77.338,84.578,77.198,85.078z"/>
			<path fill="#FFFFFF" stroke="#BD6B00" stroke-width="0.5" d="M76.598,67.146c0.978-0.731,0.232-2.099,0-3.399
				C76.283,64.981,75.454,66.6,76.598,67.146z"/>
			<path fill="#FFFFFF" stroke="#BD6B00" stroke-width="0.5" d="M76.565,68.969c-1.47-0.178-1.249-2.098-1.293-3.315
				C75.714,67.306,76.918,67.585,76.565,68.969z"/>
			<path fill="#FFFFFF" stroke="#BD6B00" stroke-width="0.5" d="M76.797,68.721c1.244-0.073,1.178-1.502,1.244-2.947
				C77.411,67.102,76.664,67.309,76.797,68.721z"/>
			<path fill="#FFFFFF" stroke="#BD6B00" stroke-width="0.5" d="M76.747,70.496c-0.967,0.078-1.47-0.882-1.691-2.378
				C75.973,69.496,76.807,69.066,76.747,70.496z"/>
			<path fill="#FFFFFF" stroke="#BD6B00" stroke-width="0.5" d="M77.093,70.377c1.243,0.161,1.045-1.301,0.995-2.378
				C77.707,69.026,76.696,69.349,77.093,70.377z"/>
			<path fill="#FFFFFF" stroke="#BD6B00" stroke-width="0.5" d="M75.154,69.758c0.099,0.955,0.697,2.595,1.658,2.227
				C77.21,70.813,75.966,70.578,75.154,69.758z"/>
			<path fill="#FFFFFF" stroke="#BD6B00" stroke-width="0.5" d="M77.11,72.087c-0.431-0.837,0.978-1.256,1.276-2.344
				C78.558,71.3,78.414,72.321,77.11,72.087z"/>
			<path fill="#FFFFFF" stroke="#BD6B00" stroke-width="0.5" d="M73.1,62.166c0.774-0.842,0.09-2.178-0.142-3.479
				C72.644,59.921,72.098,61.555,73.1,62.166z"/>
			<path fill="#FFFFFF" stroke="#BD6B00" stroke-width="0.5" d="M73.077,63.733c-1.36,0.139-1.689-2.654-1.827-3.855
				C71.692,61.53,73.258,62.285,73.077,63.733z"/>
			<path fill="#FFFFFF" stroke="#BD6B00" stroke-width="0.5" d="M73.356,63.706c0.961-0.501,0.738-1.581,1.04-2.392
				C73.75,62.309,73.161,62.452,73.356,63.706z"/>
			<path fill="#FFFFFF" stroke="#BD6B00" stroke-width="0.5" d="M73.087,65.535c-1.423,0.123-2.27-2.971-2.314-4.188
				C71.215,62.999,73.253,63.897,73.087,65.535z"/>
			<path fill="#FFFFFF" stroke="#BD6B00" stroke-width="0.5" d="M73.359,65.487c1.338-0.311,1.178-1.184,0.977-2.598
				C73.91,64.313,73.164,64.011,73.359,65.487z"/>
			<path fill="#FFFFFF" stroke="#BD6B00" stroke-width="0.5" d="M73.07,67.32c-1.564,0.268-1.455-2.231-2.696-4.044
				C71.448,64.623,73.382,66.319,73.07,67.32z"/>
			<path fill="#FFFFFF" stroke="#BD6B00" stroke-width="0.5" d="M73.424,67.235c1.181,0.035,1.296-1.761,1.231-2.489
				C74.383,65.471,72.995,66.16,73.424,67.235z"/>
			<path fill="#FFFFFF" stroke="#BD6B00" stroke-width="0.5" d="M70.626,65.396c0.587,1.922,1.419,3.849,2.444,3.703
				C73.561,68.005,72.098,67.866,70.626,65.396z"/>
			<path fill="#FFFFFF" stroke="#BD6B00" stroke-width="0.5" d="M73.44,68.816c-0.431-0.837,0.978-1.256,1.277-2.345
				C74.888,68.029,74.745,69.051,73.44,68.816z"/>
			<path fill="#FFFFFF" stroke="#BD6B00" stroke-width="0.5" d="M71.03,67.592c0.837,1.732,1.215,3.722,2.365,3.433
				C73.824,69.678,72.125,69.396,71.03,67.592z"/>
			<path fill="#FFFFFF" stroke="#BD6B00" stroke-width="0.5" d="M73.632,70.696c-0.494-0.916,0.915-1.24,1.261-2.503
				C75.08,69.845,74.905,71.025,73.632,70.696z"/>
			<path fill="#FFFFFF" stroke="#BD6B00" stroke-width="0.5" d="M76.043,58.973c0.825,0.225,1.691-0.71,1.391-2.111
				C76.49,57.099,76.058,57.964,76.043,58.973z"/>
			<path fill="#FFFFFF" stroke="#BD6B00" stroke-width="0.5" d="M73.403,58.273c0.072,0.394,0.547,0.43,0.409-0.127
				c-0.115-0.452-0.135-0.791,0-1.158c0.185-0.46,0.123-1.244-0.015-1.571c-0.14-0.345-0.604-0.143-0.409,0.127
				c0.215,0.313,0.226,0.965,0.078,1.269C73.272,57.262,73.325,57.858,73.403,58.273z"/>
			<path fill="#FFFFFF" stroke="#BD6B00" stroke-width="0.5" d="M81.103,63.685c-0.319,0.474-0.97,0.184-0.474-0.467
				c0.406-0.526,0.986-0.957,1.028-1.501c0.034-0.69,0.435-1.736,0.799-2.089c0.376-0.376,0.811,0.153,0.409,0.404
				c-0.452,0.297-0.746,1.515-0.736,1.984C82.114,62.697,81.442,63.189,81.103,63.685L81.103,63.685z"/>
			<path fill="#FFFFFF" stroke="#BD6B00" stroke-width="0.5" d="M80.1,62.924c-0.319,0.474-0.827,0.199-0.539-0.562
				c0.243-0.527,0.269-1.179,0.54-1.564c0.379-0.584,1.02-1.07,1.384-1.423c0.376-0.376,0.689-0.014,0.344,0.309
				c-0.419,0.423-0.874,0.95-1.126,1.35C80.232,61.809,80.439,62.427,80.1,62.924L80.1,62.924z"/>
			<path fill="#FFFFFF" stroke="#BD6B00" stroke-width="0.5" d="M74.8,60.472c-0.038,0.669,0.495,0.831,0.471-0.139
				c-0.024-1.013-0.734-1.939-0.299-3.48c0.229-0.754,0.233-2.136,0.094-2.87c-0.122-0.728-0.635-0.253-0.44,0.315
				c0.215,0.658-0.04,1.919-0.204,2.553C73.931,58.699,74.829,59.599,74.8,60.472L74.8,60.472z"/>
			<path fill="#FFFFFF" stroke="#BD6B00" stroke-width="0.5" d="M76.255,56.773c-0.078,0.615-0.594,0.671-0.444-0.198
				c0.125-0.705,0.146-1.236,0-1.809c-0.201-0.719-0.134-1.943,0.017-2.453c0.152-0.539,0.656-0.223,0.444,0.199
				c-0.233,0.489-0.246,1.507-0.085,1.982C76.398,55.195,76.34,56.126,76.255,56.773L76.255,56.773z"/>
			<path fill="#FFFFFF" stroke="#BD6B00" stroke-width="0.5" d="M71.016,69.36c0.255,0.307,0.685,0.101,0.294-0.314
				c-0.321-0.335-0.215-0.441-0.411-0.85c-0.193-0.456-0.183-0.708-0.417-1.035c-0.206-0.31-0.517,0.006-0.309,0.267
				c0.261,0.308,0.189,0.535,0.349,0.833C70.817,68.771,70.745,69.039,71.016,69.36L71.016,69.36z"/>
			<path fill="#FFFFFF" stroke="#BD6B00" stroke-width="0.5" d="M77.884,77.727c0.821,0.408,1.445,1.427,1.486,2.256
				c0.069,0.955,0.206,1.761,0.631,2.44c-0.676-0.19-1-1.278-1.096-2.32C78.807,79.024,78.232,78.557,77.884,77.727L77.884,77.727z"
				/>
			<path fill="#FFFFFF" stroke="#BD6B00" stroke-width="0.5" d="M79.595,79.727c0.568,1.059,1.363,1.464,1.404,2.25
				c0.069,0.904,0.137,0.951,0.38,1.84c-0.669-0.18-0.837-0.239-1.018-1.593C80.249,81.273,79.494,80.602,79.595,79.727
				L79.595,79.727z"/>
			<path fill="#FFFFFF" d="M97.286,89.529c0.319,0.608,0.686,1.534,1.351,1.364C98.648,90.428,97.92,90.105,97.286,89.529z"/>
			<path fill="#FFFFFF" d="M98.276,89.736c1.291,0.535,2.406,0.402,2.545,1.222C99.61,91.09,99.167,90.588,98.276,89.736z"/>
			<path fill="#FFFFFF" d="M92.869,85.422c0.87,0.719,1.434,1.541,1.697,2.602c0.274,0.989,0.66,1.777,1.226,2.666
				c-0.922-0.635-1.502-1.498-1.791-2.539C93.746,87.128,93.446,86.363,92.869,85.422L92.869,85.422z"/>
			<path fill="#FFFFFF" d="M93.94,85.418c0.932,0.751,1.811,1.604,2.074,2.666c0.274,0.989,0.44,1.745,1.069,2.729
				c-0.984-0.635-1.375-1.594-1.665-2.635C95.163,87.156,94.579,86.392,93.94,85.418L93.94,85.418z"/>
			<path fill="#FFFFFF" d="M97.017,87.88c-0.026-0.186,0.1-0.348,0.251-0.396c0.295-0.112,0.588-0.202,0.88-0.286
				c0.332-0.08,0.517,0.16,0.519,0.317c0.002,0.262,0.013,0.484,0,0.682c-0.018,0.247-0.065,0.266-0.22,0.302
				c-0.249,0.042-0.567,0.085-0.817,0.254c-0.198,0.123-0.388,0.026-0.487-0.19C97.079,88.398,97.044,88.075,97.017,87.88z"/>
			<path fill="#FFFFFF" d="M100.596,87.88c0.023-0.186-0.074-0.364-0.209-0.412c-0.263-0.112-0.525-0.139-0.801-0.127
				c-0.307-0.005-0.384,0.065-0.385,0.222c-0.001,0.262-0.012,0.515,0,0.714c0.016,0.247,0.011,0.265,0.15,0.301
				c0.222,0.043,0.601,0.054,0.824,0.222c0.177,0.122,0.378,0.025,0.388-0.206C100.557,88.42,100.572,88.075,100.596,87.88
				L100.596,87.88z"/>
		</g>
		<g transform="scale(-1,1)">
			<g id="c_1_">
				<path fill="#FFFFFF" stroke="#BD6B00" stroke-width="0.5" d="M115.369,63.42c0.415-0.674,0.913,0.935,2.622,2.132
					c0.796,0.547,1.35,2.004,1.355,2.962c0.026,0.658-0.072,1.315,0,1.952c0.046,0.403,0.462,1.298,0.177,1.526
					c-0.752,0.564-1.726,1.847-2.177,2.289c-0.39,0.345-0.729-1.784-1.022-2.738c-0.314-1.021-0.173-2.242-1.045-3.186
					c-0.617-0.637-2.175-1.265-2-1.548L115.369,63.42L115.369,63.42z"/>
				<path fill="#BF0000" stroke="#BD6B00" stroke-width="0.5" d="M115.456,68.639c0.13-0.301,0.323-0.613,0.558-0.882
					c0.235-0.269,0.513-0.495,0.821-0.606c0.297-0.11,0.599-0.256,0.81-0.521c0.106-0.132,0.197-0.3,0.242-0.499
					c0.042-0.185,0.041-0.412,0.011-0.669c0.037,0.027,0.057,0.058,0.095,0.085c0.796,0.547,1.352,2.006,1.357,2.964
					c0.01,0.265,0.01,0.523,0,0.786c-0.059,0.165-0.116,0.325-0.2,0.425c-0.11,0.13-0.24,0.216-0.379,0.276
					c-0.277,0.12-0.597,0.144-0.894,0.255c-0.307,0.111-0.623,0.36-0.894,0.659c-0.258,0.285-0.457,0.612-0.589,0.903
					c-0.022-0.083-0.052-0.206-0.074-0.276C116.035,70.614,116.084,69.538,115.456,68.639L115.456,68.639z"/>
				<path fill="none" stroke="#BD6B00" stroke-width="0.5" d="M117.894,65.413c0.163,1.141-0.466,1.521-1.06,1.742
					c-0.614,0.22-1.119,0.886-1.378,1.488"/>
				<path fill="none" stroke="#BD6B00" stroke-width="0.5" d="M119.415,69.169c-0.259,0.984-0.942,0.861-1.535,1.082
					c-0.614,0.22-1.261,1.005-1.52,1.608"/>
				<path fill="#FFFFFF" stroke="#BD6B00" stroke-width="0.5" d="M115.944,62.723l-0.311-0.202l-5.976,10.165l0.311,0.202
					L115.944,62.723L115.944,62.723z"/>
				<path fill="#FFFFFF" stroke="#BD6B00" stroke-width="0.5" d="M115.301,62.319c0,0.384,0.308,0.696,0.689,0.696
					c0.38,0,0.689-0.311,0.689-0.696l0,0c0-0.384-0.308-0.696-0.689-0.696C115.61,61.623,115.301,61.934,115.301,62.319z"/>
				<rect x="107.769" y="54.152" fill="#FFFFFF" stroke="#BD6B00" stroke-width="0.5" width="2.422" height="0.561"/>
				<rect x="107.769" y="55.216" fill="#FFFFFF" stroke="#BD6B00" stroke-width="0.5" width="2.422" height="4.687"/>
				<path fill="#FFFFFF" stroke="#BD6B00" stroke-width="0.5" d="M110.339,53.513l-2.686,0.016c-0.105-0.92,0.804-1.914,1.335-1.904
					C109.512,51.65,110.36,52.63,110.339,53.513L110.339,53.513z"/>
				<path fill="#BD6B00" d="M103.485,52.959c0.512,0.217,0.905,0.808,1.147,1.487c0.242,0.679,0.334,1.451,0.221,2.072v0.011
					c-0.043,0.214-0.102,0.368-0.168,0.478c-0.067,0.11-0.142,0.175-0.231,0.191c-0.089,0.017-0.173-0.032-0.221-0.106
					c-0.048-0.075-0.072-0.173-0.063-0.287c0.048-0.639,0.045-1.269-0.105-1.838c-0.151-0.569-0.451-1.076-1-1.487
					c-0.099-0.074-0.156-0.158-0.168-0.244c-0.012-0.087,0.034-0.161,0.095-0.213C103.112,52.919,103.305,52.883,103.485,52.959
					L103.485,52.959z M103.432,53.107c-0.125-0.052-0.284-0.022-0.347,0.032c-0.032,0.027-0.036,0.045-0.032,0.074
					c0.004,0.029,0.026,0.08,0.105,0.138c0.577,0.432,0.894,0.976,1.052,1.572c0.158,0.596,0.154,1.245,0.105,1.891
					c-0.007,0.088,0.018,0.155,0.042,0.191c0.023,0.037,0.036,0.048,0.063,0.042c0.027-0.005,0.083-0.04,0.137-0.127
					c0.053-0.087,0.107-0.223,0.147-0.425c0.106-0.583,0.012-1.342-0.221-1.998C104.251,53.844,103.877,53.296,103.432,53.107
					L103.432,53.107z"/>
				<path fill="#BD6B00" d="M102.619,53.628c0.512,0.217,0.842,0.779,1.021,1.424c0.179,0.644,0.206,1.382,0.095,1.998
					c-0.087,0.436-0.315,0.667-0.537,0.701c-0.111,0.017-0.218-0.027-0.284-0.117c-0.066-0.09-0.087-0.21-0.053-0.361
					c0.125-0.509,0.174-1.145,0.084-1.721c-0.089-0.577-0.317-1.092-0.747-1.403c-0.1-0.073-0.156-0.157-0.168-0.244
					c-0.012-0.087,0.034-0.172,0.095-0.223C102.247,53.579,102.44,53.553,102.619,53.628L102.619,53.628z M102.556,53.777
					c-0.125-0.052-0.273-0.022-0.337,0.032c-0.032,0.027-0.046,0.045-0.042,0.074c0.004,0.029,0.036,0.08,0.116,0.138
					c0.475,0.343,0.717,0.906,0.81,1.509c0.093,0.603,0.035,1.246-0.095,1.774c-0.028,0.12,0,0.201,0.032,0.244
					c0.032,0.043,0.072,0.063,0.137,0.053c0.129-0.02,0.331-0.189,0.41-0.584c0.107-0.589,0.077-1.315-0.095-1.934
					C103.321,54.465,103.002,53.966,102.556,53.777L102.556,53.777z"/>
				<rect x="107.62" y="63.713" fill="#FFFFFF" stroke="#BD6B00" stroke-width="0.5" width="2.702" height="3.776"/>
				<rect x="107.556" y="69.649" fill="#FFFFFF" stroke="#BD6B00" stroke-width="0.5" width="2.608" height="0.794"/>
				<rect x="107.557" y="71.043" fill="#FFFFFF" stroke="#BD6B00" stroke-width="0.5" width="2.671" height="2.951"/>
				<rect x="107.494" y="74.599" fill="#FFFFFF" stroke="#BD6B00" stroke-width="0.5" width="2.922" height="1.65"/>
				<path fill="#FFFFFF" stroke="#BD6B00" stroke-width="0.5" d="M110.056,68.938h-2.355l-0.467-0.785h3.244L110.056,68.938
					L110.056,68.938z"/>
				<path fill="#FFFFFF" stroke="#BD6B00" stroke-width="0.5" d="M106.881,66.045l-0.022-2.064h-1.622
					C105.874,64.512,106.467,65.155,106.881,66.045z"/>
				<path fill="none" stroke="#BD6B00" stroke-width="0.5" d="M109.901,66.892c-0.016,0.442-0.511,0.245-0.511,0.022
					c0-0.681-0.009-1.418,0.018-1.9c0.004-0.355-0.838-0.266-0.834-0.048c-0.003,0.575-0.01,1.364-0.013,2.037
					c0.006,0.328-0.544,0.299-0.536,0c0.003-0.752,0.004-1.844,0-2.398c-0.005-0.713,1.852-0.697,1.866-0.016
					C109.891,65.15,109.902,66.151,109.901,66.892L109.901,66.892z"/>
				<rect x="107.981" y="71.393" fill="none" stroke="#BD6B00" stroke-width="0.5" width="1.917" height="2.412"/>
				<rect x="107.997" y="72.393" fill="#FFFFFF" stroke="#BD6B00" stroke-width="0.5" width="0.675" height="0.396"/>
				<rect x="109.191" y="72.393" fill="#FFFFFF" stroke="#BD6B00" stroke-width="0.5" width="0.66" height="0.396"/>
				<rect x="108.672" y="71.424" fill="#FFFFFF" stroke="#BD6B00" stroke-width="0.5" width="0.518" height="0.983"/>
				<rect x="108.672" y="72.774" fill="#FFFFFF" stroke="#BD6B00" stroke-width="0.5" width="0.518" height="1.047"/>
				<path fill="#FFFFFF" stroke="#BD6B00" stroke-width="0.5" d="M119.857,47.25c-0.12,1.893,0.462,2.932,1.454,2.774
					C121.584,48.974,120.962,48.269,119.857,47.25z"/>
				<path fill="#FFFFFF" stroke="#BD6B00" stroke-width="0.5" d="M122.035,51.445c0.882-0.453,0.246-3.914-0.093-5.365
					C121.691,47.949,121.272,50.605,122.035,51.445z"/>
				<path fill="#FFFFFF" stroke="#BD6B00" stroke-width="0.5" d="M121.722,51.609c-1.483,0.521-2.658-1.092-3.055-2.961
					C119.891,50.354,121.884,50.356,121.722,51.609z"/>
				<path fill="#FFFFFF" stroke="#BD6B00" stroke-width="0.5" d="M122.846,53.356c1.16-0.31,0.461-3.981,0.251-5.45
					C122.842,49.423,122.042,52.854,122.846,53.356z"/>
				<path fill="#FFFFFF" stroke="#BD6B00" stroke-width="0.5" d="M122.449,53.241c-0.065-1.266-1.315-0.9-2.177-1.576
					C120.412,52.297,120.943,53.419,122.449,53.241z"/>
				<path fill="#FFFFFF" stroke="#BD6B00" stroke-width="0.5" d="M123.87,54.937c1.149-0.313,0.458-4.265,0.524-5.892
					C124.056,50.451,122.989,54.556,123.87,54.937z"/>
				<path fill="#FFFFFF" stroke="#BD6B00" stroke-width="0.5" d="M123.334,54.767c-0.942,0.309-2.189-0.309-2.287-1.441
					C121.858,53.882,123.153,53.457,123.334,54.767z"/>
				<path fill="#FFFFFF" stroke="#BD6B00" stroke-width="0.5" d="M124.728,56.681c1.099,0.088,0.607-3.277,0.607-6.411
					C124.931,53.2,123.831,55.882,124.728,56.681z"/>
				<path fill="#FFFFFF" stroke="#BD6B00" stroke-width="0.5" d="M124.348,56.529c-0.742,0.376-2.073-0.225-2.452-1.492
					C123.237,55.626,124.134,55.05,124.348,56.529z"/>
				<path fill="#FFFFFF" stroke="#BD6B00" stroke-width="0.5" d="M115.719,49.004c0.195,1.642,0.86,2.597,1.852,2.439
					C117.845,50.393,117.04,49.722,115.719,49.004z"/>
				<path fill="#FFFFFF" stroke="#BD6B00" stroke-width="0.5" d="M118.345,53.217c-1.649,0.236-2.243-1.042-3.353-2.676
					C116.548,51.678,118.408,51.914,118.345,53.217L118.345,53.217z"/>
				<path fill="#FFFFFF" stroke="#BD6B00" stroke-width="0.5" d="M118.813,53.03c0.899-1.089,0.03-2.457-0.657-3.623
					C118.304,51.141,117.719,52.106,118.813,53.03z"/>
				<path fill="#FFFFFF" stroke="#BD6B00" stroke-width="0.5" d="M119.21,54.829c0.101-1.065-1.696-1.302-2.509-1.895
					C116.975,53.55,117.389,55.207,119.21,54.829z"/>
				<path fill="#FFFFFF" stroke="#BD6B00" stroke-width="0.5" d="M119.587,54.852c1.243-0.142,0.727-2.273-0.164-3.458
					C119.798,53.029,118.767,54.165,119.587,54.852z"/>
				<path fill="#FFFFFF" stroke="#BD6B00" stroke-width="0.5" d="M120.523,56.627c1.415-0.632,0.508-2.423-0.024-3.481
					C120.726,54.535,119.593,55.593,120.523,56.627z"/>
				<path fill="#FFFFFF" stroke="#BD6B00" stroke-width="0.5" d="M120.244,56.46c-0.742,0.979-2.189-0.292-2.486-1.776
					C119.017,55.742,119.946,55.568,120.244,56.46z"/>
				<path fill="#FFFFFF" stroke="#BD6B00" stroke-width="0.5" d="M123.476,63.349c0.145-1.458-0.94-4.109-0.17-5.521
					c0.105-0.194-0.23-0.71-0.447-0.397c-0.339,0.499-0.687,1.922-0.833,1.397c-0.154-0.571-0.178-1.581-0.679-1.778
					c-0.319-0.115-0.771-0.19-0.648,0.318c0.123,0.488,0.397,1.162,0.093,1.206c-0.176,0.026-0.684-0.665-1.111-0.984
					c-0.345-0.285-0.858,0.161-0.355,0.587C120.963,59.549,122.548,60.166,123.476,63.349L123.476,63.349z"/>
				<path fill="#FFFFFF" stroke="#BD6B00" stroke-width="0.5" d="M126.415,85.289c0.192-0.037,0.455-0.103,0.216,0.199
					c-1.912,2.379-2.465,3.034-5.253,2.699c-2.816-0.374-3.487-1.143-5.459-2.261c-1.053-0.624-2.593-0.762-3.761-0.376
					c-0.543,0.18-0.872,0.191-0.483-0.203c0.39-0.393,0.85-0.929,1.329-1.297c1.05-0.814,2.83-1.167,4.283-0.905
					c2.055,0.325,3.753,1.647,5.783,2.146C124.137,85.537,125.307,85.499,126.415,85.289L126.415,85.289z"/>
				<path fill="#FFFFFF" stroke="#BD6B00" stroke-width="0.5" d="M110.325,89.539c-0.355,0.045-0.581,0.74-0.756,0.27
					c-0.297-0.762-0.089-1.369,0.245-1.302C110.208,88.613,110.874,89.504,110.325,89.539L110.325,89.539z"/>
				<path fill="#FFFFFF" d="M127.731,62.193c0.409-0.431,0.291-0.596-0.314-0.603c-0.48-0.031-1.431,0.297-1.792,0.032
					c-0.33-0.243-0.199-1.271-0.346-1.745c-0.064-0.264-0.247-0.68-0.66-0.032c-1.219,1.974-2.743,4.343-3.394,6.664
					c-0.356,1.301-0.021,3.332,1.163,4.697c-0.042-1.164,0.388-1.946,0.911-2.92C123.948,67.006,126.35,63.542,127.731,62.193
					L127.731,62.193z"/>
				<path fill="#FFFFFF" stroke="#BD6B00" stroke-width="0.5" d="M122.705,72.569c-1.341,0.007-1.572-1.809-1.572-2.316
					C121.793,70.38,122.956,71.491,122.705,72.569z"/>
				<path fill="#FFFFFF" stroke="#BD6B00" stroke-width="0.5" d="M111.117,90.188c-0.954,0.219-0.941-2.1,0.034-3.084
					C110.721,88.595,111.867,89.957,111.117,90.188z"/>
				<path fill="#FFFFFF" stroke="#BD6B00" stroke-width="0.5" d="M111.487,90.168c-0.063,1.103,2.68-0.144,3.384-1.002
					C113.251,89.862,111.567,89.286,111.487,90.168z"/>
				<path fill="#FFFFFF" stroke="#BD6B00" stroke-width="0.5" d="M112.689,88.594c-0.098,1.068,2.378,0.129,3.11-0.705
					C114.173,88.419,112.797,87.715,112.689,88.594z"/>
				<path fill="#FFFFFF" stroke="#BD6B00" stroke-width="0.5" d="M112.234,88.743c-0.953,0.219-0.799-2.18,0.128-3.004
					C111.917,87.34,112.985,88.512,112.234,88.743z"/>
				<path fill="#FFFFFF" stroke="#BD6B00" stroke-width="0.5" d="M113.238,87.285c-0.954,0.219-0.406-1.847,0.301-2.672
					C113.423,86.12,113.893,87.164,113.238,87.285z"/>
				<path fill="#FFFFFF" stroke="#BD6B00" stroke-width="0.5" d="M113.743,87.278c-0.098,1.1,1.828,0.255,2.576-0.785
					C114.708,87.024,113.851,86.399,113.743,87.278z"/>
				<path fill="#FFFFFF" stroke="#BD6B00" stroke-width="0.5" d="M114.268,86.442c-0.625-0.454,0.038-1.653,1.227-1.579
					C115.379,85.587,114.968,86.861,114.268,86.442z"/>
				<path fill="#FFFFFF" stroke="#BD6B00" stroke-width="0.5" d="M109.572,91.416c-0.063,1.103,2.679,0.554,3.541-0.621
					C111.383,91.125,109.651,90.534,109.572,91.416z"/>
				<path fill="#FFFFFF" stroke="#BD6B00" stroke-width="0.5" d="M120.466,89.444c-0.098,1.1,2.896-0.11,3.644-1.15
					C122.499,88.824,120.574,88.565,120.466,89.444z"/>
				<path fill="#FFFFFF" stroke="#BD6B00" stroke-width="0.5" d="M118.631,89.913c-0.625-0.454,0.651-1.622,1.667-1.897
					C120.181,88.741,119.331,90.333,118.631,89.913z"/>
				<path fill="#FFFFFF" stroke="#BD6B00" stroke-width="0.5" d="M118.439,90.674c-0.067,0.989,3.211,0.447,4.068-0.467
					C119.687,90.722,118.531,89.828,118.439,90.674z"/>
				<path fill="#FFFFFF" stroke="#BD6B00" stroke-width="0.5" d="M116.904,91.334c-0.364,0.919,2.782,0.694,3.887,0.16
					C119.006,91.479,117.154,90.694,116.904,91.334z"/>
				<path fill="#FFFFFF" stroke="#BD6B00" stroke-width="0.5" d="M115.433,92.004c-0.348,0.823,2.562,0.805,3.981,0.351
					C117.534,92.339,115.777,91.19,115.433,92.004z"/>
				<path fill="#FFFFFF" stroke="#BD6B00" stroke-width="0.5" d="M113.315,92.446c-0.515,0.974,2.555,1.068,3.551,0.589
					C115.091,92.789,113.755,91.679,113.315,92.446z"/>
				<path fill="#FFFFFF" stroke="#BD6B00" stroke-width="0.5" d="M116.911,90.78c0.976,0.622,0.924-1.212,1.701-2.482
					C117.391,89.421,116.249,90.187,116.911,90.78z"/>
				<path fill="#FFFFFF" stroke="#BD6B00" stroke-width="0.5" d="M115.18,91.439c0.819,0.733,1.474-1.784,2.22-3.195
					C116.195,89.588,114.424,90.831,115.18,91.439z"/>
				<path fill="#FFFFFF" stroke="#BD6B00" stroke-width="0.5" d="M112.891,92.14c0.694,0.812,2.7-2.386,3.43-4.052
					C115.21,89.385,112.339,91.452,112.891,92.14z"/>
				<path fill="#FFFFFF" stroke="#BD6B00" stroke-width="0.5" d="M114.843,94.581c0.346,1.235,5.451-1.164,6.022-2.407
					C117.944,93.738,114.774,93.411,114.843,94.581z"/>
				<path fill="#FFFFFF" stroke="#BD6B00" stroke-width="0.5" d="M131.249,69.489c0.119-0.156,0.463,0.004,0.377,0.381
					c-0.08,0.51-0.825,3.129-2.105,4.03c-0.913,0.665-5.712,1.735-7.887,2.189c-1.197,0.243-2.2,0.846-2.985,1.809
					c0.325-1.259,0.586-2.191,1.005-3.332c0.408-1.003,1.489-2.099,2.608-2.158c2.079-0.076,4.77-0.254,6.724-1.111
					C129.996,70.872,130.6,70.297,131.249,69.489L131.249,69.489z"/>
				<path fill="#FFFFFF" stroke="#BD6B00" stroke-width="0.5" d="M119.335,79.856c-0.656,0.487-1.379-1.259-0.546-2.92
					C118.815,78.534,120.073,79.071,119.335,79.856z"/>
				<path fill="#FFFFFF" stroke="#BD6B00" stroke-width="0.5" d="M118.705,81.457c-0.907,0.281-1.19-1.339-0.593-2.634
					C118.012,80.215,119.537,81.053,118.705,81.457z"/>
				<path fill="#FFFFFF" stroke="#BD6B00" stroke-width="0.5" d="M118.015,82.742c-0.876,0.44-1.207-1.196-0.578-2.411
					C117.369,81.882,118.69,82.338,118.015,82.742z"/>
				<path fill="#FFFFFF" stroke="#BD6B00" stroke-width="0.5" d="M118.375,82.841c0.347,1.047,2.359-0.903,2.698-1.964
					C119.824,82.131,118.125,81.992,118.375,82.841z"/>
				<path fill="#FFFFFF" stroke="#BD6B00" stroke-width="0.5" d="M119.287,81.239c0.394,1.047,2.924-1.649,3.484-2.947
					C121.523,79.545,119.006,80.502,119.287,81.239z"/>
				<path fill="#FFFFFF" stroke="#BD6B00" stroke-width="0.5" d="M119.789,79.669c0.394,1.19,3.144-1.982,3.924-3.106
					C122.401,77.8,119.492,78.804,119.789,79.669z"/>
				<path fill="#FFFFFF" stroke="#BD6B00" stroke-width="0.5" d="M119.877,78.492c-0.968-0.19,0.055-1.005,1.242-2.328
					C121.174,77.558,120.948,78.532,119.877,78.492z"/>
				<path fill="#FFFFFF" stroke="#BD6B00" stroke-width="0.5" d="M121.51,77.7c-0.418-0.46,0.401-0.655,1.415-1.805
					C123.074,76.67,121.984,78.089,121.51,77.7z"/>
				<path fill="#FFFFFF" stroke="#BD6B00" stroke-width="0.5" d="M116.823,82.868c-0.53,0.313-0.893-0.784-0.232-1.777
					C116.742,82.166,117.309,82.464,116.823,82.868z"/>
				<path fill="#FFFFFF" stroke="#BD6B00" stroke-width="0.5" d="M128.334,75.949c1.125,0.682,2.913-2.037,3.39-3.156
					C130.736,74.077,128.121,75.25,128.334,75.949z"/>
				<path fill="#FFFFFF" stroke="#BD6B00" stroke-width="0.5" d="M127.378,77.534c0.623,0.697,2.583-1.196,3.264-2.156
					C129.591,76.296,127.102,76.406,127.378,77.534z"/>
				<path fill="#FFFFFF" stroke="#BD6B00" stroke-width="0.5" d="M126.31,78.955c0.205,0.952,3.066-1.189,3.734-2.202
					C128.812,77.927,126.123,77.821,126.31,78.955z"/>
				<path fill="#FFFFFF" stroke="#BD6B00" stroke-width="0.5" d="M126.748,79.985c0.441,0.857,2.768-1.267,3.326-2.375
					C128.653,78.862,126.388,79.137,126.748,79.985z"/>
				<path fill="#FFFFFF" stroke="#BD6B00" stroke-width="0.5" d="M127.943,75.81c-0.734-0.782-0.421-1.148,0.114-2.38
					C128.35,74.695,128.791,75.2,127.943,75.81z"/>
				<path fill="#FFFFFF" stroke="#BD6B00" stroke-width="0.5" d="M126.97,77.286c-1.331,0.059-0.013-1.577,0.302-2.951
					C127.156,75.9,127.613,77.135,126.97,77.286z"/>
				<path fill="#FFFFFF" stroke="#BD6B00" stroke-width="0.5" d="M126.122,78.584c-0.923-0.211-0.656-1.529,0.051-3.126
					C126.026,77.183,126.954,78.18,126.122,78.584z"/>
				<path fill="#FFFFFF" stroke="#BD6B00" stroke-width="0.5" d="M126.435,81.192c0.347,1.048,2.971-1.379,3.389-2.297
					C128.497,80.021,126.201,80.407,126.435,81.192z"/>
				<path fill="#FFFFFF" stroke="#BD6B00" stroke-width="0.5" d="M124.863,82.827c0.394,1.048,3.144-1.076,3.986-2.233
					C127.191,81.911,124.659,81.789,124.863,82.827z"/>
				<path fill="#FFFFFF" stroke="#BD6B00" stroke-width="0.5" d="M123.26,84.476c0.441,1.46,3.317-0.871,4.174-2.011
					C125.605,83.877,123.026,83.437,123.26,84.476z"/>
				<path fill="#FFFFFF" stroke="#BD6B00" stroke-width="0.5" d="M125.964,80.726c-0.781,0.408-1.097-1.83-0.656-3.411
					C125.302,79.04,126.874,80.322,125.964,80.726z"/>
				<path fill="#FFFFFF" stroke="#BD6B00" stroke-width="0.5" d="M124.63,82.504c-0.938,0.282-0.641-2.132,0.161-3.697
					C124.895,80.358,125.588,81.831,124.63,82.504z"/>
				<path fill="#FFFFFF" stroke="#BD6B00" stroke-width="0.5" d="M122.964,84.171c-1.048,0.059-0.327-2.069,0.538-3.268
					C123.354,82.468,123.843,83.989,122.964,84.171z"/>
				<path fill="#FFFFFF" stroke="#BD6B00" stroke-width="0.5" d="M124.802,85.078c0.315,0.539,1.086-0.458,2.352-1.186
					C126.016,84.193,124.662,84.578,124.802,85.078z"/>
				<path fill="#FFFFFF" stroke="#BD6B00" stroke-width="0.5" d="M125.401,67.146c-0.978-0.731-0.232-2.099,0-3.399
					C125.716,64.981,126.545,66.6,125.401,67.146z"/>
				<path fill="#FFFFFF" stroke="#BD6B00" stroke-width="0.5" d="M125.435,68.969c1.47-0.178,1.249-2.098,1.293-3.315
					C126.286,67.306,125.081,67.585,125.435,68.969z"/>
				<path fill="#FFFFFF" stroke="#BD6B00" stroke-width="0.5" d="M125.203,68.721c-1.244-0.073-1.178-1.502-1.244-2.947
					C124.589,67.102,125.335,67.309,125.203,68.721z"/>
				<path fill="#FFFFFF" stroke="#BD6B00" stroke-width="0.5" d="M125.253,70.496c0.967,0.078,1.47-0.882,1.691-2.378
					C126.027,69.496,125.193,69.066,125.253,70.496z"/>
				<path fill="#FFFFFF" stroke="#BD6B00" stroke-width="0.5" d="M124.907,70.377c-1.244,0.161-1.045-1.301-0.995-2.378
					C124.293,69.026,125.304,69.349,124.907,70.377z"/>
				<path fill="#FFFFFF" stroke="#BD6B00" stroke-width="0.5" d="M126.846,69.758c-0.099,0.955-0.697,2.595-1.658,2.227
					C124.79,70.813,126.033,70.578,126.846,69.758z"/>
				<path fill="#FFFFFF" stroke="#BD6B00" stroke-width="0.5" d="M124.89,72.087c0.431-0.837-0.978-1.256-1.277-2.344
					C123.442,71.3,123.585,72.321,124.89,72.087z"/>
				<path fill="#FFFFFF" stroke="#BD6B00" stroke-width="0.5" d="M128.899,62.166c-0.774-0.842-0.09-2.178,0.142-3.479
					C129.356,59.921,129.902,61.555,128.899,62.166z"/>
				<path fill="#FFFFFF" stroke="#BD6B00" stroke-width="0.5" d="M128.923,63.733c1.36,0.139,1.689-2.654,1.827-3.855
					C130.308,61.53,128.742,62.285,128.923,63.733z"/>
				<path fill="#FFFFFF" stroke="#BD6B00" stroke-width="0.5" d="M128.643,63.706c-0.961-0.501-0.737-1.581-1.04-2.392
					C128.25,62.309,128.839,62.452,128.643,63.706z"/>
				<path fill="#FFFFFF" stroke="#BD6B00" stroke-width="0.5" d="M128.913,65.535c1.423,0.123,2.27-2.971,2.314-4.188
					C130.785,62.999,128.747,63.897,128.913,65.535z"/>
				<path fill="#FFFFFF" stroke="#BD6B00" stroke-width="0.5" d="M128.64,65.487c-1.338-0.311-1.178-1.184-0.977-2.598
					C128.089,64.313,128.835,64.011,128.64,65.487z"/>
				<path fill="#FFFFFF" stroke="#BD6B00" stroke-width="0.5" d="M128.93,67.32c1.564,0.268,1.454-2.231,2.696-4.044
					C130.552,64.623,128.618,66.319,128.93,67.32z"/>
				<path fill="#FFFFFF" stroke="#BD6B00" stroke-width="0.5" d="M128.576,67.235c-1.181,0.035-1.296-1.761-1.231-2.489
					C127.617,65.471,129.005,66.16,128.576,67.235z"/>
				<path fill="#FFFFFF" stroke="#BD6B00" stroke-width="0.5" d="M131.374,65.396c-0.587,1.922-1.419,3.849-2.444,3.703
					C128.438,68.005,129.902,67.866,131.374,65.396z"/>
				<path fill="#FFFFFF" stroke="#BD6B00" stroke-width="0.5" d="M128.559,68.816c0.431-0.837-0.978-1.256-1.277-2.345
					C127.111,68.029,127.255,69.051,128.559,68.816z"/>
				<path fill="#FFFFFF" stroke="#BD6B00" stroke-width="0.5" d="M130.97,67.592c-0.837,1.732-1.215,3.722-2.365,3.433
					C128.176,69.678,129.875,69.396,130.97,67.592z"/>
				<path fill="#FFFFFF" stroke="#BD6B00" stroke-width="0.5" d="M128.367,70.696c0.494-0.916-0.915-1.24-1.261-2.503
					C126.92,69.845,127.095,71.025,128.367,70.696z"/>
				<path fill="#FFFFFF" stroke="#BD6B00" stroke-width="0.5" d="M125.957,58.973c-0.826,0.225-1.691-0.71-1.391-2.111
					C125.509,57.099,125.942,57.964,125.957,58.973z"/>
				<path fill="#FFFFFF" stroke="#BD6B00" stroke-width="0.5" d="M128.596,58.273c-0.072,0.394-0.547,0.43-0.409-0.127
					c0.115-0.452,0.135-0.791,0-1.158c-0.185-0.46-0.123-1.244,0.016-1.571c0.14-0.345,0.604-0.143,0.408,0.127
					c-0.215,0.313-0.226,0.965-0.078,1.269C128.728,57.262,128.675,57.858,128.596,58.273z"/>
				<path fill="#FFFFFF" stroke="#BD6B00" stroke-width="0.5" d="M120.897,63.685c0.319,0.474,0.97,0.184,0.474-0.467
					c-0.407-0.526-0.986-0.957-1.029-1.501c-0.034-0.69-0.435-1.736-0.799-2.089c-0.376-0.376-0.811,0.153-0.409,0.404
					c0.452,0.297,0.746,1.515,0.736,1.984C119.886,62.697,120.558,63.189,120.897,63.685L120.897,63.685z"/>
				<path fill="#FFFFFF" stroke="#BD6B00" stroke-width="0.5" d="M121.9,62.924c0.319,0.474,0.827,0.199,0.539-0.562
					c-0.243-0.527-0.269-1.179-0.54-1.564c-0.379-0.584-1.02-1.07-1.384-1.423c-0.376-0.376-0.688-0.014-0.344,0.309
					c0.419,0.423,0.874,0.95,1.126,1.35C121.768,61.809,121.561,62.427,121.9,62.924L121.9,62.924z"/>
				<path fill="#FFFFFF" stroke="#BD6B00" stroke-width="0.5" d="M127.199,60.472c0.038,0.669-0.495,0.831-0.471-0.139
					c0.024-1.013,0.733-1.939,0.298-3.48c-0.229-0.754-0.233-2.136-0.094-2.87c0.122-0.728,0.635-0.253,0.44,0.315
					c-0.215,0.658,0.04,1.919,0.204,2.553C128.069,58.699,127.17,59.599,127.199,60.472L127.199,60.472z"/>
				<path fill="#FFFFFF" stroke="#BD6B00" stroke-width="0.5" d="M125.745,56.773c0.078,0.615,0.594,0.671,0.444-0.198
					c-0.125-0.705-0.146-1.236,0-1.809c0.201-0.719,0.134-1.943-0.017-2.453c-0.152-0.539-0.656-0.223-0.444,0.199
					c0.233,0.489,0.246,1.507,0.085,1.982C125.602,55.195,125.659,56.126,125.745,56.773L125.745,56.773z"/>
				<path fill="#FFFFFF" stroke="#BD6B00" stroke-width="0.5" d="M130.983,69.36c-0.255,0.307-0.686,0.101-0.293-0.314
					c0.321-0.335,0.215-0.441,0.411-0.85c0.193-0.456,0.183-0.708,0.417-1.035c0.206-0.31,0.517,0.006,0.309,0.267
					c-0.261,0.308-0.189,0.535-0.349,0.833C131.183,68.771,131.254,69.039,130.983,69.36L130.983,69.36z"/>
				<path fill="#FFFFFF" stroke="#BD6B00" stroke-width="0.5" d="M124.115,77.727c-0.821,0.408-1.445,1.427-1.486,2.256
					c-0.069,0.955-0.206,1.761-0.631,2.44c0.676-0.19,1-1.278,1.096-2.32C123.192,79.024,123.768,78.557,124.115,77.727
					L124.115,77.727z"/>
				<path fill="#FFFFFF" stroke="#BD6B00" stroke-width="0.5" d="M122.405,79.727c-0.568,1.059-1.363,1.464-1.404,2.25
					c-0.069,0.904-0.137,0.951-0.38,1.84c0.669-0.18,0.837-0.239,1.018-1.593C121.751,81.273,122.505,80.602,122.405,79.727
					L122.405,79.727z"/>
				<path fill="#FFFFFF" d="M104.713,89.529c-0.319,0.608-0.686,1.534-1.351,1.364C103.352,90.428,104.08,90.105,104.713,89.529z"/>
				<path fill="#FFFFFF" d="M103.724,89.736c-1.291,0.535-2.406,0.402-2.545,1.222C102.39,91.09,102.833,90.588,103.724,89.736z"/>
				<path fill="#FFFFFF" d="M109.13,85.422c-0.87,0.719-1.434,1.541-1.697,2.602c-0.274,0.989-0.66,1.777-1.226,2.666
					c0.922-0.635,1.502-1.498,1.792-2.539C108.253,87.128,108.554,86.363,109.13,85.422L109.13,85.422z"/>
				<path fill="#FFFFFF" d="M108.06,85.418c-0.932,0.751-1.811,1.604-2.074,2.666c-0.274,0.989-0.44,1.745-1.069,2.729
					c0.985-0.635,1.376-1.594,1.666-2.635C106.837,87.156,107.421,86.392,108.06,85.418L108.06,85.418z"/>
				<path fill="#FFFFFF" d="M104.982,87.88c0.026-0.186-0.1-0.348-0.251-0.396c-0.295-0.112-0.588-0.202-0.879-0.286
					c-0.332-0.08-0.518,0.16-0.519,0.317c-0.002,0.262-0.013,0.484,0,0.682c0.018,0.247,0.065,0.266,0.22,0.302
					c0.249,0.042,0.567,0.085,0.817,0.254c0.198,0.123,0.388,0.026,0.487-0.19C104.921,88.398,104.955,88.075,104.982,87.88z"/>
				<path fill="#FFFFFF" d="M101.404,87.88c-0.023-0.186,0.074-0.364,0.209-0.412c0.263-0.112,0.525-0.139,0.802-0.127
					c0.307-0.005,0.384,0.065,0.385,0.222c0.001,0.262,0.012,0.515,0,0.714c-0.016,0.247-0.011,0.265-0.15,0.301
					c-0.222,0.043-0.601,0.054-0.824,0.222c-0.177,0.122-0.378,0.025-0.388-0.206C101.442,88.42,101.428,88.075,101.404,87.88
					L101.404,87.88z"/>
			</g>
		</g>
		<g>
			<path fill="#FFFFFF" d="M110.608,97.461c0.016,0.402,0.063,0.724,0.299,1.047c-1.372-0.555-3.309-0.258-4.635,0.365
				c-0.591,0.285-1.306-0.326-0.613-0.905C106.645,97.162,108.927,97.619,110.608,97.461L110.608,97.461z M91.249,97.44
				c0.019,0.379-0.024,0.725-0.162,1.056c1.492-0.624,3.093-0.106,4.6,0.508c1.036,0.433,1.119-0.316,0.937-0.575
				c-0.315-0.46-0.923-0.965-1.693-0.976C94.418,97.446,92.445,97.428,91.249,97.44L91.249,97.44z M92.508,90.081
				c-0.416-0.181-0.9-0.007-1.334,0.454c-1.456,1.442-3.166,2.846-4.546,3.939c-0.515,0.452-1.041,1.262,1.155,2.072
				c0.08,0.031,1.68,0.63,2.695,0.668c0.414-0.012,0.413,0.613,0.336,0.779c-0.175,0.333-0.048,0.46-0.402,0.78
				c-0.369,0.314,0.039,0.72,0.329,0.444c1.237-1.084,3.241-0.39,5.173,0.244c0.456,0.128,1.292,0.092,1.285-0.544
				c0.008-0.693,0.505-1.183,0.809-1.201c0.789,0.138,4.686,0.182,5.887,0.035c0.7-0.092,0.742,0.968,1.117,1.386
				c0.258,0.277,1.252,0.35,1.933,0.047c1.347-0.632,3.399-0.632,4.236-0.028c0.344,0.264,0.615,0.05,0.42-0.218
				c-0.252-0.367-0.246-0.538-0.371-0.827c-0.314-0.645-0.063-0.803,0.266-0.85c3.721-0.484,4.909-1.767,3.771-2.812
				c-1.469-1.301-3.105-2.61-4.514-4.147c-0.382-0.408-0.635-0.571-1.43-0.238c-2.431,1.118-5.517,1.934-8.537,1.993
				C97.976,92.08,94.112,90.768,92.508,90.081L92.508,90.081z"/>
			<path fill="#BD6B00" d="M109.962,90.284c-0.195,0.02-0.403,0.081-0.558,0.138c-3.003,1.065-5.762,1.812-8.637,1.806
				c-2.806-0.005-5.746-0.785-8.385-1.881c-0.15-0.065-0.323-0.055-0.494-0.011s-0.341,0.125-0.452,0.234
				c-1.226,1.233-2.553,2.43-3.977,3.517c-0.215,0.166-0.18,0.588,0.168,0.733h0.01c2.796,1.013,5.525,2.901,13.34,2.826
				c7.889-0.076,10.688-1.918,13.193-2.763c0.177-0.068,0.358-0.17,0.442-0.329c0.042-0.08,0.053-0.179,0.021-0.276
				c-0.032-0.098-0.096-0.189-0.21-0.287h-0.011c-1.422-1.174-2.945-2.11-3.945-3.538C110.355,90.291,110.158,90.264,109.962,90.284
				L109.962,90.284z M109.972,90.432c0.171-0.017,0.301,0.009,0.368,0.106c1.024,1.463,2.566,2.405,3.977,3.57
				c0.101,0.087,0.149,0.163,0.168,0.223c0.02,0.06,0.015,0.101-0.011,0.149c-0.051,0.097-0.199,0.194-0.358,0.255
				c-2.537,0.855-5.275,2.687-13.141,2.762c-7.782,0.074-10.468-1.803-13.288-2.826c-0.254-0.105-0.231-0.395-0.137-0.467
				c1.428-1.09,2.77-2.292,3.998-3.528c0.085-0.083,0.22-0.153,0.368-0.191c0.149-0.038,0.307-0.045,0.41,0
				c2.653,1.101,5.593,1.897,8.427,1.902c2.901,0.005,5.69-0.749,8.701-1.817C109.607,90.515,109.802,90.449,109.972,90.432
				L109.972,90.432z"/>
			<path fill="#FFFFFF" d="M90.802,38.95c-0.023-0.469,0.697-0.505,0.614,0.14c-0.106,0.803,1.501,2.836,1.634,4.09
				c0.089,0.841-0.489,1.577-1.062,2.035c-0.702,0.55-1.782,0.474-2.287,0.159c-0.306-0.248-0.585-1.099-0.356-1.436
				c0.081-0.113,0.447,1.249,1.253,1.244c1.097-0.007,1.985-0.839,2.018-1.581C92.673,42.307,90.822,40.264,90.802,38.95
				L90.802,38.95z"/>
			<path fill="#FFFFFF" d="M94.011,42.143c0.181-0.131,0.471,0.441,0.267,0.583C94.107,42.841,93.775,42.302,94.011,42.143z"/>
			<path fill="#FFFFFF" d="M94.499,40.984c-0.092,0.045-0.274-0.019-0.22-0.097c0.257-0.37,0.804-0.928,1.2-1.122
				c0.122-0.06,0.335,0.158,0.261,0.264C95.504,40.37,94.926,40.774,94.499,40.984L94.499,40.984z"/>
			<path fill="#FFFFFF" d="M98.737,37.587c0.102-0.215,0.713-0.457,0.869-0.602c0.144-0.149,0.213,0.126,0.151,0.256
				c-0.102,0.214-0.629,0.576-0.86,0.586C98.773,37.832,98.676,37.717,98.737,37.587L98.737,37.587z"/>
			<path fill="#FFFFFF" d="M100.189,37.655c0.132-0.377,0.559-0.947,0.853-1.135c0.151-0.096,0.421-0.02,0.371,0.124
				c-0.112,0.319-0.634,0.878-0.985,1.141C100.32,37.88,100.158,37.742,100.189,37.655z"/>
			<path fill="#FFFFFF" d="M98.946,38.597c-0.088,0.045-0.04,0.235,0.045,0.264c0.181,0.061,0.512,0.073,0.661-0.01
				c0.217-0.135,0.118-0.967-0.173-0.523C99.284,38.602,99.142,38.514,98.946,38.597L98.946,38.597z"/>
			<path fill="#FFFFFF" d="M96.492,40.508c-0.444-0.349,0.12-0.838,0.583-0.496c0.903,0.688-1.348,3.324-2.572,4.557
				c-0.224,0.241-0.421-0.367-0.133-0.628c0.878-0.752,1.7-1.651,2.272-2.579C96.751,41.182,96.856,40.797,96.492,40.508
				L96.492,40.508z"/>
			<path fill="#FFFFFF" d="M101.633,38.24c0.055-0.334-0.535,0.007-0.546-0.436c-0.006-0.234,0.645-0.399,0.917-0.129
				c0.459,0.471,0.116,1.264-0.648,1.314c-0.637,0.028-1.699,0.913-1.537,1.099c0.184,0.23,1.835,0.381,2.795,0.229
				c0.594-0.084,0.47,0.453-0.139,0.525c-0.588,0.068-1.068,0.005-1.618,0.179c-0.647,0.187-0.929,1.064-1.289,1.391
				c-0.08,0.057-0.296-0.288-0.214-0.417c0.259-0.409,0.672-1.035,1.126-1.214c0.287-0.117-0.791-0.154-1.135-0.254
				c-0.273-0.083-0.193-0.433-0.089-0.628c0.139-0.304,1.154-1.331,1.564-1.315C101.205,38.602,101.595,38.489,101.633,38.24
				L101.633,38.24z"/>
			<path fill="#FFFFFF" d="M103.343,38.328c0.191-0.17,0.289-0.455,0.489-0.628c0.11-0.111,0.285,0.022,0.256,0.29
				c-0.025,0.211-0.305,0.393-0.494,0.552C103.44,38.658,103.262,38.407,103.343,38.328z"/>
			<path fill="#FFFFFF" d="M105.521,37.546c0.284-0.032,0.355,0.523,0.044,0.612C105.377,38.222,105.212,37.579,105.521,37.546z"/>
			<path fill="#FFFFFF" d="M104.804,39.26c-0.005,0.477,0.229,0.433,0.674,0.417c0.432-0.016,0.812,0.011,0.81-0.42
				c-0.002-0.447-0.245-0.838-0.316-0.534c-0.062,0.286-0.112,0.753-0.277,0.55c-0.156-0.175-0.094-0.213-0.361,0.074
				c-0.148,0.158-0.165-0.077-0.254-0.224C105.019,39.035,104.805,39.193,104.804,39.26L104.804,39.26z"/>
			<path fill="#FFFFFF" d="M101.7,41.694c-0.106,0.632-0.009,1.516,0.311,1.526c0.396,0.013,1.215-1.381,1.602-2.104
				c0.232-0.403,0.632-0.474,0.465-0.053c-0.252,0.65-0.229,2.039-0.008,2.448c0.119,0.22,0.998-0.202,1.14-0.515
				c0.258-0.569,0.048-1.619,0.139-2.26c0.044-0.421,0.425-0.509,0.405-0.119c-0.038,0.698-0.104,1.977-0.055,2.558
				c0.029,0.334,0.974,0.827,1.127-0.184c0.08-0.637,0.404-1.264-0.016-1.97c-0.261-0.441,0.382-0.386,0.729,0.217
				c0.242,0.41-0.204,1.088-0.189,1.613c0.04,0.807-0.581,1.265-1.032,1.275c-0.403,0.008-0.665-0.492-0.996-0.499
				c-0.366-0.024-0.743,0.576-1.046,0.554c-1.174-0.081-0.552-1.813-0.91-1.835c-0.398-0.024-0.867,1.698-1.357,1.637
				c-0.483-0.059-0.983-1.403-0.782-1.972C101.411,41.482,101.754,41.358,101.7,41.694L101.7,41.694z"/>
			<path fill="#FFFFFF" d="M107.383,38.964c-0.573-0.353,0.036-1.27,0.316-0.948c0.541,0.654,1.086,2.206,1.466,2.334
				c0.241,0.081,0.23-1.147,0.4-1.705c0.11-0.413,0.604-0.278,0.509,0.251c-0.032,0.176-0.645,2.183-0.598,2.263
				c0.425,0.857,0.845,1.728,1.111,2.648c0.11,0.397-0.362,0.13-0.418,0.047c-0.301-0.455-0.828-2.194-0.828-2.114
				c-0.243,1.223-0.3,1.584-0.557,2.624c-0.078,0.333-0.564,0.272-0.454-0.314c0.105-0.482,0.8-2.853,0.76-2.922
				C108.544,40.153,108.045,39.383,107.383,38.964L107.383,38.964z"/>
			<path fill="#FFFFFF" d="M108.417,44.608c-0.159-0.018-0.407,0.359,0.388,0.507c1.063,0.194,2.226-0.167,2.582-1.219
				c0.408-1.253,0.678-2.44,0.891-2.888c0.266-0.522,0.607-0.48,0.355-1.241c-0.177-0.548-0.508-0.383-0.578-0.09
				c-0.186,0.799-0.891,3.384-1.111,3.86C110.529,44.405,109.693,44.749,108.417,44.608L108.417,44.608z"/>
			<path fill="#FFFFFF" d="M110.544,40.484c-0.114-0.247-0.379-0.056-0.332,0.214c0.028,0.244,0.224,0.376,0.42,0.37
				c0.233-0.008,0.726,0.008,0.727-0.383c0.001-0.274-0.213-0.504-0.371-0.201C110.837,40.758,110.642,40.729,110.544,40.484
				L110.544,40.484z"/>
			<path fill="#FFFFFF" d="M110.81,39.45c-0.082,0.057-0.009,0.362,0.089,0.359c0.347-0.012,0.839-0.123,1.102-0.309
				c0.077-0.054,0.045-0.239-0.065-0.235C111.602,39.277,111.07,39.268,110.81,39.45L110.81,39.45z"/>
			<path fill="#FFFFFF" d="M113.759,40.219c0.252-0.397,0.945-0.437,0.695,0.129c-0.177,0.39-1.903,3.759-2.138,4.187
				c-0.257,0.482-0.468,0.243-0.285-0.132C112.277,43.92,113.681,40.336,113.759,40.219z"/>
			<path fill="#FFFFFF" d="M111.16,45.234c-0.074-0.268-0.486-0.665-0.439,0.053c0.082,1.302,1.853,0.89,2.389,0.428
				c0.487-0.436,0.064,1.469,0.711,1.673c0.356,0.115,1.027-0.376,1.357-0.808c0.914-1.198,1.496-2.916,2.376-4.1
				c0.332-0.463-0.182-0.793-0.39-0.425c-0.765,1.295-1.715,3.939-2.753,4.625c-0.846,0.547-0.595-0.704-0.625-1.08
				c-0.037-0.276-0.37-0.681-0.813-0.309c-0.31,0.245-0.792,0.444-1.228,0.404C111.493,45.681,111.28,45.686,111.16,45.234
				L111.16,45.234z"/>
			<path fill="#FFFFFF" d="M114.322,42.816c0.009-0.074-0.374-0.107-0.355,0.269c0.013,0.278,0.343,0.354,0.4,0.314
				C114.885,43.019,114.256,43.209,114.322,42.816L114.322,42.816z"/>
			<path fill="#FFFFFF" d="M113.567,44.343c-0.102,0.024-0.196,0.353,0.045,0.372c0.22,0.016,1.082-0.078,1.32-0.064
				c0.154-0.006,0.213-0.303-0.117-0.287C114.414,44.384,113.888,44.283,113.567,44.343L113.567,44.343z"/>
			<path fill="#FFFFFF" d="M92.708,38.679c0.137,0.006,0.512,0.497,0.487,0.65c-0.017,0.072-0.401-0.011-0.518-0.111
				C92.59,39.144,92.624,38.674,92.708,38.679z M90.9,42.232c-0.343,0.189,0.054,0.561,0.311,0.404
				c0.963-0.63,2.409-1.291,2.711-2.539c0.097-0.422,0.486-1.07,0.855-1.215c0.357-0.14,0.875,0.652,1.213,0.029
				c0.198-0.356,0.893,0.234,1.061-0.147c0.204-0.46,0.107-0.714,0.115-1.154c-0.015-0.289-0.233-0.375-0.392,0.092
				c-0.083,0.212,0.014,0.425-0.053,0.536c-0.051,0.084-0.21,0.165-0.303,0.095c-0.085-0.065-0.026-0.245-0.23-0.325
				c-0.079-0.04-0.206-0.074-0.261,0.029c-0.243,0.437-0.377,0.844-0.716,0.38c-0.302-0.4-0.456-1.091-0.677-0.145
				c-0.08,0.334-0.582,0.818-0.878,0.818c-0.37,0-0.277-0.984-1.09-0.834c-0.418,0.09-0.389,0.897-0.326,1.196
				c0.103,0.415,1.324,0.117,1.263,0.388C93.293,40.783,91.998,41.678,90.9,42.232L90.9,42.232z"/>
			<path fill="#FFFFFF" d="M83.258,46.723c-0.052,0.158,0.156,0.586,0.371,0.617c0.211,0.016,0.319-0.462,0.251-0.617
				C83.829,46.609,83.294,46.611,83.258,46.723L83.258,46.723z"/>
			<path fill="#FFFFFF" d="M84.379,48.382c-0.135-0.147-0.535,0.248-0.212,0.528c0.181,0.148,0.846,0.364,1.028,0.05
				c0.246-0.403-0.243-1.866-0.026-2.059c0.169-0.151,0.952,0.977,1.338,1.059c0.908,0.127,0.69-1.57,1.669-1.455
				c0.667,0.09,0.74-0.752,0.647-1.277c-0.074-0.504-0.883-1.232-1.254-1.558c-0.489-0.411-0.707,0.303-0.4,0.539
				c0.395,0.319,1.089,0.965,1.2,1.391c0.052,0.201-0.483,0.602-0.68,0.494c-0.455-0.251-0.878-1.325-1.276-1.571
				c-0.135-0.084-0.469,0.105-0.308,0.441c0.18,0.359,0.978,0.916,1.025,1.299c0.042,0.35-0.356,1.106-0.616,1.106
				c-0.287,0-1.019-0.914-1.248-1.344c-0.114-0.206-0.51-0.186-0.551,0.098c-0.066,0.427,0.061,1.33,0.162,1.89
				C84.955,48.542,84.58,48.569,84.379,48.382L84.379,48.382z"/>
			<path fill="#FFFFFF" d="M83.008,45.468c-0.114,0.13,0.267,0.385,0.342,0.319c0.147-0.128,0.717-0.784,0.607-1.014
				c-0.098-0.205-0.881-0.652-1.009-0.431c-0.236,0.384,0.739,0.556,0.586,0.668C83.459,45.055,83.191,45.242,83.008,45.468z"/>
			<path fill="#FFFFFF" d="M84.412,42.592c0,0,0.245,0.846,0.445,0.494C85.018,42.841,84.412,42.592,84.412,42.592z"/>
			<path fill="#FFFFFF" d="M84.813,43.938c-0.09,0.049-0.342,0.252-0.178,0.359c0.26,0.155,0.968,0.278,0.815-0.23
				c-0.093-0.299,1.067,0.008,0.784-0.802c-0.074-0.224-0.424-0.548-0.596-0.594c-0.109-0.029-0.481,0.177-0.249,0.29
				c0.17,0.089,0.682,0.392,0.492,0.592c-0.216,0.208-0.366-0.093-0.635-0.045c-0.135,0.026-0.047,0.414-0.123,0.52
				C85.081,44.087,84.886,43.898,84.813,43.938L84.813,43.938z"/>
			<path fill="#FFFFFF" d="M86.658,40.722c-0.146,0.074-0.409,0.475-0.418,0.66c-0.005,0.099,0.102,0.235,0.186,0.193
				c0.154-0.077,0.391-0.457,0.4-0.631C86.831,40.833,86.749,40.676,86.658,40.722L86.658,40.722z"/>
			<path fill="#FFFFFF" d="M87.614,40.616c-0.282-0.349,0.3-0.867,0.563-0.169c0.158,0.438,1.847,2.683,2.193,3.445
				c0.245,0.515-0.009,0.728-0.311,0.359C89.203,43.149,88.501,41.775,87.614,40.616L87.614,40.616z"/>
			<path fill="#FFFFFF" d="M89.348,40.664c0.301-0.33,0.916-1.003,0.751-1.378c-0.127-0.323-0.501-0.291-0.565-0.216
				c-0.366,0.441,0.26,0.33,0.17,0.481c-0.186,0.353-0.372,0.547-0.468,0.887C89.213,40.516,89.294,40.723,89.348,40.664
				L89.348,40.664z"/>
			<path fill="#FFFFFF" d="M115.534,41.766c-0.217-0.177,0.213-1.035,0.503-0.698c0.797,0.932,1.167,3.956,1.398,6.22
				c0,0-0.358,0.302-0.361,0.254C117.074,46.335,116.594,42.646,115.534,41.766L115.534,41.766z"/>
			<path fill="#FFFFFF" d="M97.657,38.821c-0.258-0.599,0.387-0.82,0.484-0.393c0.448,1.966,1.521,3.455,2.337,4.792
				c0.246,0.418,0.049,0.667-0.549,0.282c-0.414-0.287-0.834-1.331-1.038-1.373c-0.369-0.069-1.25,1.698-3.054,1.193
				c-0.467-0.132-0.436-1.533-0.444-2.152c-0.02-0.29,0.298-0.367,0.308,0.029c0.016,0.571-0.001,1.756,0.722,1.796
				c0.589,0.033,1.894-0.808,2.169-1.466C98.838,40.854,97.935,39.51,97.657,38.821L97.657,38.821z"/>
			<path fill="#FFFFFF" d="M116.018,47.049c0.144-0.405,2.058-3.65,2.31-4.364c0.129-0.344,0.678,0.591,0.142,1.095
				c-0.471,0.428-1.862,2.732-2.122,3.539C116.229,47.683,115.867,47.51,116.018,47.049L116.018,47.049z"/>
			<path fill="#FFFFFF" d="M119.274,43.955c0.354-1.338,1.21,0.207,0.456,0.968c-1.164,1.152-1.515,3.35-3.362,3.681
				c-0.498,0.108-1.374-0.226-1.634-0.413c-0.101-0.073,0.066-0.55,0.377-0.317c0.45,0.355,1.38,0.435,1.87,0.032
				C118.03,46.866,118.885,45.487,119.274,43.955L119.274,43.955z"/>
			<path fill="#FFFFFF" d="M100.081,48.287c-0.083,0.097-0.338,0.081-0.361,0.216c-0.1,0.503,0,0.758-0.11,1.243
				c-0.105,0.464-0.424,0.481-0.402,0.103c0.029-0.49,0.429-1.182,0.146-1.23c-0.188-0.045-0.333-0.299-0.139-0.424
				c0.368-0.257,0.565-0.218,0.818-0.14C100.121,48.082,100.144,48.212,100.081,48.287L100.081,48.287z"/>
			<path fill="#FFFFFF" d="M99.822,47.631c-0.488,0.431-0.94,0.606-1.388,1.151c-0.183,0.223-0.178,0.534-0.288,0.818
				c-0.11,0.302-0.463,0.361-0.572,0.298c-0.183-0.122-0.156-0.681-0.361-0.38c-0.173,0.277-0.285,0.66-0.541,0.655
				c-0.232-0.005-0.669-0.483-0.447-0.506c0.758-0.078,0.749-0.691,1.033-0.731c0.319-0.043,0.339,0.506,0.536,0.396
				c0.155-0.08,0.228-0.72,0.395-0.892c0.514-0.53,0.921-0.811,1.445-1.201C99.899,47.024,100.088,47.409,99.822,47.631
				L99.822,47.631z"/>
			<path fill="#FFFFFF" d="M101.599,49.28c-0.39,0.08-0.324,0.586-0.209,0.649c0.189,0.089,0.481,0.126,0.591-0.456
				c0.051-0.239,0.097,1.189,0.616,0.639c0.299-0.334,1.039,0.06,1.35-0.359c0.222-0.279,0.29-0.474,0.117-0.887
				c-0.05-0.126-0.354-0.064-0.337,0.241c0.015,0.257-0.18,0.573-0.434,0.519c-0.124-0.023,0.069-0.628-0.055-0.792
				c-0.068-0.09-0.172-0.081-0.24,0.013c-0.095,0.131,0.096,0.711-0.218,0.787c-0.395,0.092-0.188-0.388-0.355-0.476
				C101.887,48.884,101.835,49.229,101.599,49.28L101.599,49.28z"/>
			<path fill="#FFFFFF" d="M104.646,48.307c0.286-0.081,0.197-0.082,0.647-0.454c0.176-0.134,0.21,0.258,0.192,0.413
				c-0.033,0.264-0.343,0.078-0.439,0.31c-0.141,0.301-0.083,1.002-0.131,1.288c-0.032,0.147-0.265,0.134-0.287,0.018
				c-0.067-0.348,0.047-0.689,0.036-1.124C104.66,48.611,104.45,48.379,104.646,48.307L104.646,48.307z"/>
			<path fill="#FFFFFF" d="M102.962,47.416c-0.069,0.315-0.064,0.575-0.064,0.791c0.016,0.175,0.332,0.062,0.33,0.04
				c-0.015-0.277,0.047-0.659-0.034-0.766C103.151,47.424,102.979,47.357,102.962,47.416z"/>
			<path fill="#FFFFFF" d="M100.845,44.265l-0.491,1.902l-0.683-1.275v1.307l-1.473-1.764l0.512,1.891l-1.324-1.137l0.705,1.286
				l-2.348-1.53l1.494,1.764l-1.879-0.935l1.345,1.147l-3.074-1.169l2.967,1.477c1.085-0.54,2.572-0.871,4.226-0.871
				c1.648,0,3.143,0.335,4.226,0.871c0.004,0.002,0.017-0.002,0.021,0l2.946-1.477l-3.031,1.179l1.323-1.158l-1.857,0.924
				l1.473-1.753l-2.348,1.53l0.705-1.285l-1.324,1.137l0.513-1.891l-1.473,1.774l0.021-1.318l-0.683,1.275L100.845,44.265
				L100.845,44.265z"/>
		</g>
	</g>
	<path fill="#FFFFFF" d="M98.246,85.554c0,0.202-0.03,0.493-0.09,0.873h-0.14c0-0.259-0.012-0.458-0.036-0.598
		c-0.022-0.139-0.067-0.305-0.135-0.498c-0.056-0.162-0.116-0.3-0.182-0.414c-0.066-0.116-0.172-0.268-0.318-0.46l0.279-0.696
		c0.129,0.167,0.221,0.295,0.275,0.384c0.062,0.103,0.119,0.233,0.173,0.389c0.056,0.156,0.098,0.319,0.128,0.491
		C98.231,85.198,98.246,85.374,98.246,85.554"/>
	<path fill="#FFFFFF" d="M100.434,84.208c0,0.212-0.04,0.371-0.119,0.477c-0.08,0.106-0.215,0.182-0.407,0.227
		c0.056,0.197,0.092,0.351,0.11,0.462c0.019,0.111,0.029,0.234,0.029,0.371c0,0.088-0.005,0.182-0.016,0.282
		c-0.009,0.1-0.026,0.235-0.052,0.405h-0.126c0-0.152-0.008-0.282-0.025-0.391c-0.015-0.111-0.038-0.214-0.07-0.312
		c-0.008-0.024-0.047-0.131-0.119-0.32c-0.07-0.191-0.141-0.349-0.212-0.475c-0.069-0.127-0.182-0.302-0.34-0.525l0.216-0.655
		c0.114,0.165,0.214,0.28,0.299,0.343c0.086,0.062,0.187,0.094,0.304,0.094c0.255,0,0.383-0.139,0.383-0.418h0.131
		c0,0.091,0.002,0.167,0.007,0.227C100.432,84.058,100.434,84.127,100.434,84.208"/>
	<path fill="#FFFFFF" d="M102.444,85.744l-0.162,0.682c-0.102-0.029-0.185-0.11-0.25-0.243c-0.054-0.111-0.093-0.251-0.117-0.42
		c-0.022-0.17-0.034-0.346-0.034-0.528c-0.137,0.037-0.245,0.055-0.325,0.055c-0.157,0-0.288-0.041-0.392-0.125
		c-0.102-0.085-0.153-0.192-0.153-0.32c0-0.277,0.071-0.527,0.212-0.748c0.143-0.223,0.303-0.334,0.482-0.334
		c0.138,0,0.234,0.039,0.288,0.118c0.06,0.086,0.097,0.185,0.11,0.296c0.013,0.111,0.02,0.324,0.02,0.641
		c0,0.284,0.023,0.484,0.068,0.6C102.228,85.508,102.312,85.617,102.444,85.744 M101.836,84.612
		c-0.027-0.173-0.117-0.259-0.27-0.259c-0.066,0-0.127,0.018-0.182,0.054c-0.056,0.037-0.083,0.068-0.083,0.096
		c0,0.091,0.108,0.136,0.324,0.136C101.694,84.639,101.764,84.63,101.836,84.612"/>
	<path fill="#FFFFFF" d="M104.572,85.574l-0.081,0.828c-0.161-0.114-0.309-0.319-0.446-0.616c-0.143-0.311-0.287-0.751-0.432-1.321
		c-0.125,0.549-0.227,0.951-0.308,1.207c-0.08,0.255-0.158,0.435-0.236,0.541c-0.053,0.071-0.137,0.143-0.252,0.216l0.018-0.792
		c0.149-0.205,0.253-0.361,0.313-0.468c0.089-0.159,0.161-0.345,0.219-0.557c0.059-0.214,0.111-0.499,0.157-0.857h0.149
		c0.091,0.359,0.18,0.645,0.266,0.857c0.08,0.2,0.173,0.377,0.279,0.53C104.291,85.25,104.41,85.394,104.572,85.574"/>
	<path fill="#BF0000" d="M110.756,93.381c0.109,0.129,0.186,0.256,0.23,0.381c0.043,0.123,0.074,0.299,0.093,0.528l-0.244,0.02
		c-0.104-0.206-0.205-0.367-0.304-0.483c-0.075-0.089-0.196-0.215-0.363-0.379c-0.167-0.164-0.338-0.323-0.513-0.478
		c-0.176-0.157-0.4-0.338-0.672-0.543c-0.095-0.072-0.156-0.123-0.182-0.154c-0.038-0.045-0.068-0.134-0.09-0.267
		c-0.023-0.134-0.038-0.301-0.044-0.5l0.853,0.7c0.322,0.268,0.588,0.504,0.799,0.709C110.482,93.073,110.627,93.228,110.756,93.381
		 M107.733,91.541l-0.051,0.633l-1.004-0.027l0.076-0.646L107.733,91.541 M110.373,94.375l-2.392,0.736l-0.44-0.614l2.068-0.636
		c-0.094-0.131-0.167-0.222-0.218-0.275c-0.08-0.08-0.171-0.143-0.274-0.189c-0.007,0.116-0.054,0.218-0.143,0.306
		c-0.088,0.088-0.203,0.153-0.343,0.197c-0.184,0.056-0.368,0.064-0.551,0.024c-0.183-0.041-0.318-0.122-0.405-0.242
		c-0.127-0.177-0.196-0.414-0.205-0.709c-0.01-0.324,0.077-0.515,0.263-0.572c0.241-0.074,0.567-0.007,0.978,0.203
		c0.411,0.21,0.727,0.468,0.947,0.776L110.373,94.375 M108.536,93.085c-0.113-0.051-0.203-0.084-0.271-0.096
		c-0.066-0.015-0.127-0.013-0.182,0.004c-0.069,0.021-0.116,0.06-0.142,0.118c-0.026,0.057-0.019,0.114,0.019,0.167
		c0.025,0.035,0.066,0.058,0.125,0.069c0.06,0.009,0.123,0.004,0.19-0.017c0.053-0.016,0.099-0.042,0.138-0.078
		C108.452,93.215,108.494,93.159,108.536,93.085 M105.974,92.591l-0.147,0.627l-0.995-0.092l0.151-0.633L105.974,92.591
		 M108.332,95.038l-0.531,0.123c-0.189,0.044-0.369,0.057-0.54,0.04c-0.171-0.017-0.33-0.071-0.479-0.162
		c-0.088,0.161-0.242,0.297-0.463,0.406c-0.146,0.073-0.317,0.131-0.511,0.177l-0.377,0.087l-0.345-0.64l0.377-0.087
		c0.199-0.046,0.334-0.085,0.406-0.115c0.074-0.033,0.166-0.089,0.277-0.167c-0.122-0.076-0.22-0.128-0.295-0.157
		c-0.091-0.034-0.171-0.043-0.24-0.027c-0.026,0.006-0.048,0.018-0.065,0.037c-0.015,0.016-0.029,0.043-0.04,0.083l-0.165,0.023
		c-0.153-0.284-0.188-0.503-0.105-0.659c0.085-0.157,0.289-0.273,0.612-0.348c0.333-0.077,0.617-0.094,0.853-0.052
		c0.237,0.04,0.396,0.135,0.476,0.284c0.043,0.08,0.06,0.162,0.049,0.248c-0.012,0.084-0.053,0.205-0.124,0.362
		c0.05,0.022,0.108,0.035,0.175,0.039c0.067,0.004,0.126,0,0.179-0.013l0.531-0.123L108.332,95.038 M105.792,95.634l-0.518,0.082
		c-0.289,0.046-0.526,0.001-0.711-0.134c-0.206-0.149-0.384-0.426-0.534-0.832l-0.255-0.691c-0.058-0.157-0.136-0.274-0.235-0.35
		c-0.048-0.037-0.144-0.086-0.289-0.147l0.176-0.67c0.191,0.107,0.338,0.219,0.441,0.336c0.121,0.137,0.223,0.319,0.307,0.547
		l0.176,0.478c0.125,0.338,0.246,0.567,0.363,0.687c0.093,0.097,0.199,0.135,0.317,0.117l0.518-0.082L105.792,95.634
		 M103.578,93.232l-0.334,0.595l-0.947-0.221l0.337-0.6L103.578,93.232 M104.128,95.925l-2.361,0.216l-0.143-0.673l1.984-0.181
		c-0.052-0.11-0.122-0.2-0.211-0.27c-0.047-0.039-0.151-0.106-0.311-0.199l0.176-0.616c0.219,0.123,0.378,0.258,0.478,0.405
		c0.103,0.147,0.187,0.371,0.251,0.672L104.128,95.925 M102.233,96.231c-0.284-0.01-0.519-0.031-0.704-0.064
		c-0.186-0.033-0.368-0.081-0.545-0.145c-0.152,0.063-0.288,0.104-0.406,0.121c-0.116,0.018-0.289,0.023-0.519,0.015l-0.62-0.021
		c-0.17-0.006-0.302-0.039-0.396-0.101c-0.094-0.062-0.176-0.161-0.244-0.298c-0.15,0.135-0.314,0.229-0.491,0.284
		c-0.151,0.046-0.329,0.066-0.535,0.059l-0.544-0.018l0.053-0.678l0.544,0.019c0.266,0.009,0.492-0.033,0.677-0.125
		c0.241-0.12,0.371-0.311,0.392-0.572l0.249,0.034c-0.009,0.053-0.019,0.114-0.029,0.182c-0.011,0.068-0.019,0.143-0.025,0.226
		c-0.007,0.085,0.032,0.157,0.116,0.216c0.084,0.059,0.183,0.091,0.298,0.095l0.468,0.016c0.309,0.011,0.532-0.01,0.668-0.062
		c0.165-0.063,0.255-0.187,0.269-0.373c0.003-0.04,0.025-0.075,0.065-0.105c0.024-0.018,0.073-0.044,0.147-0.077l0.15-0.07
		c0.003,0.032,0.003,0.075,0.001,0.13c-0.002,0.053-0.003,0.088-0.004,0.105c-0.007,0.092-0.037,0.212-0.089,0.362
		c0.091,0.033,0.195,0.062,0.31,0.088c0.115,0.026,0.236,0.046,0.365,0.062c0.004-0.056-0.022-0.131-0.078-0.222
		c-0.057-0.092-0.083-0.153-0.081-0.185c0.003-0.043,0.015-0.076,0.035-0.099c0.006-0.008,0.036-0.033,0.09-0.074l0.346-0.276
		c0.06,0.107,0.101,0.204,0.122,0.292c0.024,0.086,0.031,0.193,0.021,0.32L102.233,96.231 M98.65,93.446l-0.596,0.426l-0.45-0.28
		l-0.443,0.333l-0.591-0.361l0.565-0.406l0.477,0.27l0.461-0.341L98.65,93.446 M97.712,96.041l-2.311-0.382l0.254-0.658l1.942,0.321
		c0.015-0.114,0.002-0.215-0.04-0.302c-0.021-0.048-0.079-0.135-0.175-0.261l0.517-0.527c0.132,0.167,0.202,0.332,0.21,0.493
		c0.011,0.161-0.04,0.39-0.154,0.685L97.712,96.041 M95.766,95.737l-0.5-0.121c-0.278-0.068-0.437-0.192-0.476-0.371
		c-0.044-0.199,0.044-0.494,0.266-0.886l0.377-0.667c0.086-0.151,0.12-0.277,0.103-0.377c-0.008-0.048-0.046-0.124-0.115-0.228
		l0.716-0.491c0.067,0.158,0.094,0.305,0.08,0.44c-0.016,0.157-0.086,0.346-0.211,0.566l-0.261,0.461
		c-0.185,0.326-0.279,0.56-0.284,0.703c-0.005,0.114,0.05,0.185,0.164,0.213l0.5,0.121L95.766,95.737 M94.583,93.211l-0.811,0.346
		l-0.557-0.548l0.818-0.349L94.583,93.211 M94.238,95.327c-0.169,0.201-0.334,0.352-0.497,0.453
		c-0.162,0.099-0.343,0.161-0.543,0.186c-0.198,0.026-0.449,0.014-0.753-0.035c-0.303-0.046-0.594-0.12-0.875-0.221
		c-0.54-0.195-0.903-0.41-1.088-0.645c-0.184-0.233-0.176-0.468,0.023-0.706c0.17-0.203,0.372-0.371,0.606-0.505
		c0.257-0.148,0.659-0.317,1.206-0.505l0.123,0.164c-0.427,0.167-0.721,0.294-0.883,0.38c-0.16,0.086-0.289,0.189-0.388,0.307
		c-0.129,0.153-0.109,0.323,0.059,0.511c0.171,0.187,0.46,0.354,0.867,0.5c0.4,0.144,0.78,0.215,1.138,0.213
		c0.358-0.002,0.598-0.076,0.72-0.222c0.076-0.09,0.126-0.189,0.152-0.295c0.028-0.106,0.045-0.285,0.051-0.537l0.789-0.485
		c0,0.241-0.011,0.403-0.034,0.486c-0.039,0.151-0.141,0.324-0.305,0.519L94.238,95.327"/>
</g>
</svg>
