<?xml version="1.0" encoding="utf-8"?>
<!-- Generator: Adobe Illustrator 26.0.3, SVG Export Plug-In . SVG Version: 6.00 Build 0)  -->
<svg version="1.0" id="katman_1" xmlns="http://www.w3.org/2000/svg" xmlns:xlink="http://www.w3.org/1999/xlink" x="0px" y="0px"
	 viewBox="0 0 600 450" style="enable-background:new 0 0 600 450;" xml:space="preserve">
<style type="text/css">
	.st0{fill:#114522;}
	.st1{fill:#88AE3D;}
	.st2{fill:#E8E224;}
	.st3{fill:#E5C54B;}
	.st4{fill:#FFFFFF;}
	.st5{fill:#FFFFFF;stroke:#114522;stroke-width:1.5637;stroke-miterlimit:10;}
	.st6{fill:#0F4622;}
</style>
<g>
	<path class="st0" d="M206.5,94.8c-2.6,43.9-0.9,86.9,25.8,141.3c24.5,48.5,63.3,70.6,63.3,70.6S348,278,373.8,201.8
		c25.8-76.2,20.1-140.4,20.1-140.4s-39.5-13.3-103.7,1.7C238.2,75.6,206.5,94.8,206.5,94.8z"/>
	<path class="st1" d="M213.9,97.3c0,0-6.6,66.7,18.8,118.2c25.3,56.6,62.5,74.7,62.5,74.7s40-19,67-81.5s23.6-143,23.6-143
		s-41.7-11.8-100.2,3.5C236.6,81.9,213.9,97.3,213.9,97.3z"/>
	<path class="st2" d="M286.7,181.9l99.2-62.6h-2.3l-115.1,56.5l94.7-115.3l-2.2,1.1L257.3,165.9l31.1-98.9l-1.7,0.1l-43.1,93.3
		l-3.8-78.5l-3.9,4l-6.9,74.4l-18.9-44.9l3.1,48.4l6.2,20.6l22.1,11.8L286.7,181.9z"/>
	<path class="st3" d="M249.3,195.2l125.5-13.8L363,213.5l-107.3-1.9L249.3,195.2z"/>
	<path class="st4" d="M279.4,200.6l-18.5-2.9l25.8-15.7l-29.8,8l19.3-23.3l-24.1,16.3l8.6-28l-16.3,23.6l-1.2-30l-7.1,28l-11.6-28
		l2.8,30l-14-14.7l19.8,58.4L279.4,200.6z"/>
	<path class="st5" d="M296.8,72.1l3.8,13l12.5-5.1L305.3,91l11.8,6.6l-13.5,0.8l2.2,13.3l-9-10.1l-9,10.1l2.2-13.3l-13.5-0.8
		l11.8-6.6l-7.8-11.1l12.5,5.1L296.8,72.1z M241.9,114l3.8,13l12.5-5.1l-7.8,11.1l11.8,6.6l-13.5,0.8l2.2,13.3l-9-10.1l-9,10.1
		l2.2-13.3l-13.5-0.8l11.8-6.6l-7.8-11.1l12.5,5.1L241.9,114z M355.2,92.3l3.8,13l12.5-5.1l-7.8,11.1l11.8,6.6l-13.5,0.8l2.2,13.3
		l-9-10.1l-9,10.1l2.2-13.3l-13.5-0.8l11.8-6.6l-7.8-11.1l12.5,5.1L355.2,92.3z M318.9,147.3l2.7,7.7l8.2,0.2l-6.5,5l2.4,7.9
		l-6.7-4.7l-6.7,4.7l2.4-7.9l-6.5-5l8.2-0.2L318.9,147.3z"/>
	<path class="st0" d="M393.9,61.4c0,0-39.5-13.3-103.7,1.7c-52,12.4-83.6,31.7-83.6,31.7c-2.6,43.9-0.9,86.9,25.8,141.3
		c24.5,48.5,63.3,70.6,63.3,70.6S348,278,373.8,201.8C399.5,125.6,393.9,61.4,393.9,61.4z M362.2,208.8c-27.1,62.5-67,81.5-67,81.5
		s-37.1-18.1-62.5-74.7C207.4,164,213.9,97.3,213.9,97.3s22.7-15.4,71.6-28.1c58.5-15.3,100.2-3.5,100.2-3.5
		S389.3,146.3,362.2,208.8z"/>
	<path class="st1" d="M362.1,209c-18.1-7.1-37.4-10.7-56.8-10.7c-25.2,0-50,6.1-72.3,17.8c25.3,56.1,62.2,74.2,62.2,74.2
		S335,271.3,362.1,209z"/>
	<path class="st6" d="M278.9,200.5c-2.6,0.4-5.1,1-7.7,1.5c10.5,1,25,3.7,40.9,11.8c15.8,8.1,25.2,17.6,33.1,26.8
		c1.5-2.3,3-4.7,4.4-7.1c-6.9-6.6-19.4-17-35.5-23.9C299.4,203.4,287.3,201.2,278.9,200.5z"/>
	<path class="st6" d="M341.4,246.3c-4.7-6.6-16.1-20.5-35.4-30.7c-12.1-6.5-25.4-10.8-39-12.5c-2.3,0.6-4.6,1.2-6.8,1.9
		c10.5,1.6,25.7,5,42.1,15.3c17.1,10.7,26.1,22.3,33.9,33.2C338,251.1,339.7,248.7,341.4,246.3z"/>
	<path class="st6" d="M293.6,226.8c17.3,12.9,25.3,26.2,32.5,38.6c1.8-2,3.7-4,5.5-6.3c-3.6-6.2-15.5-24.8-35.1-37.5
		c-16-10.2-31.8-14-40-15.4c-1.8,0.6-3.5,1.2-5.3,1.8C261.2,210,275.4,213.2,293.6,226.8z"/>
	<path class="st5" d="M296.5,234.1l3.8,13l12.5-5.1L305,253l11.8,6.6l-13.5,0.8l2.2,13.3l-9-10.1l-9,10.1l2.2-13.3l-13.5-0.8
		L288,253l-7.8-11.1l12.5,5.1L296.5,234.1z"/>
	<g>
		<path class="st0" d="M208.4,363.3c-6,0-10.8-2.3-14.3-6.5c-3.4-4.1-5.2-9.6-5.2-16.1c0-5.4,1-9.9,3-13.7
			c3.4-6.5,9.6-10.4,16.7-10.4c4.4,0,8.6,1.3,11.2,3.5l-3.5,5c-2.2-1.7-4.9-2.6-7.7-2.5c-3.9,0-7.1,2-9,5.4
			c-1.6,2.7-2.4,6.5-2.4,11.9c0,5.6,0.6,8.7,1.8,11.2c2,4.3,5.7,6.4,10.1,6.4c3.2,0,5.6-0.9,8.1-2.9l3.5,4.8
			C217.3,362,213.3,363.3,208.4,363.3z M248,362.6l-3.9-7c-3.1-5.6-5.2-8.7-7.7-11.2c-0.9-0.9-1.5-1.3-2.9-1.4v19.5H226v-45.2h13.8
			c10.1,0,14.7,5.9,14.7,12.9c0,6.5-4.2,12.4-11.2,12.4c1.6,0.9,4.6,5.2,7,9l6.7,10.8C256.9,362.6,248,362.6,248,362.6z
			 M237.5,323.4h-4.1v14.3h3.9c3.9,0,6-0.5,7.4-1.9c1.2-1.2,2-3.1,2-5.5C246.7,325.8,244.2,323.4,237.5,323.4z M262.8,362.6v-45.2
			h7.7v45.2L262.8,362.6z M296.5,363.3c-6,0-10.8-2.3-14.3-6.5c-3.4-4.1-5.2-9.6-5.2-16.1c0-5.4,1-9.9,3-13.7
			c3.4-6.5,9.6-10.4,16.7-10.4c4.4,0,8.6,1.3,11.2,3.5l-3.5,5c-2.2-1.7-4.9-2.6-7.7-2.5c-3.9,0-7.1,2-9,5.4
			c-1.6,2.7-2.4,6.5-2.4,11.9c0,5.6,0.6,8.7,1.8,11.2c2,4.3,5.7,6.4,10.1,6.4c3.2,0,5.6-0.9,8.1-2.9l3.5,4.8
			C305.3,362,301.3,363.3,296.5,363.3z M314.1,362.6v-45.2h7.6v45.2L314.1,362.6z M337,362.6l-15.2-24.1l14.7-21.1h9.3l-15.7,21
			l16.7,24.2H337z M350.7,362.6v-45.2h25.9l-1.8,6.1h-16.6v12.3h13.9v6.2h-13.8v14.1H378l-1.6,6.4
			C376.5,362.6,350.7,362.6,350.7,362.6z M408.7,323.6h-11.4v38.9h-7.5v-38.9h-11.4l1.6-6.3h31.3L408.7,323.6z"/>
	</g>
	<path class="st0" d="M237,396.3l-1.8-6h-7.4l-1.8,6H222l7.5-22.9h4.4l7.3,22.9C241.2,396.3,237,396.3,237,396.3z M231.6,377.2
		L231.6,377.2c0,0-2.4,8.4-2.9,9.9h5.6C234.1,386.7,231.8,378.1,231.6,377.2z M250.8,396.7c-6,0-7.9-3.1-7.9-6.8v-16.5h3.8v15.4
		c0,3.5,1.3,4.7,4.1,4.7c2.8,0,4.1-1.6,4.1-4.7v-15.4h3.8v16.5C258.8,394.1,255.9,396.7,250.8,396.7z M269.9,396.8
		c-2.6,0-5.3-0.7-7.5-2l1.5-2.9c2,1.2,3.9,1.9,6.2,1.9c2.8,0,4.5-1.4,4.5-3.6c0-1.7-1.1-2.7-3.4-3.4l-2.4-0.7
		c-2.1-0.6-3.6-1.5-4.4-2.7c-0.7-1-1-2.2-1-3.3c0-4,3.2-6.8,7.8-6.8c2.6,0,5.2,0.8,7.2,2.2l-1.7,2.7c-2.1-1.3-3.6-1.8-5.4-1.8
		c-2.2,0-3.7,1.2-3.7,3.1c0,1.4,0.8,2.1,3,2.8l2.7,0.8c3.3,1,5.6,3.1,5.6,6.5C278.8,393.2,275.7,396.8,269.9,396.8z M295.5,376.6
		h-5.7v19.7h-3.8v-19.7h-5.8l0.9-3.2h15.3L295.5,376.6z M309.4,396.3l-2-3.5c-1.6-2.8-2.6-4.4-3.9-5.6c-0.4-0.4-0.8-0.7-1.5-0.7v9.9
		h-3.7v-22.9h7c5.1,0,7.4,3,7.4,6.5c0,3.3-2.1,6.3-5.7,6.3c0.8,0.4,2.3,2.6,3.5,4.6l3.4,5.5C313.9,396.3,309.4,396.3,309.4,396.3z
		 M304.1,376.5H302v7.2h1.9c2,0,3-0.3,3.7-1c0.6-0.6,1-1.6,1-2.8C308.7,377.7,307.5,376.5,304.1,376.5z M329.9,396.3l-1.8-6h-7.4
		l-1.8,6h-3.9l7.5-22.9h4.4l7.3,22.9H329.9z M324.4,377.2L324.4,377.2c0,0-2.4,8.4-2.9,9.9h5.6C326.9,386.7,324.6,378.1,324.4,377.2
		z M348.6,396.3h-11.7v-22.9h3.9v19.7h8.5C349.2,393.2,348.6,396.3,348.6,396.3z M351.9,396.3v-22.9h3.9v22.9
		C355.8,396.3,351.9,396.3,351.9,396.3z M373.7,396.3l-1.8-6h-7.4l-1.8,6h-3.9l7.5-22.9h4.4l7.3,22.9H373.7z M368.3,377.2
		L368.3,377.2c0,0-2.4,8.4-2.9,9.9h5.6C370.8,386.7,368.5,378.1,368.3,377.2z"/>
</g>
</svg>
