<svg xmlns="http://www.w3.org/2000/svg" xmlns:xlink="http://www.w3.org/1999/xlink" viewBox="0 0 284.67 314.12"><defs><linearGradient id="a" x1="485.78" y1="673.75" x2="485.78" y2="411.14" gradientTransform="matrix(1.05, 0, 0, -1.05, -0.05, 1081.44)" gradientUnits="userSpaceOnUse"><stop offset="0.13" stop-color="#2561ae"/><stop offset="0.21" stop-color="#255ca7"/><stop offset="0.34" stop-color="#264c93"/><stop offset="0.49" stop-color="#283374"/><stop offset="0.54" stop-color="#282968"/></linearGradient></defs><title>Delhi Capitals logo - Brandlogos.net</title><path d="M606,581.45a205.94,205.94,0,0,1-25.69,34,220.42,220.42,0,0,1-31.88,28.15c-5.76,4.14-29.66,17.73-35.77,20.72-6.11-3-58.07-38.39-67.83-48.72a200.64,200.64,0,0,1-25.72-34A191.35,191.35,0,0,1,401,542.85c1,3.45,2,6.87,3.19,10.27s2.48,6.74,3.88,10a189.83,189.83,0,0,0,9.44,19.36,201.48,201.48,0,0,0,25.18,35,209,209,0,0,0,32,29c5.82,4.26,11.87,8.21,18,11.93s12.58,7.06,19.06,10.24l.8.39.8-.39q9.71-4.76,19-10.26c6.17-3.73,12.2-7.71,18-12a210.33,210.33,0,0,0,16.71-13.71,200.77,200.77,0,0,0,15.2-15.35,206.62,206.62,0,0,0,25.15-35,191.8,191.8,0,0,0,9.52-19.31c1.43-3.29,2.71-6.64,4-10s2.28-6.79,3.27-10.22A196.83,196.83,0,0,1,606,581.45Z" transform="translate(-369.67 -354.94)" style="fill:#faad1b"/><path d="M633.28,504.09l5.47.62V490.9l15.57-15.57h-24V443.66c-20.14-11.1-46.23-23.47-75.69-30.13,0,.2.08.4.13.6l2.19,2.46,7,4.59,1.74,10.91.28.47c26.31,5.44,43.13,18,53.89,29.6v.54C609,451,588.07,441.77,563,436.84l-1.88-3.06L559.62,424l-5.77-3.77-3.55-4c-2.27-17-14.47-27.83-30.19-31.15l-.17-2.13-1.65-1.45v-2.73c3-.72,4.91-1.91,4.91-3.26s-2-2.55-4.91-3.26v-2.91L514.07,367l-.22-1.54h1.5l.63-2.18H514.3l-2.38-8.35-2.37,8.35h-1.68l.64,2.18H510l-.22,1.54-4.23,2.36v2.91c-3,.72-4.9,1.91-4.9,3.26s2,2.55,4.9,3.26v2.73L503.92,383l-.17,2.49c-15,3.84-26.53,14.33-28.72,30.78l-3.55,4L465.7,424l-1.55,9.76-2.23,3.43c-22.48,4.73-42.59,13.2-56.53,25.26v-.3c13.3-11.51,29.75-24,53.59-29.22l.6-.92,1.73-10.85,7-4.59,2.18-2.46c0-.24.11-.48.15-.73C441.18,419.9,415.08,432,394.93,443v32.35H369.67L386.79,491v44.75L401,542.48c10.29,35.19,37.88,86.54,111.67,122,74-35.57,101.52-87.1,111.74-122.29l14.67-6.42v-24.4l-1.24-1.57C636,507.49,634.63,505.76,633.28,504.09Z" transform="translate(-369.67 -354.94)" style="fill:url(#a)"/><path d="M598.1,579.28a188.34,188.34,0,0,1-23.52,31.11,201.69,201.69,0,0,1-29.18,25.76q-7.91,5.69-16.26,10.71c-5.37,3.15-10.86,6.07-16.45,8.81-5.6-2.74-11.11-5.65-16.49-8.8-5.59-3.32-11-6.89-16.32-10.67a201.93,201.93,0,0,1-29.29-25.68,183,183,0,0,1-23.54-31.12,175.34,175.34,0,0,1-16.56-35.47c.89,3.15,1.87,6.28,2.92,9.39s2.27,6.17,3.55,9.18a174.06,174.06,0,0,0,8.64,17.72,184.12,184.12,0,0,0,23.05,32A191.35,191.35,0,0,0,478,638.79c5.33,3.9,10.86,7.52,16.52,10.92s11.51,6.46,17.43,9.37l.74.36.74-.36q8.89-4.35,17.41-9.38c5.65-3.42,11.16-7.05,16.46-11a193.51,193.51,0,0,0,15.29-12.55,180.41,180.41,0,0,0,13.91-14.05,189.25,189.25,0,0,0,23-32,181.86,181.86,0,0,0,8.72-17.67c1.31-3,2.48-6.08,3.62-9.15s2.09-6.22,3-9.36A180,180,0,0,1,598.1,579.28Z" transform="translate(-369.67 -354.94)" style="fill:#fff"/><path d="M468.82,432l.74-5.81,5.54-3.14,3.75-4.1s1.36-23.43,27-30.07c0,0-15.61,4-20.66,22.2-1.4,5.07.62,10.76.62,10.76l-.57,11.1s-12,1.12-18.58,3.77Z" transform="translate(-369.67 -354.94)" style="fill:#fff"/><path d="M520.44,389.24s15.93,1.16,21.26,14.24C541.7,403.48,533.26,393.63,520.44,389.24Z" transform="translate(-369.67 -354.94)" style="fill:#fff"/><path d="M508.41,388.85s-10.47,7.54-9.1,43l4.2-.24S499.79,399.68,508.41,388.85Z" transform="translate(-369.67 -354.94)" style="fill:#fff"/><path d="M460.39,449.43c6.43-1.44,9.68-2.06,16.18-3.06,2.58,1.59,3.88,2.33,6.48,3.78,0,8.37.06,10.06.11,18.44-2.45,1.75-3.66,2.67-6.1,4.63H460.4C460.39,460.9,460.39,461.75,460.39,449.43Zm13.18,3.06c-1.55.21-2.33.32-3.88.55,0,6.56,0,8.14.06,14.68l3.89-.13C473.62,460.87,473.6,459.21,473.57,452.49Z" transform="translate(-369.67 -354.94)" style="fill:#fff"/><path d="M487.1,445c7-.76,10.51-1,17.54-1.23,0,2.74,0,4,0,6.21-3.2.08-4.8.15-8,.33,0,2.23,0,3.24,0,5.21,2.65-.12,4-.16,6.61-.22,0,2,0,2.94,0,4.9-2.65,0-4,.07-6.6.16,0,2.55,0,3.81,0,6.75,3.28,0,4.91-.05,8.19-.07,0,2.27,0,3.47,0,6.21H487.24C487.18,459.13,487.16,459.1,487.1,445Z" transform="translate(-369.67 -354.94)" style="fill:#fff"/><path d="M507.7,443.68c3.83-.08,5.74-.08,9.57,0,0,11.87,0,13.53,0,23.33,3.39,0,5.09,0,8.49.06,0,2.25,0,3.44,0,6.17h-18C507.71,458.6,507.71,458.3,507.7,443.68Z" transform="translate(-369.67 -354.94)" style="fill:#fff"/><path d="M541.36,457c0-4,0-6,.05-11.63,3.76.45,5.63.72,9.37,1.33-.05,13.42-.07,13.11-.13,26.53h-9.39c0-5.66,0-7.61.05-11.63l-3.9-.18c0,4.09,0,6.07-.05,11.81h-9.5c0-14.44.06-14.66.09-29.1,3.82.24,5.73.41,9.54.8,0,5.73,0,7.72-.05,11.81C539,456.83,539.8,456.88,541.36,457Z" transform="translate(-369.67 -354.94)" style="fill:#fff"/><path d="M555.51,447.51c3.77.69,5.66,1.08,9.4,1.92v23.8h-9.5C555.45,460.14,555.47,460.6,555.51,447.51Z" transform="translate(-369.67 -354.94)" style="fill:#fff"/><path d="M555.52,447.51s4.71.8,11.23,2.28c3.32.75,6.29,1.56,6.29,1.56l-10.73,4.51Z" transform="translate(-369.67 -354.94)" style="fill:#fff"/><path d="M470.08,447.51s-4.71.8-11.23,2.28c-3.32.75-6.29,1.56-6.29,1.56l10.73,4.51Z" transform="translate(-369.67 -354.94)" style="fill:#fff"/><path d="M432.46,480.44c-3.51,15.66-5.44,31.65-8.47,47.42,4.93-1.86,7.42-2.75,12.41-4.41.47-2.78.72-4.34,1.19-7.57,3-.84,4.43-1.24,7.38-2,.37,2.85.55,4.2.92,6.64a128,128,0,0,1,12.58-3c-2.85-12.3-5.18-24.71-7.79-37.06h-18.2Zm6.16,27q1-9.3,2.15-18.57l1.22-.06c.73,5.83,1.42,11.67,2.15,17.5C441.92,506.71,440.82,506.93,438.61,507.4Z" transform="translate(-369.67 -354.94)" style="fill:#fff"/><path d="M538.27,480.44H511.64v6.41h7.14q0,13.83,0,27.67c5,0,7.48.06,12.48.17q0-13.91,0-27.82l7.06,0C538.28,484.33,538.27,483,538.27,480.44Z" transform="translate(-369.67 -354.94)" style="fill:#fff"/><path d="M589.3,480.44H576.7q-.22,19.38-.42,38.76c7.82,2.14,15.43,4.62,23.05,7.36.08-2.77.14-4.39.22-7.8-4.43-1.4-6.62-2.08-11-3.31C588.81,503.78,589,492.11,589.3,480.44Z" transform="translate(-369.67 -354.94)" style="fill:#fff"/><path d="M462,480.44q-.11,18.28-.22,36.57a88.66,88.66,0,0,1,12.54-1.44c0-4.78,0-7.16,0-11.93,3.25-.12,4.88-.16,8.13-.25,3.4-2.08,5.11-3.1,8.52-5.12,0-5.11,0-7.66,0-12.78-3.39-2-5.09-3-8.49-5ZM479,496.92l-4.55.11c0-4,0-6,0-10l4.55,0C479,491,479,493,479,496.92Z" transform="translate(-369.67 -354.94)" style="fill:#fff"/><path d="M495.11,514.76c5-.13,7.58-.17,12.63-.21q0-17.06,0-34.11h-12.6Q495.15,497.6,495.11,514.76Z" transform="translate(-369.67 -354.94)" style="fill:#fff"/><path d="M559.12,510.4c-2.87-.21-4.3-.32-7.17-.5-.4,2.56-.6,3.79-1,6-4.85-.36-7.27-.52-12.12-.76,2.73-11.51,4.91-23.17,7.43-34.73h17.87c3,12.45,5.27,25.08,8.19,37.55-4.86-.58-7.29-.83-12.16-1.3C559.73,514.35,559.53,513.06,559.12,510.4Zm-4.55-22.71c-.71,5.88-1.05,9.23-1.76,15.39,2.15.11,3.23.16,5.38.28-1-6.31-1.45-9.72-2.41-15.65Z" transform="translate(-369.67 -354.94)" style="fill:#fff"/><path d="M615.17,500.17c.09-4.67.14-7,.23-11.13l5.27.31c-.05,2.84-.07,4.36-.13,7.48L633,498.25c0-4.49,0-6.67,0-10.55l9.22-7.26H611.38c-3.42,2.28-5.12,3.54-8.53,6-.15,5.34-.22,8.5-.37,14.69,3.4,3.51,5.1,5.43,8.55,9.43,3.67,1.18,5.51,1.8,9.25,3.07-.08,5-.12,7.47-.2,11.9l-5.4-1.81c.06-2.7.09-4.13.15-7.08-5.13-1.44-7.65-2.16-12.65-3.51-.08,3.52-.13,5.24-.21,8.37,3.17,3.67,4.76,5.54,8,9.09,5.62,2.18,8.47,3.32,14.4,5.6a38.44,38.44,0,0,0,8.91-3.82v-19c-3.67-4.65-5.44-6.89-8.95-11C620.65,501.47,618.81,501,615.17,500.17Z" transform="translate(-369.67 -354.94)" style="fill:#fff"/><path d="M400.76,480.44h-17l8.78,7.27,0,0v44.83a32.71,32.71,0,0,0,8.45,3.92c5-2,7.51-3,12.61-5,3.34-3.58,5-5.5,8.42-9.27.08-5.14.13-8.15.21-14.1-4.89,1.09-7.33,1.65-12.16,2.78-.06,5.61-.09,8.42-.16,13.38l-5.37,1.82q.17-18.33.34-36.64l5.44-.3c-.05,4.06-.07,6.3-.13,10.85,4.85-.67,7.29-1,12.19-1.69.07-5,.11-7.42.18-11.75-3.3-2.53-4.94-3.82-8.23-6.13H400.76Z" transform="translate(-369.67 -354.94)" style="fill:#fff"/><path d="M532.78,533.31a20.25,20.25,0,0,1,4.55,3s5-2.13,2.94-9.53C540.39,530.37,537.74,532.93,532.78,533.31Z" transform="translate(-369.67 -354.94)" style="fill:#fff"/><path d="M485.17,526.53s4.07,3.68,5.32,4l-2.57.37s4.27,3.2,7,3l-3.5,2.26S486.25,532,485.17,526.53Z" transform="translate(-369.67 -354.94)" style="fill:#fff"/><path d="M488.5,556.75s-.48,14,5.35,19.85A29,29,0,0,1,486,563.36Z" transform="translate(-369.67 -354.94)" style="fill:#fff"/><path d="M537.15,559.21s-1.59,12.72-7.64,18.36a23.45,23.45,0,0,0,9.15-12.3Z" transform="translate(-369.67 -354.94)" style="fill:#fff"/><path d="M540.65,523.77c-2.7-.62-4.94,2-5.64,2.93s-1.23,2.32-4.71,3.63c3.55.23,9.42-2,10-2.86.16,1.62.17,4.34-2.93,8.88l2.62,2.09S545,532.26,540.65,523.77Z" transform="translate(-369.67 -354.94)" style="fill:#d71921"/><path d="M514.94,575.13c.61,3.36,7.73,3.14,10.26,2s3.4-4.67,3.4-4.67a11.27,11.27,0,0,1-1.79,1.18,9.74,9.74,0,0,1-3.84,1,12.45,12.45,0,0,0,4.85-3.85,5.37,5.37,0,0,0,.92-4.28,14.61,14.61,0,0,1-3.28,4.2c-1.92,1.53-5.72,2.18-5.72,2.18s4.71-2.53,6.07-4.41a10.92,10.92,0,0,0,1.71-4.14s-7.2,4.75-6.24,4.06,4.71-5,4.71-5l-3.23-.61-2.22,1.53.15.42a2.65,2.65,0,0,1-.07,1.93l-2.09,4.81a2.6,2.6,0,0,1-.6.86Z" transform="translate(-369.67 -354.94)" style="fill:#fff"/><path d="M517.66,604.05a10.07,10.07,0,0,1-4.69,1c-3.14,0-6.12-.16-7.68-1.55a14.62,14.62,0,0,1-3.56-5,6,6,0,0,1-1,3.93s4.45,2.51,5.13,6.54c.53,3.07,12.19,3.58,13-.67.78-3.88,2.54-5.76,4.18-5.86a13.46,13.46,0,0,1-.74-3.93S519.6,602.95,517.66,604.05Z" transform="translate(-369.67 -354.94)" style="fill:#fff"/><path d="M536.22,555.57s.07-6.83-5-8.44a9.41,9.41,0,0,1-1.54,4.82c1.54-.7-.9,2.29-1,3.37-.21,2.16-2,3.84-5.6,4a5.21,5.21,0,0,1-1.3-.33l4.21,3.74c4.23-.78,5.43-5.82,5.47-6.15s.41.54.74,2a32.32,32.32,0,0,1,.05,9.22c2.79-5.3,1.92-12.69,1.92-12.69a15.46,15.46,0,0,0-.4-1.51C533.51,552.94,536.22,555.57,536.22,555.57Z" transform="translate(-369.67 -354.94)" style="fill:#d71921"/><path d="M499.58,563.3l-.18,0,1.5,1.68a36.42,36.42,0,0,0,3.23,3.3c.65.47-2.42-1.54-4.49-2.9l-1.76-1.16a11,11,0,0,0,.36,1.42,10,10,0,0,0,1.34,2.73c1.35,1.88,6.07,4.41,6.07,4.41s-3.79-.65-5.72-2.18a14.82,14.82,0,0,1-3.28-4.2,5.37,5.37,0,0,0,.92,4.28,12.45,12.45,0,0,0,4.85,3.85,9.77,9.77,0,0,1-3.85-1,11.27,11.27,0,0,1-1.79-1.18s.87,3.49,3.4,4.67,9.64,1.4,10.26-2l-3-2.86a2.77,2.77,0,0,1-.6-.86l-2.09-4.81a2.65,2.65,0,0,1-.07-1.93l.15-.42-1.29-.89-.94-.64-2.84.54Z" transform="translate(-369.67 -354.94)" style="fill:#fff"/><path d="M482.83,546.88c-1.72,3.47-1,6.57-6.88,11.84.32.21,1.18-.21,1.6-.21-2.89,3.32-2.57,8.24-2.36,9.53.54.11,2.14-.85,2.68-1.08s-1.08,6.43,2.57,12.1c.43-.85,1-.85,1.18-1.93a7,7,0,0,1,.77.41c3.46,2,9.71,8.51,12.19,12.77a13.41,13.41,0,0,0,1.6-.85,15.82,15.82,0,0,0,1.58,4.13,25.21,25.21,0,0,0,3.74,4.28c-.33-2.69-1.8-7.69-1.47-10.34-6.43-2.57-12.32-9.32-13.49-11,.85.43,2.25.21,2.57.54a58.65,58.65,0,0,1-3.94-4.37c-1.93-2.38-4-5.32-4.52-7.73,0,0,4.71-6.1,4.82-11.46a20.31,20.31,0,0,1,2-8,14.65,14.65,0,0,1,3.14-4.43A12.08,12.08,0,0,0,482.83,546.88Z" transform="translate(-369.67 -354.94)" style="fill:#fff"/><path d="M523.69,556.36a1,1,0,0,0,1.91-.53,5.22,5.22,0,0,0,1.88-1.54,3,3,0,0,1-1.64,2.92,2.85,2.85,0,0,1-3.67-.43A2.51,2.51,0,0,0,523.69,556.36Z" transform="translate(-369.67 -354.94)" style="fill:#d71921"/><path d="M525.59,555.84s0,0,0-.07a1,1,0,0,0-.45-.86,3.16,3.16,0,0,1,2.3-.73s0,.05,0,.13A5.44,5.44,0,0,1,525.59,555.84Z" transform="translate(-369.67 -354.94)" style="fill:#fff"/><path d="M501.76,556.36a1,1,0,0,1-1.91-.53,5.22,5.22,0,0,1-1.88-1.54,3,3,0,0,0,1.64,2.92,2.85,2.85,0,0,0,3.67-.43A2.46,2.46,0,0,1,501.76,556.36Z" transform="translate(-369.67 -354.94)" style="fill:#d71921"/><path d="M499.86,555.84s0,0,0-.07a1,1,0,0,1,.45-.86,3.16,3.16,0,0,0-2.3-.73s0,.05,0,.13A5.44,5.44,0,0,0,499.86,555.84Z" transform="translate(-369.67 -354.94)" style="fill:#fff"/><path d="M501.54,579.11a8.4,8.4,0,0,0,3.53,6.41,10.94,10.94,0,0,1,.34-6.41A12.6,12.6,0,0,1,501.54,579.11Z" transform="translate(-369.67 -354.94)" style="fill:#fff"/><path d="M522.39,579.11a12.6,12.6,0,0,1-3.87,0,11,11,0,0,1,.34,6.41A8.38,8.38,0,0,0,522.39,579.11Z" transform="translate(-369.67 -354.94)" style="fill:#fff"/><path d="M506.75,579.36a57.25,57.25,0,0,1,6-.87,29.09,29.09,0,0,1,5,.92,4.53,4.53,0,0,1,.3,2.84s-.39-1.41-.87-1.41c-.17,0-2.84,0-4.47,0-1.84,0-5.6,0-5.72,0-.43,0-.84,1.43-.84,1.4C506.08,581.44,506.09,579.49,506.75,579.36Z" transform="translate(-369.67 -354.94)" style="fill:#fff"/><path d="M504.24,600.86l2.54,1.2c-.34-.45-2-4-1.62-6.41C503.2,599.62,504.24,600.86,504.24,600.86Z" transform="translate(-369.67 -354.94)" style="fill:#fff"/><path d="M519.26,600.86s1-1.24-.92-5.2c.38,2.46-1.29,5.95-1.62,6.41Z" transform="translate(-369.67 -354.94)" style="fill:#fff"/><path d="M509.24,586l3.43,6.21-.43-6.29a8.5,8.5,0,0,1,4.82,5.65c1.14,4.26.85,5.2-3.47,5.65-7.67,0-7.59-1.89-7.59-1.89C505.71,591.36,509.24,586,509.24,586Z" transform="translate(-369.67 -354.94)" style="fill:#d71921"/><path d="M515.71,601.88a27.94,27.94,0,0,1-4,.35,12.57,12.57,0,0,1-3.94-.52.42.42,0,0,1-.26-.25,3.26,3.26,0,0,1-.13-2.34s.22,1.17.63,1.17l7.59-.05c.36,0,.71-1.14.72-1.12C516.47,599.86,516.27,601.78,515.71,601.88Z" transform="translate(-369.67 -354.94)" style="fill:#fff"/><path d="M531.21,547.11a26.16,26.16,0,0,0-2.38,4.91,7,7,0,0,1-1.64,5.37,2.41,2.41,0,0,1-.54.44,8.31,8.31,0,0,1-4.88,1.13,6.25,6.25,0,0,0,5.71,0c1.39-.78,1.43-3.4,1.43-3.4C532.07,553.22,531.21,547.11,531.21,547.11Z" transform="translate(-369.67 -354.94)" style="fill:#fff"/><path d="M521.37,532.87a7.5,7.5,0,0,1,2.11,3.21c-5-4.14-14.66-5.6-20.77,1,2.88-7,15-8.54,19-8.69,0,0-9.37-4.07-20.85,1.21a31.53,31.53,0,0,0-2.88,1.51c-.76.44-4.93-1.21-6.56-3.11l0,0c-2.45-2.37-4.16-4.22-6.75-4.17-1.26,1.43-2,4.48-1.75,7.34s1,5.78,2.51,7.13c.79-.74,2.57-2,2.57-2a9.93,9.93,0,0,1-2.77-5.5,10.27,10.27,0,0,1-.13-2.25c0-.37.16-1.09.22-1.49a8,8,0,0,0,1.24,1.34,12,12,0,0,0,3.37,2l.06,0c.75.21-2.22.43-2.22.43a10.57,10.57,0,0,0,5.79,3.43c.14,0-3.17,2-10,11.65a16.37,16.37,0,0,1,2.88-2.67,33.09,33.09,0,0,1,4.25-2.09,7.65,7.65,0,0,1,2.74-1.6,13.51,13.51,0,0,0-3,5.11c-1.7,5.3,0,10.53-.15,11-.21.64,2.36-2.14,2.36-2.14a18.49,18.49,0,0,0-.67,3.36,18.7,18.7,0,0,0,.85,9.53,19.46,19.46,0,0,0,1.12,2.54,21.07,21.07,0,0,1-.35-2.82,58.46,58.46,0,0,1,.38-7.26c1.18,1.9,3.27,3.07,5.93,3.79L503.7,559c-.62.23-3.23.71-4.62-.61a2.68,2.68,0,0,0-.17,1.11,3.54,3.54,0,0,1-2.31-3.94c-2.19-3.09-1.23-4,.07-3.55-.62-1.45-2.73-4.21-2.31-9a14.32,14.32,0,0,1,.23-1.67,7.78,7.78,0,0,1,.51-1.17,9.23,9.23,0,0,0-.33,2.66c1,6.21,6.42,10.52,6.35,9.87s.59-1.43-.26-2.29c1,.07,2,1.12,3.24,3.83.34.71,3.42,3,3.42,3l0,.06,2.29,1.6-3.77-.72a1.16,1.16,0,0,0-.71.08l-1.63.73,2,.41a1.53,1.53,0,0,1,.77.41l2.43,2.39-3-1.38-.89-.27a1.29,1.29,0,0,0-1.11.17l-1.42,1,1.63,0a1.4,1.4,0,0,1,1.06.44l1.22,1.26-.27,1.41a2.67,2.67,0,0,0,.08,1.38l.58,1.83a1.3,1.3,0,0,0,.65.78l4.55,2.41a1.7,1.7,0,0,0,1.59,0l4.51-2.4a1.37,1.37,0,0,0,.65-.78l.58-1.83a2.91,2.91,0,0,0,.08-1.38l-.27-1.41,1.65-1.36a1.1,1.1,0,0,1,.72-.25H523l-1.49-1a.94.94,0,0,0-.9-.09l-3.93,1.56,2.47-2.42a1.37,1.37,0,0,1,.69-.37l2-.42-1.76-.78a.71.71,0,0,0-.44-.05l-3.91.74,2.22-1.6,2.39-.35.16-.08a.32.32,0,0,0,.05-.07c.2-.36-.05-2.08.21-2.29v.06c.31.07,1.74-3,4.06-4.46a1.92,1.92,0,0,0-.24,2.35c3.91-1.52,5.57-8.2,5.72-10.2A14.9,14.9,0,0,0,521.37,532.87ZM510.48,537a5.36,5.36,0,0,1,2.23-2.16,4.4,4.4,0,0,1,2.16,2.16c5.76.53,8.23,3.63,9.21,5.72-.53-.76-6.09-3.79-11.41-1.65-5.8-2.84-10.89,1.9-10.89,1.9C503.61,536.89,510.75,537.12,510.48,537Zm2.23,12.29c-2.68-3.82-8.9-2.68-11.08-.67,3.33-5.13,9.68-4.49,9.68-4.49l1.4-1.32s.59.69,1.22,1.39c.57-.46,7.07-.48,10.36,4C523.8,547.45,516.78,544.83,512.72,549.28Z" transform="translate(-369.67 -354.94)" style="fill:#d71921"/><path d="M504.75,556.77l2.77.51c-.22-1.63-4-6.22-7.44-7.73,0,0,1.1,2.3.43,2.52s-3.44-3.45-4-4.35a6,6,0,0,0,1.57,3.89C499.65,553.4,502.21,552.17,504.75,556.77Z" transform="translate(-369.67 -354.94)" style="fill:#fff"/><path d="M520.47,557l-2.61.33c.47-1.53,4.52-6.35,7.28-7.55,0,0-1.1,2.3-.43,2.52S528,549,528.54,548a5.09,5.09,0,0,1-1.42,3.75C525.58,553.59,523,552.36,520.47,557Z" transform="translate(-369.67 -354.94)" style="fill:#fff"/><path d="M499,558.06l-.15-.12-.08-.07a6.89,6.89,0,0,1-2.16-5.85,17.57,17.57,0,0,0-2.09-5.24s-1.16,6.42,2,8.79c0,0-.48,3.25,2.3,3.94a6.83,6.83,0,0,0,4.83-.55A6.85,6.85,0,0,1,499,558.06Z" transform="translate(-369.67 -354.94)" style="fill:#fff"/><path d="M541.17,546.88c1.72,3.47,1,6.57,6.88,11.84-.32.21-1.18-.21-1.6-.21,2.89,3.32,2.57,8.24,2.36,9.53-.54.11-2.14-.85-2.68-1.08s1.08,6.43-2.57,12.1c-.43-.85-1-.85-1.18-1.93a7,7,0,0,0-.77.41c-3.46,2-9.71,8.51-12.19,12.77a13.41,13.41,0,0,1-1.6-.85,15.82,15.82,0,0,1-1.58,4.13,25.21,25.21,0,0,1-3.74,4.28c.33-2.69,1.8-7.69,1.47-10.34,6.43-2.57,12.32-9.32,13.49-11-.85.43-2.25.21-2.57.54a58.65,58.65,0,0,0,3.94-4.37c1.93-2.38,4-5.32,4.52-7.73,0,0-4.71-6.1-4.82-11.46a20.31,20.31,0,0,0-2-8,14.65,14.65,0,0,0-3.14-4.43A12.16,12.16,0,0,1,541.17,546.88Z" transform="translate(-369.67 -354.94)" style="fill:#fff"/><path d="M463.25,539.49a18,18,0,0,1,.92,6.17c-.23,2.7-2.5,5.52-2.5,5.52s3.85-2.34,4-2.36.55-4.82.63-4.94-2.65-4.56-2.65-4.56Z" transform="translate(-369.67 -354.94)" style="fill:#fff"/><path d="M449.57,561.66l-1.52.48-1.21,1.11a3.24,3.24,0,0,0,3.44-.81,4,4,0,0,0,.53-.8" transform="translate(-369.67 -354.94)" style="fill:#d71921"/><path d="M449.57,561.66l-.69-.36,1.89-1.18s.53.48,0,1.52A1.73,1.73,0,0,1,449.57,561.66Z" transform="translate(-369.67 -354.94)" style="fill:#fff"/><path d="M438.78,574.9a49.43,49.43,0,0,0,4.88-4c-.34.2-5.38,1.89-5.07,1.76s4-3.59,4-3.59l-3-.36-6,1.83c-.2.93.66,2.86-1.47,5.45.78,1.4,3.63,2.29,3.63,2.29s2.58.16,6.66-2.2a7.09,7.09,0,0,1,1.73-2.42C443.47,574.08,437.94,575.32,438.78,574.9Z" transform="translate(-369.67 -354.94)" style="fill:#fff"/><path d="M462.14,537.22c-2.34.72-2.9,3.72-3,4.73a7.11,7.11,0,0,1-2,4.86c2.82-1.39,6.32-5.69,6.36-6.58.83,1.17,3,3,1.68,8.08l2.89-.65S469.19,541.82,462.14,537.22Z" transform="translate(-369.67 -354.94)" style="fill:#d71921"/><path d="M438.61,579.67a8.49,8.49,0,0,0,5.93,4.41,11.05,11.05,0,0,1-2.38-6A12.82,12.82,0,0,1,438.61,579.67Z" transform="translate(-369.67 -354.94)" style="fill:#fff"/><path d="M455.6,595.53a7.45,7.45,0,0,1-2.7-5.84,9.81,9.81,0,0,0,4.71,3.14S456.82,595,455.6,595.53Z" transform="translate(-369.67 -354.94)" style="fill:#fff"/><path d="M458.29,578.75l-1.77,3.72.11-4s-1.92,1.18-1.92,5.78c0,2.78.81,4.72,3,5.7,2-.69,3.89-4.71,3.89-4.71C458.85,583.36,458.29,578.75,458.29,578.75Z" transform="translate(-369.67 -354.94)" style="fill:#d71921"/><path d="M430.82,571.39l-.83,1.47,1.69,2.4c1-.85,1-1.92,1.18-3.88A15.22,15.22,0,0,0,430.82,571.39Z" transform="translate(-369.67 -354.94)" style="fill:#d71921"/><path d="M468.72,561.64c-.16,2.61-.61,7.52,4.88,11.53-2.08-2.08-3.86-10.85.07-15.34,2-2.29,3.43-9,6.49-12.09a2,2,0,0,0,.28-.42c-5.47,2.93-9.94,5.88-9.66,5.42.71-1.15,3.51-6.49,8-8.65-1.6,0-11.36,3.33-16.54,8.32a8.82,8.82,0,0,1,.42-3.07c-.13.07-7.94,3.1-12.88,7.46a6.26,6.26,0,0,1,.7-2c-5.54,1.9-10.4,9-10.4,9a9.1,9.1,0,0,1,.32,1.31l-.05,0c-.21.13-.56.37-.56.37a48.49,48.49,0,0,0-8.58,7.06l2.48-.11,5.93-1.83a40.47,40.47,0,0,0,5.38-1.89c1.53,3,11.36,4.72,11.56,4.66a18.58,18.58,0,0,1-6.17,1.15l-7,3.49s7.86-3.31,14.68.58c3.09,2,5,4,5.1,6.71l.39-.66c-.31-3.33-1.45-6-7.86-9.28a31.39,31.39,0,0,1,9.39,1.42c-.9-2.33-.37-7.15.51-9.94,1.57-5,.05-9.86-2.1-13.66C464.95,552.58,469,556.86,468.72,561.64Zm-18.56,3.79a16.36,16.36,0,0,0-8.64,0l6.54-6.55.06,2c1.76-2.9,2.15-3.43,5.21-4.54C453.9,559,453.86,562.23,450.16,565.43Zm11.5-11.33c-1.05,1.17-2.25,4.21-1.92,5.5-3.11,2.12-3.31,8.44-3.31,8.44-.87-2.45-.56-8.29,0-9.56S462.71,552.92,461.66,554.1Z" transform="translate(-369.67 -354.94)" style="fill:#d71921"/><path d="M471.23,578.68s2-.35,5.11,1.93c-1-1.2-1.75-6.17-1.75-6.17-5,2.14-7.42-7.1-7.35-8.13a18.41,18.41,0,0,0,1.56,12.74,14.61,14.61,0,0,0-6.7-3s6,6.66,1.35,8.43a.17.17,0,0,0,0,0c2.77,8.05-3.08,10.66-3.08,10.66l.23-3.72c-.74.81-.85,3.87-4.59,4.92-.66,1.67.6,3.69.6,3.69l.83-1s2.81,1.93,3,2.16a53,53,0,0,1,7.62-5.62,37.69,37.69,0,0,1,.34-7.09c1.21-4.29,4-5.33,5.83-5.1C473.91,582.26,473.37,579.89,471.23,578.68Z" transform="translate(-369.67 -354.94)" style="fill:#fff"/><path d="M441.49,565.43c.21-3.35,2.85-7.24,7.37-9.62a3.31,3.31,0,0,0-1.26,2.14s4.83-5.39,14.08-5.39c-9.9,2.92-13.6,8.27-13.6,8.27l-.06-2Z" transform="translate(-369.67 -354.94)" style="fill:#fff"/><path d="M441.49,565.43s2.26-1.6,8.66,0c0-.05-3.89.89-3.89.89C445.62,565.73,443.22,565.19,441.49,565.43Z" transform="translate(-369.67 -354.94)" style="fill:#fff"/><path d="M464,562.2l-4.29-2.59c-1.83.83-3.08,3.21-3.31,8.44A13.55,13.55,0,0,1,464,562.2Z" transform="translate(-369.67 -354.94)" style="fill:#fff"/><path d="M472.67,580s5.21,1.72,6.48,4.5c3.7.6,11.22,6,12.61,9.27,0,0,0-6.22-10.83-11.85,0,0-5.11-2.5-6.36-7.46,0,0-2.6,3.79-4.1,3.43-.66-.16-3.23,3.85,1.15,4.82C471.34,581.83,473.95,580.91,472.67,580Z" transform="translate(-369.67 -354.94)" style="fill:#fff"/><path d="M560.77,539.49a18,18,0,0,0-.92,6.17c.23,2.7,2.5,5.52,2.5,5.52s-3.85-2.34-4-2.36-.55-4.82-.63-4.94,2.65-4.56,2.65-4.56Z" transform="translate(-369.67 -354.94)" style="fill:#fff"/><path d="M574.45,561.66l1.52.48,1.21,1.11a3.24,3.24,0,0,1-3.44-.81,4,4,0,0,1-.53-.8" transform="translate(-369.67 -354.94)" style="fill:#d71921"/><path d="M574.45,561.66l.69-.36-1.89-1.18s-.53.48,0,1.52A1.73,1.73,0,0,0,574.45,561.66Z" transform="translate(-369.67 -354.94)" style="fill:#fff"/><path d="M585.24,574.9a49.44,49.44,0,0,1-4.88-4c.34.2,5.38,1.89,5.07,1.76s-4-3.59-4-3.59l3-.36,6,1.83c.2.93-.66,2.86,1.47,5.45-.78,1.4-3.63,2.29-3.63,2.29s-2.58.16-6.66-2.2a7.09,7.09,0,0,0-1.73-2.42C580.55,574.08,586.08,575.32,585.24,574.9Z" transform="translate(-369.67 -354.94)" style="fill:#fff"/><path d="M561.88,537.22c2.34.72,2.9,3.72,3,4.73a7.11,7.11,0,0,0,2,4.86c-2.82-1.39-6.32-5.69-6.36-6.58-.83,1.17-3,3-1.68,8.08l-2.89-.65S554.83,541.82,561.88,537.22Z" transform="translate(-369.67 -354.94)" style="fill:#d71921"/><path d="M585.41,579.67a8.49,8.49,0,0,1-5.93,4.41,11.05,11.05,0,0,0,2.38-6A12.82,12.82,0,0,0,585.41,579.67Z" transform="translate(-369.67 -354.94)" style="fill:#fff"/><path d="M568.43,595.53a7.45,7.45,0,0,0,2.7-5.84,9.81,9.81,0,0,1-4.71,3.14S567.2,595,568.43,595.53Z" transform="translate(-369.67 -354.94)" style="fill:#fff"/><path d="M565.73,578.75l1.77,3.72-.11-4s1.92,1.18,1.92,5.78c0,2.78-.81,4.72-3,5.7-2-.69-3.89-4.71-3.89-4.71C565.17,583.36,565.73,578.75,565.73,578.75Z" transform="translate(-369.67 -354.94)" style="fill:#d71921"/><path d="M593.2,571.39l.83,1.47-1.69,2.4c-1-.85-1-1.92-1.18-3.88A15.22,15.22,0,0,1,593.2,571.39Z" transform="translate(-369.67 -354.94)" style="fill:#d71921"/><path d="M555.3,561.64c.16,2.61.61,7.52-4.88,11.53,2.08-2.08,3.86-10.85-.07-15.34-2-2.29-3.43-9-6.49-12.09a2,2,0,0,1-.28-.42c5.47,2.93,9.94,5.88,9.66,5.42-.71-1.15-3.51-6.49-8-8.65,1.6,0,11.36,3.33,16.54,8.32a8.82,8.82,0,0,0-.42-3.07c.13.07,7.94,3.1,12.88,7.46a6.26,6.26,0,0,0-.7-2c5.54,1.9,10.4,9,10.4,9a10.83,10.83,0,0,0-.32,1.31l.05,0c.21.13.56.37.56.37a48.49,48.49,0,0,1,8.58,7.06l-2.48-.11-5.93-1.83a40.47,40.47,0,0,1-5.38-1.89c-1.53,3-11.36,4.72-11.56,4.66a18.58,18.58,0,0,0,6.17,1.15l7,3.49s-7.86-3.31-14.68.58c-3.09,2-5,4-5.1,6.71l-.39-.66c.31-3.33,1.45-6,7.86-9.28a31.39,31.39,0,0,0-9.39,1.42c.9-2.33.37-7.15-.51-9.94-1.57-5-.05-9.86,2.1-13.66C559.09,552.58,555,556.86,555.3,561.64Zm18.56,3.79a16.36,16.36,0,0,1,8.64,0L576,558.86l-.06,2c-1.76-2.9-2.15-3.43-5.21-4.54C570.12,559,570.16,562.23,573.86,565.43Zm-11.5-11.33c1.05,1.17,2.25,4.21,1.92,5.5,3.11,2.12,3.31,8.44,3.31,8.44.87-2.45.56-8.29,0-9.56S561.31,552.92,562.36,554.1Z" transform="translate(-369.67 -354.94)" style="fill:#d71921"/><path d="M552.79,578.68s-2-.35-5.11,1.93c1-1.2,1.75-6.17,1.75-6.17,5,2.14,7.42-7.1,7.35-8.13a18.41,18.41,0,0,1-1.56,12.74,14.61,14.61,0,0,1,6.7-3s-6,6.66-1.35,8.43a.17.17,0,0,1,0,0c-2.77,8.05,3.08,10.66,3.08,10.66l-.23-3.72c.74.81.85,3.87,4.59,4.92.66,1.67-.6,3.69-.6,3.69l-.83-1s-2.81,1.93-3,2.16a53,53,0,0,0-7.62-5.62,37.69,37.69,0,0,0-.34-7.09c-1.21-4.29-4-5.33-5.83-5.1C550.12,582.26,550.65,579.89,552.79,578.68Z" transform="translate(-369.67 -354.94)" style="fill:#fff"/><path d="M582.53,565.43c-.21-3.35-2.85-7.24-7.37-9.62a3.31,3.31,0,0,1,1.26,2.14s-4.83-5.39-14.08-5.39c9.9,2.92,13.6,8.27,13.6,8.27l.06-2Z" transform="translate(-369.67 -354.94)" style="fill:#fff"/><path d="M582.53,565.43s-2.26-1.6-8.66,0c0-.05,3.89.89,3.89.89C578.4,565.73,580.8,565.19,582.53,565.43Z" transform="translate(-369.67 -354.94)" style="fill:#fff"/><path d="M560,562.2l4.29-2.59c1.83.83,3.08,3.21,3.31,8.44A13.55,13.55,0,0,0,560,562.2Z" transform="translate(-369.67 -354.94)" style="fill:#fff"/><path d="M551.35,580s-5.21,1.72-6.48,4.5c-3.7.6-11.22,6-12.61,9.27,0,0,0-6.22,10.83-11.85,0,0,5.11-2.5,6.36-7.46,0,0,2.6,3.79,4.1,3.43.66-.16,3.23,3.85-1.15,4.82C552.68,581.83,550.07,580.91,551.35,580Z" transform="translate(-369.67 -354.94)" style="fill:#fff"/></svg>