<?xml version="1.0" encoding="utf-8"?>
<!-- Generator: Adobe Illustrator 23.0.1, SVG Export Plug-In . SVG Version: 6.00 Build 0)  -->
<svg version="1.1" id="Layer_1" xmlns="http://www.w3.org/2000/svg" xmlns:xlink="http://www.w3.org/1999/xlink" x="0px" y="0px"
	 viewBox="0 0 1000 1000" style="enable-background:new 0 0 1000 1000;" xml:space="preserve">
<style type="text/css">
	.st0{fill:#15295E;}
</style>
<g>
	<g>
		<path class="st0" d="M479.3,138.8c0-14.5,9.3-26.4,20.7-26.4c11.4,0,20.6,11.8,20.6,26.4c0,14.6-9.3,26.3-20.6,26.3
			C488.6,165.1,479.3,153.4,479.3,138.8L479.3,138.8z"/>
	</g>
	<path class="st0" d="M649.9,352c7.5,2,13,8.7,13,16.7c0,9.5-7.8,17.3-17.5,17.3c-1.2,0-2.4-0.1-3.6-0.4c-0.4,0-0.8-0.2-1.1-0.3
		c-44.5-10.8-91.8-16.5-140.8-16.5c-48.9,0-96.2,5.7-140.8,16.5c-0.4,0.1-0.7,0.2-1.1,0.3c-1.1,0.3-2.3,0.4-3.6,0.4
		c-9.7,0-17.6-7.7-17.6-17.3c0-8,5.6-14.8,13.1-16.7c47.6-11.5,97.9-17.7,150-17.7c52,0,102.3,6.2,149.7,17.7L649.9,352z"/>
	<path class="st0" d="M696,205.7c-5.1,3.9-14.5,5.6-25,4.2c1.7,8.6,1.5,18.3-1,28.1c-10.9-5.8-17.9-18.3-19.5-33.1
		c-0.5,4.8-1.4,9.8-2.7,14.8c-3.8,15.7-10.7,29.4-19.2,40.2c14.3-9.4,36.3-5.2,23.9,9.3c-6.7,7.7-17.1,11-29.5,8.8
		c-11.6-2-22.1-9.2-25.9-20.3c3.5-0.2,6.7-2.6,7.4-6.1c4.8,6.9,11.5,10,11.5,10c-2.6-18.7,4.8-24.8,9.7-33.6
		c4.8-8.9,4.5-16.5-0.1-19.5c-4.5-3-10,0.5-14.7,5c0.2-0.8,0.4-1.6,0.6-2.5c6-28.4,3.6-52.9-5.3-54.6c-8.8-1.7-20.9,19.8-26.9,48.2
		c-0.2,0.8-0.4,1.7-0.5,2.5c-2.5-6-6.1-11.3-11.4-10.3c-5.4,1.1-8.9,7.9-8,17.9c0.8,10.1,5.2,18.5-4.8,34.6
		c0.1,0.1,7.5-0.2,14.7-4.7c-0.7,3.4,0.9,6.7,3.9,8.3c-7,7.3-17.2,12.5-31.2,10.9c-16.7-1.8-26.9-15.7-29.2-30.7
		c11.6,1.9,21.7,6.4,29,12.5c-4.1-14.8-4.4-32.5,0-50.7c0.5-1.8,0.9-3.6,1.5-5.4c-6.4,9-17.8,15.9-31.4,18.5
		c0.5-3.2,1.3-6.4,2.3-9.6c3.1-10.1,8.4-20.5,14.7-27.6c-8.5,2.9-18.4,4.6-28.8,4.6c-10.5,0-20.4-1.7-28.9-4.6
		c6.3,7.1,11.6,17.5,14.7,27.6c1,3.2,1.7,6.4,2.3,9.6c-13.6-2.6-25-9.4-31.4-18.5c0.5,1.8,1,3.6,1.5,5.4c4.4,18.2,4,35.9,0,50.7
		c7.3-6.1,17.5-10.6,29.1-12.5c-2.2,15-12.4,28.9-29.2,30.7c-13.9,1.5-24.2-3.6-31.1-11c2.9-1.5,4.5-4.8,3.8-8.3
		c7.2,4.5,14.7,4.8,14.7,4.7c-10-16.1-5.7-24.6-4.8-34.6c0.9-10-2.6-16.9-8-17.9c-5.3-1-9,4.3-11.5,10.3l-0.5-2.5
		c-6-28.4-18.1-49.9-26.9-48.2c-8.9,1.8-11.3,26.2-5.2,54.6l0.5,2.5c-4.7-4.5-10.2-8-14.7-5c-4.6,3.1-4.9,10.6-0.1,19.5
		c4.9,8.8,12.3,14.9,9.6,33.6c0.1,0,6.8-3.1,11.7-10c0.7,3.5,3.8,6,7.3,6.1c-3.9,11.1-14.3,18.3-25.9,20.3
		c-12.3,2.2-22.8-1.1-29.4-8.8c-12.5-14.4,9.5-18.7,23.9-9.3c-8.6-10.8-15.5-24.5-19.3-40.1c-1.2-4.9-2.1-9.9-2.6-14.7
		c-1.5,14.7-8.5,27.2-19.4,33c-2.6-9.9-2.8-19.7-1-28.3c-10.4,1.7-19.7,0.3-24.9-3.4l40.2,108.3c4.8,12.2,6.4,19.4,2.1,32.8
		c48.5-12.4,100.1-19.1,153.7-19.1c53.6,0,105.2,6.7,153.7,19.1c-4.4-13.4-2.8-20.6,2.1-32.8L696,205.7z M363.7,325.6l-10.1-31.1
		l9.4-2l10,31.2L363.7,325.6z M391.4,310.6c-4.1,0-7.5-3.3-7.5-7.4c0-4.1,3.4-7.4,7.5-7.4c4.2,0,7.5,3.3,7.5,7.4
		C398.9,307.3,395.6,310.6,391.4,310.6L391.4,310.6z M427.3,313.6l-14.5-13.3l9.5-17l14.5,13.3L427.3,313.6z M460.7,304.7
		c-5,0-9.1-4-9.1-8.9c0-4.9,4-8.9,9.1-8.9c5,0,9,4,9,8.9C469.7,300.7,465.7,304.7,460.7,304.7L460.7,304.7z M510,310.5h-20v-31.6h20
		V310.5z M539.4,304.7c-5.1,0-9.1-4-9.1-8.9c0-4.9,4-8.9,9.1-8.9c5,0,9.1,4,9.1,8.9C548.5,300.7,544.4,304.7,539.4,304.7
		L539.4,304.7z M572.9,313.6l-9.6-17l14.4-13.3l9.6,17L572.9,313.6z M608.7,310.6c-4.1,0-7.6-3.3-7.6-7.4c0-4.1,3.4-7.4,7.6-7.4
		c4.2,0,7.5,3.3,7.5,7.4C616.2,307.3,612.8,310.6,608.7,310.6L608.7,310.6z M636.4,325.6l-9.4-1.9l10.1-31.2l9.3,2L636.4,325.6z"/>
	<path class="st0" d="M394.5,493.5c-1.7,2.9-2.9,5.3-2.9,5.3c-3.5-12-2.2-21.7-0.3-27.8c-2.4,1.5-4,2.9-4,2.9
		c0.6-3.4,1.3-6.5,2.1-9.3c-23.5-10-39.4-18.5-37.4-33.5c0.8-5.9,5.3-10.5,2.7-15.9c-0.7-1.3-1.5-2.2-2.4-2.9
		c-0.1-0.7-0.2-1.3-0.4-1.9c-1.6-4.7-6.6-7-11.5-5.4c2.1,0.3,4.1,1.8,4.9,4.1c0.2,0.8,0.4,1.5,0.3,2.2c-1.5,0.6-2.9,1.6-3.6,2.9
		c-0.6-1-1.5-1.7-2.5-2.2c-1.1-0.5-2.4-0.6-3.6-0.4c-0.6-1-1.6-1.9-2.7-2.6c-4.2-2.6-9.6-1.2-12.2,3.1c2-1.1,4.2-1.1,6.2,0.1
		c1.2,0.7,2,1.7,2.5,2.8c-0.5,0.5-0.9,1.1-1.3,1.8c-0.7,1.6-0.7,3.2-0.1,4.5c-1.2-0.1-2.3,0.1-3.3,0.5c-0.9-0.4-1.9-0.6-3-0.7
		c-4.9-0.2-9,3.6-9.2,8.7c1.1-1.9,3.2-3.1,5.5-3c1.3,0,2.4,0.5,3.5,1.3c-2.4,5.1,2.6,12.4,9.6,14c12.4,2.8,6.6,16.1,6.3,17.2
		c-0.3,1.4-0.2,2.6,0.4,3.5c-0.7,0.6-1.5,1-2.4,1.2c-2.2,0.6-4.4-0.1-6-1.4c1.3,4.7,6.1,7.4,10.8,6.1c0.8-0.2,1.6-0.6,2.4-1
		c1.2,0.8,2.7,1.3,4.4,1.3c3.6,0,6.7-2.4,7.3-5.8l0.8,0.5c16.4,11.3,13.5,29,25.3,38.6c-1.2-6.1,1.6-10.9,1.6-10.9
		c3.1,10.8,13.8,11.2,13.8,11.2S395.1,499,394.5,493.5L394.5,493.5z"/>
	<path class="st0" d="M411.8,526.6c0.1-2.1-0.9-5.3-3.3-10.6c-2.3-4.8-2.5-9.8-2.1-12.7c-2.3,2.9-3.8,6.7-3.8,6.7
		c-7.4-13.1-5.1-25.2-4.3-27.2c-2.6,2-5,5.7-5,5.7c-1.9-10.6,1-18.8,3.5-23.7c-3.2,1-5.5,2.8-5.5,2.8c2.3-9.3,5.9-15.1,8.4-18.1
		c-3.7,0.7-6.2,1.9-6.2,1.9c3.6-12.9,12.6-23.1,16.3-26.5c-2.5-0.3-6-1.6-6.4-6.2c-0.5-6.5-4.3-10-4.3-10c6.8,1.7,6.7,0.5,11.7,0.9
		c2.8,0.3,4.7,1.4,6,3.1c2.8-3.5,5.8-5.6,5.9-5.6c-0.4,1.1-1.2,3.1-1.4,5.4c4.1-5.9,10-9.6,10-9.6c-0.5,0.8-1.5,3.5-2.1,6.5
		c2.8-2.8,10.1-9.6,17.7-7.5c-6.5,2.2-6.6,11.2-0.7,12.7c2.9,0.7,5.7-0.9,6.3-3.6c0.1-0.7,0.1-1.6,0-2.3c3.7,3.9,4.1,10.2,4.1,12.9
		c1.1-2.2,1.4-4.6,1.5-5.7c0,0,2,3.5,2.6,7.9c2.2-1.1,4.4-1.2,7.2,0c4.5,1.9,3.8,3,10.6,4.6c0,0-4.9,1.4-8.4,6.9
		c-2.6,4.3-6.9,3.3-9.2,2.2c1.5,4.2,4.6,15.4,1.9,31.1c0,0-1.6-2.2-4.5-4.5c0.8,3.7,1.3,10.4-1.1,19.6c0,0-1.2-2.7-4-5
		c-0.2,5.7-1.7,14.8-8.6,23.6c0,0-0.3-3.6-1.2-6.6c-1.2,4-5.4,13.6-16.2,20.5c0,0,0.1-3.4-0.5-6.4c-1.2,2.7-3.7,6.3-7.2,9
		C415,522.3,412.7,524.6,411.8,526.6L411.8,526.6z M462.4,431.4c0,0-1.5-0.3-1.3-2.3c0.3-1.8,2.4-2.9,4.3-2.5
		c1.6,0.3,3.4,1.5,3.4,1.5s-4.4-1.5-4.6,1.7C464,431.9,462.4,431.4,462.4,431.4L462.4,431.4z M407.8,413.1c0,0,4.5,0.7,3.3,3.7
		c-0.8,1.8,0.7,2.2,0.7,2.2c0,0,1.4,0.4,2.1-1.4c0.6-1.7-0.6-3.8-2.5-4.3C410,412.8,407.8,413.1,407.8,413.1L407.8,413.1z
		 M431.9,452.9c0.3-1.1,1.8-1.7,3.3-1.3c0.6,0.2,1.1,0.4,1.5,0.7c0.5-0.2,1.2-1.5,1.4-1.9c1.7-4.2-3.5-1.3-6.6-2.1
		c-3-0.8-6.3-5.7-6.8-1.3c-0.1,0.5,0,2,0.4,2.5c0.5-0.2,1.1-0.2,1.6,0c1.5,0.4,2.4,1.6,2.2,2.7c-0.1,0.6-0.7,1.1-1.5,1.3
		c0.7,0.6,1.4,1.1,2.4,1.3c-0.9,2.4-2.9,5.8-7,2.4c-4.5-3.9-8.7-5.7-11.5-4.4c1.7,0,7.3,1.4,5.3,11.2c-1.3,6.2-1.9,10.6,0.7,16.1
		c0,0.1,0.9-2.4,2.4-3.2c-0.8,3.8,0,7.7,1.9,10.9c3.4-1.9,6-4.9,7.1-8.7c0.9,1.4,0.5,4.1,0.6,4.1c5-3.8,6.5-7.8,8.2-13.9
		c2.9-9.5,8.5-8.2,10.1-7.3c-1.9-2.5-6.4-2.8-12.2-1.6c-5.3,1.1-5.5-2.8-5.2-5.4c1,0.2,1.8,0.2,2.6,0
		C432,454.3,431.7,453.6,431.9,452.9L431.9,452.9z M442.7,445.6c-1.8-1-3.8-1.9-5.8-2.6c-0.4-1-0.4-2.4,0.1-2.7c1.4-0.5,1.6,3,3.9,2
		l9.7-4.5c-0.3,3.5-5.7,4-4,7C445.4,445.7,444.1,445.8,442.7,445.6L442.7,445.6z M419.5,430.1c-1.4,3.1,3,6.1,0.2,8
		c0.6,1.3,1.7,2.1,3,2.6c2.1-0.1,4.3,0,6.4,0.4c0.9-0.8,1.5-2,1.1-2.5c-1-1.1-2.7,1.9-4.3-0.1L419.5,430.1z"/>
	<path class="st0" d="M424.3,460.8c-1.8,1.5-2.2,3.9-2.2,3.9c-0.5-2-0.3-3.6-0.1-4.6c-1-0.5-1.9-1-3.1-1.5
		c1.7,3.2-1.4,11.4,1.2,16.2c0.4-1.3,0.9-2.4,1.7-3.5l-0.2,0.7c-0.5,2.1-0.2,3.9,0.7,5.1c0.5,0.3,1.1,0.5,1.7,0.7
		c0.6,0.2,1.2,0.2,1.8,0.2c1.3-0.7,2.5-2.2,3-4.1l0.1-0.7c0.2,1.3,0.2,2.5,0,3.8c4.4-2.9,5.7-11.6,8.6-13.7
		c-1.1-0.1-2.3-0.1-3.5-0.1c-0.3,1-0.9,2.6-2.3,4.1c0,0,0.8-2.4-0.1-4.5c-1.2-0.4-2.3-1.3-3.1-3.1C427,460.7,425.7,461,424.3,460.8
		L424.3,460.8z"/>
	<path class="st0" d="M677.4,494.9c-0.4-2.3-1.7-4.1-3.7-5.5c6-4.8,6.1-12.1,6.1-12.1c-3.2,2.8-5.9,4.2-8.4,4.7
		c7.4-6.9,7.9-16.5,7.9-16.5c-9.6,14.7-20.9,0.2-42.6,11.1c-5.9,3-11.6,2.4-17.1,1c39.7-6.7,53.9-30.4,40.1-39.6
		c-6.2-4-17-3.4-30.8,2c-12.6,4.9-23.5,8.4-33,10.8c-8.6,1.2-15,0.4-20.7-5.5c-0.3,5.9,3.5,7.9,3.5,7.9s-9.9-0.7-15.6-11.4
		c-2.9,8,1.9,11.7,1.9,11.7c-12.4-3.9-10.2-16-21.8-16.6c0.8,0.5,1.4,1.2,1.9,2c0.5,0.9,0.9,1.9,0.9,3c0.1,3.4-2.6,6-6,6.1
		c-0.4,0-0.8,0-1.2-0.1c0,0-0.1,0-0.1,0c-2.9-0.4-7-2.1-7.4-9.7l0-1.2c0.1-6.6,5.9-12.2,14.1-14.5c1.6-0.4,3.2-0.8,4.7-1.1
		c5.4-0.4,10.2,0.4,13.9,1.2c8.5,1.8,17,6.8,25.3,3.4c-1.4-0.2-6.3-0.8-8.7-6.3c18,5.2,22.1-6,22.1-6s-7.3,3.8-13.2,0.7
		c14.7-8.2,3.3-22.9,3.3-22.9s5.1,19.3-26.4,20.1c-18.4,0.5-30.8,3.8-37.3,11.8c-3.6,3.9-5.9,8.8-5.6,14.6c0.1,3.6,1.1,6.6,2.7,9.3
		c-1.9,0.7-6.2,0.9-13.3-3.9c2.2,5.3,10.5,14.1,33,17.4c28.6,6.3,59.6-3.1,85.9-13.5c10-3.9,16.7-4.5,20.7-3.8
		c2.5,0.8,3.8,2.4,3.9,4.8c0,0.9-0.2,1.9-0.5,2.8c-0.5,0.8-1.1,1.6-1.9,2.6c-8.5,10.5-35.6,23.3-83.4,16
		c-10.4-1.4-18.8-1.8-30.6-2.4c-28.7-1.4-63.9,5-78.4,8.1c-0.3,5.1-1.1,11-2.9,17c0,0-1.4-3-3.5-6.2c-0.9,6.3-3.5,16.3-12.5,26.1
		c0,0-0.1-3-0.4-6.6c-4.3,6.5-10.2,12.9-18.1,18c0,0,0.3-1.7,0.6-4.1c-2.4,3.2-4.6,5.1-6.9,6.9c-2.8,2.3-5.4,4.7-7.5,9.2l-1,2
		l-0.2-2.3c-0.5-6.9-2.6-11.4-4.3-15.2c-0.8-1.8-1.4-3.5-1.8-5.2c-0.7,1.8-1.2,3.1-1.2,3.1c-1.5-2.5-2.6-4.9-3.6-7.6l-2.6,1.2
		c-6.7,2.4-40.9,14.2-40.3-7.7c0.3-13.4-5.1-15.8-8.6-15.9c-0.2-0.4-0.5-0.8-0.9-1.1c-3.3-3.6-8.8-3.8-12.6-0.5
		c2.1-0.5,4.4,0.1,6,1.9c0.4,0.5,0.7,1,0.9,1.5c-0.9,0.8-1.7,1.8-2.2,3c-3.1-0.8-6.6,0-8.8,1.9c-0.9-0.2-1.9-0.3-2.9-0.2
		c-4.8,0.5-8.4,4.8-7.9,9.9c0.9-2.1,2.8-3.5,5.1-3.8c1.1-0.1,2.1,0.1,3.1,0.5c-0.2,0.6-0.3,1.3-0.3,2c0,2.1,0.9,4.1,2.3,5.5
		c-1.8,0.9-3.2,2.7-3.7,4.9c-0.1,0.6-0.2,1.2-0.4,1.9c-4.6,1.6-6.9,6.8-5,11.5c0.3-2.2,1.8-4,4-4.9c0.8-0.3,1.6-0.5,2.5-0.4
		c2.2,4.2,8.5,5.4,11.7,2.9c4-3,6.9-0.5,8.8,2.7c3.6,6.3,9,8.5,15,9.5c0.1,0.2,0.1,0.5,0.2,0.7c0.5,1.6,1.6,2.8,2.8,3.5
		c-0.4,0.6-0.8,1.2-1.4,1.7c-1.8,1.5-4.3,1.7-6.2,1.1c3,3.9,8.6,4.4,12.5,1.5c0.6-0.4,1.1-0.9,1.6-1.5c1,0.2,2.1,0.1,3.2-0.3
		c2.7-0.9,4.5-3.1,4.9-5.3c5.4,0.5,10.4,1,15.1,1.5c7.9,1.4,8.2,1.6,16.4,5.4c8.7,3.9,14.7,13.9,14.7,13.9c0.3-3.5,0.1-6.9-0.7-10.1
		c9.1,3,19.4,2.9,24.8-5.3c-3.9,0.7-6.4-3.9-2.8-8.5c6.4-8,3.3-17.4,3.3-17.4c4,7.9,3.2,13.6,1.8,16.6c11.7,0.3,21.4-3.5,43.2-21.2
		c16.4-13.3,28.9-18.4,36.8-20.6c-4.8,11.3,6.1,17.2,20.4,18.4c5.7,0.9,11.3,1.2,13.1,1.8c0.9,0.4,3.1,1,5.7,1.8
		c2,2,1.5,4.2,1.5,4.2c-15.7,7.2-29.3,2.7-36-1.7c-8.9-5.7-13.6-4-16.2-0.9c-4.8-0.1-9,3.6-9.1,8.7c1.1-1.7,3.2-3,5.6-2.9
		c0.7,0,1.2,0.1,1.8,0.4c-0.3,1.7,0.2,3.6,1.4,5.1l0.4,0.4c-0.4,0.6-0.7,1.3-0.9,2c-0.1,0.4-0.2,0.7-0.2,1.1c-0.3,0.1-0.7,0.3-1,0.5
		c-4.2,2.3-5.8,7.8-3.2,12.2c0-2.3,1.1-4.2,3-5.4c0.8-0.5,1.7-0.7,2.6-0.8c0.1,0.2,0.3,0.5,0.5,0.7c0.8,1,1.9,1.8,3.2,2.2
		c0.2,0.1,0.5,0.1,0.7,0.2c0.1,1.1,0.4,2.2,0.8,3.4c-2.1,4.3-0.5,9.7,4.1,12c-1.3-1.8-1.5-4.3-0.4-6.3c0.4-0.7,0.9-1.3,1.4-1.7
		c4.6,2.4,10.9-1.7,11.6-2.4c18.8-16.5,27-1.9,34.1-2.8c0.3,0.6,0.5,1.3,0.6,2.1c0.3,2.3-0.7,4.4-2.2,5.7c4.9-0.6,8.2-5,7.5-9.9
		l-0.1-0.6c1.6-1.4,2.4-3.4,2.5-5.3c3.1-1,6.9-2.6,10.7-5.2c1.4,2,1.7,5,0.3,9.6c0,0,6.4-4.6,5.5-14.5c1.5,2.4,2.2,5.7,1.5,10.5
		c0,0,6.9-5.3,5.6-14.4l-0.1-0.7c-0.9-6.4,3.5-7.3,5.9-7.3l1.6,0.1c-4.3-5.1-14.4-4.4-19.4-4.4c-7.1,0.1-9.8-4.3-7.3-7
		c0,0-2.8-1.9-7.1-4.3c8.6,2.6,17.2,5.5,25,6.8c18.9,3.2,23.8-1.8,30.7-7.9c4.2-3.8,8.4-7.4,12.4-8.6c-6.8,8.8,0.4,19.6,1,24.8
		c0.7,6.5-4.2,6.6-8.8,6.7c-8.1,0.2-11,2.5-11.5,5.6c-0.6,0.1-1.1,0.4-1.7,0.7c-4.4,2.3-6,7.6-3.6,12.2c0.1-2.3,1.3-4.3,3.3-5.4
		c0.8-0.4,1.6-0.6,2.4-0.7c-0.3,2.7,1.5,5.4,4.5,6.2c0.9,0.3,1.7,0.3,2.6,0.2c-0.2,1.4,0,2.7,0.6,3.9c0.5,1,1.3,1.7,2.1,2.2
		l-0.2,0.6c-1.5,4.6,1.1,9.6,6,11.1c-1.5-1.6-2.1-4-1.4-6.2c0.3-1.1,1-2,1.8-2.8c1.9,0.9,4.3,0.8,6.2-0.6c1.3-0.9,2.3-2.1,2.9-3.5
		c0.8,1,1.9,1.8,3.3,2.3c1.5,0.6,3.1,0.7,4.6,0.3c0.1,0.3,0.2,0.6,0.4,1c2.2,4.3,7.5,6.1,12.1,3.8c-2.3-0.1-4.3-1.3-5.4-3.3
		c-0.7-1.4-0.8-2.8-0.5-4.2l0.6-0.3c2.5-1.5,5.9-5.3,2.3-12.2c-4.6-8.9-8.2-7.5-6.3-16.3c0.6-2.7,2.2-6.1,3.5-10.1
		c2-0.3,3.7-1.3,5-2.6c0.4,0.1,0.7,0.2,1.1,0.4c2.1,0.9,3.4,3,3.7,5C682.4,501.9,681,497.3,677.4,494.9L677.4,494.9z"/>
	<path class="st0" d="M394.5,822.3c-1.7,2.9-2.9,5.3-2.9,5.3c-3.5-12-2.2-21.7-0.3-27.8c-2.4,1.5-4,2.9-4,2.9
		c0.6-3.4,1.3-6.4,2.1-9.3c-23.5-10-39.4-18.5-37.4-33.5c0.8-5.9,5.3-10.6,2.7-16c-0.7-1.3-1.5-2.2-2.4-2.9
		c-0.1-0.7-0.2-1.3-0.4-1.9c-1.6-4.7-6.6-7-11.5-5.4c2.1,0.3,4.1,1.8,4.9,4.1c0.2,0.8,0.4,1.5,0.3,2.2c-1.5,0.6-2.9,1.6-3.6,2.9
		c-0.6-0.9-1.5-1.7-2.5-2.2c-1.1-0.5-2.4-0.6-3.6-0.4c-0.6-1-1.6-1.9-2.7-2.6c-4.2-2.6-9.6-1.3-12.2,3.1c2-1.1,4.2-1.1,6.2,0
		c1.2,0.7,2,1.7,2.5,2.9c-0.5,0.5-0.9,1.1-1.3,1.8c-0.7,1.6-0.7,3.2-0.1,4.5c-1.2-0.1-2.3,0.1-3.3,0.5c-0.9-0.4-1.9-0.6-3-0.7
		c-4.9-0.2-9,3.7-9.2,8.7c1.1-1.9,3.2-3.1,5.5-3c1.3,0,2.4,0.5,3.5,1.3c-2.4,5.1,2.6,12.4,9.6,14c12.4,2.8,6.6,16.1,6.3,17.2
		c-0.3,1.4-0.2,2.6,0.4,3.5c-0.7,0.6-1.5,1-2.4,1.2c-2.2,0.6-4.4-0.1-6-1.4c1.3,4.7,6.1,7.4,10.8,6.1c0.8-0.3,1.6-0.6,2.4-1.1
		c1.2,0.8,2.7,1.2,4.4,1.2c3.6,0,6.7-2.4,7.3-5.8l0.8,0.6c16.4,11.3,13.5,29,25.3,38.6c-1.2-6.1,1.6-10.9,1.6-10.9
		c3.1,10.8,13.8,11.2,13.8,11.2S395.1,827.8,394.5,822.3L394.5,822.3z"/>
	<path class="st0" d="M411.8,855.4c0.1-2.1-0.9-5.3-3.3-10.7c-2.3-4.8-2.5-9.8-2.1-12.7c-2.3,2.9-3.8,6.7-3.8,6.7
		c-7.4-13.1-5.1-25.2-4.3-27.2c-2.6,2-5,5.7-5,5.7c-1.9-10.6,1-18.8,3.5-23.7c-3.2,1-5.5,2.8-5.5,2.8c2.3-9.3,5.9-15.1,8.4-18.1
		c-3.7,0.6-6.2,1.9-6.2,1.9c3.6-12.9,12.6-23.1,16.3-26.5c-2.5-0.3-6-1.7-6.4-6.2c-0.5-6.5-4.3-10-4.3-10c6.8,1.7,6.7,0.5,11.7,0.9
		c2.8,0.3,4.7,1.4,6,3.1c2.8-3.5,5.8-5.6,5.9-5.6c-0.4,1-1.2,3.1-1.4,5.4c4.1-5.9,10-9.6,10-9.6c-0.5,0.8-1.5,3.4-2.1,6.5
		c2.8-2.9,10.1-9.6,17.7-7.5c-6.5,2.2-6.6,11.2-0.7,12.7c2.9,0.7,5.7-0.9,6.3-3.5c0.1-0.8,0.1-1.6,0-2.4c3.7,3.9,4.1,10.2,4.1,12.9
		c1.1-2.2,1.4-4.6,1.5-5.7c0,0,2,3.5,2.6,7.9c2.2-1.1,4.4-1.2,7.2,0c4.5,2,3.8,2.9,10.6,4.6c0,0-4.9,1.4-8.4,6.9
		c-2.6,4.3-6.9,3.3-9.2,2.2c1.5,4.2,4.6,15.4,1.9,31.1c0,0-1.6-2.3-4.5-4.5c0.8,3.7,1.3,10.4-1.1,19.6c0,0-1.2-2.7-4-5
		c-0.2,5.7-1.7,14.8-8.6,23.6c0,0-0.3-3.5-1.2-6.6c-1.2,4-5.4,13.5-16.2,20.5c0,0,0.1-3.4-0.5-6.4c-1.2,2.7-3.7,6.3-7.2,9
		C415,851.1,412.7,853.4,411.8,855.4L411.8,855.4z M462.4,760.2c0,0-1.5-0.3-1.3-2.3c0.3-1.8,2.4-2.9,4.3-2.5
		c1.6,0.3,3.4,1.6,3.4,1.6s-4.4-1.5-4.6,1.7C464,760.7,462.4,760.2,462.4,760.2L462.4,760.2z M407.8,741.9c0,0,4.5,0.6,3.3,3.7
		c-0.8,1.8,0.7,2.2,0.7,2.2c0,0,1.4,0.4,2.1-1.4c0.6-1.8-0.6-3.8-2.5-4.3C410,741.6,407.8,741.9,407.8,741.9L407.8,741.9z
		 M431.9,781.7c0.3-1.1,1.8-1.7,3.3-1.3c0.6,0.1,1.1,0.4,1.5,0.7c0.5-0.2,1.2-1.4,1.4-1.9c1.7-4.2-3.5-1.3-6.6-2.1
		c-3-0.8-6.3-5.7-6.8-1.3c-0.1,0.5,0,2,0.4,2.5c0.5-0.2,1.1-0.2,1.6,0c1.5,0.4,2.4,1.6,2.2,2.7c-0.1,0.6-0.7,1.1-1.5,1.3
		c0.7,0.6,1.4,1,2.4,1.3c-0.9,2.4-2.9,5.8-7,2.4c-4.5-3.9-8.7-5.7-11.5-4.4c1.7-0.1,7.3,1.4,5.3,11.2c-1.3,6.2-1.9,10.6,0.7,16.1
		c0,0.1,0.9-2.4,2.4-3.2c-0.8,3.8,0,7.7,1.9,10.9c3.4-1.9,6-4.9,7.1-8.7c0.9,1.4,0.5,4.1,0.6,4.1c5-3.8,6.5-7.7,8.2-13.9
		c2.9-9.5,8.5-8.2,10.1-7.3c-1.9-2.5-6.4-2.8-12.2-1.6c-5.3,1.1-5.5-2.8-5.2-5.4c1,0.2,1.8,0.2,2.6,0
		C432,783,431.7,782.3,431.9,781.7L431.9,781.7z M442.7,774.4c-1.8-1-3.8-1.9-5.8-2.6c-0.4-1-0.4-2.4,0.1-2.7c1.4-0.4,1.6,3,3.9,2
		l9.7-4.5c-0.3,3.5-5.7,4-4,7C445.4,774.4,444.1,774.6,442.7,774.4L442.7,774.4z M419.5,758.9c-1.4,3.1,3,6.1,0.2,8
		c0.6,1.3,1.7,2.1,3,2.6c2.1-0.1,4.3,0.1,6.4,0.4c0.9-0.7,1.5-2,1.1-2.5c-1-1.1-2.7,1.9-4.3-0.1L419.5,758.9z"/>
	<path class="st0" d="M424.3,789.6c-1.8,1.5-2.2,3.9-2.2,3.9c-0.5-2-0.3-3.6-0.1-4.6c-1-0.5-1.9-1-3.1-1.5
		c1.7,3.2-1.4,11.4,1.2,16.2c0.4-1.3,0.9-2.4,1.7-3.5l-0.2,0.7c-0.5,2.1-0.2,3.9,0.7,5.1c0.5,0.3,1.1,0.5,1.7,0.7
		c0.6,0.1,1.2,0.2,1.8,0.2c1.3-0.7,2.5-2.2,3-4.1l0.1-0.7c0.2,1.3,0.2,2.5,0,3.7c4.4-2.9,5.7-11.5,8.6-13.7
		c-1.1-0.1-2.3-0.1-3.5-0.1c-0.3,1-0.9,2.6-2.3,4.1c0,0,0.8-2.3-0.1-4.5c-1.2-0.4-2.3-1.3-3.1-3.1
		C427,789.5,425.7,789.8,424.3,789.6L424.3,789.6z"/>
	<path class="st0" d="M677.4,823.7c-0.4-2.3-1.7-4.1-3.7-5.5c6-4.8,6.1-12.1,6.1-12.1c-3.2,2.8-5.9,4.2-8.4,4.7
		c7.4-6.9,7.9-16.5,7.9-16.5c-9.6,14.7-20.9,0.2-42.6,11.1c-5.9,2.9-11.6,2.4-17.1,0.9c39.7-6.7,53.9-30.4,40.1-39.6
		c-6.2-4-17-3.4-30.8,2c-12.6,4.9-23.5,8.4-33,10.8c-8.6,1.2-15,0.4-20.7-5.5c-0.3,5.9,3.5,7.9,3.5,7.9s-9.9-0.7-15.6-11.4
		c-2.9,7.9,1.9,11.6,1.9,11.6c-12.4-3.9-10.2-16-21.8-16.6c0.8,0.5,1.4,1.2,1.9,2c0.5,0.9,0.9,1.9,0.9,3c0.1,3.4-2.6,6-6,6.1
		c-0.4,0-0.8,0-1.2-0.1h-0.1c-2.9-0.4-7-2.1-7.4-9.7l0-1.2c0.1-6.6,5.9-12.2,14.1-14.5c1.6-0.4,3.2-0.8,4.7-1.1
		c5.4-0.4,10.2,0.4,13.9,1.2c8.5,1.8,17,6.8,25.3,3.4c-1.4-0.2-6.3-0.8-8.7-6.3c18,5.2,22.1-6,22.1-6s-7.3,3.8-13.2,0.7
		c14.7-8.2,3.3-22.9,3.3-22.9s5.1,19.3-26.4,20.1c-18.4,0.5-30.8,3.8-37.3,11.8c-3.6,3.8-5.9,8.8-5.6,14.6c0.1,3.6,1.1,6.6,2.7,9.3
		c-1.9,0.7-6.2,0.9-13.3-3.9c2.2,5.3,10.5,14.1,33,17.4c28.6,6.3,59.6-3.1,85.9-13.4c10-3.9,16.7-4.5,20.7-3.8
		c2.5,0.8,3.8,2.3,3.9,4.7c0,0.9-0.2,1.9-0.5,2.8c-0.5,0.8-1.1,1.6-1.9,2.6c-8.5,10.5-35.6,23.3-83.4,16
		c-10.4-1.4-18.8-1.8-30.6-2.4c-28.7-1.4-63.9,5-78.4,8.1c-0.3,5.2-1.1,11-2.9,17c0,0-1.4-3-3.5-6.2c-0.9,6.3-3.5,16.3-12.5,26.1
		c0,0-0.1-3.1-0.4-6.6c-4.3,6.5-10.2,13-18.1,18c0,0,0.3-1.7,0.6-4.1c-2.4,3.2-4.6,5-6.9,6.9c-2.8,2.4-5.4,4.8-7.5,9.2l-1,2.1
		l-0.2-2.3c-0.5-6.9-2.6-11.4-4.3-15.2c-0.8-1.8-1.4-3.5-1.8-5.1c-0.7,1.7-1.2,3.1-1.2,3.1c-1.5-2.5-2.6-4.9-3.6-7.6l-2.6,1.2
		c-6.7,2.3-40.9,14.2-40.3-7.7c0.3-13.4-5.1-15.8-8.6-15.9c-0.2-0.4-0.5-0.8-0.9-1.1c-3.3-3.6-8.8-3.9-12.6-0.5
		c2.1-0.5,4.4,0.1,6,1.9c0.4,0.5,0.7,1,0.9,1.5c-0.9,0.8-1.7,1.8-2.2,3c-3.1-0.8-6.6,0-8.8,1.9c-0.9-0.2-1.9-0.3-2.9-0.2
		c-4.8,0.5-8.4,4.8-7.9,9.9c0.9-2,2.8-3.5,5.1-3.8c1.1-0.1,2.1,0.1,3.1,0.5c-0.2,0.6-0.3,1.2-0.3,2c0,2.1,0.9,4.1,2.3,5.5
		c-1.8,0.9-3.2,2.7-3.7,4.9c-0.1,0.6-0.2,1.3-0.4,2c-4.6,1.6-6.9,6.8-5,11.5c0.3-2.2,1.8-4,4-4.8c0.8-0.3,1.6-0.5,2.5-0.4
		c2.2,4.2,8.5,5.4,11.7,2.9c4-3,6.9-0.5,8.8,2.6c3.6,6.3,9,8.5,15,9.5c0.1,0.3,0.1,0.5,0.2,0.8c0.5,1.6,1.6,2.7,2.8,3.5
		c-0.4,0.6-0.8,1.2-1.4,1.7c-1.8,1.5-4.3,1.7-6.2,1.1c3,3.9,8.6,4.4,12.5,1.5c0.6-0.4,1.1-0.9,1.6-1.5c1,0.2,2.1,0.1,3.2-0.3
		c2.7-0.9,4.5-3,4.9-5.3c5.4,0.5,10.4,1,15.1,1.5c7.9,1.4,8.2,1.5,16.4,5.4c8.7,3.9,14.7,13.9,14.7,13.9c0.3-3.5,0.1-6.9-0.7-10
		c9.1,3,19.4,2.8,24.8-5.3c-3.9,0.7-6.4-3.9-2.8-8.5c6.4-8,3.3-17.4,3.3-17.4c4,7.9,3.2,13.6,1.8,16.6c11.7,0.3,21.4-3.5,43.2-21.2
		c16.4-13.3,28.9-18.4,36.8-20.6c-4.8,11.3,6.1,17.2,20.4,18.4c5.7,0.9,11.3,1.2,13.1,1.8c0.9,0.4,3.1,1,5.7,1.8
		c2,2,1.5,4.2,1.5,4.2c-15.7,7.2-29.3,2.7-36-1.7c-8.9-5.7-13.6-4-16.2-0.9c-4.8-0.2-9,3.6-9.1,8.7c1.1-1.8,3.2-3,5.6-3
		c0.7,0,1.2,0.1,1.8,0.4c-0.3,1.8,0.2,3.6,1.4,5.2l0.4,0.4c-0.4,0.6-0.7,1.3-0.9,2c-0.1,0.4-0.2,0.7-0.2,1.1c-0.3,0.1-0.7,0.3-1,0.5
		c-4.2,2.3-5.8,7.8-3.2,12.2c0-2.3,1.1-4.2,3-5.4c0.8-0.5,1.7-0.7,2.6-0.8c0.1,0.2,0.3,0.5,0.5,0.7c0.8,1,1.9,1.7,3.2,2.1
		c0.2,0.1,0.5,0.1,0.7,0.2c0.1,1.1,0.4,2.1,0.8,3.4c-2.1,4.3-0.5,9.7,4.1,12c-1.3-1.8-1.5-4.3-0.4-6.3c0.4-0.7,0.9-1.3,1.4-1.7
		c4.6,2.4,10.9-1.7,11.6-2.4c18.8-16.5,27-1.9,34.1-2.7c0.3,0.6,0.5,1.3,0.6,2.1c0.3,2.3-0.7,4.4-2.2,5.7c4.9-0.6,8.2-5,7.5-9.9
		l-0.1-0.6c1.6-1.4,2.4-3.4,2.5-5.3c3.1-0.9,6.9-2.6,10.7-5.2c1.4,2,1.7,5,0.3,9.6c0,0,6.4-4.6,5.5-14.5c1.5,2.5,2.2,5.7,1.5,10.5
		c0,0,6.9-5.3,5.6-14.3l-0.1-0.8c-0.9-6.4,3.5-7.2,5.9-7.2l1.6,0.1c-4.3-5.2-14.4-4.4-19.4-4.4c-7.1,0.1-9.8-4.3-7.3-7.1
		c0,0-2.8-1.9-7.1-4.3c8.6,2.6,17.2,5.5,25,6.8c18.9,3.2,23.8-1.8,30.7-7.9c4.2-3.8,8.4-7.4,12.4-8.7c-6.8,8.8,0.4,19.6,1,24.8
		c0.7,6.5-4.2,6.6-8.8,6.7c-8.1,0.1-11,2.5-11.5,5.6c-0.6,0.1-1.1,0.4-1.7,0.7c-4.4,2.3-6,7.6-3.6,12.2c0.1-2.3,1.3-4.3,3.3-5.4
		c0.8-0.4,1.6-0.6,2.4-0.7c-0.3,2.7,1.5,5.4,4.5,6.3c0.9,0.3,1.7,0.3,2.6,0.2c-0.2,1.4,0,2.7,0.6,3.9c0.5,1,1.3,1.7,2.1,2.2
		l-0.2,0.6c-1.5,4.5,1.1,9.6,6,11.1c-1.5-1.6-2.1-4-1.4-6.2c0.3-1.1,1-2,1.8-2.8c1.9,0.9,4.3,0.8,6.2-0.6c1.3-0.9,2.3-2.1,2.9-3.5
		c0.8,1,1.9,1.8,3.3,2.3c1.5,0.6,3.1,0.7,4.6,0.3c0.1,0.3,0.2,0.6,0.4,1c2.2,4.3,7.5,6.1,12.1,3.8c-2.3-0.1-4.3-1.3-5.4-3.3
		c-0.7-1.4-0.8-2.8-0.5-4.2l0.6-0.3c2.5-1.6,5.9-5.3,2.3-12.2c-4.6-8.9-8.2-7.5-6.3-16.3c0.6-2.7,2.2-6.1,3.5-10.1
		c2-0.3,3.7-1.3,5-2.6c0.4,0.1,0.7,0.2,1.1,0.4c2.1,1,3.4,3,3.7,5C682.4,830.7,681,826.1,677.4,823.7L677.4,823.7z"/>
	<path class="st0" d="M394.5,657.8c-1.7,2.9-2.9,5.3-2.9,5.3c-3.5-12-2.2-21.7-0.3-27.8c-2.4,1.5-4,2.9-4,2.9
		c0.6-3.4,1.3-6.5,2.1-9.3c-23.5-10-39.4-18.5-37.4-33.5c0.8-6,5.3-10.6,2.7-15.9c-0.7-1.3-1.5-2.3-2.4-2.9
		c-0.1-0.7-0.2-1.3-0.4-1.9c-1.6-4.7-6.6-7-11.5-5.4c2.1,0.3,4.1,1.8,4.9,4.1c0.2,0.8,0.4,1.5,0.3,2.2c-1.5,0.6-2.9,1.6-3.6,2.9
		c-0.6-0.9-1.5-1.7-2.5-2.2c-1.1-0.5-2.4-0.6-3.6-0.4c-0.6-1-1.6-1.9-2.7-2.6c-4.2-2.6-9.6-1.2-12.2,3.1c2-1.1,4.2-1.1,6.2,0.1
		c1.2,0.7,2,1.7,2.5,2.8c-0.5,0.5-0.9,1.1-1.3,1.8c-0.7,1.5-0.7,3.2-0.1,4.5c-1.2-0.1-2.3,0.1-3.3,0.6c-0.9-0.4-1.9-0.6-3-0.7
		c-4.9-0.2-9,3.7-9.2,8.7c1.1-1.9,3.2-3.1,5.5-3c1.3,0,2.4,0.5,3.5,1.3c-2.4,5.1,2.6,12.4,9.6,14c12.4,2.8,6.6,16.1,6.3,17.2
		c-0.3,1.4-0.2,2.6,0.4,3.5c-0.7,0.6-1.5,1-2.4,1.2c-2.2,0.6-4.4-0.1-6-1.4c1.3,4.7,6.1,7.4,10.8,6.1c0.8-0.3,1.6-0.6,2.4-1.1
		c1.2,0.8,2.7,1.3,4.4,1.3c3.6,0,6.7-2.4,7.3-5.8l0.8,0.5c16.4,11.3,13.5,29,25.3,38.6c-1.2-6.1,1.6-10.9,1.6-10.9
		c3.1,10.8,13.8,11.2,13.8,11.2S395.1,663.3,394.5,657.8L394.5,657.8z"/>
	<path class="st0" d="M411.8,690.9c0.1-2.2-0.9-5.3-3.3-10.7c-2.3-4.8-2.5-9.8-2.1-12.7c-2.3,2.9-3.8,6.7-3.8,6.7
		c-7.4-13.1-5.1-25.2-4.3-27.2c-2.6,2-5,5.7-5,5.7c-1.9-10.6,1-18.8,3.5-23.7c-3.2,1-5.5,2.8-5.5,2.8c2.3-9.3,5.9-15.1,8.4-18.1
		c-3.7,0.7-6.2,2-6.2,2c3.6-12.9,12.6-23.1,16.3-26.5c-2.5-0.3-6-1.6-6.4-6.3c-0.5-6.5-4.3-10-4.3-10c6.8,1.7,6.7,0.5,11.7,0.9
		c2.8,0.3,4.7,1.4,6,3.1c2.8-3.5,5.8-5.6,5.9-5.6c-0.4,1.1-1.2,3.1-1.4,5.4c4.1-5.9,10-9.6,10-9.6c-0.5,0.8-1.5,3.5-2.1,6.6
		c2.8-2.9,10.1-9.6,17.7-7.5c-6.5,2.2-6.6,11.2-0.7,12.7c2.9,0.7,5.7-0.9,6.3-3.6c0.1-0.8,0.1-1.6,0-2.3c3.7,3.9,4.1,10.2,4.1,12.9
		c1.1-2.2,1.4-4.6,1.5-5.7c0,0,2,3.5,2.6,7.9c2.2-1.1,4.4-1.2,7.2,0c4.5,1.9,3.8,3,10.6,4.6c0,0-4.9,1.4-8.4,6.9
		c-2.6,4.3-6.9,3.3-9.2,2.2c1.5,4.2,4.6,15.4,1.9,31.1c0,0-1.6-2.2-4.5-4.5c0.8,3.8,1.3,10.5-1.1,19.6c0,0-1.2-2.7-4-5
		c-0.2,5.7-1.7,14.8-8.6,23.6c0,0-0.3-3.5-1.2-6.5c-1.2,4-5.4,13.6-16.2,20.5c0,0,0.1-3.4-0.5-6.4c-1.2,2.7-3.7,6.3-7.2,9
		C415,686.7,412.7,688.9,411.8,690.9L411.8,690.9z M462.4,595.8c0,0-1.5-0.3-1.3-2.3c0.3-1.8,2.4-2.9,4.3-2.5
		c1.6,0.3,3.4,1.6,3.4,1.6s-4.4-1.5-4.6,1.7C464,596.2,462.4,595.8,462.4,595.8L462.4,595.8z M407.8,577.4c0,0,4.5,0.6,3.3,3.7
		c-0.8,1.8,0.7,2.2,0.7,2.2c0,0,1.4,0.4,2.1-1.4c0.6-1.7-0.6-3.8-2.5-4.3C410,577.1,407.8,577.4,407.8,577.4L407.8,577.4z
		 M431.9,617.2c0.3-1.1,1.8-1.7,3.3-1.4c0.6,0.2,1.1,0.4,1.5,0.7c0.5-0.2,1.2-1.4,1.4-1.9c1.7-4.2-3.5-1.3-6.6-2.1
		c-3-0.8-6.3-5.7-6.8-1.3c-0.1,0.5,0,1.9,0.4,2.5c0.5-0.1,1.1-0.1,1.6,0c1.5,0.4,2.4,1.6,2.2,2.7c-0.1,0.6-0.7,1.2-1.5,1.3
		c0.7,0.6,1.4,1,2.4,1.3c-0.9,2.4-2.9,5.8-7,2.4c-4.5-3.9-8.7-5.7-11.5-4.4c1.7-0.1,7.3,1.4,5.3,11.2c-1.3,6.2-1.9,10.6,0.7,16.1
		c0,0.1,0.9-2.4,2.4-3.2c-0.8,3.8,0,7.7,1.9,10.9c3.4-2,6-4.9,7.1-8.8c0.9,1.4,0.5,4.2,0.6,4.1c5-3.8,6.5-7.7,8.2-13.9
		c2.9-9.5,8.5-8.2,10.1-7.3c-1.9-2.5-6.4-2.8-12.2-1.6c-5.3,1.1-5.5-2.8-5.2-5.4c1,0.2,1.8,0.2,2.6,0
		C432,618.6,431.7,617.9,431.9,617.2L431.9,617.2z M442.7,609.9c-1.8-1-3.8-1.9-5.8-2.6c-0.4-1-0.4-2.4,0.1-2.7c1.4-0.5,1.6,3,3.9,2
		l9.7-4.5c-0.3,3.5-5.7,4-4,7C445.4,610,444.1,610.1,442.7,609.9L442.7,609.9z M419.5,594.4c-1.4,3.2,3,6.1,0.2,8
		c0.6,1.3,1.7,2.1,3,2.6c2.1-0.1,4.3,0.1,6.4,0.4c0.9-0.8,1.5-2,1.1-2.5c-1-1.1-2.7,2-4.3-0.1L419.5,594.4z"/>
	<path class="st0" d="M424.3,625.1c-1.8,1.5-2.2,3.9-2.2,3.9c-0.5-2-0.3-3.6-0.1-4.6c-1-0.5-1.9-1-3.1-1.5
		c1.7,3.2-1.4,11.4,1.2,16.2c0.4-1.3,0.9-2.4,1.7-3.5l-0.2,0.7c-0.5,2.1-0.2,3.9,0.7,5.1c0.5,0.3,1.1,0.5,1.7,0.7
		c0.6,0.2,1.2,0.2,1.8,0.2c1.3-0.7,2.5-2.2,3-4.1l0.1-0.7c0.2,1.3,0.2,2.5,0,3.8c4.4-2.9,5.7-11.6,8.6-13.7
		c-1.1-0.1-2.3-0.1-3.5-0.2c-0.3,1-0.9,2.6-2.3,4.1c0,0,0.8-2.3-0.1-4.4c-1.2-0.4-2.3-1.3-3.1-3.1
		C427,625.1,425.7,625.3,424.3,625.1L424.3,625.1z"/>
	<path class="st0" d="M677.4,659.3c-0.4-2.3-1.7-4.1-3.7-5.5c6-4.8,6.1-12.1,6.1-12.1c-3.2,2.8-5.9,4.2-8.4,4.8
		c7.4-6.9,7.9-16.5,7.9-16.5c-9.6,14.7-20.9,0.2-42.6,11.1c-5.9,3-11.6,2.4-17.1,1c39.7-6.7,53.9-30.5,40.1-39.6
		c-6.2-4-17-3.4-30.8,2c-12.6,4.9-23.5,8.4-33,10.8c-8.6,1.2-15,0.4-20.7-5.5c-0.3,5.9,3.5,7.9,3.5,7.9s-9.9-0.7-15.6-11.4
		c-2.9,8,1.9,11.7,1.9,11.7c-12.4-3.9-10.2-16-21.8-16.6c0.8,0.5,1.4,1.2,1.9,2c0.5,0.9,0.9,1.9,0.9,3c0.1,3.4-2.6,6-6,6.1
		c-0.4,0-0.8,0-1.2-0.1c0,0-0.1,0-0.1,0c-2.9-0.4-7-2.1-7.4-9.7l0-1.2c0.1-6.6,5.9-12.2,14.1-14.5c1.6-0.4,3.2-0.8,4.7-1.1
		c5.4-0.5,10.2,0.4,13.9,1.1c8.5,1.8,17,6.8,25.3,3.4c-1.4-0.2-6.3-0.8-8.7-6.3c18,5.2,22.1-6,22.1-6s-7.3,3.8-13.2,0.7
		c14.7-8.2,3.3-22.9,3.3-22.9s5.1,19.3-26.4,20.1c-18.4,0.5-30.8,3.8-37.3,11.8c-3.6,3.8-5.9,8.8-5.6,14.6c0.1,3.6,1.1,6.6,2.7,9.3
		c-1.9,0.7-6.2,0.9-13.3-3.9c2.2,5.3,10.5,14.1,33,17.4c28.6,6.3,59.6-3.1,85.9-13.4c10-3.9,16.7-4.5,20.7-3.8
		c2.5,0.8,3.8,2.4,3.9,4.8c0,0.9-0.2,1.9-0.5,2.8c-0.5,0.8-1.1,1.6-1.9,2.6c-8.5,10.5-35.6,23.3-83.4,16
		c-10.4-1.4-18.8-1.8-30.6-2.4c-28.7-1.4-63.9,5-78.4,8.1c-0.3,5.1-1.1,11-2.9,17c0,0-1.4-3-3.5-6.2c-0.9,6.3-3.5,16.3-12.5,26.1
		c0,0-0.1-3-0.4-6.6c-4.3,6.5-10.2,13-18.1,18c0,0,0.3-1.7,0.6-4.1c-2.4,3.2-4.6,5.1-6.9,6.9c-2.8,2.3-5.4,4.8-7.5,9.2l-1,2
		l-0.2-2.3c-0.5-6.9-2.6-11.4-4.3-15.2c-0.8-1.8-1.4-3.5-1.8-5.1c-0.7,1.7-1.2,3.1-1.2,3.1c-1.5-2.5-2.6-4.9-3.6-7.6l-2.6,1.2
		c-6.7,2.3-40.9,14.2-40.3-7.7c0.3-13.4-5.1-15.8-8.6-15.9c-0.2-0.4-0.5-0.8-0.9-1.1c-3.3-3.6-8.8-3.8-12.6-0.5
		c2.1-0.5,4.4,0.1,6,1.9c0.4,0.5,0.7,1,0.9,1.5c-0.9,0.8-1.7,1.8-2.2,3c-3.1-0.8-6.6,0-8.8,1.9c-0.9-0.2-1.9-0.3-2.9-0.2
		c-4.8,0.5-8.4,4.8-7.9,9.9c0.9-2.1,2.8-3.6,5.1-3.8c1.1-0.1,2.1,0.1,3.1,0.5c-0.2,0.6-0.3,1.2-0.3,2c0,2.1,0.9,4.1,2.3,5.5
		c-1.8,0.9-3.2,2.7-3.7,4.9c-0.1,0.6-0.2,1.2-0.4,1.9c-4.6,1.6-6.9,6.8-5,11.5c0.3-2.2,1.8-4,4-4.9c0.8-0.3,1.6-0.5,2.5-0.4
		c2.2,4.2,8.5,5.4,11.7,2.9c4-3,6.9-0.5,8.8,2.7c3.6,6.3,9,8.6,15,9.5c0.1,0.2,0.1,0.5,0.2,0.8c0.5,1.6,1.6,2.7,2.8,3.5
		c-0.4,0.6-0.8,1.2-1.4,1.7c-1.8,1.5-4.3,1.7-6.2,1.1c3,3.8,8.6,4.4,12.5,1.5c0.6-0.4,1.1-0.9,1.6-1.5c1,0.2,2.1,0.1,3.2-0.3
		c2.7-0.9,4.5-3.1,4.9-5.3c5.4,0.5,10.4,1,15.1,1.5c7.9,1.4,8.2,1.6,16.4,5.4c8.7,3.9,14.7,13.9,14.7,13.9c0.3-3.5,0.1-7-0.7-10.1
		c9.1,3,19.4,2.9,24.8-5.3c-3.9,0.7-6.4-3.9-2.8-8.5c6.4-8,3.3-17.4,3.3-17.4c4,7.9,3.2,13.6,1.8,16.6c11.7,0.3,21.4-3.5,43.2-21.2
		c16.4-13.3,28.9-18.4,36.8-20.6c-4.8,11.3,6.1,17.2,20.4,18.4c5.7,0.9,11.3,1.2,13.1,1.8c0.9,0.4,3.1,1,5.7,1.7
		c2,2,1.5,4.2,1.5,4.2c-15.7,7.2-29.3,2.7-36-1.8c-8.9-5.7-13.6-4-16.2-0.9c-4.8-0.1-9,3.6-9.1,8.7c1.1-1.7,3.2-3,5.6-2.9
		c0.7,0,1.2,0.1,1.8,0.4c-0.3,1.7,0.2,3.6,1.4,5.1l0.4,0.4c-0.4,0.6-0.7,1.3-0.9,2c-0.1,0.4-0.2,0.7-0.2,1.1c-0.3,0.1-0.7,0.3-1,0.5
		c-4.2,2.3-5.8,7.8-3.2,12.1c0-2.3,1.1-4.2,3-5.4c0.8-0.5,1.7-0.7,2.6-0.8c0.1,0.2,0.3,0.5,0.5,0.7c0.8,1,1.9,1.8,3.2,2.2
		c0.2,0.1,0.5,0.1,0.7,0.2c0.1,1.1,0.4,2.1,0.8,3.4c-2.1,4.4-0.5,9.7,4.1,12c-1.3-1.8-1.5-4.3-0.4-6.3c0.4-0.8,0.9-1.3,1.4-1.7
		c4.6,2.4,10.9-1.7,11.6-2.4c18.8-16.5,27-1.9,34.1-2.8c0.3,0.6,0.5,1.3,0.6,2.1c0.3,2.3-0.7,4.4-2.2,5.7c4.9-0.6,8.2-5,7.5-9.9
		l-0.1-0.6c1.6-1.4,2.4-3.4,2.5-5.3c3.1-0.9,6.9-2.6,10.7-5.2c1.4,2,1.7,5,0.3,9.6c0,0,6.4-4.6,5.5-14.5c1.5,2.4,2.2,5.7,1.5,10.5
		c0,0,6.9-5.3,5.6-14.4l-0.1-0.7c-0.9-6.4,3.5-7.3,5.9-7.2l1.6,0.1c-4.3-5.1-14.4-4.4-19.4-4.4c-7.1,0.1-9.8-4.3-7.3-7.1
		c0,0-2.8-1.9-7.1-4.3c8.6,2.6,17.2,5.5,25,6.8c18.9,3.2,23.8-1.8,30.7-7.9c4.2-3.8,8.4-7.4,12.4-8.6c-6.8,8.8,0.4,19.6,1,24.8
		c0.7,6.5-4.2,6.6-8.8,6.7c-8.1,0.2-11,2.5-11.5,5.6c-0.6,0.2-1.1,0.4-1.7,0.7c-4.4,2.3-6,7.6-3.6,12.2c0.1-2.3,1.3-4.3,3.3-5.4
		c0.8-0.4,1.6-0.6,2.4-0.7c-0.3,2.7,1.5,5.4,4.5,6.2c0.9,0.3,1.7,0.3,2.6,0.2c-0.2,1.4,0,2.7,0.6,3.9c0.5,1,1.3,1.7,2.1,2.2
		l-0.2,0.6c-1.5,4.5,1.1,9.6,6,11.1c-1.5-1.6-2.1-4-1.4-6.2c0.3-1.1,1-2,1.8-2.8c1.9,0.9,4.3,0.8,6.2-0.6c1.3-0.9,2.3-2.1,2.9-3.5
		c0.8,1,1.9,1.8,3.3,2.3c1.5,0.6,3.1,0.7,4.6,0.3c0.1,0.3,0.2,0.6,0.4,1c2.2,4.3,7.5,6.1,12.1,3.7c-2.3-0.1-4.3-1.4-5.4-3.3
		c-0.7-1.4-0.8-2.8-0.5-4.2l0.6-0.3c2.5-1.5,5.9-5.3,2.3-12.1c-4.6-8.9-8.2-7.5-6.3-16.3c0.6-2.7,2.2-6.1,3.5-10.1
		c2-0.3,3.7-1.3,5-2.6c0.4,0.1,0.7,0.2,1.1,0.4c2.1,0.9,3.4,3,3.7,5C682.4,666.2,681,661.6,677.4,659.3L677.4,659.3z"/>
</g>
</svg>
