<?xml version="1.0" encoding="utf-8"?>
<!-- Generator: Adobe Illustrator 23.0.1, SVG Export Plug-In . SVG Version: 6.00 Build 0)  -->
<svg version="1.1" id="Layer_1" xmlns="http://www.w3.org/2000/svg" xmlns:xlink="http://www.w3.org/1999/xlink" x="0px" y="0px"
	 viewBox="0 0 1000 1000" style="enable-background:new 0 0 1000 1000;" xml:space="preserve">
<style type="text/css">
	.st0{clip-path:url(#SVGID_2_);fill-rule:evenodd;clip-rule:evenodd;fill:#D7B369;}
	.st1{fill-rule:evenodd;clip-rule:evenodd;fill:#004494;}
	.st2{fill-rule:evenodd;clip-rule:evenodd;fill:#D3EEFA;}
	.st3{fill-rule:evenodd;clip-rule:evenodd;fill:#D7B369;}
</style>
<g>
	<g>
		<defs>
			<rect id="SVGID_1_" x="121" y="119.1" width="758" height="761.8"/>
		</defs>
		<clipPath id="SVGID_2_">
			<use xlink:href="#SVGID_1_"  style="overflow:visible;"/>
		</clipPath>
		<path class="st0" d="M341.7,256c-3-31.3-30.6-52.9-46-59.2c11.4-15.8,36.4-18.1,68.9-9.3c12.9-22.3,27.2-54.6,56.5-63
			c-14.4,45.2-12,79.4,3.1,95.3C394.6,227.5,366.8,239.8,341.7,256L341.7,256z M449.2,214.4c6.5-29.5-11.3-58.2-23.2-69.1
			c16.2-10.9,40.4-4.4,67.9,15.2c19.8-16.4,44.5-41.7,74.9-39.4c-30.2,38.7-39.4,72.5-29.2,92.5c-13.8-2-27.8-3.1-42.1-3.1
			C481,210.3,464.9,211.7,449.2,214.4L449.2,214.4z M564.4,218.2c14.6-25.2,8-56.8,0.7-70.8c19-4.6,39.5,9.8,58.5,37.6
			c24.2-8.6,56.1-23.9,83.8-11.3c-43.4,27-63.6,56.9-58.8,79.5C623,237.3,594.6,225.4,564.4,218.2L564.4,218.2z M664.9,264
			c25.5-16.2,33.3-49.1,32.6-65.2c19.1,3.8,31.6,25.5,37.2,58.8c25.6,2.4,60.9,2,80.8,25.2c-48.6,5.9-79.1,23.2-86.1,44.4
			C711.3,302.8,689.6,281.5,664.9,264L664.9,264z M742.6,346.2c29.7-5.4,49.3-32.8,54.8-48c16.3,10.8,19.6,35.6,12.1,68.5
			c22.8,12,55.6,25,65.2,53.9c-47.4-13-82.2-8.5-96.6,8.6C770.6,399.5,758.5,371.6,742.6,346.2L742.6,346.2z M782.7,451
			c29.7,7.2,58.8-10.4,70-22.3c10.7,16.3,4,40.5-15.9,67.7c16.2,20,41.3,44.9,38.7,75.2c-38.1-30.4-71.5-40-91.6-30.4
			c2-13.5,3-27.3,3-41.4C786.9,483.1,785.4,466.8,782.7,451L782.7,451z M779.2,566c25,15.5,57.2,9.2,71.4,2.1
			c4.4,19-10.3,39.3-38.4,58c8.3,24.3,23.1,56.4,10.1,84c-26.1-43.2-55.2-63.8-77.7-60C760.3,624.4,772.1,596.1,779.2,566L779.2,566
			z M733.7,666.6c15.7,26.3,48.9,34.7,65.2,34.2c-4.1,19.1-25.9,31.3-59.3,36.3c-2.8,25.6-2.9,60.9-26.3,80.4
			c-5.2-48.1-21.7-78.6-42.5-86.4C695,713.1,716.2,691.2,733.7,666.6L733.7,666.6z M651.6,744.5c4.6,30.2,32.1,50.5,47.4,56.3
			c-11,16.1-35.9,19.1-68.6,11.2c-12.3,22.6-25.7,55.3-54.8,64.4c13.5-46.6,9.7-81.2-6.7-96.2C598.5,772.6,626.4,760.4,651.6,744.5
			L651.6,744.5z M547,784.9c-8.1,29.8,9.3,59.6,21.2,71.1c-16.5,10.5-40.5,3.4-67.5-16.8c-20.2,15.9-45.4,40.7-75.7,37.6
			c30.5-37.2,40.7-70.2,32-90.5c13.2,1.9,26.7,2.9,40.5,2.9C514.3,789.2,530.9,787.7,547,784.9L547,784.9z M431.9,781.7
			c-16.3,24.9-10.4,57.6-3.5,72c-19.1,4.1-39.2-10.8-57.5-39.2c-24.5,7.9-56.7,22.4-84.1,9c43-25.2,64-53.6,61.2-76
			C373.7,763,401.9,774.7,431.9,781.7L431.9,781.7z M331.3,736.5c-27.1,15.1-36.1,48.7-35.9,65.2c-19-4.4-30.9-26.4-35.5-59.8
			c-25.5-3.1-60.8-3.7-80-27.4c47.7-4.5,78.3-20.3,86.7-40.6C284.7,698,306.6,719.1,331.3,736.5L331.3,736.5z M253.2,654.7
			c-30.8,3.8-51.7,31.4-57.7,46.7c-15.9-11.2-18.6-36.1-10.3-68.8c-22.4-12.6-54.9-26.5-63.7-55.6c45.9,13.9,80.3,10.9,95.7-4.9
			C224.8,601.7,237.1,629.5,253.2,654.7L253.2,654.7z M212.4,550.3c-30-9.1-60.5,8.1-72.2,19.9c-10.2-16.6-2.9-40.5,17.7-67.2
			c-15.7-20.4-40-46-36.6-76.3c36.4,30.7,69,41.5,89.4,33.5c-1.8,12.9-2.7,26.2-2.7,39.6C208,517,209.5,533.9,212.4,550.3
			L212.4,550.3z M215.3,435c-24.8-17.2-58-11.7-72.6-4.9c-3.8-19.1,11.4-39,39.9-56.9c-7.6-24.6-21.6-57-7.9-84.2
			c24.3,42.8,52,64.2,74.4,62.3C233.7,376.9,222.2,405.1,215.3,435L215.3,435z M260.1,334.4c-14.5-27.9-48.4-37.5-65.1-37.5
			c4.6-18.9,26.8-30.6,60.3-34.7c3.5-25.5,4.5-60.8,28.4-79.7c3.8,47.2,18.9,77.9,38.8,87C298.5,287.7,277.5,309.6,260.1,334.4
			L260.1,334.4z M260.1,334.4"/>
	</g>
	<path class="st1" d="M497.4,210.3c159.9,0,289.4,129.6,289.4,289.4c0,117.1-70.5,222.6-178.7,267.4
		c-108.1,44.8-232.6,20-315.4-62.7C210,621.6,185.2,497.2,230,389C274.8,280.8,380.3,210.3,497.4,210.3L497.4,210.3z M497.4,210.3"
		/>
	<path class="st2" d="M497.4,352.7c39,0,76.4,15.5,104,43.1c27.6,27.6,43.1,65,43.1,104c0,59.5-35.8,113.1-90.8,135.9
		c-54.9,22.8-118.2,10.2-160.3-31.9c-42.1-42.1-54.6-105.3-31.9-160.3C384.3,388.5,437.9,352.7,497.4,352.7L497.4,352.7z
		 M497.4,352.7"/>
	<path class="st3" d="M497.4,356.5l45.2,83.9l93.5,22.2l-71.5,75.6l18.5,76.6l-85.8-40l-85.8,40l18.5-76.6l-71.5-75.6l93.5-22.2
		L497.4,356.5z M497.4,356.5"/>
	<path class="st3" d="M498.1,696.2c8.3-5.2,15.5-6.8,21.7-1.4c16.7,14.6-9.6,37.6-21.7,46.8c-10.8-9.1-40.8-29.5-22.8-46.8
		C482.1,688.3,492.3,691.3,498.1,696.2L498.1,696.2z M498.1,696.2"/>
	<path class="st3" d="M396.1,711.3l-11.2-6c-5.4-2.9-6.8-7.1-4-12.6c1.2-2.4,2.5-3.9,3.9-4.7c1.4-0.8,2.9-1.1,4.6-0.9
		c-3.1-2.3-3.4-5.9-0.9-10.9c1-1.9,2.2-3.4,3.6-4.7c1.4-1.3,3-2.1,4.8-2.3c1.8-0.3,3.6,0.1,5.6,1.2l12,6.4L396.1,711.3z
		 M392.3,702.7l4.8-8.9l-2.3-1.2c-1.5-0.8-2.8-1.1-3.8-0.8c-1,0.3-2,1.3-3,3.2c-1,1.9-1.3,3.2-0.9,4c0.3,0.8,1.4,1.6,3,2.5
		L392.3,702.7z M396.4,686.9l3.3,1.8l5.6-10.6l-3.5-1.9c-2.4-1.3-4.6-0.2-6.6,3.3C393.3,683,393.7,685.5,396.4,686.9L396.4,686.9z
		 M356.2,656.8c2.4-2.9,4.6-5.1,6.4-6.5c1.8-1.5,3.9-2.2,6.3-2.2c2.4,0,5,1.1,7.9,3.5c4.4,3.6,6.3,6.9,5.6,9.9
		c-0.7,3.1-2.6,6.7-5.8,10.9l-0.5,0.7l-3.1,3.9c0,0.1-0.1,0.1-0.1,0.2c0,0-0.1,0.2-0.3,0.5c-0.4,0.5-1,1.1-1.7,2
		c-0.7,0.8-1.7,1.8-2.9,3c-1.2,1.2-2.4,2.1-3.5,2.9c-1.1,0.7-2.1,1.2-2.9,1.5c-2.4,0.5-4.4,0.5-5.9-0.1c-1.5-0.6-3.1-1.5-4.8-2.9
		c-2.9-2.4-4.6-4.9-4.9-7.5c-0.3-2.6,0.2-5.1,1.4-7.4c1.2-2.3,2.9-4.7,5-7.3L356.2,656.8z M363.6,676.5l9-11c3.2-3.9,3.3-7,0.5-9.3
		c-2.7-2.2-5.6-1.3-8.8,2.6l-8.5,10.6c-1.1,1.4-2,2.9-2.6,4.8c-0.6,1.8-0.1,3.4,1.5,4.8c1.4,1.1,2.8,1.5,4.4,1.1
		C360.6,679.6,362.1,678.4,363.6,676.5L363.6,676.5z M324.4,657.7l-6.4-7.6l24.4-32l5.1,6l-6.4,7.8l5.5,6.6l8.9-4.8l5,5.9
		L324.4,657.7z M337.4,636.6l-8.6,10.3l-4.2,4.3l0.1,0.1l5-3.4l11.8-6.4L337.4,636.6z M304.2,632.8l-7.5-12.1c-3.7-5.9-3-10.6,2-14
		c2.3-1.6,4.5-2.4,6.6-2.4c2.1,0,3.8,0.8,5,2.5c-0.6-1.4-0.9-2.6-0.8-3.6c0.1-1.1,0.5-1.9,1-2.6c0.6-0.7,1.2-1.3,1.9-1.8
		c0.7-0.5,1.6-1.1,2.6-1.7c2.2-1.5,4.2-2.9,5.9-4.2c1.7-1.3,2.3-2.3,2-2.8l0.6-0.4l4.5,7.2c-0.8,0.6-1.9,1.5-3.4,2.5
		c-1.5,1-2.7,1.9-3.5,2.7l-2.3,1.4c-1.6,1-2.6,2-3,3.2c-0.4,1.1,0.1,2.8,1.4,4.9l2,3.3l14.3-8.9l3.9,6.2L304.2,632.8z M302.4,619
		l2.8,4.5l9.2-5.7l-2.7-4.3c-0.8-1.4-1.9-2.1-3.2-2.3c-1.3-0.2-2.6,0.2-3.9,1c-1.6,1-2.6,2-3,3.1C301.2,616.3,301.5,617.5,302.4,619
		L302.4,619z M282.8,595.2l-5.1-13.2c-1.4-3.8-1.1-7,1.1-9.8c2.2-2.7,6.8-5.3,13.6-7.6c3-1,5.4-1.7,7.4-2.2c1.9-0.5,3.9-0.8,5.8-0.8
		c1.9,0,3.6,0.4,5.2,1.4c1.5,1,2.7,2.6,3.6,4.9l5.1,13.3L282.8,595.2z M285.5,586.2l25.9-10l-1.4-3.6c-0.7-1.8-1.7-3-3.1-3.4
		c-1.4-0.5-3-0.4-4.9,0c-1.9,0.5-4.5,1.4-7.8,2.7c-4.6,1.8-7.7,3.4-9.3,4.7c-1.6,1.3-2.1,2.9-1.4,4.7L285.5,586.2z M285.9,511.4
		c3.8-0.4,6.8-0.5,9.1-0.2c2.3,0.2,4.3,1.2,6.1,2.8c1.7,1.7,2.9,4.3,3.3,8c0.7,5.6-0.3,9.3-2.9,11c-2.6,1.7-6.5,3-11.8,3.8l-0.8,0.1
		l-4.9,0.6c-0.1,0-0.1,0-0.2,0c-0.1,0-0.3,0.1-0.6,0.2c-0.7,0-1.5,0.1-2.6,0.2c-1.1,0.1-2.5,0.1-4.2,0.1c-1.7,0-3.2-0.2-4.5-0.4
		c-1.3-0.2-2.4-0.6-3.2-1c-2.1-1.3-3.5-2.7-4.2-4.2c-0.7-1.5-1.2-3.3-1.4-5.4c-0.5-3.8,0.1-6.7,1.7-8.8c1.6-2.1,3.7-3.5,6.1-4.3
		c2.5-0.8,5.4-1.4,8.7-1.8L285.9,511.4z M277.5,530.8l14.1-1.7c5-0.6,7.2-2.7,6.8-6.3c-0.4-3.4-3.1-4.8-8.1-4.2l-13.5,1.7
		c-1.7,0.2-3.5,0.8-5.2,1.7c-1.7,0.9-2.5,2.4-2.3,4.5c0.2,1.8,1,3,2.4,3.8C273.1,530.8,275.1,531.1,277.5,530.8L277.5,530.8z
		 M262.7,495.4l1.8-20.7l5.7,0.5l-1.2,13.4l10,0.9l1.1-12.6l5.7,0.5l-1.1,12.6l17.7,1.5l-0.6,7.2L262.7,495.4z M285,433.8
		c-4.4-1.2-7.1-0.7-7.9,1.5c-1.3,3.3,0.6,5.6,5.5,7l13,3.7c2.8,0.8,5,1,6.6,0.7c1.5-0.4,2.5-1.3,3-2.8c0.5-1.7,0.1-2.9-1.1-3.9
		c-1.2-0.9-3.3-1.9-6.4-2.7l2-7.1c2.5,0.8,4.7,1.7,6.4,2.5c1.7,0.8,3.2,2.3,4.5,4.3c1.2,2,1.4,4.6,0.5,7.9c-0.9,3.1-2.1,5.4-3.6,6.9
		c-1.5,1.5-3.6,2.3-6.1,2.4c-2.5,0.1-5.7-0.4-9.6-1.5l-6.4-1.8c-4.3-1.2-7.6-2.6-9.8-4c-2.2-1.4-3.7-3.1-4.3-5.1
		c-0.6-2-0.6-4.5,0.2-7.5c1.1-4.2,3-6.7,5.6-7.7c2.7-1,6.1-0.9,10.1,0.2L285,433.8z M314,394.9c3.3,1.8,5.9,3.5,7.6,5
		c1.8,1.5,2.9,3.4,3.4,5.8c0.5,2.4-0.1,5.2-1.9,8.5c-2.7,5-5.6,7.5-8.7,7.4c-3.1,0-7.1-1.3-11.8-3.6l-0.7-0.4l-4.4-2.3
		c-0.1,0-0.1-0.1-0.2-0.1c-0.1,0-0.3-0.1-0.6-0.2c-0.6-0.3-1.3-0.8-2.2-1.3c-0.9-0.6-2.1-1.3-3.5-2.3c-1.4-1-2.6-2-3.5-2.9
		c-1-1-1.6-1.8-2-2.6c-1-2.3-1.3-4.2-1-5.8c0.3-1.6,0.9-3.4,1.9-5.3c1.8-3.4,3.9-5.4,6.5-6.2c2.5-0.8,5-0.8,7.5,0
		c2.5,0.8,5.2,1.9,8.1,3.5L314,394.9z M296,405.9l12.5,6.7c4.4,2.4,7.5,1.9,9.2-1.3c1.6-3,0.2-5.7-4.2-8.1l-12-6.4
		c-1.5-0.8-3.3-1.4-5.2-1.6c-1.9-0.3-3.4,0.5-4.4,2.4c-0.9,1.6-0.9,3-0.2,4.5C292.4,403.5,293.8,404.8,296,405.9L296,405.9z
		 M301.8,370.1l4.5-6.2l19.8,5.2l11.4,3.8c-5.4-3.3-9.2-5.7-11.5-7.1c-2.3-1.4-4.6-3-6.8-4.6l-7.1-5.2l4.3-6l31.8,23.1l-4.5,6.1
		l-20.2-5l-10.4-3.5c3.2,2,6.4,4,9.4,5.9c3,1.9,5.5,3.5,7.2,4.8l8.1,5.9l-4.3,5.9L301.8,370.1z M348.8,326.1l-6.2,5.8l22.8,24.5
		l-5.4,5l-22.8-24.5l-6.3,5.8l-3.9-4.2l17.8-16.6L348.8,326.1z M355.5,313.3l11.6-8.1c5.7-4,10.4-3.6,14.1,1.2
		c1.7,2.3,2.6,4.4,2.8,6.5c0.1,2.1-0.6,3.8-2.2,5.2c1.3-0.7,2.5-1,3.6-1c1.1,0.1,2,0.4,2.7,0.9c0.7,0.5,1.4,1.1,1.9,1.8
		c0.5,0.7,1.2,1.5,1.8,2.5c1.6,2.2,3.1,4,4.5,5.6c1.4,1.6,2.4,2.2,2.9,1.8l0.4,0.6l-6.9,4.8c-0.7-0.7-1.6-1.8-2.7-3.2
		c-1.1-1.4-2.1-2.6-2.9-3.4l-1.5-2.2c-1.1-1.5-2.2-2.5-3.3-2.8c-1.1-0.3-2.7,0.2-4.8,1.7l-3.2,2.2l9.7,13.8l-6,4.2L355.5,313.3z
		 M369.2,310.8l-4.4,3.1l6.2,8.9l4.2-2.9c1.3-0.9,2-2,2.1-3.3c0.1-1.3-0.3-2.6-1.2-3.9c-1.1-1.6-2.2-2.5-3.2-2.8
		C371.9,309.5,370.7,309.8,369.2,310.8L369.2,310.8z M424.5,301.2c1.5,3.5,2.5,6.4,2.9,8.7c0.5,2.3,0.2,4.5-0.9,6.6
		c-1.1,2.2-3.3,4-6.7,5.5c-5.2,2.3-9,2.4-11.4,0.5c-2.4-2-4.8-5.4-7.1-10.1l-0.3-0.8l-2-4.5c0-0.1,0-0.1-0.1-0.2
		c0-0.1-0.1-0.3-0.4-0.5c-0.2-0.6-0.5-1.4-0.9-2.4c-0.4-1-0.8-2.3-1.3-4c-0.5-1.6-0.8-3.1-1-4.5c-0.2-1.3-0.2-2.4,0-3.3
		c0.7-2.4,1.6-4.1,2.8-5.2c1.2-1.1,2.8-2.1,4.8-3c3.5-1.5,6.4-1.8,8.9-0.9c2.5,0.9,4.4,2.5,5.9,4.6c1.5,2.1,2.9,4.7,4.2,7.8
		L424.5,301.2z M403.6,298.9l5.8,13c2,4.6,4.7,6.1,8,4.7c3.2-1.4,3.7-4.4,1.7-9l-5.5-12.4c-0.7-1.6-1.7-3.1-3.1-4.5
		c-1.4-1.4-3-1.7-4.9-0.9c-1.6,0.7-2.6,1.8-2.9,3.4C402.3,294.7,402.6,296.6,403.6,298.9L403.6,298.9z M432.4,273.9l7.1-1.6
		l7.5,32.7l13.3-3.1l1.3,5.6l-20.4,4.7L432.4,273.9z M482.9,265.4l20.7-0.4l0.1,5.7l-13.5,0.2l0.2,10l12.6-0.2l0.1,5.7l-12.6,0.2
		l0.3,17.7l-7.3,0.1L482.9,265.4z M540.3,292.3c-0.5,3.8-1.2,6.7-2,8.9c-0.8,2.2-2.2,3.9-4.2,5.2c-2,1.3-4.9,1.7-8.6,1.3
		c-5.6-0.7-8.9-2.5-10-5.5c-1.1-3-1.4-7.1-0.8-12.3l0.1-0.8l0.6-4.9c0-0.1,0-0.1,0-0.2c0-0.1,0-0.3,0-0.6c0.1-0.7,0.3-1.5,0.5-2.6
		c0.2-1.1,0.5-2.4,0.9-4.1c0.4-1.6,0.9-3.1,1.5-4.3c0.6-1.2,1.1-2.2,1.7-2.9c1.8-1.7,3.5-2.7,5.1-3c1.6-0.3,3.5-0.3,5.6-0.1
		c3.8,0.5,6.5,1.7,8.1,3.8c1.6,2.1,2.5,4.4,2.7,7c0.2,2.6,0,5.5-0.4,8.9L540.3,292.3z M523.6,279.4l-1.7,14.1
		c-0.6,5,0.9,7.7,4.5,8.1c3.4,0.4,5.4-1.9,6-6.8l1.7-13.5c0.2-1.7,0.1-3.5-0.4-5.4c-0.5-1.9-1.7-3-3.8-3.3c-1.8-0.3-3.2,0.2-4.2,1.4
		C524.6,275.2,523.9,277,523.6,279.4L523.6,279.4z M560.3,273.6l13.5,4.4c6.6,2.2,9.1,6.1,7.5,12c-0.8,2.7-1.9,4.7-3.5,6.1
		c-1.6,1.4-3.4,1.8-5.4,1.4c1.4,0.6,2.4,1.4,2.9,2.3c0.6,0.9,0.9,1.8,0.9,2.7c0,0.9-0.1,1.8-0.3,2.7c-0.2,0.9-0.5,1.8-0.9,2.9
		c-0.8,2.6-1.4,4.9-1.8,7c-0.4,2.1-0.3,3.2,0.3,3.4l-0.2,0.7l-8-2.6c0.2-1,0.5-2.3,1-4.1c0.5-1.7,0.8-3.2,1-4.3l0.8-2.5
		c0.6-1.8,0.7-3.2,0.2-4.3c-0.4-1.1-1.8-2.1-4.2-2.8l-3.7-1.2l-5.2,16l-7-2.3L560.3,273.6z M570.6,283l-5.1-1.7l-3.3,10.3l4.9,1.6
		c1.5,0.5,2.8,0.4,3.9-0.3c1.1-0.7,1.9-1.8,2.4-3.3c0.6-1.8,0.7-3.2,0.3-4.3C573.3,284.3,572.2,283.6,570.6,283L570.6,283z
		 M621.2,314.9c2.4-4,2.6-6.6,0.7-8c-2.8-2.1-5.5-1-8.2,3.3l-7.1,11.4c-1.6,2.5-2.4,4.6-2.5,6.1c-0.1,1.6,0.6,2.8,1.9,3.6
		c1.4,0.9,2.8,0.9,4,0c1.2-0.9,2.7-2.7,4.4-5.4l6.3,3.9c-1.5,2.2-2.9,4-4.2,5.5c-1.3,1.4-3.1,2.5-5.4,3.1c-2.3,0.6-4.9,0-7.7-1.7
		c-2.7-1.7-4.6-3.5-5.6-5.4c-1-1.9-1.2-4.1-0.6-6.5c0.6-2.5,2-5.4,4.1-8.8l3.5-5.6c2.4-3.8,4.6-6.6,6.5-8.4c2-1.8,4-2.7,6.1-2.7
		c2.1-0.1,4.5,0.7,7.1,2.3c3.7,2.2,5.6,4.7,5.9,7.6c0.2,2.9-0.8,6.1-3,9.6L621.2,314.9z M647.5,319.5l10.4,9.7
		c5.1,4.7,5.7,9.4,1.7,14c-1.8,2.1-3.8,3.5-5.8,4c-2,0.6-3.8,0.2-5.5-1.1c1,1.1,1.5,2.2,1.7,3.3c0.2,1,0.1,2-0.3,2.8
		c-0.4,0.8-0.8,1.6-1.4,2.3c-0.6,0.7-1.2,1.4-2,2.3c-1.8,2-3.3,3.9-4.6,5.6c-1.3,1.7-1.7,2.8-1.2,3.3l-0.5,0.5l-6.2-5.8
		c0.6-0.8,1.4-1.9,2.6-3.3c1.2-1.4,2.1-2.5,2.7-3.5l1.8-1.9c1.3-1.4,2-2.7,2-3.8c0.1-1.2-0.8-2.6-2.6-4.3l-2.8-2.6l-11.5,12.3
		l-5.4-5L647.5,319.5z M652.9,332.4l-3.9-3.6l-7.4,7.9l3.7,3.5c1.2,1.1,2.4,1.5,3.7,1.4c1.3-0.2,2.5-0.8,3.5-2
		c1.3-1.4,2-2.6,2.1-3.7C654.7,334.8,654.2,333.6,652.9,332.4L652.9,332.4z M676.8,348.5l4.6,5.7L650.9,379l-4.6-5.7L676.8,348.5z
		 M688.7,386c3.8-2.6,5.1-4.9,4.1-7c-1.6-3.1-4.6-3.2-8.9-0.5l-11.3,7.3c-2.5,1.6-4.1,3.1-4.8,4.5c-0.7,1.4-0.7,2.8,0.2,4.1
		c0.9,1.4,2.1,2,3.6,1.7c1.5-0.3,3.6-1.3,6.3-3l4,6.2c-2.3,1.4-4.3,2.4-6.1,3.2c-1.8,0.8-3.8,1-6.2,0.6c-2.3-0.4-4.4-2-6.3-4.9
		c-1.8-2.7-2.7-5.1-2.8-7.3c-0.1-2.2,0.6-4.2,2.2-6.2c1.6-2,4.1-4.1,7.5-6.3l5.6-3.6c3.8-2.5,6.9-4.1,9.5-4.8
		c2.5-0.8,4.8-0.7,6.7,0.1c1.9,0.8,3.8,2.5,5.5,5.1c2.4,3.5,3.1,6.6,2.1,9.3c-1,2.7-3.3,5.2-6.8,7.5L688.7,386z M710.5,401.4
		l2.7,6.7l-16.2,6.5l0.1,0.2c2.5,0,4.7,0.1,6.6,0.3c2,0.2,4.4,0.4,7.4,0.8c3,0.3,4.8,0.5,5.5,0.6l3.1,7.7l-19.3-2.6l-17,17.7
		l-3.1-7.7l11.8-12.2l-5-0.9l-10.4,4.2l-2.7-6.7L710.5,401.4z M723.7,437.3l5,20l-5.6,1.4l-3.2-12.9l-9.6,2.4l2.9,11.8l-5.5,1.4
		l-2.9-11.8l-11.8,2.9l3.2,12.9l-5.5,1.4l-5-20L723.7,437.3z M726.8,495.1l-0.7-8.4l-33.4,2.9l-0.6-7.3l33.4-2.9l-0.7-8.5l5.8-0.5
		l2.1,24.2L726.8,495.1z M730.5,524l-0.9,7.3l-39-4.8l0.9-7.3L730.5,524z M727.3,547.6l-2,7.4l-20.3,2.2l-12,0.5
		c6.2,1.2,10.6,2,13.2,2.5c2.7,0.5,5.4,1.2,8.1,1.9l8.5,2.3l-1.9,7.1L683,561.4l1.9-7.3l20.7-2.6l11-0.4c-3.7-0.7-7.4-1.4-10.9-2.1
		c-3.5-0.7-6.4-1.4-8.5-1.9l-9.6-2.6l1.9-7L727.3,547.6z M708.8,601.5l-3.3,6.6l-35-17.8l3.3-6.6L708.8,601.5z M697.7,622.6
		l-4.4,6.3l-19.9-4.9l-11.4-3.6c5.4,3.2,9.3,5.5,11.6,6.9c2.3,1.4,4.6,2.9,6.9,4.5l7.2,5l-4.2,6l-32.2-22.5l4.3-6.2l20.3,4.6
		l10.5,3.4c-3.3-1.9-6.4-3.9-9.5-5.7c-3.1-1.9-5.5-3.5-7.3-4.7l-8.2-5.7l4.2-5.9L697.7,622.6z M672.5,655.4l-9.6,10.3
		c-2.8,3-5.9,4-9.3,3.3c-3.4-0.8-7.7-3.8-12.8-8.9c-2.2-2.2-3.9-4.1-5.2-5.6c-1.3-1.5-2.4-3.1-3.3-4.8c-0.9-1.7-1.2-3.4-1-5.2
		c0.2-1.8,1.1-3.6,2.8-5.4l9.7-10.4L672.5,655.4z M663.2,656.9l-20.3-19l-2.6,2.8c-1.3,1.4-1.9,2.8-1.7,4.3c0.2,1.4,0.9,2.9,2.2,4.3
		c1.3,1.5,3.2,3.4,5.8,5.8c3.6,3.3,6.4,5.4,8.3,6.3c1.9,0.9,3.5,0.6,4.9-0.8L663.2,656.9z M642.9,683.2l-5.7,4.6l-24.7-30.5l5.7-4.6
		L642.9,683.2z M617.5,700.9l-8.6,5l-27.2-29.6l6.8-3.9l6.5,7.6l7.4-4.3l-3.2-9.6l6.7-3.9L617.5,700.9z M598.9,684.4l8.6,10.2
		l3.5,4.9l0.1,0l-2.5-5.5l-4.3-12.7L598.9,684.4z M598.9,684.4"/>
	<path class="st3" d="M523.4,324.4c4.6,0.5,7.9,4.6,7.5,9.2c-0.5,4.6-4.6,7.9-9.2,7.5c-4.6-0.5-7.9-4.6-7.5-9.2
		C514.7,327.2,518.9,323.9,523.4,324.4L523.4,324.4z M497.4,322.4c4.6,0,8.4,3.8,8.4,8.4c0,4.6-3.8,8.4-8.4,8.4
		c-4.6,0-8.4-3.8-8.4-8.4C489,326.2,492.8,322.4,497.4,322.4L497.4,322.4z M471.4,324.4c4.6-0.5,8.7,2.9,9.2,7.5
		c0.5,4.6-2.9,8.7-7.5,9.2c-4.6,0.5-8.7-2.9-9.2-7.5C463.4,328.9,466.8,324.8,471.4,324.4L471.4,324.4z M445.5,330.2
		c4.5-1.2,9,1.5,10.2,6c1.2,4.5-1.5,9-6,10.2c-4.5,1.2-9-1.5-10.2-6C438.4,335.9,441.1,331.4,445.5,330.2L445.5,330.2z M420.5,340
		c4.1-2,9.2-0.3,11.2,3.9c2,4.1,0.3,9.2-3.9,11.2c-4.1,2-9.2,0.3-11.2-3.9C414.6,347.1,416.3,342,420.5,340L420.5,340z M397.6,353.3
		c3.8-2.6,9-1.6,11.6,2.2c2.6,3.8,1.6,9-2.2,11.6c-3.8,2.6-9,1.6-11.6-2.2C392.8,361.1,393.8,355.9,397.6,353.3L397.6,353.3z
		 M377,369.8c3.4-3.1,8.7-2.9,11.8,0.5c3.1,3.4,2.9,8.7-0.5,11.8c-3.4,3.1-8.7,2.9-11.8-0.5C373.3,378.3,373.6,373,377,369.8
		L377,369.8z M359,389.2c2.9-3.6,8.2-4.1,11.8-1.2c3.6,2.9,4.1,8.2,1.2,11.8c-2.9,3.6-8.2,4.1-11.8,1.2
		C356.6,398.1,356,392.8,359,389.2L359,389.2z M344,411c2.4-3.9,7.5-5.2,11.5-2.9c3.9,2.4,5.2,7.5,2.9,11.5c-2.4,4-7.5,5.2-11.5,2.9
		C342.9,420.2,341.7,415,344,411L344,411z M332.5,434.9c1.8-4.3,6.7-6.3,10.9-4.5c4.3,1.8,6.3,6.7,4.5,10.9
		c-1.8,4.3-6.7,6.3-10.9,4.5C332.7,444,330.7,439.1,332.5,434.9L332.5,434.9z M324.6,460.2c1.1-4.5,5.7-7.2,10.1-6.1
		c4.5,1.1,7.2,5.7,6.1,10.1c-1.1,4.5-5.7,7.2-10.1,6.1C326.2,469.2,323.5,464.6,324.6,460.2L324.6,460.2z M320.6,486.4
		c0.4-4.6,4.5-8,9.1-7.6c4.6,0.4,8,4.5,7.6,9.1c-0.4,4.6-4.5,8-9.1,7.6C323.6,495.1,320.2,491,320.6,486.4L320.6,486.4z
		 M320.6,512.9c-0.3-4.6,3.2-8.6,7.8-8.9c4.6-0.3,8.6,3.2,8.9,7.8c0.3,4.6-3.2,8.6-7.8,8.9C324.9,521,320.9,517.5,320.6,512.9
		L320.6,512.9z M324.6,539.1c-1-4.5,1.9-9,6.4-10c4.5-1,9,1.9,10,6.4c1,4.5-1.9,9-6.4,10C330,546.5,325.5,543.6,324.6,539.1
		L324.6,539.1z M332.4,564.4c-1.6-4.3,0.5-9.2,4.8-10.8c4.3-1.7,9.2,0.5,10.8,4.8c1.7,4.3-0.5,9.2-4.8,10.8
		C338.9,570.9,334,568.7,332.4,564.4L332.4,564.4z M343.9,588.3c-2.3-4-0.8-9.1,3.2-11.4c4-2.3,9.1-0.8,11.4,3.2
		c2.3,4,0.8,9.1-3.2,11.4C351.3,593.7,346.2,592.3,343.9,588.3L343.9,588.3z M358.8,610.1c-2.8-3.6-2.2-8.9,1.5-11.7
		c3.6-2.8,8.9-2.1,11.7,1.5c2.8,3.6,2.2,8.9-1.5,11.7C366.9,614.4,361.6,613.8,358.8,610.1L358.8,610.1z M376.8,629.5
		c-3.3-3.2-3.4-8.5-0.2-11.8c3.2-3.3,8.5-3.4,11.8-0.2c3.3,3.2,3.4,8.5,0.2,11.8C385.4,632.6,380.1,632.7,376.8,629.5L376.8,629.5z
		 M397.4,646c-3.7-2.7-4.6-7.9-1.9-11.7c2.7-3.7,7.9-4.6,11.7-1.9c3.7,2.7,4.6,7.9,1.9,11.7C406.4,647.9,401.2,648.7,397.4,646
		L397.4,646z M420.3,659.4c-4.1-2.1-5.7-7.2-3.6-11.3c2.1-4.1,7.2-5.7,11.3-3.6c4.1,2.1,5.7,7.2,3.6,11.3
		C429.4,659.9,424.4,661.5,420.3,659.4L420.3,659.4z M445.3,669.2c-4.4-1.3-7-5.9-5.7-10.4c1.3-4.4,5.9-7,10.4-5.7
		c4.4,1.3,7,5.9,5.7,10.4C454.4,667.9,449.7,670.5,445.3,669.2L445.3,669.2z M471.2,675.1c-4.6-0.6-7.8-4.8-7.2-9.4
		c0.6-4.6,4.8-7.8,9.4-7.2c4.6,0.6,7.8,4.8,7.2,9.4C479.9,672.5,475.7,675.7,471.2,675.1L471.2,675.1z M497.2,677.1
		c-4.6-0.1-8.3-4-8.2-8.6c0.1-4.6,4-8.3,8.6-8.1c4.6,0.1,8.3,4,8.1,8.6C505.7,673.5,501.8,677.2,497.2,677.1L497.2,677.1z
		 M523.7,675.1c-4.6,0.6-8.8-2.7-9.4-7.2c-0.6-4.6,2.7-8.8,7.2-9.4c4.6-0.6,8.8,2.7,9.4,7.2C531.5,670.3,528.2,674.5,523.7,675.1
		L523.7,675.1z M549.5,669.3c-4.4,1.3-9.1-1.3-10.4-5.7c-1.3-4.4,1.3-9.1,5.7-10.4c4.4-1.3,9.1,1.3,10.3,5.7
		C556.5,663.3,553.9,668,549.5,669.3L549.5,669.3z M574.5,659.4c-4.1,2.1-9.2,0.5-11.3-3.6c-2.1-4.1-0.5-9.2,3.6-11.3
		c4.1-2.1,9.2-0.5,11.3,3.6C580.2,652.2,578.6,657.3,574.5,659.4L574.5,659.4z M597.4,646.1c-3.7,2.7-9,1.8-11.7-1.9
		c-2.7-3.7-1.8-9,1.9-11.7c3.7-2.7,9-1.8,11.7,1.9C602,638.1,601.1,643.4,597.4,646.1L597.4,646.1z M618,629.5
		c-3.3,3.2-8.6,3.1-11.8-0.2c-3.2-3.3-3.1-8.6,0.2-11.8c3.3-3.2,8.6-3.1,11.8,0.2C621.4,621,621.4,626.3,618,629.5L618,629.5z
		 M636,610.1c-2.8,3.6-8.1,4.3-11.7,1.5c-3.6-2.8-4.3-8.1-1.5-11.7c2.8-3.6,8.1-4.3,11.7-1.5C638.2,601.2,638.8,606.5,636,610.1
		L636,610.1z M650.9,588.3c-2.3,4-7.4,5.4-11.4,3.2c-4-2.3-5.4-7.4-3.2-11.4c2.3-4,7.4-5.4,11.4-3.2
		C651.8,579.1,653.2,584.3,650.9,588.3L650.9,588.3z M662.4,564.4c-1.7,4.3-6.5,6.5-10.8,4.8c-4.3-1.7-6.5-6.5-4.8-10.8
		c1.7-4.3,6.5-6.5,10.8-4.8C661.9,555.3,664.1,560.2,662.4,564.4L662.4,564.4z M670.3,539.1c-1,4.5-5.5,7.4-10,6.4
		c-4.5-1-7.4-5.5-6.4-10c1-4.5,5.5-7.3,10-6.4C668.4,530.2,671.3,534.6,670.3,539.1L670.3,539.1z M674.2,512.9
		c-0.3,4.6-4.3,8.1-8.9,7.8c-4.6-0.3-8.1-4.3-7.8-8.9c0.3-4.6,4.3-8.1,8.9-7.8C671,504.3,674.5,508.3,674.2,512.9L674.2,512.9z
		 M674.2,486.4c0.4,4.6-3,8.7-7.6,9.1c-4.6,0.4-8.7-3-9.1-7.6c-0.4-4.6,3-8.7,7.6-9.1C669.7,478.4,673.8,481.8,674.2,486.4
		L674.2,486.4z M670.2,460.2c1.1,4.5-1.7,9-6.1,10.1c-4.5,1.1-9-1.7-10.1-6.1c-1.1-4.5,1.6-9,6.1-10.1
		C664.6,453,669.1,455.7,670.2,460.2L670.2,460.2z M662.4,434.9c1.8,4.3-0.3,9.2-4.5,10.9c-4.3,1.8-9.2-0.3-10.9-4.5
		c-1.7-4.3,0.3-9.2,4.5-10.9C655.7,428.6,660.6,430.6,662.4,434.9L662.4,434.9z M650.8,411.1c2.4,3.9,1.1,9.1-2.9,11.5
		c-4,2.4-9.1,1.1-11.5-2.9c-2.4-4-1.1-9.1,2.9-11.5C643.3,405.8,648.5,407.1,650.8,411.1L650.8,411.1z M635.9,389.2
		c2.9,3.6,2.4,8.9-1.2,11.8c-3.6,2.9-8.9,2.4-11.8-1.2c-2.9-3.6-2.4-8.9,1.2-11.8C627.7,385.1,633,385.7,635.9,389.2L635.9,389.2z
		 M617.9,369.9c3.4,3.1,3.6,8.4,0.5,11.8c-3.1,3.4-8.4,3.6-11.8,0.5c-3.4-3.1-3.6-8.4-0.5-11.8C609.2,367,614.5,366.7,617.9,369.9
		L617.9,369.9z M597.2,353.3c3.8,2.6,4.8,7.8,2.2,11.6c-2.6,3.8-7.8,4.8-11.6,2.2c-3.8-2.6-4.8-7.8-2.2-11.6
		C588.2,351.7,593.4,350.7,597.2,353.3L597.2,353.3z M574.3,340c4.1,2,5.9,7,3.9,11.2c-2,4.1-7,5.9-11.2,3.9
		c-4.1-2-5.9-7.1-3.9-11.2C565.2,339.8,570.2,338,574.3,340L574.3,340z M549.3,330.2c4.5,1.2,7.2,5.8,6,10.2
		c-1.2,4.5-5.7,7.1-10.2,6c-4.5-1.2-7.2-5.8-6-10.2C540.3,331.7,544.8,329.1,549.3,330.2L549.3,330.2z M549.3,330.2"/>
	<path class="st3" d="M524.6,228.5c4.6,0.2,8.2,4.2,7.9,8.8c-0.2,4.6-4.2,8.2-8.8,7.9c-4.6-0.3-8.2-4.2-7.9-8.8
		C516,231.8,520,228.2,524.6,228.5L524.6,228.5z M471.1,228.5c4.6,0.2,8.1,4.2,7.9,8.8c-0.2,4.6-4.2,8.1-8.7,7.9
		c-4.6-0.2-8.1-4.2-7.9-8.8C462.6,231.8,466.5,228.2,471.1,228.5L471.1,228.5z M497.4,227.1c4.6,0,8.4,3.8,8.4,8.4
		c0,4.6-3.8,8.4-8.4,8.4c-4.6,0-8.4-3.8-8.4-8.4C489,230.8,492.8,227.1,497.4,227.1L497.4,227.1z M443.4,232.5
		c4.6-0.5,8.7,2.9,9.2,7.4c0.5,4.6-2.9,8.7-7.4,9.2c-4.6,0.5-8.7-2.9-9.2-7.4C435.5,237.1,438.8,233,443.4,232.5L443.4,232.5z
		 M416.6,239.4c4.5-0.9,8.9,2,9.9,6.5c0.9,4.5-2,8.9-6.5,9.9c-4.5,0.9-8.9-2-9.9-6.5C409.2,244.8,412.1,240.4,416.6,239.4
		L416.6,239.4z M390.7,249c4.4-1.4,9.1,1.1,10.5,5.4c1.4,4.4-1.1,9.1-5.4,10.5c-4.4,1.4-9.1-1-10.5-5.4
		C383.9,255.1,386.4,250.4,390.7,249L390.7,249z M366,261.1c4.2-1.8,9.1,0.2,10.9,4.4c1.8,4.2-0.2,9.1-4.4,11
		c-4.2,1.8-9.2-0.2-11-4.4C359.8,267.9,361.7,262.9,366,261.1L366,261.1z M342.5,275.7c4-2.2,9.1-0.7,11.3,3.3
		c2.2,4,0.8,9.1-3.3,11.3c-4,2.2-9.1,0.8-11.3-3.3C337,283,338.5,277.9,342.5,275.7L342.5,275.7z M320.7,292.5
		c3.8-2.6,9-1.6,11.6,2.2c2.6,3.8,1.6,9-2.1,11.6c-3.8,2.6-9,1.6-11.6-2.2C316,300.4,316.9,295.1,320.7,292.5L320.7,292.5z
		 M300.7,311.5c3.5-2.9,8.8-2.5,11.8,1c3,3.5,2.5,8.8-1,11.7c-3.5,3-8.8,2.5-11.7-1C296.7,319.7,297.2,314.4,300.7,311.5
		L300.7,311.5z M282.6,332.3c3.2-3.3,8.5-3.4,11.8-0.2c3.3,3.2,3.3,8.5,0.1,11.8c-3.2,3.3-8.5,3.4-11.8,0.1
		C279.5,340.9,279.4,335.6,282.6,332.3L282.6,332.3z M266.8,354.9c2.9-3.6,8.1-4.2,11.7-1.3c3.6,2.9,4.2,8.1,1.3,11.7
		c-2.9,3.6-8.1,4.2-11.7,1.3C264.5,363.7,263.9,358.5,266.8,354.9L266.8,354.9z M253.2,378.9c2.5-3.9,7.7-5,11.5-2.5
		c3.9,2.5,5,7.7,2.4,11.5c-2.5,3.9-7.7,5-11.5,2.4C251.8,387.9,250.7,382.8,253.2,378.9L253.2,378.9z M242.2,404.2
		c2.1-4.1,7.2-5.7,11.2-3.6c4.1,2.1,5.7,7.1,3.6,11.2c-2.1,4.1-7.1,5.7-11.2,3.6C241.7,413.3,240.1,408.3,242.2,404.2L242.2,404.2z
		 M233.8,430.5c1.7-4.3,6.5-6.4,10.8-4.7c4.3,1.7,6.4,6.5,4.7,10.8c-1.7,4.3-6.5,6.4-10.8,4.7C234.2,439.6,232.1,434.8,233.8,430.5
		L233.8,430.5z M228,457.9c1-4.5,5.5-7.3,10-6.3c4.5,1,7.3,5.5,6.3,10c-1,4.5-5.5,7.3-10,6.3C229.8,466.9,227,462.4,228,457.9
		L228,457.9z M225.2,485.4c0.5-4.6,4.7-7.8,9.2-7.3c4.6,0.5,7.8,4.7,7.3,9.3c-0.5,4.6-4.7,7.8-9.2,7.3
		C227.9,494.1,224.6,489.9,225.2,485.4L225.2,485.4z M225.1,512.6c0.3-4.6,4.3-8.1,8.9-7.8c4.6,0.3,8.1,4.3,7.8,8.8
		c-0.3,4.6-4.3,8.1-8.9,7.8C228.3,521.2,224.8,517.2,225.1,512.6L225.1,512.6z M227.8,540.1c-0.2-4.6,3.4-8.5,8-8.7
		c4.6-0.2,8.5,3.4,8.7,8c0.2,4.6-3.4,8.5-8,8.7C231.9,548.3,228,544.7,227.8,540.1L227.8,540.1z M233.4,567.6
		c-0.9-4.5,2.1-8.9,6.6-9.8c4.5-0.9,8.9,2.1,9.8,6.6c0.9,4.5-2.1,8.9-6.6,9.8C238.6,575,234.2,572.1,233.4,567.6L233.4,567.6z
		 M241.6,593.9c-1.3-4.4,1.2-9,5.6-10.4c4.4-1.3,9.1,1.2,10.4,5.6c1.3,4.4-1.2,9.1-5.6,10.4C247.6,600.8,243,598.3,241.6,593.9
		L241.6,593.9z M252.5,619.3c-1.8-4.2,0.3-9.1,4.5-10.9c4.2-1.8,9.1,0.3,10.9,4.5c1.8,4.2-0.3,9.1-4.5,10.9
		C259.2,625.5,254.3,623.5,252.5,619.3L252.5,619.3z M265.9,643.4c-2.2-4-0.7-9.1,3.4-11.3c4-2.2,9.1-0.7,11.3,3.4
		c2.2,4,0.7,9.1-3.4,11.3C273.2,648.9,268.1,647.4,265.9,643.4L265.9,643.4z M281.7,666c-2.6-3.8-1.5-9,2.3-11.6
		c3.8-2.6,9-1.5,11.6,2.3c2.6,3.8,1.5,9-2.3,11.6C289.4,670.8,284.3,669.8,281.7,666L281.7,666z M299.6,687
		c-2.9-3.5-2.4-8.8,1.1-11.7c3.5-2.9,8.8-2.4,11.7,1.1c2.9,3.5,2.4,8.8-1.1,11.7C307.8,691,302.6,690.5,299.6,687L299.6,687z
		 M319.6,706c-3.3-3.2-3.3-8.5,0-11.8c3.2-3.3,8.5-3.3,11.8,0c3.2,3.2,3.3,8.5,0,11.8C328.1,709.2,322.8,709.2,319.6,706L319.6,706z
		 M341.3,723c-3.5-2.9-4.1-8.2-1.2-11.7c2.9-3.6,8.2-4.1,11.7-1.2c3.6,2.9,4.1,8.2,1.2,11.7C350.1,725.3,344.8,725.9,341.3,723
		L341.3,723z M364.6,737.7c-3.8-2.5-4.9-7.7-2.3-11.6c2.5-3.8,7.7-4.9,11.5-2.3c3.8,2.6,4.9,7.7,2.3,11.6
		C373.6,739.2,368.4,740.2,364.6,737.7L364.6,737.7z M389.3,749.9c-4.1-2.2-5.6-7.2-3.5-11.3c2.2-4.1,7.2-5.6,11.3-3.5
		c4.1,2.2,5.6,7.2,3.5,11.3C398.5,750.5,393.4,752.1,389.3,749.9L389.3,749.9z M415.2,759.6c-4.2-1.7-6.3-6.6-4.6-10.9
		c1.7-4.2,6.6-6.3,10.9-4.6c4.3,1.7,6.3,6.6,4.6,10.9C424.3,759.3,419.4,761.4,415.2,759.6L415.2,759.6z M441.9,766.7
		c-4.4-1.3-6.9-5.9-5.6-10.3c1.3-4.4,5.9-6.9,10.3-5.7c4.4,1.3,7,5.9,5.7,10.3C450.9,765.4,446.3,768,441.9,766.7L441.9,766.7z
		 M469.6,771c-4.6-0.6-7.8-4.8-7.2-9.3c0.6-4.6,4.8-7.8,9.3-7.2c4.6,0.6,7.8,4.8,7.2,9.3C478.3,768.4,474.1,771.6,469.6,771
		L469.6,771z M496.8,772.4c-4.6-0.4-8-4.4-7.7-9c0.4-4.6,4.4-8,9-7.7c4.6,0.4,8,4.4,7.7,9C505.4,769.3,501.3,772.7,496.8,772.4
		L496.8,772.4z M524.4,771c-4.6,0.1-8.4-3.5-8.5-8.1c-0.1-4.6,3.5-8.4,8.1-8.6c4.6-0.1,8.4,3.5,8.6,8.1
		C532.6,767.1,529,770.9,524.4,771L524.4,771z M552.1,766.9c-4.5,0.8-8.9-2.2-9.7-6.7c-0.8-4.5,2.2-8.9,6.7-9.7
		c4.5-0.8,8.9,2.2,9.7,6.7C559.6,761.7,556.6,766.1,552.1,766.9L552.1,766.9z M578.8,759.9c-4.4,1.3-9-1.3-10.3-5.7
		c-1.3-4.4,1.3-9,5.7-10.3c4.4-1.3,9,1.3,10.3,5.7C585.8,754,583.3,758.7,578.8,759.9L578.8,759.9z M604.7,750.3
		c-4.3,1.7-9.1-0.4-10.9-4.6c-1.7-4.3,0.4-9.1,4.6-10.8c4.2-1.7,9.1,0.3,10.8,4.6C611,743.7,609,748.6,604.7,750.3L604.7,750.3z
		 M629.4,738.1c-4.1,2.1-9.1,0.5-11.2-3.5c-2.1-4.1-0.6-9.1,3.5-11.3c4.1-2.1,9.1-0.6,11.2,3.5C635.1,730.9,633.5,736,629.4,738.1
		L629.4,738.1z M652.8,723.5c-3.8,2.5-9,1.4-11.6-2.4c-2.5-3.8-1.5-9,2.4-11.5c3.8-2.5,9-1.5,11.5,2.4
		C657.7,715.8,656.7,721,652.8,723.5L652.8,723.5z M674.6,706.6c-3.6,2.9-8.8,2.3-11.7-1.2c-2.9-3.6-2.3-8.8,1.2-11.7
		c3.6-2.9,8.8-2.3,11.7,1.2C678.8,698.4,678.2,703.7,674.6,706.6L674.6,706.6z M694.6,687.6c-3.3,3.2-8.6,3.2-11.8-0.1
		c-3.2-3.3-3.2-8.6,0.1-11.8c3.3-3.2,8.6-3.2,11.8,0.1C697.9,679.1,697.9,684.4,694.6,687.6L694.6,687.6z M712.6,666.7
		c-2.9,3.5-8.2,4-11.7,1.1c-3.5-2.9-4-8.2-1-11.7c2.9-3.5,8.2-4,11.7-1.1C715.1,657.9,715.6,663.2,712.6,666.7L712.6,666.7z
		 M728.5,644.1c-2.6,3.8-7.8,4.8-11.6,2.2c-3.8-2.6-4.8-7.8-2.2-11.6c2.6-3.8,7.8-4.8,11.6-2.2C730,635.1,731,640.3,728.5,644.1
		L728.5,644.1z M741.9,620.1c-2.2,4-7.3,5.5-11.3,3.3c-4-2.2-5.5-7.3-3.3-11.3c2.2-4,7.3-5.5,11.3-3.3
		C742.6,611,744.1,616,741.9,620.1L741.9,620.1z M752.9,594.7c-1.8,4.2-6.7,6.2-10.9,4.4c-4.2-1.8-6.2-6.7-4.4-10.9
		c1.8-4.2,6.7-6.2,10.9-4.4C752.7,585.6,754.7,590.5,752.9,594.7L752.9,594.7z M761.3,568.4c-1.4,4.4-6,6.9-10.4,5.5
		c-4.4-1.4-6.9-6-5.5-10.4c1.3-4.4,6-6.9,10.4-5.5C760.1,559.4,762.6,564,761.3,568.4L761.3,568.4z M766.9,541
		c-0.7,4.6-4.9,7.7-9.5,7.1c-4.5-0.7-7.7-4.9-7-9.5c0.7-4.6,4.9-7.7,9.5-7.1C764.4,532.2,767.6,536.4,766.9,541L766.9,541z
		 M769.7,513.5c-0.2,4.6-4.1,8.2-8.7,8c-4.6-0.2-8.2-4.1-8-8.7c0.2-4.6,4.1-8.2,8.7-8C766.3,505,769.9,508.9,769.7,513.5
		L769.7,513.5z M769.7,486.3c0.1,4.6-3.6,8.4-8.2,8.5c-4.6,0.1-8.4-3.6-8.5-8.2c-0.1-4.6,3.6-8.4,8.2-8.5
		C765.9,478,769.7,481.7,769.7,486.3L769.7,486.3z M767,458.8c0.5,4.6-2.7,8.7-7.3,9.3c-4.6,0.5-8.7-2.7-9.3-7.3
		c-0.5-4.6,2.7-8.7,7.3-9.3C762.3,450.9,766.4,454.2,767,458.8L767,458.8z M761.3,431.3c1.2,4.4-1.4,9.1-5.8,10.3
		c-4.4,1.2-9-1.4-10.3-5.8c-1.2-4.4,1.4-9,5.8-10.3C755.5,424.3,760.1,426.9,761.3,431.3L761.3,431.3z M753,405
		c1.7,4.3-0.5,9.1-4.7,10.8c-4.3,1.7-9.1-0.5-10.8-4.7c-1.7-4.3,0.5-9.1,4.7-10.8C746.5,398.6,751.3,400.7,753,405L753,405z
		 M742,379.6c2.1,4.1,0.5,9.1-3.6,11.2c-4.1,2.1-9.1,0.5-11.2-3.6c-2.1-4.1-0.5-9.1,3.6-11.2C734.9,373.9,740,375.5,742,379.6
		L742,379.6z M728.6,355.6c2.5,3.9,1.4,9-2.5,11.5c-3.9,2.5-9,1.4-11.5-2.5c-2.5-3.9-1.4-9.1,2.5-11.5
		C720.9,350.6,726.1,351.7,728.6,355.6L728.6,355.6z M712.8,333c2.9,3.6,2.2,8.9-1.4,11.7c-3.6,2.9-8.9,2.2-11.7-1.4
		c-2.9-3.6-2.2-8.9,1.4-11.7C704.7,328.7,709.9,329.4,712.8,333L712.8,333z M694.8,312.1c3.2,3.3,3.1,8.6-0.2,11.8
		c-3.3,3.2-8.6,3.1-11.8-0.2c-3.2-3.3-3.1-8.6,0.2-11.8C686.3,308.7,691.6,308.7,694.8,312.1L694.8,312.1z M674.8,293.1
		c3.5,3,3.9,8.3,0.9,11.8c-3,3.5-8.3,3.9-11.8,0.9c-3.5-3-3.9-8.3-0.9-11.8C666,290.5,671.3,290.1,674.8,293.1L674.8,293.1z
		 M653,276.1c3.8,2.6,4.7,7.8,2.1,11.6c-2.6,3.8-7.9,4.7-11.6,2.1c-3.8-2.6-4.7-7.8-2.1-11.6C644,274.4,649.3,273.5,653,276.1
		L653,276.1z M629.7,261.5c4,2.2,5.5,7.4,3.2,11.4c-2.2,4-7.4,5.5-11.4,3.2c-4-2.2-5.5-7.3-3.2-11.4
		C620.5,260.7,625.6,259.2,629.7,261.5L629.7,261.5z M604.9,249.3c4.2,1.8,6.2,6.8,4.3,11c-1.8,4.2-6.8,6.2-11,4.3
		c-4.2-1.8-6.2-6.8-4.3-11C595.8,249.4,600.7,247.4,604.9,249.3L604.9,249.3z M579.1,239.6c4.4,1.4,6.8,6.1,5.4,10.5
		c-1.4,4.4-6.1,6.8-10.5,5.4c-4.4-1.4-6.8-6.1-5.4-10.5C569.9,240.6,574.7,238.2,579.1,239.6L579.1,239.6z M552.3,232.7
		c4.5,1,7.4,5.4,6.5,9.9c-1,4.5-5.4,7.4-9.9,6.5c-4.5-0.9-7.4-5.4-6.5-9.9C543.4,234.6,547.8,231.7,552.3,232.7L552.3,232.7z
		 M552.3,232.7"/>
</g>
</svg>
