<?xml version="1.0" encoding="utf-8"?>
<!-- Generator: Adobe Illustrator 23.0.1, SVG Export Plug-In . SVG Version: 6.00 Build 0)  -->
<svg version="1.1" id="Layer_1" xmlns="http://www.w3.org/2000/svg" xmlns:xlink="http://www.w3.org/1999/xlink" x="0px" y="0px"
	 viewBox="0 0 1000 1000" style="enable-background:new 0 0 1000 1000;" xml:space="preserve">
<style type="text/css">
	.st0{clip-path:url(#SVGID_2_);fill:#FFFFFF;}
	.st1{clip-path:url(#SVGID_4_);fill:#31742D;}
	.st2{clip-path:url(#SVGID_6_);fill:#31742D;}
	.st3{clip-path:url(#SVGID_8_);fill:#31742D;}
	.st4{clip-path:url(#SVGID_10_);fill:#31742D;}
	.st5{clip-path:url(#SVGID_12_);fill:#31742D;}
	.st6{clip-path:url(#SVGID_14_);fill:#31742D;}
	.st7{clip-path:url(#SVGID_16_);fill:#31742D;}
	.st8{clip-path:url(#SVGID_18_);fill:#31742D;}
	.st9{clip-path:url(#SVGID_20_);fill:#31742D;}
	.st10{clip-path:url(#SVGID_22_);fill:#31742D;}
	.st11{clip-path:url(#SVGID_24_);fill:#31742D;}
	.st12{clip-path:url(#SVGID_26_);fill:#31742D;}
	.st13{clip-path:url(#SVGID_28_);fill:#31742D;}
	.st14{clip-path:url(#SVGID_30_);fill:#31742D;}
	.st15{clip-path:url(#SVGID_32_);fill:#31742D;}
	.st16{clip-path:url(#SVGID_34_);fill:#31742D;}
	.st17{clip-path:url(#SVGID_36_);fill:#31742D;}
	.st18{clip-path:url(#SVGID_38_);fill:#31742D;}
	.st19{clip-path:url(#SVGID_40_);fill:#31742D;}
	.st20{clip-path:url(#SVGID_42_);fill:#31742D;}
	.st21{clip-path:url(#SVGID_44_);fill:#31742D;}
	.st22{clip-path:url(#SVGID_46_);fill:#31742D;}
	.st23{clip-path:url(#SVGID_48_);fill:#31742D;}
	.st24{clip-path:url(#SVGID_50_);fill:#31742D;}
	.st25{clip-path:url(#SVGID_52_);fill:#31742D;}
	.st26{clip-path:url(#SVGID_54_);fill:#31742D;}
	.st27{clip-path:url(#SVGID_56_);fill:#31742D;}
	.st28{clip-path:url(#SVGID_58_);fill:#31742D;}
	.st29{clip-path:url(#SVGID_60_);fill:#31742D;}
	.st30{clip-path:url(#SVGID_62_);fill:#31742D;}
	.st31{clip-path:url(#SVGID_64_);fill:#31742D;}
	.st32{clip-path:url(#SVGID_66_);}
	.st33{clip-path:url(#SVGID_68_);fill:url(#SVGID_69_);}
	.st34{clip-path:url(#SVGID_71_);fill:none;stroke:#FFFFFF;stroke-width:0.2145;stroke-miterlimit:3.864;}
	.st35{clip-path:url(#SVGID_73_);fill:#0F265C;}
	.st36{clip-path:url(#SVGID_75_);fill:#0F265C;}
	.st37{clip-path:url(#SVGID_77_);fill:#0F265C;}
	.st38{clip-path:url(#SVGID_79_);fill:#0F265C;}
	.st39{clip-path:url(#SVGID_81_);fill:#0F265C;}
	.st40{clip-path:url(#SVGID_83_);fill:#0F265C;}
	.st41{clip-path:url(#SVGID_85_);fill:#0F265C;}
	.st42{clip-path:url(#SVGID_87_);fill:#0F265C;}
	.st43{clip-path:url(#SVGID_89_);fill:#0F265C;}
	.st44{clip-path:url(#SVGID_91_);fill:#0F265C;}
	.st45{clip-path:url(#SVGID_93_);fill:#0F265C;}
	.st46{clip-path:url(#SVGID_95_);fill:#0F265C;}
	.st47{clip-path:url(#SVGID_97_);fill:#0F265C;}
	.st48{clip-path:url(#SVGID_99_);fill:#0F265C;}
</style>
<g>
	<g>
		<g>
			<g>
				<g>
					<g>
						<g>
							<defs>
								<rect id="SVGID_1_" x="153" y="140.1" width="694" height="719.9"/>
							</defs>
							<clipPath id="SVGID_2_">
								<use xlink:href="#SVGID_1_"  style="overflow:visible;"/>
							</clipPath>
							<path class="st0" d="M717.6,365c0,122.8-98.9,222.4-220.8,222.4c-122,0-220.9-99.6-220.9-222.4
								c0-122.8,98.9-222.3,220.9-222.3C618.7,142.7,717.6,242.2,717.6,365"/>
						</g>
						<g>
							<defs>
								<rect id="SVGID_3_" x="153" y="140.1" width="694" height="719.9"/>
							</defs>
							<clipPath id="SVGID_4_">
								<use xlink:href="#SVGID_3_"  style="overflow:visible;"/>
							</clipPath>
							<path class="st1" d="M496.4,140.1c-125.1,0-226.5,101.5-226.5,226.6c0,125.2,101.4,226.6,226.5,226.6
								c125.1,0,226.5-101.4,226.5-226.6C722.9,241.5,621.5,140.1,496.4,140.1 M501.7,570.5c-114.8,0-207.8-93.7-207.8-209.2
								c0-115.6,93.1-209.2,207.8-209.2c114.8,0,207.8,93.7,207.8,209.2C709.5,476.8,616.5,570.5,501.7,570.5"/>
						</g>
						<g>
							<defs>
								<rect id="SVGID_5_" x="153" y="140.1" width="694" height="719.9"/>
							</defs>
							<clipPath id="SVGID_6_">
								<use xlink:href="#SVGID_5_"  style="overflow:visible;"/>
							</clipPath>
							<path class="st2" d="M434.1,500.8c-8.5-5.4-21-15.3-21-15.3c-1.6-1.3-4.1-1.1-5.5,0.3l-2.4,2.5c-1.4,1.4-1.2,3.7,0.4,4.9
								c0,0,11.6,9.1,19.6,14.2c2,1.3,2.8,1.8,2.8,1.8c1.8,1.1,4.1,0.5,5.1-1.2l1.5-2.6c1-1.8,1.2-3.6,0.3-4.1"/>
						</g>
						<g>
							<defs>
								<rect id="SVGID_7_" x="153" y="140.1" width="694" height="719.9"/>
							</defs>
							<clipPath id="SVGID_8_">
								<use xlink:href="#SVGID_7_"  style="overflow:visible;"/>
							</clipPath>
							<path class="st3" d="M546.2,535.7c-2.1,0-4,1.4-4.2,3c-0.3,1.6,1.2,2.9,3.2,2.8l22.9-2.1c2.1-0.2,3.7-1.4,3.7-2.6
								c0-1.2-1.7-2-3.7-1.9"/>
						</g>
						<g>
							<defs>
								<rect id="SVGID_9_" x="153" y="140.1" width="694" height="719.9"/>
							</defs>
							<clipPath id="SVGID_10_">
								<use xlink:href="#SVGID_9_"  style="overflow:visible;"/>
							</clipPath>
							<path class="st4" d="M467.6,522.5c0.6-1.9-0.4-4.2-2.3-5l-18.8-9.4c-1.8-1-4.2-0.4-5.2,1.4l-1.5,2.4
								c-1.1,1.7-0.4,3.9,1.5,4.8l21,9.7c1.9,0.8,4-0.1,4.6-2"/>
						</g>
						<g>
							<defs>
								<rect id="SVGID_11_" x="153" y="140.1" width="694" height="719.9"/>
							</defs>
							<clipPath id="SVGID_12_">
								<use xlink:href="#SVGID_11_"  style="overflow:visible;"/>
							</clipPath>
							<path class="st5" d="M500.6,533.4c0.5-2-0.7-4-2.7-4.6l-18.4-5.7c-2-0.7-4.1,0.3-4.7,2.3l-0.6,1.7c-0.6,1.9,0.4,4,2.4,4.6
								l19.2,5.1c2,0.5,4.1-0.8,4.6-2.7"/>
						</g>
						<g>
							<defs>
								<rect id="SVGID_13_" x="153" y="140.1" width="694" height="719.9"/>
							</defs>
							<clipPath id="SVGID_14_">
								<use xlink:href="#SVGID_13_"  style="overflow:visible;"/>
							</clipPath>
							<path class="st6" d="M337.2,290.2c1.3,0.3,2.8-1.1,3.4-3l4.9-15c0.7-1.9,0.5-3.7-0.4-4.1c-0.9-0.4-2.4,0.9-3.2,2.8l-5.9,15.3
								C335.4,288,335.9,289.9,337.2,290.2"/>
						</g>
						<g>
							<defs>
								<rect id="SVGID_15_" x="153" y="140.1" width="694" height="719.9"/>
							</defs>
							<clipPath id="SVGID_16_">
								<use xlink:href="#SVGID_15_"  style="overflow:visible;"/>
							</clipPath>
							<path class="st7" d="M335.7,370.1c2-0.4,3.3-2.4,3-4.4l-3.4-26.3c-0.2-2-1.9-3.7-3.9-3.8c-2,0-3.5,1.6-3.5,3.7l2.4,28.2
								c0.3,2,2.1,3.3,4.1,2.9"/>
						</g>
						<g>
							<defs>
								<rect id="SVGID_17_" x="153" y="140.1" width="694" height="719.9"/>
							</defs>
							<clipPath id="SVGID_18_">
								<use xlink:href="#SVGID_17_"  style="overflow:visible;"/>
							</clipPath>
							<path class="st8" d="M348.3,261.2c0.8,0.3,2.3-0.9,3.2-2.7l5.1-9.5c1-1.7,1.4-3.4,0.8-3.7c-0.5-0.3-1.9,0.8-3.1,2.5
								c0,0-0.5,0.7-1.7,2.6c-2.1,3.4-4.2,7.1-4.2,7.1C347.6,259.2,347.5,260.9,348.3,261.2"/>
						</g>
						<g>
							<defs>
								<rect id="SVGID_19_" x="153" y="140.1" width="694" height="719.9"/>
							</defs>
							<clipPath id="SVGID_20_">
								<use xlink:href="#SVGID_19_"  style="overflow:visible;"/>
							</clipPath>
							<path class="st9" d="M331.5,327.9c1.9,0,3.5-1.6,3.6-3.6l2.3-22.4c0.3-2-0.6-3.9-2-4.2c-1.4-0.3-2.9,1-3.3,3l-3.6,23.5
								C328.3,326.1,329.6,327.8,331.5,327.9"/>
						</g>
						<g>
							<defs>
								<rect id="SVGID_21_" x="153" y="140.1" width="694" height="719.9"/>
							</defs>
							<clipPath id="SVGID_22_">
								<use xlink:href="#SVGID_21_"  style="overflow:visible;"/>
							</clipPath>
							<path class="st10" d="M376.4,221.7c0.1,0.2,1.4-0.9,2.8-2.3l8.1-7.7c1.5-1.4,1.5-1.4-0.1-0.1l-8.5,7.4
								C377.3,220.3,376.2,221.5,376.4,221.7"/>
						</g>
						<g>
							<defs>
								<rect id="SVGID_23_" x="153" y="140.1" width="694" height="719.9"/>
							</defs>
							<clipPath id="SVGID_24_">
								<use xlink:href="#SVGID_23_"  style="overflow:visible;"/>
							</clipPath>
							<path class="st11" d="M577.3,536c0,1.1,1.6,1.5,3.5,1l22-5.5c1.8-0.9,1.8-1-0.1-0.2l-21.8,2.1
								C579,533.7,577.3,534.9,577.3,536"/>
						</g>
						<g>
							<defs>
								<rect id="SVGID_25_" x="153" y="140.1" width="694" height="719.9"/>
							</defs>
							<clipPath id="SVGID_26_">
								<use xlink:href="#SVGID_25_"  style="overflow:visible;"/>
							</clipPath>
							<path class="st12" d="M534.2,538.4c0.3-1.8-1.2-3.4-3.2-3.6l-18.1-2.6c-2-0.3-4.1,1-4.6,2.9l-0.1,0.3c-0.5,2,0.7,3.8,2.8,4.1
								l19.1,1.8C532,541.5,533.9,540.1,534.2,538.4"/>
						</g>
						<g>
							<defs>
								<rect id="SVGID_27_" x="153" y="140.1" width="694" height="719.9"/>
							</defs>
							<clipPath id="SVGID_28_">
								<use xlink:href="#SVGID_27_"  style="overflow:visible;"/>
							</clipPath>
							<path class="st13" d="M361.8,239c0.5,0.3,1.8-0.9,3-2.5l5.9-7.6c1.3-1.6,2.1-3,1.9-3.2c-0.2-0.2-1.5,0.9-2.8,2.3l-6.5,7.7
								C362,237.2,361.3,238.7,361.8,239"/>
						</g>
						<g>
							<defs>
								<rect id="SVGID_29_" x="153" y="140.1" width="694" height="719.9"/>
							</defs>
							<clipPath id="SVGID_30_">
								<use xlink:href="#SVGID_29_"  style="overflow:visible;"/>
							</clipPath>
							<path class="st14" d="M350.1,411.8c1.9-0.8,2.7-3,1.9-4.9l-9.8-26.5c-0.6-2-2.8-3.2-4.7-2.8l-1.5,0.3c-2,0.4-3.2,2.4-2.6,4.4
								l9.5,28.4c0.7,1.9,2.9,2.9,4.8,2.1"/>
						</g>
						<g>
							<defs>
								<rect id="SVGID_31_" x="153" y="140.1" width="694" height="719.9"/>
							</defs>
							<clipPath id="SVGID_32_">
								<use xlink:href="#SVGID_31_"  style="overflow:visible;"/>
							</clipPath>
							<path class="st15" d="M401.7,480.7c1.4-1.4,1.3-3.8-0.2-5.3l-19.3-20.3c-1.3-1.6-3.8-1.9-5.4-0.7l-2.8,2
								c-1.6,1.2-1.9,3.4-0.5,5l20.5,21.8c1.5,1.4,3.9,1.4,5.3,0"/>
						</g>
						<g>
							<defs>
								<rect id="SVGID_33_" x="153" y="140.1" width="694" height="719.9"/>
							</defs>
							<clipPath id="SVGID_34_">
								<use xlink:href="#SVGID_33_"  style="overflow:visible;"/>
							</clipPath>
							<path class="st16" d="M372.1,448.3c1.7-1.2,2-3.6,0.9-5.3l-14.1-22.5c-1.1-1.8-3.4-2.6-5.3-1.8l-2.6,1.1
								c-1.9,0.8-2.6,2.9-1.6,4.7l15,24.8c1.1,1.7,3.4,2.2,5.1,1"/>
						</g>
						<g>
							<defs>
								<rect id="SVGID_35_" x="153" y="140.1" width="694" height="719.9"/>
							</defs>
							<clipPath id="SVGID_36_">
								<use xlink:href="#SVGID_35_"  style="overflow:visible;"/>
							</clipPath>
							<path class="st17" d="M334.9,255.6c1.1,0.4,2.7-0.7,3.7-2.3l7.6-11.5c1.1-1.6,1.5-3.2,0.8-3.5c-0.7-0.4-2.2,0.6-3.4,2.1
								l-8.6,11.7C333.9,253.7,333.9,255.2,334.9,255.6"/>
						</g>
						<g>
							<defs>
								<rect id="SVGID_37_" x="153" y="140.1" width="694" height="719.9"/>
							</defs>
							<clipPath id="SVGID_38_">
								<use xlink:href="#SVGID_37_"  style="overflow:visible;"/>
							</clipPath>
							<path class="st18" d="M488.4,553.5c0.5-1.7-0.7-3.5-2.5-3.9l-19.9-5.3c-1.9-0.6-3.9,0.5-4.5,2.3l-0.3,0.9
								c-0.6,1.8,0.4,3.7,2.2,4.2l20.8,4.4C486,556.4,488,555.2,488.4,553.5"/>
						</g>
						<g>
							<defs>
								<rect id="SVGID_39_" x="153" y="140.1" width="694" height="719.9"/>
							</defs>
							<clipPath id="SVGID_40_">
								<use xlink:href="#SVGID_39_"  style="overflow:visible;"/>
							</clipPath>
							<path class="st19" d="M524.2,556.4c0.2-1.2-1.2-2.3-3.1-2.3l-21-1.9c-1.9-0.2-3.8,0.9-4.3,2.5c-0.4,1.6,0.8,3,2.7,3.2
								l21.8,0.7C522.2,558.5,524,557.5,524.2,556.4"/>
						</g>
						<g>
							<defs>
								<rect id="SVGID_41_" x="153" y="140.1" width="694" height="719.9"/>
							</defs>
							<clipPath id="SVGID_42_">
								<use xlink:href="#SVGID_41_"  style="overflow:visible;"/>
							</clipPath>
							<path class="st20" d="M454.5,544.1c0.6-1.8-0.3-3.9-2.1-4.7l-24.5-11.5c-1.7-0.9-3.9-0.3-4.9,1.4l-1.4,2.3
								c-1,1.7-0.4,3.7,1.4,4.5l26.7,11.3c1.8,0.7,3.8-0.3,4.4-2.1"/>
						</g>
						<g>
							<defs>
								<rect id="SVGID_43_" x="153" y="140.1" width="694" height="719.9"/>
							</defs>
							<clipPath id="SVGID_44_">
								<use xlink:href="#SVGID_43_"  style="overflow:visible;"/>
							</clipPath>
							<path class="st21" d="M382.5,505c-1.3,1.4-1.2,3.5,0.3,4.6l27.5,19.4c1.6,1,3.8,0.5,4.7-1.1l1.5-2.5c1-1.7,0.5-3.9-1.1-4.9
								c0,0-16.3-10.9-25.4-18.6l-0.9-0.7c-0.9-0.8-2.7-0.3-4,1.1"/>
						</g>
						<g>
							<defs>
								<rect id="SVGID_45_" x="153" y="140.1" width="694" height="719.9"/>
							</defs>
							<clipPath id="SVGID_46_">
								<use xlink:href="#SVGID_45_"  style="overflow:visible;"/>
							</clipPath>
							<path class="st22" d="M313,373.8c1.9-0.4,3.2-2.3,3-4.2l-1.8-31.8c0-1.9-1.6-3.5-3.5-3.5h-1.1c-1.9,0-3.5,1.5-3.6,3.5
								l0.7,33.9c0.1,1.9,1.8,3.1,3.7,2.7"/>
						</g>
						<g>
							<defs>
								<rect id="SVGID_47_" x="153" y="140.1" width="694" height="719.9"/>
							</defs>
							<clipPath id="SVGID_48_">
								<use xlink:href="#SVGID_47_"  style="overflow:visible;"/>
							</clipPath>
							<path class="st23" d="M535.6,554c-1.9,0.1-3.6,1.1-3.8,2.2c-0.2,1.1,1.2,1.7,3.1,1.5l26.1-4.4c1.9-0.4,3.4-1.1,3.4-1.5
								c0-0.4-1.6-0.6-3.4-0.3"/>
						</g>
						<g>
							<defs>
								<rect id="SVGID_49_" x="153" y="140.1" width="694" height="719.9"/>
							</defs>
							<clipPath id="SVGID_50_">
								<use xlink:href="#SVGID_49_"  style="overflow:visible;"/>
							</clipPath>
							<path class="st24" d="M353.2,229.4c-1.3,1.4-2,2.8-1.4,3.1c0.6,0.3,1.5,0.1,2-0.5l0.5-0.5c4.3-5,11-11.6,11-11.6
								c1.4-1.4,2.3-2.7,2.1-2.9c-0.3-0.3-1.6,0.6-3.1,1.9"/>
						</g>
						<g>
							<defs>
								<rect id="SVGID_51_" x="153" y="140.1" width="694" height="719.9"/>
							</defs>
							<clipPath id="SVGID_52_">
								<use xlink:href="#SVGID_51_"  style="overflow:visible;"/>
							</clipPath>
							<path class="st25" d="M320.5,285.6c1.5,0.3,3.3-0.9,4-2.7l7.2-16.9c0.8-1.7,0.6-3.5-0.5-3.9c-1.1-0.4-2.7,0.7-3.6,2.4
								l-8.3,17.2C318.4,283.5,319,285.3,320.5,285.6"/>
						</g>
						<g>
							<defs>
								<rect id="SVGID_53_" x="153" y="140.1" width="694" height="719.9"/>
							</defs>
							<clipPath id="SVGID_54_">
								<use xlink:href="#SVGID_53_"  style="overflow:visible;"/>
							</clipPath>
							<path class="st26" d="M371.3,213.4c0.2,0.2,1.6-0.6,3.1-1.8l14.2-10.6c1.6-1.1,1.6-1.1-0.1-0.1L373.7,211
								C372.2,212.1,371.1,213.2,371.3,213.4"/>
						</g>
						<g>
							<defs>
								<rect id="SVGID_55_" x="153" y="140.1" width="694" height="719.9"/>
							</defs>
							<clipPath id="SVGID_56_">
								<use xlink:href="#SVGID_55_"  style="overflow:visible;"/>
							</clipPath>
							<path class="st27" d="M379.7,497.2c1.3-1.4,1.3-3.6,0-5l-21.6-24.1c-1.2-1.5-3.5-1.8-5-0.7l-3.5,2.6
								c-1.5,1.1-1.8,3.3-0.6,4.8l23,25.4c1.3,1.4,3.5,1.3,4.9-0.1"/>
						</g>
						<g>
							<defs>
								<rect id="SVGID_57_" x="153" y="140.1" width="694" height="719.9"/>
							</defs>
							<clipPath id="SVGID_58_">
								<use xlink:href="#SVGID_57_"  style="overflow:visible;"/>
							</clipPath>
							<path class="st28" d="M348.7,461.5c1.6-1.1,2-3.4,1-5l-16.1-28.3c-0.9-1.7-3-2.5-4.8-1.8l-3.6,1.6c-1.8,0.8-2.5,2.8-1.7,4.5
								l17,30.6c1,1.6,3.1,2,4.7,0.9"/>
						</g>
						<g>
							<defs>
								<rect id="SVGID_59_" x="153" y="140.1" width="694" height="719.9"/>
							</defs>
							<clipPath id="SVGID_60_">
								<use xlink:href="#SVGID_59_"  style="overflow:visible;"/>
							</clipPath>
							<path class="st29" d="M311.2,326.9c1.9,0,3.7-1.6,3.9-3.5l5-26.7c0.5-1.9-0.5-3.7-2.1-4c-1.6-0.3-3.3,0.9-3.9,2.7l-6.5,28.1
								c-0.4,1.9,1,3.4,2.9,3.4"/>
						</g>
						<g>
							<defs>
								<rect id="SVGID_61_" x="153" y="140.1" width="694" height="719.9"/>
							</defs>
							<clipPath id="SVGID_62_">
								<use xlink:href="#SVGID_61_"  style="overflow:visible;"/>
							</clipPath>
							<path class="st30" d="M325.9,419.6c1.8-0.8,2.7-2.9,2-4.7l-9.4-31.1c-0.5-1.9-2.4-3.1-4.2-2.6l-2.8,0.6
								c-1.9,0.4-3.1,2.3-2.6,4.2l9.1,33.2c0.6,1.8,2.5,2.7,4.3,1.9"/>
						</g>
						<g>
							<defs>
								<rect id="SVGID_63_" x="153" y="140.1" width="694" height="719.9"/>
							</defs>
							<clipPath id="SVGID_64_">
								<use xlink:href="#SVGID_63_"  style="overflow:visible;"/>
							</clipPath>
							<path class="st31" d="M482.9,496c-8.7,1,21.4-43.5,14.5-75.9c-5.8-27-45-77.3-53.2-72.6c-6,3.5,10.3,38.2-6.5,50.2
								c-20.8,11.9-24.6-7.7-31.6-10c-5.3-1.7-29.4,11.7-33.9-8.1c-5-22,25.3-26.1,23.6-34.8c-1.6-8.1-30.6,1.6-35.4-14
								c-5.4-19.3,12.9-20.8,15-24.9c4-8.1-4.4-26.6,13.7-33.7c25.3-9.9,22.6,30.1,35.4,25.6c7.7-2.7-12.6-44.2,5.3-50.1
								c23.5-7.8,24.3,18,31.7,20.7c8.1,2.9,12.9-5.4,23.7,5.5c19.2,19.2-31.5,42.2-28.2,53.3c1.7,5.5,23.5,7.4,51.6-0.8
								c26.5-8.1,42.8-23.6,39.5-28.2c-5.9-8.3-44.4-2.5-50.9-18.9c-6.6-16.4,9.8-22.2,12.7-27.4c2.7-5.2,2.9-25.5,22.1-27.7
								c22-2.5,21.7,18.9,28.2,18.9c7.5,0,1.6-33,27.3-33c18.7,0,16.9,13.6,20.8,16.3c4.8,3.2,17.2-10.5,28.4,5.2
								c11.1,19.4-28.2,31.2-28.4,38.6c-0.2,7.1,32.9,4.8,35.3,26.7c0.7,11-5.4,17.7-15.5,24.3c-6.4,4.4,1.7,20.6-29.1,24.7
								c-17.5,2.3-25-5.8-27.2-25.3c-1.1-10-4.7-6.8-9.5-4c-3.8,2.4-15.8,15.6-56.1,30.6c34.3,17.8,42.4,19.1,77,43
								c0,0-12.2-39.1,25.5-38.1c11.6,0.3,17.8,14.7,26.4,18.2c17.7,4.3,26.4,1.9,30.7,12.8c8.5,21.6-19.5,31.7-17.3,39.1
								c2.6,7.4,27.4-0.8,27.4,13.7c0,16.9-16.6,16.2-21.1,26.5c-4.4,10-2.7,30.3-21.5,30.3c-27.6,0-19.7-32.4-28.7-32.3
								c-7.4,0-9.2,44.4-38.6,40.9c-15.5-3.6-9-11.5-17.3-19.8c-5.9-5.9-12.9-2.8-16.7-11.6c-13-29.4,41.1-44,46.4-45.5
								c6.7-1.9,1.4-6.4-3-12c-23.7-30.3-77.1-49.2-83.2-50.8c-4.3-1.1-5.9,1.3-2.2,6.9c8.7,13.7,31.4,42.6,28.7,73.9
								c-2.7,31.2-7.1,40.3-7.1,40.3c-0.8,2.3-1.1,2.6-2.9,3.4"/>
						</g>
						<g>
							<defs>
								<rect id="SVGID_65_" x="153" y="140.1" width="694" height="719.9"/>
							</defs>
							<clipPath id="SVGID_66_">
								<use xlink:href="#SVGID_65_"  style="overflow:visible;"/>
							</clipPath>
							<g class="st32">
								<g>
									<defs>
										<path id="SVGID_67_" d="M482,485.4c-8.7,1,21.4-43.5,14.5-75.9c-5.7-27-45-77.3-53.2-72.6c-6,3.5,10.4,38.2-6.5,50.2
											c-20.8,11.9-24.6-7.7-31.6-10c-5.3-1.7-29.4,11.8-33.9-8.1c-4.9-22,25.3-26.1,23.6-34.8c-1.6-8.1-30.6,1.6-35.4-13.9
											c-5.4-19.3,13-20.8,15-24.9c4.1-8.1-4.4-26.6,13.7-33.7c25.3-9.9,22.6,30.1,35.5,25.5c7.6-2.7-12.6-44.1,5.3-50
											c23.5-7.8,24.3,18,31.7,20.7c8.1,2.9,12.9-5.4,23.7,5.5c19.1,19.2-31.6,42.2-28.2,53.3c1.7,5.5,23.5,7.4,51.6-0.8
											c26.5-8.1,42.8-23.6,39.5-28.2c-5.9-8.3-44.4-2.5-50.9-18.9c-6.6-16.4,9.8-22.3,12.7-27.4c2.7-5.2,2.9-25.5,22.1-27.7
											c21.9-2.5,21.7,18.9,28.2,18.9c7.5,0,1.6-33,27.4-33c18.7,0,16.8,13.6,20.8,16.3c4.7,3.3,17.1-10.5,28.3,5.2
											c11.1,19.4-28.1,31.2-28.3,38.6c-0.2,7.2,32.9,4.8,35.3,26.7c0.7,11-5.4,17.7-15.5,24.3c-6.4,4.4,1.7,20.6-29.1,24.7
											c-17.5,2.3-25-5.8-27.2-25.3c-1.1-10-4.7-6.8-9.5-3.9c-3.9,2.3-15.8,15.5-56.1,30.6c34.3,17.8,42.4,19.1,77,43.1
											c0,0-12.3-39.1,25.5-38.1c11.6,0.3,17.8,14.6,26.4,18.2c17.7,4.3,26.4,1.9,30.6,12.8c8.4,21.6-19.5,31.7-17.3,39.1
											c2.6,7.4,27.4-0.8,27.4,13.7c0,16.9-16.7,16.2-21.1,26.5c-4.4,10-2.7,30.3-21.5,30.3c-27.6,0-19.6-32.4-28.7-32.3
											c-7.4,0-9.2,44.4-38.6,40.9c-15.5-3.6-9-11.5-17.3-19.8c-5.9-5.9-12.9-2.8-16.7-11.6c-13-29.4,41.1-43.9,46.4-45.5
											c6.7-1.9,1.4-6.4-3-12c-23.7-30.3-77.2-49.2-83.2-50.8c-4.3-1.1-5.9,1.2-2.3,6.9c8.8,13.7,31.4,42.6,28.7,73.9
											c-2.7,31.2-7.1,40.3-7.1,40.3c-0.8,2.3-1.1,2.6-2.9,3.4"/>
									</defs>
									<clipPath id="SVGID_68_">
										<use xlink:href="#SVGID_67_"  style="overflow:visible;"/>
									</clipPath>
									
										<radialGradient id="SVGID_69_" cx="-281.461" cy="237.1399" r="16.9204" gradientTransform="matrix(8.9808 0 0 8.9858 3044.1648 -1785.9974)" gradientUnits="userSpaceOnUse">
										<stop  offset="0" style="stop-color:#AFCA0B"/>
										<stop  offset="0.1" style="stop-color:#AFCA0B"/>
										<stop  offset="0.2574" style="stop-color:#80AA18"/>
										<stop  offset="0.5" style="stop-color:#31742D"/>
										<stop  offset="1" style="stop-color:#31742D"/>
									</radialGradient>
									<rect x="354.1" y="199.6" class="st33" width="321" height="294.7"/>
								</g>
								<g>
									<defs>
										<rect id="SVGID_70_" x="153" y="140.1" width="694" height="719.9"/>
									</defs>
									<clipPath id="SVGID_71_">
										<use xlink:href="#SVGID_70_"  style="overflow:visible;"/>
									</clipPath>
									<path class="st34" d="M482,485.4c-8.7,1,21.4-43.5,14.5-75.9c-5.7-27-45-77.3-53.2-72.6c-6,3.5,10.4,38.2-6.5,50.2
										c-20.8,11.9-24.6-7.7-31.6-10c-5.3-1.7-29.4,11.8-33.9-8.1c-4.9-22,25.3-26.1,23.6-34.8c-1.6-8.1-30.6,1.6-35.4-13.9
										c-5.4-19.3,13-20.8,15-24.9c4.1-8.1-4.4-26.6,13.7-33.7c25.3-9.9,22.6,30.1,35.5,25.5c7.6-2.7-12.6-44.1,5.3-50
										c23.5-7.8,24.3,18,31.7,20.7c8.1,2.9,12.9-5.4,23.7,5.5c19.1,19.2-31.6,42.2-28.2,53.3c1.7,5.5,23.5,7.4,51.6-0.8
										c26.5-8.1,42.8-23.6,39.5-28.2c-5.9-8.3-44.4-2.5-50.9-18.9c-6.6-16.4,9.8-22.3,12.7-27.4c2.7-5.2,2.9-25.5,22.1-27.7
										c21.9-2.5,21.7,18.9,28.2,18.9c7.5,0,1.6-33,27.4-33c18.7,0,16.8,13.6,20.8,16.3c4.7,3.2,17.1-10.5,28.3,5.2
										c11.1,19.4-28.1,31.2-28.3,38.6c-0.2,7.2,32.9,4.8,35.3,26.7c0.7,11-5.4,17.7-15.5,24.3c-6.4,4.4,1.7,20.6-29.1,24.7
										c-17.5,2.3-25-5.8-27.2-25.3c-1.1-10-4.7-6.8-9.5-3.9c-3.9,2.3-15.8,15.5-56.1,30.6c34.3,17.8,42.4,19.1,77,43.1
										c0,0-12.3-39.1,25.5-38.1c11.6,0.3,17.8,14.6,26.4,18.2c17.7,4.3,26.4,1.9,30.6,12.8c8.4,21.6-19.5,31.7-17.3,39.1
										c2.6,7.4,27.4-0.8,27.4,13.7c0,16.9-16.7,16.2-21.1,26.5c-4.4,10-2.7,30.3-21.5,30.3c-27.6,0-19.6-32.4-28.7-32.3
										c-7.4,0-9.2,44.4-38.6,40.9c-15.5-3.6-9-11.5-17.3-19.8c-5.9-5.9-12.9-2.8-16.7-11.6c-13-29.4,41.1-43.9,46.4-45.5
										c6.7-1.9,1.4-6.4-3-12c-23.7-30.3-77.2-49.2-83.2-50.8c-4.3-1.1-5.9,1.2-2.3,6.9c8.8,13.7,31.4,42.6,28.7,73.9
										c-2.7,31.2-7.1,40.3-7.1,40.3c-0.8,2.3-1.1,2.6-2.9,3.4L482,485.4z"/>
								</g>
								<g>
									<defs>
										<rect id="SVGID_72_" x="153" y="140.1" width="694" height="719.9"/>
									</defs>
									<clipPath id="SVGID_73_">
										<use xlink:href="#SVGID_72_"  style="overflow:visible;"/>
									</clipPath>
									<path class="st35" d="M333.2,717H307c-12.9,0-19.1-1.8-25-7.4c-6.4-6.2-9.9-16.6-9.9-30c0-16.9,6-29.4,16.6-34.4
										c4.3-2,11.7-3.4,19-3.4h25.5v13.4h-23.5c-7.5,0-12.8,2-16,6.1c-2.5,3-3.8,9-3.8,16.8c0,11,2.4,18.8,6.9,22.1
										c2.9,2.2,7.4,3.4,13.5,3.4h23"/>
								</g>
								<g>
									<defs>
										<rect id="SVGID_74_" x="153" y="140.1" width="694" height="719.9"/>
									</defs>
									<clipPath id="SVGID_75_">
										<use xlink:href="#SVGID_74_"  style="overflow:visible;"/>
									</clipPath>
									<path class="st36" d="M360.6,675v-19.8H383c2.7,0,4.7,0.2,6,0.6c3.5,1.2,5.5,4.4,5.5,8.9c0,7.3-3.3,10.4-11.5,10.4
										 M360.6,688.4h12.8c14.2,0,18.9,4.2,20.4,17.8c0.1,1.5,0.4,4.6,0.7,6.7c0.2,1.7,0.3,2.4,0.9,4.1h17.9
										c-1-2.8-1.2-4.4-1.8-11.4c-0.6-11.7-4.8-18.5-13.6-20.9c9.7-3.4,14.3-10.5,14.3-22c0-6.9-3.1-12.9-8.3-16.5
										c-4.5-3.1-11.2-4.4-22.5-4.4h-36.7V717h16L360.6,688.4L360.6,688.4z"/>
								</g>
								<g>
									<defs>
										<rect id="SVGID_76_" x="153" y="140.1" width="694" height="719.9"/>
									</defs>
									<clipPath id="SVGID_77_">
										<use xlink:href="#SVGID_76_"  style="overflow:visible;"/>
									</clipPath>
									<rect x="425.1" y="641.8" class="st37" width="16" height="75.1"/>
								</g>
								<g>
									<defs>
										<rect id="SVGID_78_" x="153" y="140.1" width="694" height="719.9"/>
									</defs>
									<clipPath id="SVGID_79_">
										<use xlink:href="#SVGID_78_"  style="overflow:visible;"/>
									</clipPath>
									<path class="st38" d="M513.4,717h-26.1c-13,0-19.1-1.8-25-7.4c-6.4-6.2-9.9-16.6-9.9-30c0-16.9,6-29.4,16.6-34.4
										c4.3-2,11.7-3.4,19-3.4h25.5v13.4h-23.5c-7.4,0-12.7,2-16,6.1c-2.5,3-3.8,9-3.8,16.8c0,11,2.4,18.8,6.9,22.1
										c2.9,2.2,7.4,3.4,13.5,3.4h23"/>
								</g>
								<g>
									<defs>
										<rect id="SVGID_80_" x="153" y="140.1" width="694" height="719.9"/>
									</defs>
									<clipPath id="SVGID_81_">
										<use xlink:href="#SVGID_80_"  style="overflow:visible;"/>
									</clipPath>
									<path class="st39" d="M540.2,717h-16v-75.1h16 M569.5,641.8h20.9l-31.3,37L589,717h-21.1l-27.1-38.1L569.5,641.8z"/>
								</g>
								<g>
									<defs>
										<rect id="SVGID_82_" x="153" y="140.1" width="694" height="719.9"/>
									</defs>
									<clipPath id="SVGID_83_">
										<use xlink:href="#SVGID_82_"  style="overflow:visible;"/>
									</clipPath>
									<path class="st40" d="M654.7,655.2h-20.8c-10.8,0-14.9,1.2-18.1,5.5c-2.2,3-2.7,4.7-3.3,12.2h42.2v13.4h-42.2
										c1.1,12.8,6.8,17.2,22.1,17.2h20.2V717H634c-16,0-23.6-2.1-29.6-8.4c-6.4-6.7-9.9-17.1-9.9-29.6c0-13.3,4.4-23.9,12.7-31
										c5.3-4.5,10.5-6.1,20.6-6.1h27"/>
								</g>
								<g>
									<defs>
										<rect id="SVGID_84_" x="153" y="140.1" width="694" height="719.9"/>
									</defs>
									<clipPath id="SVGID_85_">
										<use xlink:href="#SVGID_84_"  style="overflow:visible;"/>
									</clipPath>
									<polyline class="st41" points="660.3,655.2 660.3,641.8 725,641.8 725,655.2 700.3,655.2 700.3,717 684.3,717 684.3,655.2 
																			"/>
								</g>
								<g>
									<defs>
										<rect id="SVGID_86_" x="153" y="140.1" width="694" height="719.9"/>
									</defs>
									<clipPath id="SVGID_87_">
										<use xlink:href="#SVGID_86_"  style="overflow:visible;"/>
									</clipPath>
									<rect x="153" y="750.2" class="st42" width="23.4" height="109.8"/>
								</g>
								<g>
									<defs>
										<rect id="SVGID_88_" x="153" y="140.1" width="694" height="719.9"/>
									</defs>
									<clipPath id="SVGID_89_">
										<use xlink:href="#SVGID_88_"  style="overflow:visible;"/>
									</clipPath>
									<path class="st43" d="M222.1,798.7v-29h32.7c3.9,0,6.9,0.3,8.7,0.8c5.1,1.8,8.1,6.4,8.1,13c0,10.7-4.8,15.1-16.8,15.1
										 M222.1,818.3h18.8c20.7,0,27.6,6.1,29.7,26c0.2,2.1,0.7,6.7,1,9.7c0.3,2.5,0.5,3.5,1.3,6h26.2c-1.5-4.1-1.8-6.4-2.6-16.6
										c-0.8-17.1-7.1-27-19.9-30.4c14.1-5,20.9-15.3,20.9-32.1c0-10.1-4.5-18.9-12.2-24.2c-6.6-4.6-16.3-6.4-32.9-6.4h-53.6
										v109.8h23.4V818.3z"/>
								</g>
								<g>
									<defs>
										<rect id="SVGID_90_" x="153" y="140.1" width="694" height="719.9"/>
									</defs>
									<clipPath id="SVGID_91_">
										<use xlink:href="#SVGID_90_"  style="overflow:visible;"/>
									</clipPath>
									<path class="st44" d="M398.6,769.7h-30.4c-15.8,0-21.7,1.8-26.5,8.1c-3.3,4.4-3.9,6.9-4.8,17.8h61.7v19.6h-61.7
										c1.7,18.7,9.9,25.2,32.2,25.2h29.4v19.6h-30.4c-23.4,0-34.5-3.1-43.3-12.4c-9.4-9.7-14.5-25-14.5-43.3
										c0-19.4,6.4-34.9,18.6-45.3c7.7-6.6,15.3-8.9,30.1-8.9h39.5"/>
								</g>
								<g>
									<defs>
										<rect id="SVGID_92_" x="153" y="140.1" width="694" height="719.9"/>
									</defs>
									<clipPath id="SVGID_93_">
										<use xlink:href="#SVGID_92_"  style="overflow:visible;"/>
									</clipPath>
									<path class="st45" d="M439.2,750.2v61.5c0.8,19.1,1.1,20.1,5.4,23.9c4.3,3.8,9.2,4.8,24,4.8H491v19.6h-24.9
										c-15.4,0-19.1-0.3-24.7-1.8c-11.2-2.9-19.6-10.6-23-21.1c-1.7-5-2.6-14-2.6-25.4v-61.5"/>
								</g>
								<g>
									<defs>
										<rect id="SVGID_94_" x="153" y="140.1" width="694" height="719.9"/>
									</defs>
									<clipPath id="SVGID_95_">
										<use xlink:href="#SVGID_94_"  style="overflow:visible;"/>
									</clipPath>
									<path class="st46" d="M556.8,776.5l15.6,38.4h-31.2 M497.9,859.9h27.5l10.5-25.5h41.8l10.5,25.5h27.3l-45.4-109.8h-26.8
										L497.9,859.9z"/>
								</g>
								<g>
									<defs>
										<rect id="SVGID_96_" x="153" y="140.1" width="694" height="719.9"/>
									</defs>
									<clipPath id="SVGID_97_">
										<use xlink:href="#SVGID_96_"  style="overflow:visible;"/>
									</clipPath>
									<polyline class="st47" points="649.6,859.9 627.3,859.9 627.3,750.2 657.1,750.2 700.9,832 700.9,750.2 723.1,750.2 
										723.1,859.9 694.5,859.9 649.6,779.4 									"/>
								</g>
								<g>
									<defs>
										<rect id="SVGID_98_" x="153" y="140.1" width="694" height="719.9"/>
									</defs>
									<clipPath id="SVGID_99_">
										<use xlink:href="#SVGID_98_"  style="overflow:visible;"/>
									</clipPath>
									<path class="st48" d="M768.8,769.7H792c9.4,0,14.8,1.5,19.3,5.1c6.1,5.1,10,16.9,10,30.3c0,11.3-3,22.2-7.5,28
										c-4,4.8-11.5,7.3-21.7,7.3h-23.2 M745.5,750.2v109.8H792c14.6,0,20.9-0.5,27-2.5c11.9-3.6,19.3-10.9,23.4-23.1
										c2.8-8.1,4.6-19.6,4.6-29.1c0-16.1-4.3-32.1-10.9-40c-8.5-10.7-21.4-15.1-44.1-15.1H745.5z"/>
								</g>
							</g>
						</g>
					</g>
				</g>
			</g>
		</g>
	</g>
</g>
</svg>
