<?xml version="1.0" encoding="utf-8"?>
<!-- Generator: Adobe Illustrator 25.4.1, SVG Export Plug-In . SVG Version: 6.00 Build 0)  -->
<svg version="1.0"
	 id="svg10422" inkscape:version="0.48.1 " sodipodi:docname="New document 5" xmlns:cc="http://creativecommons.org/ns#" xmlns:dc="http://purl.org/dc/elements/1.1/" xmlns:inkscape="http://www.inkscape.org/namespaces/inkscape" xmlns:rdf="http://www.w3.org/1999/02/22-rdf-syntax-ns#" xmlns:sodipodi="http://sodipodi.sourceforge.net/DTD/sodipodi-0.dtd" xmlns:svg="http://www.w3.org/2000/svg"
	 xmlns="http://www.w3.org/2000/svg" xmlns:xlink="http://www.w3.org/1999/xlink" x="0px" y="0px" viewBox="0 0 416 296.9"
	 style="enable-background:new 0 0 416 296.9;" xml:space="preserve">
<style type="text/css">
	.st0{clip-path:url(#SVGID_00000154401561291469293380000009143762961361513406_);}
	.st1{fill:#141006;}
	.st2{clip-path:url(#SVGID_00000122711069379326617820000010597015054867851174_);}
	.st3{fill-rule:evenodd;clip-rule:evenodd;fill:#BEC0C2;}
	.st4{clip-path:url(#SVGID_00000122711592959961223640000009656057860133935522_);}
	.st5{fill-rule:evenodd;clip-rule:evenodd;fill:#FFFFFF;}
	.st6{clip-path:url(#SVGID_00000134950516982291457360000008229112019367133850_);}
	.st7{clip-path:url(#SVGID_00000062889362366429890170000010948978528665152176_);}
	.st8{clip-path:url(#SVGID_00000147203651074162488210000000443676967459964302_);}
	.st9{clip-path:url(#SVGID_00000043429965498644149310000004110198001327676328_);}
	.st10{fill-rule:evenodd;clip-rule:evenodd;fill:#141006;}
	.st11{clip-path:url(#SVGID_00000178190395294251025190000010113004666761572013_);}
	.st12{fill-rule:evenodd;clip-rule:evenodd;fill:#A1A1A4;}
	.st13{fill-rule:evenodd;clip-rule:evenodd;fill:#E6E7E8;}
	.st14{fill-rule:evenodd;clip-rule:evenodd;fill:#807F83;}
	.st15{clip-path:url(#SVGID_00000170982962967840584560000012112905164803647622_);}
	.st16{fill-rule:evenodd;clip-rule:evenodd;fill:#7F3F98;}
	.st17{fill:#00B6DE;}
	.st18{fill:#FFFFFF;}
	.st19{fill:#A1A1A4;}
</style>
<g id="layer1" transform="translate(-289.13913,-263.32739)" inkscape:groupmode="layer" inkscape:label="Layer 1">
	<g id="g10765" transform="matrix(1.0340891,0,0,1.0340891,-16.873115,-11.575427)">
		<g id="g6258" transform="matrix(7.9201919,0,0,-7.9201919,-1256.7966,1112.948)">
			<g>
				<defs>
					<path id="SVGID_1_" d="M208.6,99.9l2-3.9H203v-0.2l1.2-1.6H203v-0.7l9-9.5l0.3,0.2c0.9,0.5,1.9,1,2.8,1.4l0,0
						c-1.2-2.9-3.7-7.1-6.7-8.3l0,0c-0.4-0.2-0.9-0.3-1.3-0.4l0,0c-0.4-0.1-0.8-0.1-1-0.5l0,0c-0.1-0.1-0.1-0.3-0.1-0.4l0,0l0-0.1
						c0-0.2,0.1-0.3,0.2-0.5l0,0c0.1-0.1,0.2-0.2,0.3-0.2l0,0c0.5-0.3,1.4-0.4,2-0.3l0,0c0.2,0,0.3,0,0.5,0l0,0
						c0.7,0,1.5,0.2,2.1,0.4l0,0c3,1,5.3,3.7,6.8,6.4l0,0l3.5-6.8l3.5,6.8c0.2-0.4,0.4-0.8,0.7-1.1l0,0c1.4-2.3,3.5-4.4,6.1-5.3l0,0
						c0.6-0.2,1.5-0.3,2.1-0.4l0,0c0.2,0,0.3,0,0.5,0l0,0c0.6,0,1.5,0,2,0.3l0,0c0.1,0.1,0.2,0.1,0.3,0.2l0,0
						c0.1,0.1,0.2,0.3,0.2,0.5l0,0l0,0.1c0,0.1,0,0.3-0.1,0.4l0,0c-0.2,0.4-0.6,0.4-1,0.5l0,0c-0.5,0.1-0.9,0.2-1.3,0.4l0,0
						c-3,1.1-5.5,5.4-6.7,8.3l0,0c1.1-0.5,2.1-1,3.1-1.6l0,0l9,9.5v0.7h-1.2l1.2,1.6v0.2h-7.6l2,3.9l-12.8,2.9L208.6,99.9
						L208.6,99.9z"/>
				</defs>
				<clipPath id="SVGID_00000044893617093872973280000006009704717578001024_">
					<use xlink:href="#SVGID_1_"  style="overflow:visible;"/>
				</clipPath>
				<g id="g6260" style="clip-path:url(#SVGID_00000044893617093872973280000006009704717578001024_);">
					<g id="g6266" transform="translate(208.7956,90.0076)">
						<path id="path6268" inkscape:connector-curvature="0" class="st1" d="M7.2-4.5l1.6-3.1l0-0.1l0-0.1c-0.7-1.5-1.7-2.9-2.9-4
							c-1.1-1.1-2.3-1.9-3.7-2.3c-0.5-0.2-1.5-0.3-2.4-0.4c-0.7,0-1.4,0.1-1.8,0.3c-0.1,0-0.1,0.1-0.2,0.1c0,0.1-0.1,0.1-0.1,0.2
							l0,0.1c0,0.2,0.3,0.3,0.7,0.4c0.3,0.1,0.8,0.2,1.4,0.4c2,0.7,3.6,2.7,4.8,4.5c1.2,1.9,2,3.7,2.2,4.1L7-4.1L7.2-4.5z"/>
					</g>
				</g>
			</g>
		</g>
		<g id="g6270" transform="matrix(7.9201919,0,0,-7.9201919,-1256.7966,1112.948)">
			<g>
				<defs>
					<path id="SVGID_00000178900560122623427090000014041169627937423790_" d="M215.6,85.5c-0.2-0.4-0.9-2.2-2.2-4.1l0,0
						c-1.2-1.9-2.9-3.8-4.8-4.5l0,0c-0.6-0.2-1.1-0.3-1.4-0.4l0,0c-0.4-0.1-0.6-0.1-0.7-0.4l0,0l0-0.1c0-0.1,0.1-0.1,0.1-0.2l0,0
						c0,0,0.1-0.1,0.2-0.1l0,0c0.4-0.2,1.1-0.3,1.8-0.3l0,0c0.9,0,1.9,0.2,2.4,0.4l0,0c1.3,0.5,2.6,1.3,3.7,2.3l0,0
						c1.2,1.1,2.2,2.5,2.9,4l0,0l0,0.1l0,0.1l-1.6,3.1l-0.2,0.4L215.6,85.5L215.6,85.5z"/>
				</defs>
				<clipPath id="SVGID_00000158732119835533898960000010653600668620725657_">
					<use xlink:href="#SVGID_00000178900560122623427090000014041169627937423790_"  style="overflow:visible;"/>
				</clipPath>
				<g id="g6272" style="clip-path:url(#SVGID_00000158732119835533898960000010653600668620725657_);">
					<g id="g6278" transform="translate(209.9895,86.7702)">
						<path id="path6280" inkscape:connector-curvature="0" class="st3" d="M7.2-4.5L5.8-1.8c-0.3-0.8-1-2.2-2-3.8
							c-1.2-1.9-3-3.9-5-4.7c-0.4-0.2-1-0.3-1.5-0.4c-0.1,0-0.1,0,0-0.1c0.4-0.1,0.9-0.1,1.3-0.1c0.9,0,1.8,0.2,2.3,0.3
							c1.3,0.4,2.5,1.2,3.5,2.3C5.5-7.2,6.5-5.9,7.2-4.5"/>
					</g>
				</g>
			</g>
		</g>
		<g id="g6282" transform="matrix(7.9201919,0,0,-7.9201919,-1256.7966,1112.948)">
			<g>
				<defs>
					<path id="SVGID_00000130630609441871468350000002098922614592321703_" d="M213.8,81.2c-1.3-1.9-3-3.9-5-4.7l0,0
						c-0.4-0.2-1-0.3-1.5-0.4l0,0c-0.1,0-0.1,0,0-0.1l0,0c0.4-0.1,0.9-0.1,1.3-0.1l0,0c0.9,0,1.8,0.2,2.3,0.3l0,0
						c1.3,0.4,2.5,1.2,3.5,2.3l0,0c1.1,1.1,2.1,2.4,2.8,3.8l0,0l-1.4,2.7C215.5,84.2,214.8,82.7,213.8,81.2"/>
				</defs>
				<clipPath id="SVGID_00000055698336777706189240000017091119064327093667_">
					<use xlink:href="#SVGID_00000130630609441871468350000002098922614592321703_"  style="overflow:visible;"/>
				</clipPath>
				<g id="g6284" style="clip-path:url(#SVGID_00000055698336777706189240000017091119064327093667_);">
					<g id="g6290" transform="translate(209.1793,87.2169)">
						<path id="path6292" inkscape:connector-curvature="0" class="st5" d="M7.2-4.5C5.9-6.6,3.4-10,0.5-10.9
							c-0.7-0.2-1.3-0.3-1.6-0.3c-0.1,0-0.2,0,0,0c0.3,0.1,0.8,0.2,1.4,0.4c3.1,1.1,5.4,5.1,6.5,7.3L7.2-4.5z"/>
					</g>
				</g>
			</g>
		</g>
		<g id="g6294" transform="matrix(7.9201919,0,0,-7.9201919,-1256.7966,1112.948)">
			<g>
				<defs>
					<path id="SVGID_00000053519050144408261630000006623298878355509690_" d="M208.6,99.9l2-3.9H203v-0.2l1.2-1.6H203v-0.7l9-9.5
						l0.3,0.2c0.9,0.5,1.9,1,2.8,1.4l0,0c-1.2-2.9-3.7-7.1-6.7-8.3l0,0c-0.4-0.2-0.9-0.3-1.3-0.4l0,0c-0.4-0.1-0.8-0.1-1-0.5l0,0
						c-0.1-0.1-0.1-0.3-0.1-0.4l0,0l0-0.1c0-0.2,0.1-0.3,0.2-0.5l0,0c0.1-0.1,0.2-0.2,0.3-0.2l0,0c0.5-0.3,1.4-0.4,2-0.3l0,0
						c0.2,0,0.3,0,0.5,0l0,0c0.7,0,1.5,0.2,2.1,0.4l0,0c3,1,5.3,3.7,6.8,6.4l0,0l3.5-6.8l3.5,6.8c0.2-0.4,0.4-0.8,0.7-1.1l0,0
						c1.4-2.3,3.5-4.4,6.1-5.3l0,0c0.6-0.2,1.5-0.3,2.1-0.4l0,0c0.2,0,0.3,0,0.5,0l0,0c0.6,0,1.5,0,2,0.3l0,0
						c0.1,0.1,0.2,0.1,0.3,0.2l0,0c0.1,0.1,0.2,0.3,0.2,0.5l0,0l0,0.1c0,0.1,0,0.3-0.1,0.4l0,0c-0.2,0.4-0.6,0.4-1,0.5l0,0
						c-0.5,0.1-0.9,0.2-1.3,0.4l0,0c-3,1.1-5.5,5.4-6.7,8.3l0,0c1.1-0.5,2.1-1,3.1-1.6l0,0l9,9.5v0.7h-1.2l1.2,1.6v0.2h-7.6l2,3.9
						l-12.8,2.9L208.6,99.9L208.6,99.9z"/>
				</defs>
				<clipPath id="SVGID_00000043440887511640213960000008466281935085695416_">
					<use xlink:href="#SVGID_00000053519050144408261630000006623298878355509690_"  style="overflow:visible;"/>
				</clipPath>
				<g id="g6296" style="clip-path:url(#SVGID_00000043440887511640213960000008466281935085695416_);">
					<g id="g6302" transform="translate(219.6857,90.0076)">
						<path id="path6304" inkscape:connector-curvature="0" class="st1" d="M7.2-4.5L5.6-7.6l0-0.1l0-0.1c0.7-1.5,1.7-2.9,2.9-4
							c1.1-1.1,2.3-1.9,3.7-2.3c0.5-0.2,1.5-0.3,2.4-0.4c0.7,0,1.4,0.1,1.8,0.3c0.1,0,0.1,0.1,0.2,0.1c0,0.1,0.1,0.1,0.1,0.2l0,0.1
							c0,0.2-0.3,0.3-0.7,0.4c-0.3,0.1-0.8,0.2-1.4,0.4c-2,0.7-3.6,2.7-4.8,4.5c-1.2,1.9-2,3.7-2.2,4.1L7.4-4.1L7.2-4.5z"/>
					</g>
				</g>
			</g>
		</g>
		<g id="g6306" transform="matrix(7.9201919,0,0,-7.9201919,-1256.7966,1112.948)">
			<g>
				<defs>
					<path id="SVGID_00000002361162509235880110000006235384762124902815_" d="M226.9,85.5l-1.6-3.1l0-0.1l0-0.1
						c0.7-1.5,1.7-2.9,2.9-4l0,0c1.1-1.1,2.3-1.9,3.7-2.3l0,0c0.5-0.2,1.5-0.3,2.4-0.4l0,0c0.7,0,1.4,0.1,1.8,0.3l0,0
						c0.1,0,0.1,0.1,0.2,0.1l0,0c0,0.1,0.1,0.1,0.1,0.2l0,0l0,0.1c0,0.2-0.3,0.3-0.7,0.4l0,0c-0.3,0.1-0.8,0.2-1.4,0.4l0,0
						c-2,0.7-3.6,2.7-4.8,4.5l0,0c-1.2,1.9-2,3.7-2.2,4.1l0,0l-0.2,0.4L226.9,85.5L226.9,85.5z"/>
				</defs>
				<clipPath id="SVGID_00000074430532775510861350000008887409783179151294_">
					<use xlink:href="#SVGID_00000002361162509235880110000006235384762124902815_"  style="overflow:visible;"/>
				</clipPath>
				<g id="g6308" style="clip-path:url(#SVGID_00000074430532775510861350000008887409783179151294_);">
					<g id="g6314" transform="translate(218.4918,86.7702)">
						<path id="path6316" inkscape:connector-curvature="0" class="st3" d="M7.2-4.5l1.4,2.7c0.3-0.8,1-2.2,2-3.8
							c1.2-1.9,3-3.9,5-4.7c0.4-0.2,1-0.3,1.5-0.4c0.1,0,0.1,0,0-0.1c-0.4-0.1-0.9-0.1-1.3-0.1c-0.9,0-1.8,0.2-2.3,0.3
							C12.2-10.1,11-9.3,10-8.3C8.9-7.2,7.9-5.9,7.2-4.5"/>
					</g>
				</g>
			</g>
		</g>
		<g id="g6318" transform="matrix(7.9201919,0,0,-7.9201919,-1256.7966,1112.948)">
			<g>
				<defs>
					<path id="SVGID_00000174585495598243943060000007286249662500396959_" d="M225.7,82.3c0.7-1.4,1.7-2.7,2.8-3.8l0,0
						c1.1-1,2.2-1.8,3.5-2.3l0,0c0.5-0.2,1.4-0.3,2.3-0.3l0,0c0.4,0,0.9,0,1.3,0.1l0,0c0.1,0,0.1,0.1,0,0.1l0,0
						c-0.5,0.1-1.1,0.3-1.5,0.4l0,0c-2.1,0.8-3.8,2.8-5,4.7l0,0c-1,1.5-1.7,3-2,3.8l0,0L225.7,82.3L225.7,82.3z"/>
				</defs>
				<clipPath id="SVGID_00000012473959244741991070000016283272324771803566_">
					<use xlink:href="#SVGID_00000174585495598243943060000007286249662500396959_"  style="overflow:visible;"/>
				</clipPath>
				<g id="g6320" style="clip-path:url(#SVGID_00000012473959244741991070000016283272324771803566_);">
					<g id="g6326" transform="translate(219.302,87.2169)">
						<path id="path6328" inkscape:connector-curvature="0" class="st5" d="M7.2-4.5c1.3-2.2,3.8-5.6,6.7-6.4
							c0.7-0.2,1.3-0.3,1.6-0.3c0.1,0,0.2,0,0,0c-0.3,0.1-0.8,0.2-1.4,0.4c-3.1,1.1-5.4,5.1-6.5,7.3L7.2-4.5z"/>
					</g>
				</g>
			</g>
		</g>
		<g id="g6330" transform="matrix(7.9201919,0,0,-7.9201919,-1256.7966,1112.948)">
			<g>
				<defs>
					<path id="SVGID_00000072268742172403978720000001809802969195461779_" d="M208.6,99.9l2-3.9H203v-0.2l1.2-1.6H203v-0.7l9-9.5
						l0.3,0.2c0.9,0.5,1.9,1,2.8,1.4l0,0c-1.2-2.9-3.7-7.1-6.7-8.3l0,0c-0.4-0.2-0.9-0.3-1.3-0.4l0,0c-0.4-0.1-0.8-0.1-1-0.5l0,0
						c-0.1-0.1-0.1-0.3-0.1-0.4l0,0l0-0.1c0-0.2,0.1-0.3,0.2-0.5l0,0c0.1-0.1,0.2-0.2,0.3-0.2l0,0c0.5-0.3,1.4-0.4,2-0.3l0,0
						c0.2,0,0.3,0,0.5,0l0,0c0.7,0,1.5,0.2,2.1,0.4l0,0c3,1,5.3,3.7,6.8,6.4l0,0l3.5-6.8l3.5,6.8c0.2-0.4,0.4-0.8,0.7-1.1l0,0
						c1.4-2.3,3.5-4.4,6.1-5.3l0,0c0.6-0.2,1.5-0.3,2.1-0.4l0,0c0.2,0,0.3,0,0.5,0l0,0c0.6,0,1.5,0,2,0.3l0,0
						c0.1,0.1,0.2,0.1,0.3,0.2l0,0c0.1,0.1,0.2,0.3,0.2,0.5l0,0l0,0.1c0,0.1,0,0.3-0.1,0.4l0,0c-0.2,0.4-0.6,0.4-1,0.5l0,0
						c-0.5,0.1-0.9,0.2-1.3,0.4l0,0c-3,1.1-5.5,5.4-6.7,8.3l0,0c1.1-0.5,2.1-1,3.1-1.6l0,0l9,9.5v0.7h-1.2l1.2,1.6v0.2h-7.6l2,3.9
						l-12.8,2.9L208.6,99.9L208.6,99.9z"/>
				</defs>
				<clipPath id="SVGID_00000005261037087374055520000010977780125582890922_">
					<use xlink:href="#SVGID_00000072268742172403978720000001809802969195461779_"  style="overflow:visible;"/>
				</clipPath>
				<g id="g6332" style="clip-path:url(#SVGID_00000005261037087374055520000010977780125582890922_);">
					<g id="g6338" transform="translate(214.2413,80.5377)">
						<path id="path6340" inkscape:connector-curvature="0" class="st10" d="M7.2-4.5L2,5.6c3.4,1.1,6.9,1.1,10.4,0L7.2-4.5z
							 M-3.1,15.4L-4.9,19l12.1,2.7L19.3,19l-1.9-3.6L-3.1,15.4L-3.1,15.4z"/>
					</g>
				</g>
			</g>
		</g>
		<g id="g6342" transform="matrix(7.9201919,0,0,-7.9201919,-1256.7966,1112.948)">
			<g>
				<defs>
					<path id="SVGID_00000079478132100076416380000011821728851787349430_" d="M209.3,99.5l1.9-3.6h20.5l1.9,3.6l-12.1,2.7
						L209.3,99.5z M216.3,86.1l5.2-10l5.2,10c-1.7,0.5-3.4,0.8-5.2,0.8l0,0C219.7,86.9,218,86.6,216.3,86.1"/>
				</defs>
				<clipPath id="SVGID_00000030479881608746118210000008114016189515170191_">
					<use xlink:href="#SVGID_00000079478132100076416380000011821728851787349430_"  style="overflow:visible;"/>
				</clipPath>
				<g id="g6344" style="clip-path:url(#SVGID_00000030479881608746118210000008114016189515170191_);">
					<g id="g6350" transform="translate(214.2477,106.0628)">
						<path id="path6352" inkscape:connector-curvature="0" class="st12" d="M7.2-4.5l11.1-2.4L7.2-28.3l-11,21.4L7.2-4.5z"/>
					</g>
					<g id="g6354" transform="translate(214.2476,106.0628)">
						<path id="path6356" inkscape:connector-curvature="0" class="st13" d="M7.2-4.5v-22.9L-3.4-7L7.2-4.5z"/>
					</g>
					<g id="g6358" transform="translate(214.2477,106.0628)">
						<path id="path6360" inkscape:connector-curvature="0" class="st10" d="M7.2-4.5l9.7-2.8L7.2-24.8L-2.5-7.2L7.2-4.5z"/>
					</g>
					<g id="g6362" transform="translate(214.2443,105.7526)">
						<path id="path6364" inkscape:connector-curvature="0" class="st14" d="M7.2-4.5L-2-7.1l9.2-16.1L7.2-4.5z"/>
					</g>
				</g>
			</g>
		</g>
		<g id="g6366" transform="matrix(7.9201919,0,0,-7.9201919,-1256.7966,1112.948)">
			<g>
				<defs>
					<path id="SVGID_00000086668246424521234300000014595453921990685317_" d="M208.6,99.9l2-3.9H203v-0.2l1.2-1.6H203v-0.7l9-9.5
						l0.3,0.2c0.9,0.5,1.9,1,2.8,1.4l0,0c-1.2-2.9-3.7-7.1-6.7-8.3l0,0c-0.4-0.2-0.9-0.3-1.3-0.4l0,0c-0.4-0.1-0.8-0.1-1-0.5l0,0
						c-0.1-0.1-0.1-0.3-0.1-0.4l0,0l0-0.1c0-0.2,0.1-0.3,0.2-0.5l0,0c0.1-0.1,0.2-0.2,0.3-0.2l0,0c0.5-0.3,1.4-0.4,2-0.3l0,0
						c0.2,0,0.3,0,0.5,0l0,0c0.7,0,1.5,0.2,2.1,0.4l0,0c3,1,5.3,3.7,6.8,6.4l0,0l3.5-6.8l3.5,6.8c0.2-0.4,0.4-0.8,0.7-1.1l0,0
						c1.4-2.3,3.5-4.4,6.1-5.3l0,0c0.6-0.2,1.5-0.3,2.1-0.4l0,0c0.2,0,0.3,0,0.5,0l0,0c0.6,0,1.5,0,2,0.3l0,0
						c0.1,0.1,0.2,0.1,0.3,0.2l0,0c0.1,0.1,0.2,0.3,0.2,0.5l0,0l0,0.1c0,0.1,0,0.3-0.1,0.4l0,0c-0.2,0.4-0.6,0.4-1,0.5l0,0
						c-0.5,0.1-0.9,0.2-1.3,0.4l0,0c-3,1.1-5.5,5.4-6.7,8.3l0,0c1.1-0.5,2.1-1,3.1-1.6l0,0l9,9.5v0.7h-1.2l1.2,1.6v0.2h-7.6l2,3.9
						l-12.8,2.9L208.6,99.9L208.6,99.9z"/>
				</defs>
				<clipPath id="SVGID_00000117638473335026772110000017610659820302893994_">
					<use xlink:href="#SVGID_00000086668246424521234300000014595453921990685317_"  style="overflow:visible;"/>
				</clipPath>
				<g id="g6368" style="clip-path:url(#SVGID_00000117638473335026772110000017610659820302893994_);">
					<g id="g6374" transform="translate(197.7411,99.385)">
						<path id="path6376" inkscape:connector-curvature="0" class="st16" d="M7.2-4.5l7.3-9.6c5.9,3.4,12.5,3.4,18.4,0l7.3,9.6H7.2z
							"/>
					</g>
					<g id="g6378" transform="translate(196.6564,99.9218)">
						<path id="path6380" inkscape:connector-curvature="0" class="st1" d="M7.2-4.5h35.2l-4.5-5.9l3.7,4.1h1.2l-8.6-9.1l0,0l0,0
							C33-14.7,32-14.2,31-13.8c-4.1,1.6-8.3,1.6-12.5,0c-1-0.4-2-0.9-3.1-1.6L6.8-6.2H8l3.7-4.1C10.2-8.4,8.7-6.4,7.2-4.5 M8.3-5
							l7.3-9.6c5.9,3.4,12.5,3.4,18.4,0L41.3-5C41.3-5,8.3-5,8.3-5z"/>
					</g>
					<g id="g6382" transform="translate(205.0638,90.4933)">
						<path id="path6384" inkscape:connector-curvature="0" class="st17" d="M7.2-4.5L1.1,3.8L1,3.9h0.2h30.3h0.2l-0.1-0.2l-6.1-8.2
							l0-0.1l-0.1,0c-3.3,1.6-6.2,2.4-9.1,2.4c-2.9,0-5.8-0.8-9.1-2.4L7.2-4.5L7.2-4.5z M1.4,3.7l5.9-8C10.6-2.7,13.5-2,16.4-2
							s5.8-0.8,9.1-2.3l5.9,8H1.4L1.4,3.7z"/>
					</g>
					<g id="g6386" transform="translate(205.591,91.4453)">
						<path id="path6388" inkscape:connector-curvature="0" class="st1" d="M7.2-4.5C6.3-2.6,5.5-1,4.5,0.8l-1.1,0L2.6,2l0.7,0
							l0.5-0.9l1.1,0L7.3-4c0.2,0.1,0.5,0.2,0.7,0.3L8.2-4L7.2-4.5z M6.8,1.2L7,0.9l-0.6,0L6.3,1.2C6.3,1.2,6.8,1.2,6.8,1.2z
							 M22.9,1.1c0.1,0.3,0,0.3-0.3,0.3l-0.5-1.3c0.2,0,0.3-0.1,0.4,0.2C22.6,0.2,22.9,1.1,22.9,1.1z M6.9,2l0.4,0l1.5-4.2
							c0.4-1,0.5-1.1,1.5-0.7c0.4,0.1,0.7,0.2,0.9,0.4c0-0.1,0-0.2-0.1-0.3c-0.1-0.2-0.9-0.5-1.4-0.6C8.9-3.6,8.8-3.2,8.5-2.5L7,1.2
							l0.2,0C7.1,1.5,7,1.8,6.9,2 M9.9-2L9.7-1.3C9.3-0.2,9,0.9,8.7,2.1l0.4,0l1.1-3.9c0-0.1,0.1-0.2-0.1-0.3C10-2.1,9.9-2.1,9.9-2
							 M11.2-0.9l0.3,0l0.1-0.7c0.2-1,0.6-0.9,1.5-0.7c0.4,0.1,0.7,0.1,0.8,0.1c0.1,0,0.2,0.1,0.2,0.1c0,0,0,0,0,0
							c0-0.1-0.1-0.1-0.1-0.2c-0.1-0.1-0.2-0.2-0.3-0.2c-0.2-0.1-1-0.2-1.5-0.2c-0.6,0-0.8,0.3-0.9,0.8L11.2-0.9z M13-1.6
							c0,0.2,0,0.4-0.1,0.6c0,0.1,0,0.2-0.1,0.2c0,0-0.1,0-0.1,0.1l0,0.2l-0.3,0c-0.2,0.1-0.4,0.1-0.7,0.2c-0.2,0.1-0.4,0.2-0.5,0.3
							c-0.1,0.1-0.2,0.3-0.3,0.5c0,0.2-0.1,0.4-0.1,0.6c-0.1,0.4-0.1,0.7,0.1,0.8C11,2,11.1,2,11.3,2l0,0c-0.2-0.1-0.2-0.4-0.1-0.8
							l0.1-0.5c0-0.2,0.1-0.4,0.2-0.5C11.6,0.1,11.8,0,12-0.1l0.9-0.3c0.1,0,0.2-0.1,0.2-0.1c0,0,0.1-0.1,0.1-0.2
							c0-0.2,0-0.4,0.1-0.7C13.2-1.5,13.2-1.6,13-1.6C13-1.6,13-1.6,13-1.6 M14.2,0.7l0-0.4l-0.6,0l-0.8,0.2c0,0-0.1,0-0.1,0
							l-0.1,0.5c0,0.1,0,0.2-0.1,0.2c0,0-0.1,0-0.1,0c0,0,0,0.1,0,0.1c0,0,0.1,0.1,0.1,0.1c0.1,0,0.1,0,0.2,0c0,0,0.1-0.1,0.1-0.2
							L13,0.6L14.2,0.7z M16.2-1.7l0-0.7l-1.3,0L14.8,2h0l0.1-4.1c0.4,0,0.7,0,1.1,0l0.1,2l0.5-2l1.1-0.1l0.1-0.3l-1.4,0.1L16.2-1.7
							z M16.2,2l0.2,0l-0.1-1.1l-0.2-0.5L16.2,2z M18.1,2L18.1,2l-0.9-1.9l0,0.1C17.2,0.3,18.1,2,18.1,2z M18.2-2.5l0.1,0.3
							c0.5-0.1,1-0.1,1.5-0.2c0,0.2,0.1,0.3,0.1,0.5l0.3,0l-0.2-0.8C19.9-2.8,18.2-2.5,18.2-2.5z M20.9,2.1l0.4,0l-0.3-1l-0.8,0
							l-0.1-0.6l-0.4,0l0.2,0.9l0.8,0C20.7,1.4,20.9,2.1,20.9,2.1z M20.4,0.3l0.4,0l-0.3-0.9l-0.7,0.1l-0.3-1l-0.3,0l0.3,1.4
							l0.7-0.1L20.4,0.3z M20.4-2.9l0.1,0.3c0.2-0.1,0.5-0.1,0.7-0.2l0.7,2l0.1,0c0.1,0,0.2,0,0.2-0.1c0,0,0-0.1,0-0.2l-0.6-1.7l0,0
							l-0.1-0.3C21.4-3.2,20.4-2.9,20.4-2.9z M24.3,2c0.4,0,0.6-0.1,0.7-0.2c0.1-0.1,0.1-0.2,0.1-0.3c-0.1-0.1-0.2-0.3-0.3-0.5
							c-0.1-0.3-0.4-0.7-0.5-1.1c-0.1-0.2-0.3-0.4-0.4-0.5c-0.1-0.1-0.3-0.2-0.6-0.3c0.2-0.1,0.3-0.2,0.3-0.4c0-0.1,0-0.2,0-0.3
							l-0.4-0.8c0-0.1-0.1-0.2-0.1-0.3l-0.1-0.2l-0.4-0.9l-1,0.3c0,0.1,0.1,0.2,0.1,0.3l0.6-0.2l0.7,1.7c0.1,0.3,0.2,0.5,0.1,0.6
							c0,0.1-0.1,0.3-0.3,0.3c0.2,0,0.4,0.1,0.6,0.2c0.3,0.2,0.6,1,0.7,1.3C24.5,1.5,24.5,1.8,24.3,2C24.4,2,24.4,2,24.3,2
							 M24.8-1.6c0.1,0,0.2,0,0.3-0.1c0,0,0-0.1,0-0.1l-0.5-0.9c0-0.1-0.1-0.3-0.3-0.2c-0.1,0.1,0,0.3,0,0.3
							C24.4-2.2,24.6-1.9,24.8-1.6 M28,2.1c0.7,0,1.1-0.3,0.6-1l-1.1-1.6l-1.2,0.1c0.1,0.1,0.1,0.2,0.2,0.4c0.2,0,0.4,0,0.6-0.1
							L28,1.3c0.2,0.3,0.3,0.6,0.2,0.7C28.1,2,28.1,2.1,28,2.1 M26.2,0c0,0,0-0.1,0-0.1c0-0.1,0-0.1,0.1-0.2
							c0.2-0.2,0.3-0.4,0.4-0.6c0.1-0.2,0.2-0.3,0.1-0.5c0-0.2-0.2-0.4-0.3-0.7L25.3-4C25-4.5,24.5-4.5,24-4.3
							c-0.4,0.2-0.7,0.4-0.7,0.6c0,0,0,0.1,0,0.1c0.1-0.1,0.3-0.2,0.6-0.3c0.5-0.2,0.8-0.4,1.2,0.1c0.1,0.1,0.2,0.3,0.3,0.5l0.8,1.5
							c0.2,0.3,0.3,0.5,0.3,0.7c0,0.2,0,0.3-0.2,0.5c-0.2,0.2-0.3,0.4-0.5,0.5c-0.2,0.2-0.1,0.3,0,0.4l0.3,0.6
							c0.1,0.1,0.2,0.3,0.3,0.3c0.2,0,0.1-0.2,0-0.3L26,0.1L26.2,0z"/>
					</g>
					<g id="g6390" transform="translate(203.3672,97.0758)">
						<path id="path6392" inkscape:connector-curvature="0" class="st18" d="M7.2-4.5l2.4-5.1C9.7-9.5,9.8-9.4,10-9.4
							c0.1,0.1,0.3,0.1,0.4,0.2L8.4-4.4l0,0.1l0.1,0l0.9,0C9.3-4.2,9.2-4.1,9.2-3.9C9.1-3.8,9.1-3.7,9-3.5l-1.6,0l-1.8,0l0.5-0.9
							L7.2-4.5L7.2-4.5L7.2-4.5z M10.8-3.5l-1.3,0L11-7.8c0.2-0.5,0.3-0.7,0.5-0.8c0.2-0.1,0.5,0,1,0.1c0.3,0.1,0.5,0.2,0.6,0.2
							c0.2,0.1,0.3,0.1,0.3,0.2c0.1,0.1,0.1,0.2,0.1,0.3c0,0.1,0,0.3-0.1,0.5l0,0l-0.8,3.8l-1.3,0l1.1-3.9l0,0c0,0,0,0,0,0l0,0
							c0-0.1,0.1-0.2-0.1-0.3c-0.1,0-0.2,0-0.2,0.1c0,0-0.1,0.1-0.1,0.2c-0.2,0.7-0.4,1.3-0.6,2C11.2-4.8,11-4.2,10.8-3.5 M14.9-6.2
							l-1.1-0.1L14-7.2l0,0c0.2-0.9,0.5-0.8,1.3-0.7c0,0,0.1,0,0.1,0c0.2,0,0.4,0.1,0.5,0.1c0.1,0,0.2,0,0.3,0.1
							c0.2,0.1,0.3,0.1,0.3,0.2c0.1,0.1,0.1,0.3,0.1,0.4l0,1c0,0.1,0,0.2,0,0.2c0,0.1-0.1,0.1-0.1,0.2c0,0.1-0.1,0.1-0.2,0.1
							c-0.1,0-0.2,0.1-0.3,0.1l0,0l-0.8,0.3l0,0c-0.1,0-0.1,0-0.1,0.1c0,0-0.1,0-0.1,0.1c0,0,0,0.1-0.1,0.1c0,0,0,0.1,0,0.1
							c0,0.1,0,0.2,0,0.3l0,0.2c0,0,0,0.1,0,0.1c0,0,0,0.1,0,0.1c0,0,0,0,0.1,0.1l0,0c0,0,0.1,0,0.1,0c0,0,0.1,0,0.1,0
							c0,0,0.1,0,0.1,0s0,0,0.1-0.1l0,0c0,0,0-0.1,0-0.1L15.3-5l1.2,0l0,0.9c0,0.1,0,0.2-0.1,0.3s-0.1,0.1-0.2,0.2
							c-0.2,0.1-0.8,0.1-1.4,0.1c-0.5,0-1-0.1-1.2-0.2c-0.1,0-0.1-0.1-0.1-0.2c0-0.1,0-0.3,0-0.5l0.1-0.5l0,0c0-0.1,0-0.2,0.1-0.3
							s0.1-0.1,0.1-0.2c0.1-0.1,0.1-0.1,0.2-0.2c0.1,0,0.2-0.1,0.3-0.1h0L15.1-6l0,0c0.1,0,0.1,0,0.1-0.1c0,0,0.1,0,0.1-0.1
							c0,0,0-0.1,0.1-0.1c0,0,0-0.1,0-0.1c0-0.1,0-0.3,0-0.4l0-0.2l0,0c0-0.1,0-0.1,0-0.2c0-0.1-0.1-0.1-0.2-0.1c0,0-0.1,0-0.1,0
							c0,0-0.1,0-0.1,0h0c0,0,0,0,0,0.1l0,0c0,0,0,0.1,0,0.1C15-6.8,15-6.6,15-6.4C15-6.4,14.9-6.2,14.9-6.2z M18.2-7.6l0.1,2.2
							l0.5-2.2l1-0.1l-0.5,2.3l0,0l0.9,1.8H19l-0.7-1.8l0.1,1.8h-1.3l0.1-4.2c0.2,0,0.3,0,0.5,0C17.8-7.7,18-7.6,18.2-7.6 M21-3.5
							l-0.7-4.2c0.3,0,0.6-0.1,0.8-0.1c0.3,0,0.6-0.1,0.8-0.1c0,0.1,0.1,0.2,0.1,0.3c0,0.1,0.1,0.2,0.1,0.3l-0.6,0.1l-0.1,0l0,0.1
							l0.3,1.4l0,0l0,0l0.7-0.1l0.2,0.7l-0.7,0l-0.1,0l0,0.1l0.2,0.9l0,0l0,0l0.8,0l0.2,0.6C23.1-3.5,21-3.5,21-3.5z M25.2-4.2
							c0.1,0,0.1-0.1,0-0.3l0,0l-0.3-0.8l0,0c-0.1-0.2-0.2-0.2-0.4-0.2c0,0,0,0-0.1,0l-0.1,0l0,0.1l0.5,1.3l0,0l0,0c0,0,0,0,0.1,0
							C25-4.2,25.1-4.2,25.2-4.2 M23.8-3.5l-1.3-4.6c0.2,0,0.3-0.1,0.5-0.1c0.2,0,0.3-0.1,0.5-0.1L24-6.5l0,0l0,0l0.1,0l0,0
							c0.1,0,0.1,0,0.1,0c0,0,0.1,0,0.1-0.1l0,0c0,0,0-0.1,0-0.1c0,0,0-0.1,0-0.1l-0.6-1.7l0.9-0.3l0.7,1.7l0,0
							c0.1,0.1,0.1,0.2,0.1,0.3c0,0.1,0,0.2,0,0.2c0,0.1,0,0.1-0.1,0.2c-0.1,0.1-0.2,0.2-0.4,0.2c0.2,0,0.3,0,0.5,0.1
							c0.1,0,0.2,0.1,0.2,0.1c0.2,0.2,0.5,0.7,0.6,1.1c0,0.1,0.1,0.1,0.1,0.2c0.1,0.2,0.2,0.4,0.2,0.6c0,0.1,0,0.2-0.1,0.3l0,0
							c-0.1,0.1-0.2,0.1-0.4,0.1c-0.2,0-0.5,0-0.8,0l-1.1,0L23.8-3.5L23.8-3.5z M27-7l-1,0.2l-0.5-1.1l0,0c-0.1-0.2-0.2-0.4-0.2-0.6
							c0-0.2,0-0.3,0-0.4c0-0.1,0.1-0.2,0.2-0.3c0.1-0.1,0.3-0.2,0.5-0.3l0,0l0.1,0l0,0c0.4-0.2,0.7-0.3,1.1,0.1
							c0,0.1,0.1,0.1,0.1,0.2c0,0.1,0.1,0.2,0.2,0.3l0,0l0.8,1.5v0c0.1,0.1,0.1,0.3,0.2,0.4c0,0.1,0.1,0.2,0.1,0.3v0
							c0,0.1,0,0.2,0,0.2l0,0c0,0.1-0.1,0.1-0.1,0.2c-0.1,0.1-0.2,0.2-0.2,0.3c-0.1,0.1-0.2,0.2-0.2,0.3c-0.1,0.1-0.1,0.2-0.1,0.2
							c0,0.1,0,0.2,0.1,0.2l0.3,0.6c0,0.1,0.1,0.1,0.1,0.2c0.1,0.1,0.1,0.1,0.2,0.1c0.1,0,0.2-0.1,0.2-0.1c0-0.1,0-0.1-0.1-0.2l0,0
							l0,0l-0.4-0.8c0.2,0,0.3,0,0.5-0.1c0.2,0,0.4,0,0.6-0.1l0.8,1.3l0,0c0.1,0.2,0.2,0.3,0.2,0.4c0,0.1,0,0.2,0,0.2
							c-0.1,0.1-0.3,0.1-0.6,0.2c-0.4,0-1,0-1.2,0c-0.4,0-0.7-0.1-0.9-0.3c-0.2-0.2-0.4-0.4-0.6-0.8C27-4.6,27-4.7,27-4.8
							c-0.2-0.3-0.4-0.8-0.4-1.1c0-0.1,0-0.1,0.1-0.2c0-0.1,0.1-0.1,0.1-0.2c0.1-0.1,0.2-0.2,0.3-0.3h0c0.1-0.1,0.2-0.2,0.3-0.3
							c0.1-0.1,0.1-0.2,0.1-0.3c0-0.1,0-0.2-0.1-0.3l0,0l-0.5-0.9v0c0-0.1-0.1-0.1-0.1-0.2l0,0c-0.1-0.1-0.1-0.1-0.2-0.1
							c-0.1,0.1-0.1,0.2-0.1,0.3c0,0,0,0.1,0.1,0.1l0,0l0,0l0,0l0,0C26.6-7.7,26.8-7.4,27-7"/>
					</g>
					<g id="g6394" transform="translate(205.6748,91.9052)">
						<path id="path6396" inkscape:connector-curvature="0" class="st17" d="M7.2-4.5L4.8,0.6l-1.1,0l0,0l0,0l-0.6,1l0,0.1h0.1
							l1.9,0l1.7,0h0l0,0C6.8,1.6,6.9,1.4,7,1.3C7,1.1,7.1,0.9,7.1,0.8l0-0.1l-0.1,0l-0.9,0L8.2-4l0,0l0,0C8-4.2,7.8-4.2,7.7-4.3
							C7.5-4.4,7.4-4.4,7.2-4.5L7.2-4.5L7.2-4.5z M4.9,0.7l2.4-5.1c0.1,0.1,0.3,0.1,0.4,0.2C7.8-4.1,7.9-4.1,8.1-4L6.1,0.7l0,0.1
							l0.1,0l0.9,0C7,1,6.9,1.1,6.9,1.2C6.8,1.4,6.8,1.5,6.7,1.6l-1.6,0l-1.8,0l0.5-0.9L4.9,0.7L4.9,0.7C4.9,0.7,4.9,0.7,4.9,0.7z
							 M7.1,1.7l1.4,0h0l0,0C8.8,1,9,0.4,9.2-0.3c0.2-0.7,0.4-1.3,0.6-2c0-0.1,0-0.1,0.1-0.1c0,0,0.1,0,0.1,0c0.1,0,0.1,0.1,0.1,0.2
							l0,0c0,0,0,0,0,0l-1.1,4l0,0.1H9l1.4,0h0l0,0l0.8-3.8v0c0-0.2,0.1-0.4,0.1-0.5c0-0.2,0-0.3-0.1-0.4c-0.1-0.1-0.2-0.2-0.3-0.2
							c-0.2-0.1-0.4-0.1-0.6-0.2c-0.5-0.2-0.8-0.2-1-0.1C9-3.4,8.8-3.2,8.7-2.7v0L7.1,1.7L7.1,1.7C7,1.7,7.1,1.7,7.1,1.7z M8.5,1.7
							l-1.3,0l1.6-4.3C8.9-3.1,9-3.4,9.2-3.5c0.2-0.1,0.5,0,1,0.1c0.3,0.1,0.5,0.2,0.6,0.2C11-3.1,11.1-3,11.1-2.9
							c0.1,0.1,0.1,0.2,0.1,0.3c0,0.1,0,0.3-0.1,0.5l0,0l-0.8,3.8L9,1.7l1.1-3.9l0,0c0,0,0,0,0,0l0,0c0-0.1,0.1-0.2-0.1-0.3
							c-0.1,0-0.2,0-0.2,0.1c0,0-0.1,0.1-0.1,0.2C9.5-1.7,9.3-1,9.1-0.3C8.9,0.3,8.7,1,8.5,1.7 M11.4-1l1.2,0.1l0,0l0,0l0-0.3
							c0-0.2,0-0.4,0.1-0.6c0,0,0-0.1,0-0.1l0,0c0,0,0,0,0,0h0c0,0,0,0,0,0c0,0,0,0,0.1,0c0.1,0,0.1,0,0.1,0.1c0,0,0,0.1,0,0.1l0,0
							l0,0.2c0,0.1,0,0.3,0,0.4c0,0,0,0.1,0,0.1c0,0,0,0,0,0.1c0,0,0,0-0.1,0c0,0-0.1,0-0.1,0l0,0l-0.9,0.3l0,0
							c-0.1,0-0.2,0.1-0.3,0.1c-0.1,0-0.2,0.1-0.2,0.2c-0.1,0.1-0.1,0.1-0.1,0.2c0,0.1-0.1,0.2-0.1,0.3h0L11,0.8C11,1,11,1.2,11,1.3
							c0,0.1,0.1,0.3,0.2,0.3c0.2,0.1,0.7,0.2,1.2,0.2c0.6,0,1.2,0,1.5-0.1c0.1,0,0.2-0.1,0.3-0.2c0.1-0.1,0.1-0.2,0.1-0.3l0-0.9
							l0,0l-0.1,0l-1.3,0l0,0l0,0l-0.1,0.6c0,0,0,0.1,0,0.1v0c0,0,0,0,0,0c0,0,0,0,0,0c0,0-0.1,0-0.1,0l0,0c0,0-0.1,0-0.1,0l0,0
							c0,0,0,0,0,0c0,0,0,0,0,0c0,0,0-0.1,0-0.1v0l0-0.2c0-0.1,0-0.2,0-0.3c0,0,0-0.1,0-0.1c0,0,0,0,0-0.1c0,0,0,0,0.1,0
							c0,0,0.1,0,0.1-0.1h0l0.8-0.3l0,0c0.1,0,0.2-0.1,0.3-0.1c0.1,0,0.2-0.1,0.2-0.2c0.1-0.1,0.1-0.1,0.1-0.2c0-0.1,0-0.2,0-0.3
							l0-1c0-0.2,0-0.3-0.1-0.5c-0.1-0.1-0.2-0.2-0.4-0.3c-0.1,0-0.2,0-0.3-0.1c-0.1,0-0.3,0-0.5-0.1c0,0-0.1,0-0.1,0
							C12.1-2.9,11.7-3,11.6-2l0,0L11.4-1L11.4-1L11.4-1z M12.6-1l-1.1-0.1L11.7-2l0,0c0.2-0.9,0.5-0.8,1.3-0.7c0,0,0.1,0,0.1,0
							c0.2,0,0.4,0.1,0.5,0.1c0.1,0,0.2,0,0.3,0.1c0.2,0.1,0.3,0.1,0.3,0.2c0.1,0.1,0.1,0.3,0.1,0.4l0,1c0,0.1,0,0.2,0,0.2
							c0,0.1-0.1,0.1-0.1,0.2c0,0.1-0.1,0.1-0.2,0.1c-0.1,0-0.2,0.1-0.3,0.1l0,0L12.8,0l0,0c-0.1,0-0.1,0-0.1,0.1c0,0-0.1,0-0.1,0.1
							c0,0,0,0.1-0.1,0.1c0,0,0,0.1,0,0.1c0,0.1,0,0.2,0,0.3l0,0.2c0,0,0,0.1,0,0.1c0,0,0,0.1,0,0.1c0,0,0,0,0.1,0.1l0,0
							c0,0,0.1,0,0.1,0c0,0,0.1,0,0.1,0c0,0,0.1,0,0.1,0c0,0,0,0,0.1-0.1l0,0c0,0,0-0.1,0-0.1L13,0.2l1.2,0l0,0.9
							c0,0.1,0,0.2-0.1,0.3c0,0.1-0.1,0.1-0.2,0.2c-0.2,0.1-0.8,0.1-1.4,0.1c-0.5,0-1-0.1-1.2-0.2c-0.1,0-0.1-0.1-0.1-0.3
							c0-0.1,0-0.3,0-0.5l0.1-0.5l0,0c0-0.1,0-0.2,0.1-0.3c0-0.1,0.1-0.1,0.1-0.2c0.1-0.1,0.1-0.1,0.2-0.2c0.1,0,0.2-0.1,0.3-0.1
							l0,0l0.9-0.3l0,0c0.1,0,0.1,0,0.1-0.1c0,0,0.1,0,0.1-0.1c0,0,0-0.1,0.1-0.1c0,0,0-0.1,0-0.1c0-0.1,0-0.3,0-0.4l0-0.2v0
							c0-0.1,0-0.1,0-0.2c0-0.1-0.1-0.1-0.2-0.1c0,0-0.1,0-0.1,0c0,0-0.1,0-0.1,0l0,0c0,0,0,0,0,0.1l0,0c0,0,0,0.1,0,0.1
							c0,0.2,0,0.4-0.1,0.6L12.6-1z M16-0.9l-0.1-1.6l0,0l0,0c-0.2,0-0.4,0-0.5,0c-0.2,0-0.4,0-0.5,0l0,0l0,0l-0.1,4.2l0,0.1h0.1
							h1.4h0.1l0-0.1l-0.1-1.3l0.5,1.3l0,0h0H18h0.1l0-0.1l-0.9-1.9l0.5-2.4l0-0.1l-0.1,0l-1.1,0.1l0,0l0,0L16-0.9z M15.8-2.5
							L16-0.2l0.5-2.2l1-0.1l-0.5,2.3l0,0L18,1.7h-1.3L16-0.1L16,1.7h-1.3l0.1-4.2c0.2,0,0.3,0,0.5,0C15.5-2.5,15.7-2.5,15.8-2.5
							 M17.9-2.6l0.7,4.3l0,0h0l2.3,0h0.1l0-0.1l-0.2-0.7l0,0l0,0l-0.8,0l-0.2-0.8l0.7,0l0.1,0l0-0.1l-0.2-0.8l0,0l0,0l-0.7,0.1
							L19.2-2l0.6-0.1l0.1,0l0-0.1c0-0.1-0.1-0.3-0.1-0.4c0-0.1-0.1-0.2-0.1-0.4l0,0l0,0c-0.3,0.1-0.6,0.1-0.9,0.1
							C18.5-2.8,18.2-2.7,17.9-2.6L17.9-2.6L17.9-2.6z M18.6,1.7L18-2.6c0.3,0,0.6-0.1,0.8-0.1s0.6-0.1,0.8-0.1
							c0,0.1,0.1,0.2,0.1,0.3c0,0.1,0.1,0.2,0.1,0.3l-0.6,0.1l-0.1,0l0,0l0.3,1.4l0,0l0,0l0.7-0.1L20.3,0l-0.7,0l-0.1,0l0,0.1
							L19.8,1l0,0l0,0l0.8,0l0.2,0.6C20.8,1.7,18.6,1.7,18.6,1.7z M22.8,0.6c0.1,0.1,0,0.2,0,0.2c0,0-0.1,0-0.2,0h0l-0.4-1.2l0,0
							c0.1,0,0.2,0,0.3,0.1v0L22.8,0.6z M22.9,0.9c0.1,0,0.1-0.1,0-0.3v0l-0.3-0.8l0,0c-0.1-0.2-0.2-0.2-0.4-0.2c0,0,0,0-0.1,0
							l-0.1,0l0,0.1l0.5,1.3l0,0l0,0c0,0,0,0,0.1,0C22.7,0.9,22.8,0.9,22.9,0.9 M20-3l1.4,4.7l0,0h0l0.5,0l1.1,0c0.4,0,0.6,0,0.9,0
							c0.2,0,0.4-0.1,0.4-0.2c0.1-0.1,0.1-0.2,0.1-0.4c0-0.2-0.1-0.4-0.2-0.6c0-0.1-0.1-0.1-0.1-0.2C24,0,23.8-0.6,23.5-0.8
							c-0.1-0.1-0.2-0.1-0.3-0.2c-0.1,0-0.1,0-0.2-0.1c0,0,0.1-0.1,0.1-0.1c0.1-0.1,0.1-0.1,0.1-0.2c0-0.1,0-0.2,0-0.3
							c0-0.1-0.1-0.2-0.1-0.4l0,0l-0.7-1.7l0,0l0,0l-1,0.3l0,0l0,0L22-1.6c0,0,0,0.1,0,0.1c0,0,0,0,0,0.1l0,0c0,0,0,0,0,0
							c0,0-0.1,0-0.1,0l0,0l0,0l-0.7-1.9l0,0l0,0c-0.2,0-0.3,0.1-0.5,0.1C20.4-3.1,20.2-3.1,20-3L20-3C20-3,20-3,20-3z M21.5,1.7
							L20.1-3c0.2,0,0.3-0.1,0.5-0.1c0.2,0,0.3-0.1,0.5-0.1l0.7,1.9l0,0l0,0l0.1,0h0c0.1,0,0.1,0,0.1,0c0,0,0.1,0,0.1-0.1l0,0
							c0,0,0-0.1,0-0.1c0,0,0-0.1,0-0.1l-0.6-1.7l0.9-0.3l0.7,1.7l0,0c0.1,0.1,0.1,0.2,0.1,0.3c0,0.1,0,0.2,0,0.2
							c0,0.1,0,0.1-0.1,0.2C23-1,22.9-1,22.7-1c0.2,0,0.3,0,0.5,0.1c0.1,0,0.2,0.1,0.2,0.1c0.2,0.2,0.5,0.7,0.6,1.1
							c0,0.1,0.1,0.1,0.1,0.2c0.1,0.2,0.2,0.4,0.2,0.6c0,0.1,0,0.2-0.1,0.3h0c-0.1,0.1-0.2,0.1-0.4,0.1c-0.2,0-0.5,0-0.8,0l-1.1,0
							L21.5,1.7L21.5,1.7z M23.7-1.5l1.1-0.2l0.1,0l0-0.1c-0.2-0.4-0.4-0.8-0.6-1.1l0,0l0,0l0,0v0c0,0,0-0.1,0-0.1
							c0-0.1,0-0.1,0-0.2c0.1,0,0.1,0,0.1,0l0,0c0,0,0.1,0.1,0.1,0.2l0,0l0.5,0.9l0,0C24.9-2.1,25-2,25-1.9c0,0.1,0,0.1-0.1,0.2
							c-0.1,0.1-0.2,0.2-0.3,0.3l0,0c-0.1,0.1-0.2,0.2-0.3,0.3c-0.1,0.1-0.1,0.1-0.2,0.2c0,0.1-0.1,0.2-0.1,0.3
							c0,0.3,0.2,0.8,0.4,1.1c0,0.1,0.1,0.1,0.1,0.2C24.9,1,25,1.3,25.3,1.5s0.5,0.2,1,0.3c0.2,0,0.8,0,1.2,0c0.3,0,0.5-0.1,0.6-0.2
							c0.1-0.1,0.1-0.2,0.1-0.3c0-0.1-0.1-0.3-0.2-0.5l0,0l-0.8-1.3l0,0l0,0c-0.2,0-0.4,0-0.6,0.1c-0.2,0-0.4,0-0.6,0.1l-0.1,0
							l0,0.1l0.5,0.9l0,0l0,0c0,0.1,0.1,0.1,0.1,0.2c0,0,0,0-0.1,0c-0.1,0-0.1,0-0.2-0.1c0,0-0.1-0.1-0.1-0.2l-0.3-0.6
							c0-0.1-0.1-0.1-0.1-0.2c0-0.1,0-0.1,0.1-0.2c0.1-0.1,0.2-0.2,0.2-0.3c0.1-0.1,0.2-0.2,0.2-0.3c0.1-0.1,0.1-0.2,0.1-0.2h0
							c0-0.1,0-0.2,0-0.3l0,0c0-0.1,0-0.2-0.1-0.3c0-0.1-0.1-0.2-0.2-0.4l0,0l-0.8-1.5l0,0c-0.1-0.1-0.1-0.2-0.2-0.3
							C25-4.1,25-4.1,25-4.2c-0.4-0.5-0.7-0.4-1.2-0.2l0,0l-0.1,0l0,0c-0.2,0.1-0.4,0.2-0.5,0.3c-0.1,0.1-0.2,0.2-0.2,0.3
							c0,0.1,0,0.2,0,0.4c0,0.2,0.1,0.4,0.2,0.6l0,0L23.7-1.5L23.7-1.5L23.7-1.5L23.7-1.5z M24.7-1.9l-1,0.2l-0.5-1.1l0,0
							C23.1-3,23.1-3.2,23-3.3c0-0.2,0-0.3,0-0.4c0-0.1,0.1-0.2,0.2-0.3c0.1-0.1,0.3-0.2,0.5-0.3l0,0l0.1,0l0,0
							c0.4-0.2,0.7-0.3,1.1,0.2C24.9-4.1,25-4,25-3.9c0,0.1,0.1,0.2,0.2,0.3l0,0L26-2.2h0c0.1,0.1,0.1,0.3,0.2,0.4
							c0,0.1,0.1,0.2,0.1,0.3v0c0,0.1,0,0.2,0,0.2l0,0c0,0.1-0.1,0.1-0.1,0.2C26.1-1,26-0.9,25.9-0.8c-0.1,0.1-0.2,0.2-0.2,0.3
							c-0.1,0.1-0.1,0.2-0.1,0.2c0,0.1,0,0.2,0.1,0.2l0.3,0.6c0,0.1,0.1,0.2,0.1,0.2c0.1,0.1,0.1,0.1,0.2,0.1c0.1,0,0.2-0.1,0.2-0.1
							c0-0.1,0-0.1-0.1-0.2l0,0l0,0L26-0.4c0.2,0,0.3,0,0.5-0.1c0.2,0,0.4,0,0.6-0.1l0.8,1.3l0,0C28,1,28,1.1,28.1,1.3
							c0,0.1,0,0.2,0,0.2c-0.1,0.1-0.3,0.1-0.6,0.2c-0.4,0-1,0-1.2,0c-0.4,0-0.7-0.1-0.9-0.3c-0.2-0.2-0.4-0.4-0.6-0.8
							c0-0.1-0.1-0.1-0.1-0.2c-0.2-0.3-0.4-0.8-0.4-1.1c0-0.1,0-0.1,0.1-0.2c0-0.1,0.1-0.1,0.1-0.2c0.1-0.1,0.2-0.2,0.3-0.3l0,0
							c0.1-0.1,0.2-0.2,0.3-0.3c0.1-0.1,0.1-0.2,0.1-0.3c0-0.1,0-0.2-0.1-0.3l0,0l-0.5-0.9l0,0c0-0.1-0.1-0.1-0.1-0.2l0,0
							c-0.1-0.1-0.1-0.1-0.2-0.1c-0.1,0-0.1,0.2-0.1,0.3c0,0,0,0.1,0.1,0.1l0,0l0,0l0,0l0,0C24.3-2.6,24.5-2.2,24.7-1.9"/>
					</g>
					<g id="g6398" transform="translate(216.6208,93.8839)">
						<path id="path6400" inkscape:connector-curvature="0" class="st19" d="M7.2-4.5c0,0,0,0.1,0,0.2c0.5-0.1,0.7-0.1,1.2-0.2
							l0.1,0.2l0.2,0C8.6-4.5,8.6-4.4,8.5-4.7C8-4.6,7.8-4.5,7.2-4.5 M9.7-0.4L9.6-0.8l-0.8,0l-0.2-1l-0.1,0l0.3,1.1l0.8,0l0.1,0.3
							H9.7z M9.1-2.1l0.1,0L9.1-2.5L8.4-2.5L8-4.1L7.9-4l0.4,1.7L9-2.4L9.1-2.1z M12-0.9c-0.1,0.1-0.4,0-0.5,0L11-2.3l-0.2,0
							c0.2,0.4,0.4,1.1,0.6,1.5C11.5-0.8,11.9-0.7,12-0.9 M9.4-4.8l0,0.1L10-4.8l0.7,1.9c0.1,0,0.5-0.1,0.6-0.3
							c-0.1,0.1-0.4,0.1-0.5,0.1L10.1-5L9.4-4.8z M13.1-1.2c-0.2-0.4-0.4-1.1-0.7-1.3c-0.1-0.1-0.3-0.2-0.5-0.2c0,0-0.1,0.1-0.2,0.1
							c0.2,0,0.4,0.1,0.6,0.2c0.3,0.2,0.6,1,0.7,1.3c0.1,0.3,0.2,0.4,0.2,0.6C13.4-0.6,13.2-1.1,13.1-1.2 M11.9-3.1
							c0.3-0.1,0.2-0.4,0.1-0.7l-0.7-1.6l-0.6,0.2l0.1,0.1l0.5-0.2c0.2,0.6,0.4,1,0.7,1.6C12-3.5,12-3.3,11.9-3.1 M13.4-3.9
							c0,0,0.1,0,0.2,0c-0.2-0.4-0.3-0.5-0.5-0.9C13-4.9,13-5,13-5c-0.1,0.1-0.1,0.2,0,0.3C13.2-4.3,13.2-4.2,13.4-3.9 M16.8-1
							L16-2.3l-0.8,0.1l0.1,0.2l0.6-0.1l0.8,1.3c0.1,0.2,0.2,0.3,0.2,0.4C17.1-0.6,16.9-0.9,16.8-1 M15.6-1.1
							c-0.1,0.1-0.4,0.1-0.5,0c-0.1,0-0.1-0.1-0.2-0.2c-0.1-0.2-0.2-0.4-0.3-0.6c-0.1-0.1-0.1-0.2-0.1-0.3c-0.2,0.2-0.1,0.3,0,0.5
							c0.1,0.2,0.2,0.4,0.3,0.6C15-0.8,15.6-1,15.6-1.1 M15-3c0.3-0.3,0.2-0.6,0.1-0.9c-0.3-0.5-0.8-1.5-1.1-1.9
							c-0.2-0.3-0.4-0.4-0.5-0.4c-0.1,0-0.3,0.1-0.6,0.2c-0.2,0.1-0.3,0.1-0.3,0.2c-0.1,0.1-0.2,0.2-0.2,0.4c0-0.1,0.1-0.2,0.3-0.3
							C12.7-5.8,12.9-6,13.2-6c0.3-0.1,0.4,0.1,0.6,0.3c0.3,0.5,0.9,1.4,1.1,1.9C15.2-3.4,15-3.1,15-3 M6.4-4.2l0-0.2L5.7-4.3
							L5.3-2.7l0.1,0.4l0.4-1.9L6.4-4.2z M5.3-1.7l0.5,1.3H6L5.4-2C5.4-2,5.3-1.7,5.3-1.7z M4.8-4.2l0-0.1L4-4.4L4-0.4l0.1,0
							l0.1-3.8L4.8-4.2z M3.1-1.4l0-0.1l-0.9,0L2.1-1c0,0.2-0.4,0.3-0.6,0.2c0.1,0.2,0.7,0.2,0.7-0.1l0.1-0.5
							C2.3-1.5,3.1-1.4,3.1-1.4z M2.4-3.8L2.3-3c0,0.2-0.2,0.3-0.3,0.3C1.7-2.6,1.3-2.4,1.1-2.4C0.7-2.3,0.5-2.1,0.4-1.7L0.3-1
							c0,0.1-0.1,0.5,0.1,0.5c0-0.1,0-0.2,0-0.4c0-0.2,0.1-0.4,0.1-0.5c0.1-0.4,0.2-0.7,0.6-0.8l1-0.3c0.2-0.1,0.3-0.1,0.4-0.4
							c0-0.2,0-0.3,0.1-0.5C2.5-3.5,2.5-3.7,2.4-3.8 M0.7-3.2c0,0,0.1,0,0.2,0c0-0.3,0-0.2,0.1-0.4C1-4.1,1.1-4.4,1.3-4.4
							c0.1-0.1,0.2,0,0.5,0l0.8,0.1c0.1,0,0.3,0,0.4,0.1c0.1,0,0.2,0.1,0.3,0.2C3.1-4.3,3-4.4,2.8-4.4l-1-0.2c-0.3,0-0.5-0.1-0.6,0
							C1-4.5,0.9-4.3,0.8-3.8C0.8-3.5,0.8-3.6,0.7-3.2 M-0.7-4.3l-1.1,3.9h0.1l1-3.5C-0.6-4-0.6-4.3-0.7-4.3 M-3.4-0.4l1.5-4.3
							C-1.8-5-1.7-5.1-1.5-5.2c0.2-0.1,1.1,0.2,1.3,0.3C0-4.8,0-4.8,0.1-4.7c0-0.1,0-0.1-0.1-0.1C-0.1-5-0.9-5.2-1.1-5.3
							c-0.3-0.1-0.5,0-0.7,0.2C-1.9-5-2-4.8-2.1-4.6l-1.5,4.2H-3.4z M-4.2-0.9L-4.1-1l-0.7,0l-0.1,0.2C-4.9-0.9-4.2-0.9-4.2-0.9z
							 M-3.6-6.2L-6-1.1l-1.1,0l-0.4,0.7h0.2L-7-1l1.1,0l2.3-5l0.4,0.2l0.1-0.1L-3.6-6.2z"/>
					</g>
					<g id="g6402" transform="translate(210.7498,92.1598)">
						<path id="path6404" inkscape:connector-curvature="0" class="st5" d="M7.2-4.5l0.9-1.8c1.8,0.3,3.4,0.3,5.2,0l0.9,1.8
							C12.1-3.9,9.3-3.9,7.2-4.5"/>
					</g>
					<g id="g6406" transform="translate(210.3326,92.3433)">
						<path id="path6408" inkscape:connector-curvature="0" class="st1" d="M7.2-4.5c2.7,0.6,5.2,0.6,7.8,0l-1.1-2.3l-0.8-0.4
							l-0.2,0.6c-1.2,0.2-2.3,0.2-3.4,0c0,0-0.3,0-0.3-0.1l0-0.6L8.3-6.7L7.2-4.5z M7.6-4.7l0.9-1.8c1.8,0.3,3.4,0.3,5.2,0l0.9,1.8
							C12.6-4.1,9.7-4.1,7.6-4.7"/>
					</g>
					<g id="g6410" transform="translate(212.0195,91.3992)">
						<path id="path6412" inkscape:connector-curvature="0" class="st1" d="M7.2-4.5c0-0.1,0.1-0.2,0.1-0.3c0-0.1,0.1-0.2,0.1-0.3
							c-0.1,0-0.2,0-0.3,0C7.1-4.9,7-4.7,6.9-4.5C6.8-4.3,6.7-4.1,6.6-3.9c0.1,0,0.2,0.1,0.3,0.1C7-3.9,7-4,7-4.1
							c0-0.1,0.1-0.2,0.1-0.3c0,0.1,0,0.2,0,0.3c0,0.1,0,0.2,0,0.3c0.1,0,0.2,0,0.4,0.1c0-0.1,0-0.2,0-0.3c0-0.1,0-0.2,0-0.3
							c0.1-0.1,0.2-0.2,0.2-0.4C7.7-4.8,7.8-4.9,7.9-5c-0.1,0-0.2,0-0.3,0C7.5-5,7.5-4.9,7.4-4.8C7.3-4.7,7.3-4.6,7.2-4.5 M8-5
							C8-4.8,7.9-4.6,7.8-4.3C7.8-4.1,7.7-3.9,7.6-3.7c0.2,0,0.4,0,0.6,0.1c0-0.1,0-0.1,0-0.2c-0.1,0-0.1,0-0.2,0
							c0-0.1,0-0.2,0.1-0.3c0.1,0,0.1,0,0.2,0c0-0.1,0-0.2,0-0.2c-0.1,0-0.1,0-0.2,0c0-0.1,0-0.1,0-0.2c0-0.1,0-0.1,0.1-0.2
							c0.1,0,0.1,0,0.2,0c0-0.1,0-0.2,0-0.2C8.3-5,8.2-5,8-5 M9-4.1C9-4,9-3.9,9-3.9c0,0,0,0.1,0,0.1c0,0,0,0-0.1,0c0,0,0,0,0,0
							c0-0.1,0-0.1,0-0.2C8.9-4,8.9-4.1,9-4.1C8.9-4.1,8.9-4.1,9-4.1C8.9-4.1,8.9-4.1,9-4.1C9-4.1,9-4.1,9-4.1C9-4.1,9-4.1,9-4.1
							C9-4.1,9-4.1,9-4.1 M8.7-5c0,0.2-0.1,0.5-0.1,0.7c0,0.2-0.1,0.5-0.1,0.7c0.1,0,0.3,0,0.4,0c0.2,0,0.3,0,0.4,0
							c0.1,0,0.1-0.1,0.1-0.2c0,0,0-0.1,0-0.1c0-0.1,0-0.2,0-0.2c0,0-0.1-0.1-0.1-0.1c0.1,0,0.1,0,0.1-0.1c0,0,0-0.1,0-0.2
							c0-0.1,0-0.2,0-0.2c0-0.1,0-0.2,0-0.2C9.3-5,9.2-5,9.1-5c0,0.1,0,0.2,0,0.2c0,0.1,0,0.2,0,0.2c0,0,0,0,0,0.1c0,0,0,0-0.1,0
							c0,0,0,0,0,0c0-0.1,0-0.2,0-0.3C9-4.8,9-4.9,9-5C8.9-5,8.8-5,8.7-5 M9.9-4.5c0,0,0.1,0,0.1,0c0,0.1,0,0.2,0,0.3
							c0,0.1,0,0.2,0,0.3C10-4,10-4.1,10-4.2C9.9-4.3,9.9-4.4,9.9-4.5 M9.5-5c0,0.2,0.1,0.5,0.1,0.7c0,0.2,0.1,0.5,0.2,0.7
							c0.2,0,0.3,0,0.5,0c0-0.2,0-0.5,0-0.7c0-0.2,0-0.5,0-0.7c-0.1,0-0.2,0-0.3,0c0,0.1,0,0.2,0,0.3c0,0-0.1,0-0.1,0
							c0-0.1,0-0.2,0-0.3C9.7-5,9.6-5,9.5-5 M10.4-5c0,0.2,0.1,0.5,0.1,0.7c0,0.2,0.1,0.5,0.1,0.7c0.1,0,0.3,0,0.4,0
							C11-3.8,11-4,10.9-4.2c-0.1-0.2-0.1-0.4-0.2-0.6c0.1,0,0.1,0,0.2,0c0-0.1,0-0.1-0.1-0.2C10.7-5,10.6-5,10.4-5 M11.5-4.6
							C11.5-4.6,11.6-4.6,11.5-4.6c0.1,0.1,0.1,0.2,0.2,0.2c0,0.1,0.1,0.2,0.1,0.3c0-0.1-0.1-0.2-0.1-0.2
							C11.6-4.4,11.6-4.5,11.5-4.6 M11-5c0.1,0.2,0.2,0.4,0.3,0.7c0.1,0.2,0.2,0.4,0.4,0.6c0.1,0,0.3-0.1,0.4-0.1
							c-0.1-0.2-0.1-0.4-0.2-0.7c-0.1-0.2-0.1-0.4-0.2-0.7c-0.1,0-0.2,0-0.3,0c0,0.1,0.1,0.2,0.1,0.3c0,0-0.1,0-0.1,0
							c0-0.1-0.1-0.2-0.1-0.3C11.2-5.1,11.1-5.1,11-5"/>
					</g>
					<g id="g6414" transform="translate(210.0391,103.1595)">
						<path id="path6416" inkscape:connector-curvature="0" class="st1" d="M7.2-4.5l0,0.1h0.1l0-0.5L7.2-4.5z M8.8-6.8L8.9-7H8
							L7.9-6.8h0L7.7-6.1l0.4-0.8H8.8z M7.8-6.8L7.8-7H7L6-4.4h0.2l0.9-2.5C7.1-6.8,7.8-6.8,7.8-6.8z M9.8-6.4
							c-0.1,0.5-0.1,1-0.2,1.5c0,0,0,0,0,0c0,0,0,0,0,0c0,0,0,0,0,0l0,0c0,0,0,0,0,0l0,0.1c0,0,0,0,0,0c0,0,0,0,0,0c0,0,0.1,0,0.1,0
							c0,0,0,0,0,0c0-0.3,0.1-0.6,0.1-0.8C9.8-5.8,9.9-6.1,9.8-6.4C9.9-6.4,9.9-6.4,9.8-6.4C9.9-6.4,9.9-6.4,9.8-6.4
							C9.9-6.4,9.9-6.4,9.8-6.4 M8.5-4.9c0,0.1,0,0.3,0.1,0.4c0-0.1,0-0.2,0-0.2C8.7-5,8.7-5.2,8.8-5.5C8.8-5.8,8.9-6,8.9-6.3
							C9-6.5,9-6.7,9.2-6.8c0.2-0.1,0.5-0.1,0.7-0.1c0.2,0,0.5,0,0.7,0.1c0.1,0,0.1,0.1,0.1,0.2c0-0.3-0.1-0.4-0.4-0.4h0
							c-0.3,0-0.6,0-0.9,0C9.2-7,9.1-6.9,9-6.8l0,0.1l0,0.1c0,0.1,0,0.1-0.1,0.2C8.9-6.5,8.5-4.9,8.5-4.9z M13.1-4.9l0-0.4h-1l0,0.2
							h0h0.8H13l0,0.1c0,0.1,0,0.3,0,0.4c0,0,0,0.1,0,0.1c0,0,0,0,0-0.1C13.1-4.7,13.1-4.8,13.1-4.9 M12-4.8L12-4.8
							C12-4.8,12-4.8,12-4.8C12-4.8,12-4.8,12-4.8L12-4.8C12-4.8,11.9-4.8,12-4.8L12-4.8c-0.1,0-0.1,0-0.1,0l0,0l-0.1-1.5
							c0,0,0,0,0,0c0,0,0,0,0,0c0,0.3,0,0.6,0,0.8s0,0.6,0,0.8c0,0,0,0,0,0c0,0,0,0,0.1,0c0,0,0.1,0,0.1,0c0,0,0,0,0,0L12-4.8z
							 M12.9-5.8L12.9-5.8l0-0.6c0-0.1,0-0.2-0.1-0.3c0-0.1-0.1-0.1-0.1-0.2l0,0C12.6-7,12.5-7,12.4-7c-0.1,0-0.3,0-0.5,0
							c-0.2,0-0.3,0-0.4,0c-0.1,0-0.2,0-0.3,0.1c-0.1,0-0.1,0.1-0.1,0.2c0,0.1,0,0.2,0,0.3c0-0.1,0.1-0.2,0.2-0.3
							c0.2-0.1,0.5-0.1,0.7-0.1c0.2,0,0.5,0,0.7,0.1c0.2,0.1,0.2,0.3,0.2,0.5C12.9-6.1,12.9-6,12.9-5.8 M14.4-4.4l-0.2-0.8h-0.1
							c0,0.1,0.1,0.3,0.1,0.4c0,0.1,0,0.2,0.1,0.3C14.3-4.4,14.4-4.4,14.4-4.4z M15.4-4.4h0.2L14.8-7H14l0,0.2h0.7h0.1l0,0.1
							c0.1,0.4,0.2,0.9,0.4,1.3C15.1-5.5,15.4-4.4,15.4-4.4z M13.9-6.8l0-0.2H13l0,0.2h0h0.7h0.1H13.9c0,0.3,0,0.5,0,0.7
							C14-6,14-5.8,14-5.6h0.1c0-0.2-0.1-0.4-0.1-0.5C14-6.3,13.9-6.5,13.9-6.8L13.9-6.8L13.9-6.8z M17-4.4l-1-2.6h-0.9l0.1,0.2h0.6
							h0l0,0c0.3,0.8,0.6,1.6,0.9,2.4H17z"/>
					</g>
					<g id="g6418" transform="translate(210.1555,102.7926)">
						<path id="path6420" inkscape:connector-curvature="0" class="st12" d="M7.2-4.5l0,0.7h1l0-0.1C8.1-4.2,8.1-4.6,8-5l0.9-1.5H8
							L7.6-5.7l0.2-0.8H7L6-3.8h1L7.2-4.5z M8.5-4.3c0,0.2-0.1,0.4,0.1,0.5c0.2,0.1,0.6,0.1,0.8,0.1c0.2,0,0.7,0,0.9-0.1
							c0.2-0.1,0.2-0.3,0.2-0.5c0-0.5,0.1-1.1,0.1-1.6c0-0.2,0-0.4-0.2-0.5c-0.2-0.1-1.2-0.1-1.4,0C8.9-6.3,8.8-6.1,8.8-5.9L8.5-4.3
							z M12.9-4.3c0-0.1,0-0.3-0.1-0.4h-1c0,0.2,0,0.3,0,0.5c0,0,0,0,0,0c0,0,0,0-0.1,0c0,0,0,0-0.1,0c0,0,0,0,0,0
							c0-0.3,0-0.6,0-0.8c0-0.3,0-0.6,0-0.8c0,0,0,0,0,0c0,0,0,0,0,0c0,0,0,0,0,0c0,0,0,0,0,0c0,0.2,0,0.5,0,0.7h0.9
							c0-0.2-0.1-0.4-0.1-0.7c0-0.2-0.1-0.4-0.2-0.5c-0.2-0.1-0.5-0.1-0.7-0.1c-0.2,0-0.6,0-0.7,0.1c-0.2,0.1-0.2,0.3-0.2,0.5l0,1.6
							c0,0.2,0,0.4,0.2,0.5c0.2,0.1,0.6,0.1,0.9,0.1c0.2,0,0.7,0,0.9-0.1C12.9-3.9,12.9-4.2,12.9-4.3 M14-4.7h0.1l0.2,1h1l-0.8-2.7
							h-0.9L14-5.2h-0.1l-0.3-1.2h-0.8l0.4,2.7h1C14.2-3.8,14-4.7,14-4.7z M15.7-3.8h1l-1-2.7h-0.9C14.8-6.5,15.7-3.8,15.7-3.8z
							 M9.8-6C9.8-6,9.8-6,9.8-6C9.7-5.4,9.7-4.8,9.6-4.3c0,0,0,0,0,0c0,0-0.1,0-0.1,0c0,0,0,0,0,0c0,0,0,0,0,0
							C9.5-4.8,9.6-5.4,9.8-6C9.7-6,9.7-6,9.8-6C9.7-6,9.8-6,9.8-6C9.8-6,9.8-6,9.8-6"/>
					</g>
					<g id="g6422" transform="translate(209.0295,103.4265)">
						<path id="path6424" inkscape:connector-curvature="0" class="st18" d="M7.2-4.5h0.8l0.3-1.1l0,1.1h0.9
							C9.2-4.9,9.1-5.2,9.1-5.6C9.4-6.1,9.6-6.6,9.9-7H9.2L8.4-5.7L8.9-7H8.2L7.2-4.5z M10.5-4.9c0-0.3,0.1-0.6,0.1-0.8
							s0.1-0.6,0.1-0.8c0,0,0-0.1,0-0.1c0,0,0.1,0,0.1,0c0,0,0.1,0,0.1,0c0,0,0,0,0,0.1c0,0.3-0.1,0.6-0.1,0.8
							c0,0.3-0.1,0.6-0.1,0.8c0,0,0,0.1,0,0.1c0,0-0.1,0-0.1,0C10.6-4.8,10.6-4.8,10.5-4.9C10.5-4.8,10.5-4.9,10.5-4.9 M9.7-5
							c0,0.2,0,0.4,0.1,0.4c0.1,0.1,0.4,0.1,0.8,0.1c0.4,0,0.7,0,0.8-0.1c0.1-0.1,0.2-0.2,0.2-0.4c0-0.5,0.1-1.1,0.1-1.6
							c0-0.2,0-0.4-0.1-0.4c-0.1-0.1-0.3-0.1-0.7-0.1c-0.4,0-0.6,0-0.7,0.1C10.1-6.9,10-6.8,10-6.5C10-6.3,9.9-6,9.8-5.8
							C9.8-5.5,9.7-5.2,9.7-5 M14-5c0-0.1,0-0.3,0-0.4h-0.8c0,0.1,0,0.3,0,0.4c0,0,0,0.1,0,0.1c0,0-0.1,0-0.1,0c0,0-0.1,0-0.1,0
							c0,0,0,0,0-0.1c0-0.3,0-0.6,0-0.8s0-0.6,0-0.8c0,0,0-0.1,0-0.1c0,0,0,0,0.1,0s0.1,0,0.1,0c0,0,0,0,0,0.1c0,0.1,0,0.2,0,0.3
							c0,0.1,0,0.2,0,0.3h0.8c0-0.2,0-0.4-0.1-0.6c0-0.2-0.1-0.4-0.2-0.4c-0.1-0.1-0.3-0.1-0.7-0.1c-0.4,0-0.6,0-0.7,0.1
							c-0.1,0.1-0.2,0.2-0.2,0.4c0,0.3,0,0.5,0,0.8c0,0.3,0,0.5,0,0.8c0,0.2,0,0.4,0.2,0.4c0.1,0.1,0.4,0.1,0.8,0.1
							c0.4,0,0.7,0,0.8-0.1C13.9-4.6,14-4.7,14-5 M14.4-4.5h0.9c0-0.2-0.1-0.3-0.1-0.5c0-0.2-0.1-0.3-0.1-0.5h0.3
							c0,0.2,0.1,0.3,0.1,0.5c0,0.2,0.1,0.3,0.1,0.5h0.9c-0.1-0.4-0.2-0.9-0.4-1.3c-0.1-0.4-0.2-0.9-0.4-1.3H15
							c0,0.2,0.1,0.4,0.1,0.6c0,0.2,0.1,0.4,0.1,0.6H15c0-0.2-0.1-0.4-0.1-0.6c0-0.2-0.1-0.4-0.1-0.6H14c0.1,0.4,0.1,0.9,0.2,1.3
							C14.3-5.3,14.3-4.9,14.4-4.5 M16.9-4.5h0.9c-0.3-0.9-0.7-1.7-1-2.6H16L16.9-4.5z"/>
					</g>
					<g id="g6426" transform="translate(215.6756,102.6328)">
						<path id="path6428" inkscape:connector-curvature="0" class="st19" d="M7.2-4.5H6.5l0,0.1L7.2-4.5L7.2-4.5z M6.4-3.9
							c-0.2,0-0.3,0-0.3-0.1L6.1-5.8v0C6-5.7,6-5.7,6-5.6L6-4C6-3.8,6.4-3.9,6.4-3.9 M7-5.3h0.1c0-0.2,0-0.2,0-0.4
							C7-6,7-6.1,6.6-6.2c-0.2,0-0.5,0-0.7,0C5.8-6.2,5.6-6.1,5.5-6c0.1-0.1,0.2-0.1,0.4-0.1c0.2,0,0.5,0,0.7,0C6.9-6,6.9-5.9,7-5.6
							C7-5.6,7-5.3,7-5.3z M8.5-3.8L8.4-4.5H8.3l0.1,0.7H8.5z M9.7-3.8L9-6.2H8.4l0,0.1h0.4l0.7,2.3C9.5-3.8,9.7-3.8,9.7-3.8z
							 M8.6-4.9H8.3L8-6.2H7.5l0,0.1h0.4l0.3,1.2L8.6-4.9C8.7-4.8,8.6-4.9,8.6-4.9z M11-3.8l-0.9-2.4H9.5l0,0.1H10l0.9,2.3
							C10.9-3.8,11-3.8,11-3.8z M0.8-3.8L1.7-6h0.4l0-0.1H1.6L0.7-3.8H0.8z M1.8-4.4l0,0.6h0.1l0-0.8C1.9-4.6,1.8-4.4,1.8-4.4z M3-6
							l0.1-0.1H2.6L1.9-4.9v0.2L2.6-6H3z M4.4-5.8L4.2-4c0,0.1-0.2,0.1-0.3,0.1c0,0,0.4,0.1,0.4-0.1l0.2-1.6
							C4.5-5.7,4.5-5.8,4.4-5.8 M3.1-4.1c0,0.1,0,0.3,0.1,0.3c-0.1,0,0-0.2,0-0.3l0.3-1.5c0-0.1,0.1-0.2,0.1-0.3
							C3.6-5.9,3.7-6,3.7-6c0.2-0.1,1-0.1,1.3,0c0-0.2-0.4-0.2-0.6-0.2c-0.2,0-0.3,0-0.4,0c-0.2,0-0.3,0-0.4,0.2
							c0,0.1-0.1,0.2-0.1,0.3C3.4-5.7,3.1-4.1,3.1-4.1z"/>
					</g>
				</g>
			</g>
		</g>
	</g>
</g>
</svg>
