<?xml version="1.0" encoding="utf-8"?>
<!-- Generator: Adobe Illustrator 24.0.2, SVG Export Plug-In . SVG Version: 6.00 Build 0)  -->
<svg version="1.1" id="Layer_1" xmlns="http://www.w3.org/2000/svg" xmlns:xlink="http://www.w3.org/1999/xlink" x="0px" y="0px"
	 viewBox="0 0 216 144" enable-background="new 0 0 216 144" xml:space="preserve">
<g>
	<path fill="#003580" d="M216,0H0v144L216,0z"/>
	<path fill="#009543" d="M0,144h216V0L0,144z"/>
	<g>
		<defs>
			<rect id="SVGID_1_" y="0" width="216" height="144"/>
		</defs>
		<clipPath id="SVGID_2_">
			<use xlink:href="#SVGID_1_"  overflow="visible"/>
		</clipPath>
		<g clip-path="url(#SVGID_2_)">
			<path d="M0,144L216,0"/>
			
				<rect x="-21.8" y="50.4" transform="matrix(0.8321 -0.5547 0.5547 0.8321 -21.7998 71.9996)" fill="#FFFFFF" width="259.6" height="43.2"/>
		</g>
	</g>
	<g>
		<defs>
			<rect id="SVGID_3_" y="0" width="216" height="144"/>
		</defs>
		<clipPath id="SVGID_4_">
			<use xlink:href="#SVGID_3_"  overflow="visible"/>
		</clipPath>
		<g clip-path="url(#SVGID_4_)">
			<path d="M0,144L216,0"/>
			
				<rect x="-21.8" y="57.6" transform="matrix(0.832 -0.5547 0.5547 0.832 -21.7998 72.0006)" fill="#D21034" width="259.6" height="28.8"/>
		</g>
	</g>
	<path fill="#FFCE00" d="M43.2,15.6l3.727,10.091l8.273-6.875l-1.818,10.602L63.985,27.6l-6.875,8.273L67.2,39.6l-10.091,3.727
		l6.875,8.273l-10.602-1.818L55.2,60.385l-8.273-6.875L43.2,63.6l-3.727-10.091L31.2,60.385l1.818-10.602L22.415,51.6l6.875-8.273
		L19.2,39.6l10.091-3.727L22.415,27.6l10.602,1.818L31.2,18.815l8.273,6.875L43.2,15.6z"/>
	<g>
		<circle fill="#FFCE00" cx="43.2" cy="39.6" r="13.2"/>
		<path fill="#003580" d="M43.2,53.52c-7.676,0-13.92-6.244-13.92-13.92s6.244-13.92,13.92-13.92s13.92,6.244,13.92,13.92
			S50.876,53.52,43.2,53.52z M43.2,27.12c-6.881,0-12.48,5.599-12.48,12.48s5.599,12.48,12.48,12.48s12.48-5.599,12.48-12.48
			S50.081,27.12,43.2,27.12z"/>
	</g>
</g>
</svg>
