<?xml version="1.0" encoding="utf-8"?>
<!-- Generator: Adobe Illustrator 24.2.0, SVG Export Plug-In . SVG Version: 6.00 Build 0)  -->
<svg version="1.1" id="Layer_1" xmlns="http://www.w3.org/2000/svg" xmlns:xlink="http://www.w3.org/1999/xlink" x="0px" y="0px"
	 viewBox="0 0 1000 1000" style="enable-background:new 0 0 1000 1000;" xml:space="preserve">
<style type="text/css">
	.st0{fill:#EF4723;}
	.st1{fill:#F26722;}
	.st2{fill:#FFFFFF;}
	.st3{fill:#B3B3B3;}
</style>
<g>
	<g>
		<g>
			<path class="st0" d="M500,864.6c-5.9,0-11.6-2.2-15.9-6.3l-4.2-4c-0.3-0.3-41.2-36.7-183.5-113.5
				c-55.7-30.1-90.3-64.1-90.3-140.4V208.2c0-9.7,6.1-18.4,15.2-21.7l4.1-1.5c1.4-0.5,138.4-49.6,274.6-49.6
				c135.9,0,273.2,49.1,274.6,49.6l4.1,1.5c9.1,3.3,15.2,12,15.2,21.7v392.1c0,76.3-34.5,110.2-90.3,140.4
				c-142.8,77.2-183.3,113.4-183.7,113.7l-4.1,3.8C511.5,862.3,505.9,864.6,500,864.6z"/>
			<path class="st0" d="M500,860.7c-4.8,0-9.5-1.8-13.2-5.3l-4.2-4c-0.2-0.2-40.2-36.3-184.3-114.1c-54.5-29.4-88.2-62.6-88.2-137
				V208.2c0-8.1,5.1-15.3,12.7-18.1l4.1-1.5c1.4-0.5,138-49.4,273.3-49.4s271.9,48.9,273.3,49.4l4.1,1.5c7.6,2.8,12.7,10,12.7,18.1
				v392.1c0,74.4-33.8,107.5-88.2,137c-144.2,77.9-184.1,113.9-184.5,114.3l-4.1,3.9C509.5,859,504.7,860.7,500,860.7z"/>
			<path class="st1" d="M495.8,837.5c-0.4-0.4-39.4-36.6-188.4-117.1c-50.7-27.4-78.2-54.6-78.2-120.1V208.2l4.1-1.5
				c1.3-0.5,134.9-48.2,266.8-48.2c131.9,0,265.4,47.7,266.8,48.2l4.1,1.5v392.1c0,65.4-27.5,92.7-78.2,120.1
				c-149,80.5-188,116.8-188.4,117.1l-4.2,4L495.8,837.5z"/>
			<g>
				<path class="st0" d="M500,833.7l-1.3-1.2c-7.5-6.6-52.1-43.3-188.6-117.1c-49.9-27-75.2-52.2-75.2-115.1V212.1l1.4-0.5
					c13.9-4.9,139.3-47.5,263.8-47.5c124.6,0,249.9,42.7,263.8,47.5l1.4,0.5v388.2c0,63-25.3,88.2-75.2,115.1
					c-136.6,73.8-181.1,110.5-188.6,117.1L500,833.7z M238.9,215v385.3c0,60.9,24.6,85.4,73.1,111.5
					c130.4,70.5,177.3,107.4,188,116.5c10.7-9.1,57.6-46,188-116.5c48.5-26.2,73.1-50.6,73.1-111.5V215
					c-19.2-6.6-140.6-46.8-261.1-46.8C379.5,168.2,258.1,208.4,238.9,215z"/>
			</g>
			<g>
				<path class="st2" d="M700.9,467.8c-7.2,0-14.7,3.6-20,9.5c-1.8,2-3.3,4.2-4.5,6.6c-0.2,0.5-0.7,0.8-1.3,0.8c0,0-0.1,0-0.1,0
					c-0.5,0-1-0.3-1.3-0.7c-1.4-2.1-3.1-6.1-3.1-13.4c0-19.1,11.4-24.4,11.9-24.5c0,0-2.6-0.9-5.9-0.9c-2.8,0-5.2,0.7-7.3,2
					c-3.9,2.5-6.6,6.1-8.4,11.1c-0.2,0.5-0.6,0.8-1.1,1c-0.1,0-0.3,0-0.4,0c-0.4,0-0.7-0.1-1-0.4c-9.1-8-18.4-18.6-18.4-37.2
					c0-10.8,3-24.4,3.2-24.9c-7.1,5.8-11.9,13-14.3,21.4c-0.2,0.7-0.8,1.1-1.5,1.1c0,0,0,0,0,0c-0.7,0-1.3-0.5-1.5-1.2
					c-1.7-7-3.5-18-2.6-30.9c2.1-32.2,17.2-39,17.9-39.2l-0.3,0c-2.3,0-13.9,0.5-20.5,10.8c-0.3,0.4-0.8,0.7-1.3,0.7
					c-0.2,0-0.3,0-0.5-0.1c-0.7-0.2-1.1-0.9-1-1.6c1.7-15.4,6.4-26.9,14.2-34.2c7.9-7.3,16.4-7.9,18.8-7.9c0.1,0,0.2,0,0.3,0
					c-3.2-1.3-6.5-1.9-9.7-1.9c-4.9,0-9.6,1.5-14,4.5c-0.5,0.4-1,0.8-1.5,1.1l-0.2,0.2c-0.3,0.2-0.6,0.3-0.9,0.3
					c-0.4,0-0.8-0.1-1.1-0.4c-0.6-0.5-0.6-1.4-0.2-2c1.5-2.2,3.2-4.5,4.9-6.8l2.3-3.1c0.4-0.5,8.8-12.3,22.2-12.3
					c7.4,0,19.2,5.7,19.2,20.9c0,18.8-17,20.2-18.1,20.2c0,0,0,0,0,0c2.3,2.3,5.9,3.6,9.7,3.6c2.2,0,4.5-0.4,6.5-1.3
					c5-2.1,8.8-6.4,10.8-12.5c0.2-0.6,0.8-1.1,1.5-1.1c0,0,0,0,0,0c0.7,0,1.3,0.4,1.5,1.1c0.9,3,1.4,6.1,1.4,9.1
					c0,7.4-7,20.6-26.3,26.8c-6.2,2-10.4,5.2-12.5,9.5c-2.8,5.8-0.7,11.4-0.7,11.6c0.2-0.3,3.8-7.1,13.2-10.4
					c0.2-0.1,0.3-0.1,0.5-0.1c0.4,0,0.9,0.2,1.2,0.6c0.4,0.5,0.5,1.2,0.1,1.8c-2.7,4.6-7.3,14.5-7.3,28.7
					c0,20.1,11.6,31.6,31.8,31.6c20.3,0,26.6-10.9,26.9-11.3c-6.6,2.1-12.3,3.1-17.1,3.1c-5.2,0-9.4-1.2-12.5-3.7
					c-5.1-4.1-7.2-11.5-6.4-22.1c0.8-9.4,6.4-15.5,10.9-20.5c0.3-0.3,0.7-0.5,1.1-0.5c0.2,0,0.4,0,0.6,0.1c0.6,0.3,1,0.9,0.9,1.6
					c-0.5,3.6-0.5,7.1-0.1,10.4c0.8,6.4,7,11.7,7.2,12c-0.3-0.5-4.6-9.1,0-18.5c1.4-2.9,3.3-5.4,5.3-8c4.7-6.1,10-13.1,10-26.7
					c0-21.6-11.4-37.8-16.3-43.8c-0.4-0.5-0.5-1.1-0.2-1.7c0.3-0.5,0.8-0.8,1.4-0.8c0,0,0.6,0,0.6,0c0.3,0,0.7,0,1,0
					c8.8,0,13.5-6.3,13.5-12.3c0-6-3.6-12.2-3.6-12.5c0,0.3,0.1,7-3.7,10.9c-1.8,1.8-4.2,2.8-7.1,2.8c-5.1,0-9-3.8-13.5-8.2
					c-5.5-5.4-11.8-11.6-21.9-11.6c-2,0-3.9,0.2-5.7,0.6c-0.1,0-0.2,0-0.3,0c-0.5,0-1-0.2-1.3-0.7c-0.4-0.5-0.4-1.2,0-1.7
					c2.9-4.5,9.6-12.1,21.5-12.1c1.1,0,2.2,0.1,3.2,0.3c-0.1,0-5.4-4-13.3-4c-5.8,0-11.5,2.1-16.9,6.2c-0.3,0.2-0.6,0.3-0.9,0.3
					c-0.2,0-0.4,0-0.6-0.1c-0.5-0.2-0.9-0.6-1-1.1c-3.3-17.8-19.6-22.5-19.7-22.6c0.2,0.3,5.4,6.7,7.8,15.6c0.2,0.7-0.1,1.4-0.7,1.8
					c-0.2,0.1-0.5,0.2-0.7,0.2c-0.4,0-0.8-0.2-1.1-0.5c-3.3-3.7-7.9-5.5-13.5-5.5c-14.1,0-15.7,16.5-15.8,17.1
					c0.5-0.6,4.9-5.4,12.8-5.4c10.6,0,12.9,15.5,13.3,18.6c0,0.4-0.1,0.8-0.3,1.1c-1.8,2.3-3.7,4.7-5.6,6.9
					c-11.4,13.5-25.5,30.2-25.5,66.7c0,30.8,5.8,41,6.9,42.8c0.1,0.2,0.2,0.4,0.2,0.6c2.3,13.5,6.4,22.5,9.4,27.8
					c0.3,0.6,0.1,1.3-0.3,1.8c-0.3,0.3-0.7,0.4-1.1,0.4c-0.3,0-0.6-0.1-0.8-0.2c-15.4-7.9-15.9-29.9-15.9-30.1c0,0-3.2,3.3-3.2,15.9
					c0,16.7,9.3,23.2,18.3,29.5c1.9,1.4,4.1,2.9,6,4.5c0.5,0.4,0.7,1,0.5,1.6c-0.2,0.6-0.7,1-1.3,1.1l-1.1,0.2
					c-2.6,0.4-5.1,0.8-7.5,0.8c-6.5,0-12.5-2.5-22.2-14.8c0,0.6-0.4,13.6,12.2,23.7c7.5,5.9,11.7,6.6,16.7,7.3c3,0.4,6.3,1,10.8,2.9
					c0.7,0.3,1,1,0.9,1.7c-0.1,0.7-0.7,1.2-1.5,1.3c-9.2,0.3-16.4,3.1-21.5,8.4c-8.6,8.9-8.3,21.6-8.3,22.1
					c0.3-0.7,7.5-16.5,27.6-16.5c11.7,0,17.7,7.7,19.8,10.9c0.3,0.4,0.3,0.9,0.1,1.4c-0.2,0.5-0.6,0.8-1.1,0.9
					c-11.1,2.4-18.3,9.3-19.3,18.5c-1,8.9,3.6,14.1,3.8,14.3c0-0.2,5.1-22.2,21.6-22.2c20.3,0,20.9,25.2,20.9,28
					c0,6.9-2.6,16.2-9.7,21.6c-4.1,3.1-9.3,4.6-15.4,4.6c-4.3,0-9.2-0.8-14.6-2.3c-0.1,0-0.2,0-0.2,0c-0.1,0-0.3-0.1-0.4-0.2
					c-11.2-7.4-22.4-11.3-26.7-12.7c-0.8-0.3-1.2-1.1-1-1.9c0.5-1.7,1.1-4.4,1.1-8.1c0-11.2-4.7-21.6-13.1-29.3
					c-0.1-0.1-0.1-0.1-0.2-0.2c-8-10.7-18.2-20.9-27.3-29.9c-2.6-2.6-5.1-5-7.4-7.4c-6.7-6.9-11.3-13.4-13.9-17.7
					c-0.3-0.6-0.3-1.3,0.1-1.8c0.3-0.4,0.7-0.6,1.2-0.6c0.2,0,0.3,0,0.5,0.1c3.1,1.1,6.6,1.6,10.3,1.6c4.5,0,8.6-1,9-1c0,0,0,0,0,0
					c-0.5-0.2-19.6-8.5-19.6-28.9c0-4.6,0.5-8.7,1.5-12.3c0.2-0.7,0.8-1.1,1.5-1.1c0,0,0,0,0.1,0c0.7,0,1.3,0.6,1.4,1.3
					c1.1,5.9,3.6,10.6,7.5,14c6.5,5.7,15.3,6.6,20,6.6c1.7,0,2.9-0.1,3.3-0.1c0.1,0,0.1,0,0.1,0c-1.1-0.4-17-6.8-17-24.6
					c0-6.3,2.1-11.9,4.5-18.3c0.8-2.1,1.6-4.3,2.4-6.7c0.2-0.6,0.8-1,1.5-1c0,0,0.1,0,0.1,0c0.7,0.1,1.3,0.6,1.4,1.3
					c0.7,3.7,1.9,6.6,3.7,8.8c0-0.1-1.4-10.6,3.4-16.6c2.9-3.6,3.8-8.7,4-12.3c0-0.6,0.4-1.1,1-1.3c0.2-0.1,0.4-0.1,0.6-0.1
					c0.4,0,0.7,0.1,1,0.4c1.3,1.2,2.8,1.9,4.5,2.3c0-0.1-2.2-8-2.2-17.1c0-16.1-1.3-28.4-4-36.8c-0.2-0.6,0-1.3,0.5-1.7
					c0.3-0.2,0.6-0.3,0.9-0.3c0.3,0,0.6,0.1,0.8,0.2c1.6,1,3.1,1.8,4.6,2.3c0-0.1-4.9-8.5-6.5-16.2c-1.2-5.8-7.1-19.4-15.6-30.3
					c-0.4-0.5-0.4-1.1-0.1-1.7c0.3-0.5,0.8-0.8,1.3-0.8c0,0,0.1,0,0.1,0c0.9,0.1,1.8,0.1,2.7,0.1c1.2,0,2.5-0.1,3.8-0.1
					c-0.3-0.1-7.9-2.7-12.4-7.4c-1-1-1.9-2.8-2.9-4.8c-3-5.8-7.5-14.5-19.7-16.4c-0.7-0.1-1.3-0.7-1.3-1.5c0-0.7,0.5-1.4,1.2-1.5
					c2.1-0.4,4.1-0.7,6.2-0.9c-0.3-0.1-7.2-2-15.9-2c-3.4,0-6.6,0.3-9.5,0.9c-0.1,0-0.2,0-0.3,0c-0.6,0-1.2-0.4-1.4-1
					c-0.3-0.7,0-1.5,0.6-1.9c3.2-2,5.7-3.3,6.4-3.6c-14.1,4-22.7,10.2-27.5,14.6c-0.3,0.3-0.7,0.4-1,0.4c-0.3,0-0.7-0.1-0.9-0.3
					c-0.6-0.5-0.8-1.3-0.4-1.9c1.2-2.1,2.4-4.1,3.7-5.7c-0.4,0.1-10.7,1.9-16.2,13.2c-0.3,0.5-0.8,0.9-1.3,0.9
					c-9.6,0.3-15.6,4.6-16.7,5.5c-0.1,0.1-0.3,0.2-0.4,0.2c-1.5,0.6-15.4,5.9-26.5,22.3c0,0,0,0.1-0.1,0.1c-1.7,4.6-0.1,8,0.7,9.2
					c0.2,0.4,0.3,0.9,0.2,1.3c-0.6,2-2.4,8.7,0.3,12.6c1.4,1.9,3.5,2.9,6.7,2.9c8.5,0,12.9-4.1,17.1-8c3.2-3,6.3-5.9,10.9-5.9
					c2.9,0,8.5,0.5,13.4,3.6c0.5,0.3,0.8,1,0.7,1.6c-0.1,0.6-0.6,1.1-1.3,1.2c-6.6,1-14.2,4.9-21.5,8.6c-10.9,5.5-23.2,11.8-36,11.8
					c-5.8,0-12.6-1.1-12.6-10.1c0-7.4,4.2-11,4.8-11.4c0,0-0.9-0.2-2.2-0.2c-2.2,0-5.4,0.5-8.1,2.7c-3.4,2.8-5.1,7.5-5.1,14.1
					c0,5.3,2.2,14.3,17.2,14.3c13.6,0,24.5-5.5,42.8-15.3c13.6-7.2,23.1-8,26.6-8c0.6,0,1,0,1.3,0c0.6,0,1.2,0.5,1.4,1.1
					c0.3,1,0.6,2.1,0.8,3.4c0.1,0.5-0.1,1-0.4,1.3c-2.2,2.3-13.7,13.7-28.7,13.7c-7.5,0-10.2-2.3-10.8-2.8c-0.2,0.1-3.7,2.3-3.7,9.5
					c0,7.2,10.1,11.9,17.1,11.9c12.7,0,16-7.8,16.2-8.1c0,0-1.5,0.3-3.6,0.7c-0.1,0-0.2,0-0.2,0c-0.7,0-1.3-0.4-1.5-1.1
					c-0.2-0.7,0.1-1.5,0.8-1.8c4.2-1.9,8.1-4.5,11.6-7.9c0.3-0.3,0.7-0.4,1.1-0.4c0.3,0,0.5,0.1,0.7,0.2c0.6,0.3,0.9,1,0.8,1.7
					c-4.4,21.1-20.5,28-22.4,28.8c-0.1,0.1-0.3,0.1-0.5,0.1c-0.9,0.1-1.9,0.1-2.9,0.1c-19.1,0-30.3-5.7-30.7-6
					c0.1,0.3,1.9,7.4,11.1,12.8c0.2,0.1,0.3,0.3,0.5,0.4c0.1,0.1,0.2,0.3,0.4,0.5c0.3,0.4,0.4,1,0.2,1.5c-0.2,0.5-0.6,0.9-1.1,1
					c-2.6,0.6-6.7,1.3-11.1,1.3c-14.2,0-19.2-5.7-19.4-6c0,0.1,1,7.2,6.9,14.1c0.4,0.4,0.5,1,0.3,1.6c-0.2,0.5-0.7,0.9-1.3,1
					c0,0-1.3,0.1-1.3,0.1c-0.1,0-0.2,0-0.4,0c-27.7-6.6-47-32.6-47-51.7c0-6.3,0.2-13.9,1.6-22.9c1.5-9.9,1.3-12.4-1.7-15.9l-0.8-1
					c-3.1-3.6-7.8-9.1-12.5-18c-2-3.7-4.2-5.8-6.6-6.3c-0.4-0.1-0.8-0.1-1.2-0.1c-0.6,0-1.1,0.1-1.7,0.3c-0.2,0.1-0.3,0.1-0.5,0.1
					c-0.5,0-1-0.3-1.3-0.7c-2.1-3.5-6.8-9.3-14-9.3c-4.7,0-8.3,1.8-8.5,1.9c10,1.6,11.7,8.9,12,12c0.1,0.8-0.5,1.5-1.2,1.6
					c0,0-0.3,0.1-0.3,0.1c-0.8,0.3-1.5,1.2-2,2.5c-0.4,1.2-0.8,2.8-1.2,4.5c-0.1,0.6-0.6,1.1-1.3,1.2c-0.1,0-0.1,0-0.2,0
					c-0.6,0-1.1-0.3-1.4-0.8c-4.2-8.4-9.5-9.5-14.2-9.5c-3.4,0-6.1,1.6-7.5,2.6c-0.3,0.2-0.6,0.3-0.9,0.3c-0.2,0-0.4,0-0.5-0.1
					c-1.1-0.4-3.4-0.6-6.7-0.6c-4.7,0-8.3,1.3-10.7,4c-3.7,4.1-3.2,9.8-3.2,10.1c0.1-0.2,3.4-6.1,9.5-6.1c2.1,0,3.4,0.8,4.1,1.5
					c0.3,0.3,0.5,0.7,0.5,1.1c0,0.4-0.2,0.8-0.5,1.1c-0.6,0.5-1,1.1-1.2,1.8c-0.2,0.6-0.3,1.3-0.2,2.1c0,0.5-0.1,0.9-0.5,1.2
					c-0.3,0.3-0.7,0.4-1,0.4c-0.1,0-0.1,0-0.2,0c-0.5-0.1-1.1-0.1-1.9-0.1c-3.7,0-6,1.5-7.2,2.8c-0.3,0.3-0.7,0.5-1.1,0.5
					c-0.2,0-0.5-0.1-0.7-0.2c-1.3-0.6-3.6-1.4-7.3-1.4c-4.1,0-9.9,4.1-9.9,11.7c0,7.6,4.1,8.1,4.6,8.1c-0.1-0.1-0.1-0.3-0.1-0.4
					c-0.2-1.1-0.7-5,1.1-7.3c0.9-1.1,2.2-1.7,4-1.7c0.5,0,1,0,1.5,0.1c0.8,0.1,1.4,0.9,1.3,1.7c-0.2,2.2,0.1,3.9,1.1,5
					c1.1,1.3,2.9,1.9,5.4,1.9c1.8,0,3.6-0.3,5.2-0.5c1.5-0.2,2.8-0.4,3.9-0.4c1.1,0,2.6,0.1,3.9,1.4c0.4,0.4,0.6,1,0.4,1.6
					c-0.2,0.5-0.7,1-1.2,1c-5.5,0.9-9.2,2.5-11,4.8c-0.5,0.6-0.8,1.2-0.9,1.9c-0.1,0.6-0.6,1.1-1.3,1.2c-2,0.3-12.2,2.4-12.2,11.4
					c0,3.7,1.5,6.4,4.4,7.9c2.3,1.2,5,1.4,6.4,1.4c0.2,0,0.4,0,0.5,0c0.1,0,0.2,0,0.3,0c-0.5-0.4-2.9-2.4-2.9-6
					c0-1.4,0.6-4.6,5.9-4.6l0.4,0c0.5,0,0.9,0.3,1.2,0.6c6,8.4,20.3,9.6,28.4,9.6c3,0,5.3-0.2,6.5-0.3c0,0,0.1,0,0.1,0
					c0.6,0,1.2,0.4,1.4,1c1.7,4.6,7.9,20.8,18.2,34c0.4,0.5,0.4,1.1,0.2,1.6c-0.3,0.5-0.8,0.8-1.4,0.8c0,0,0,0,0,0
					c-4.6-0.1-13.6-1.1-22.9-6.2c0.2,0.3,15.5,25.9,50.5,40c0.6,0.3,1,0.9,1,1.6c-0.1,0.7-0.5,1.2-1.2,1.4c-3.5,0.8-7.6,1.2-12,1.2
					c-3.8,0-6.5-0.3-6.8-0.4c13.2,10.6,24.9,12.6,30.7,12.8c0.6,0,1.2,0.4,1.4,1c0.2,0.6,0.1,1.2-0.4,1.7c-4.2,3.8-9,5.8-13.9,5.8
					c-17.7,0-30.3-3.7-41.4-6.9c-8.7-2.5-16.2-4.7-24.4-4.7c-3.3,0-13.4,1.2-15.9,6.5c-0.3,0.5-0.8,0.9-1.4,0.9c0,0-0.6,0-1,0
					c-2.7,0-7.6,0.6-10.6,4.6c-1.6,2.1-2.2,4.3-1.8,6.3c0.7,3.5,4.2,5.6,4.2,5.7c0-0.2-0.8-5.6,3.1-7.1c1.4-0.6,2.9-0.8,4.3-0.8
					c0.5,0,0.8,0,1.2,0.1c0.6,0.1,1.2,0.6,1.3,1.2c0.3,1.2,0.9,3.5,2.3,5.1c0.3,0.4,0.5,0.9,0.3,1.4c-0.1,0.5-0.5,0.9-1,1.1
					c-4.4,1.5-7.8,3.9-10.5,6c-4.2,3.3-3.4,8.4-3.1,9.9c0.1,0.6-0.1,1.3-0.6,1.6c-1.9,1.3-5.2,4.4-5.2,10.2c0,8.3,9.4,8.4,9.7,8.5
					c-0.3-0.3-3.3-3.2-2-8.4c0.9-3.5,4.7-4.5,5.8-4.7c0.1,0,0.2,0,0.3,0c0.2,0,0.3,0,0.5,0.1c0.3,0.1,1.3,0.4,2.7,0.4
					c0.6,0,1.1,0.4,1.3,0.9c0.2,0.5,0.2,1.1-0.1,1.6c-0.7,1-1.4,2.2-2,3.6c-1.7,3.9-1,6.7-0.1,8.3c0.3,0.7,0.2,1.5-0.4,1.9
					c-1.8,1.4-3.9,4-3.9,8.5c0,6.5,3.5,9.8,10.3,9.8c3.1,0,5.8-0.8,6.1-0.8c-0.5-0.1-7.8-2.3-7.8-7.1c0-2.8,2.2-4.2,4.1-4.6
					c0.1,0,0.2,0,0.3,0c0,0,0.1,0,0.1,0c0.2,0,0.4,0,0.9,0c1.9,0,8.6-0.3,12.1-4.2c0.3-0.3,0.7-0.5,1.1-0.5c0.1,0,0.2,0,0.3,0
					c0.5,0.1,1,0.4,1.2,0.9c0.6,1.6,1.5,2.5,2.1,3.1c0.5,0.5,0.7,1.2,0.4,1.9c-1,1.8-1.4,4.1-1.4,6.6c0,6,6.1,8.8,10.5,8.8
					c5.2,0,9.2-4.3,9.3-4.4c-0.3,0-7.1-0.2-8.3-4.4c-0.9-2.9,1.5-5.3,2.5-6.2c0.2-0.2,0.5-0.3,0.8-0.3c1.5-0.2,6.8-1.4,12.9-9.2
					c4.2-5.3,9.1-14.5,10.5-17.2c0.2-0.5,0.7-0.8,1.2-0.8c5.9-0.6,11.3-2.6,14.8-4.2c0.2-0.1,0.4-0.1,0.6-0.1c0.4,0,0.7,0.1,1,0.4
					c0.5,0.4,0.6,1,0.5,1.6c0,0.1-0.1,0.2-0.1,0.3c-1.7,6.4-5.6,10.9-5.8,11c5.9-0.5,8.2-3.6,12.4-9.2c2.8-3.7,8.5-5.6,12.8-6.5
					c0.1,0,0.2,0,0.3,0c0.5,0,0.9,0.2,1.2,0.6c0.4,0.5,0.4,1.1,0.1,1.6c-0.8,1.6-1.5,3-2.1,4.5c-3.7,9.3-9.1,15.4-9.4,15.5l0.7-0.2
					c12.1-3.5,17.1-5,22.8-12.6c3.7-5,11.1-9.5,16.7-12.4c0.2-0.1,0.5-0.2,0.7-0.2c0.4,0,0.8,0.1,1.1,0.4c0.5,0.5,0.6,1.2,0.3,1.8
					c-4.1,8.5-5.4,15.3-5.5,15.5c4.4-4.3,8.8-8.2,13.1-11.8c0.3-0.2,0.6-0.4,1-0.4c0.4,0,0.8,0.2,1.1,0.5c3.1,3.4,14.1,15,25,23.7
					c6.5,5.2,14.5,9.6,22.9,14.3c4.8,2.7,9.8,5.4,14.5,8.4c0.1,0.1,0.3,0.2,0.4,0.3c3,3.7,6.1,7.9,8.7,11.9c0.4,0.6,0.3,1.4-0.2,2
					c-0.3,0.3-0.7,0.4-1.1,0.4c-0.3,0-0.6-0.1-0.9-0.3c-20.6-15-53.6-18.7-57.3-19.1c-0.4,0-0.8-0.2-1-0.6c-1.1-1.3-5.3-5.5-15-5.5
					c-1.4,0-2.9,0.1-4.5,0.3c-0.7,0.1-1.4,0.2-2.1,0.4c-0.1,0-0.2,0-0.3,0c-0.4,0-0.8-0.2-1.1-0.4c-1.3-1.3-5.5-4.4-15.7-4.4
					c-3.5,0-7.5,0.4-11.8,1.1c-36.8,6.4-39.8,37.2-39.9,37.5c2.6-3.8,6.6-7.8,11.8-12.1c0.3-0.2,0.6-0.3,1-0.3c0.4,0,0.7,0.1,1,0.4
					c0.6,0.5,0.7,1.3,0.3,1.9c-3.5,5.8-5.2,12.7-5.2,20.4c0,9.1,3,16.9,3,17.2c1-6.8,4.5-14.2,7.3-19.2c0.3-0.5,0.8-0.8,1.3-0.8
					c0.1,0,0.2,0,0.3,0c0.7,0.1,1.1,0.7,1.2,1.4c0.5,6.6,2.7,11.6,6.5,14.7c2.3,1.9,5.1,3.1,8.5,3.6c0.3,0,0.5,0.1,0.7,0.3
					c2,1.5,12.3,9.6,12.3,19.4c0,7.6-6.6,12.4-17.1,12.4c-19.8,0-25.7-7.9-30.5-14.3c-3.3-4.5-6.2-8.4-13-8.4
					c-8.2,0-12.9,3.8-14.6,5.4c-0.3,0.3-0.7,0.4-1.1,0.4c-0.1,0-0.3,0-0.4-0.1c-1.7-0.5-6.1-1.6-10-1.6c-5.3,0-13.3,4.2-13.3,13.1
					c0,7.3,5.2,10.7,7.9,11.5c-0.1-0.1-0.2-0.2-0.2-0.4c-0.5-1.1-1.6-4.2-1.6-8c0-1.6,0.7-5.4,7.2-5.4c2.1,0,4.4,1.1,5.6,1.8
					c0.4,0.3,0.7,0.7,0.8,1.2c0.1,1.4,0.4,4.2,1.3,6.7c0.3,0.8-0.1,1.6-0.8,1.9c-6.2,2.7-9.4,9.3-9.4,12.2c0,2.2,0.4,4.4,0.7,5.8
					c0.1,0.7-0.2,1.4-0.8,1.7c-2.7,1.4-9.1,5.5-9.1,14.4c0,11.2,7.2,13.8,7.5,14c-0.1-0.3-1.3-7.8,1.2-12.4c1.8-3.3,5.4-5,7.4-5.8
					c0.2-0.1,0.4-0.1,0.5-0.1c0.3,0,0.6,0.1,0.9,0.3c0.3,0.2,1,0.6,1.9,0.9c0.8,0.2,1.3,1,1.1,1.8c-0.3,1.8-0.5,3.7-0.5,6
					c0,5.3,2,7.9,3.7,9.2c0.4,0.3,0.6,0.8,0.6,1.2c0,0.5-0.2,0.9-0.6,1.2c-2.9,2.1-6.3,5.9-6.3,11.8c0,12.6,9.8,14,14,14
					c0.5,0,0.8,0,1,0c0.1,0,0.2,0,0.2,0c-0.5-0.4-5.4-4.1-5.4-9.7c0-5.3,7.9-9.5,9.5-10.3c0.2-0.1,0.4-0.2,0.7-0.2
					c0.1,0,0.1,0,0.2,0c0.7,0.1,1.7,0.2,3.1,0.2c2.3,0,5.7-0.3,8.7-1.8c3.6-1.8,6.2-6,7.5-8.3c0.2-0.4,0.7-0.7,1.2-0.8
					c0.1,0,0.1,0,0.2,0c0.4,0,0.9,0.2,1.2,0.5c0.4,0.5,0.9,0.9,1.5,1.3c0.4,0.2,0.6,0.6,0.7,1.1c0.1,0.4-0.1,0.9-0.4,1.2
					c-2.6,2.9-3.9,6.3-3.9,10.1c0,12.1,7.5,14.2,7.9,14.4c-0.1-0.1-0.2-0.2-0.2-0.4c-0.7-1.5-2.9-6.8-0.3-13.5
					c2.3-6,9.4-6.5,11.6-6.5l1.2,0c11.8,0,17.2-7.8,24.9-25.2c8.6-19.6,24.3-28.5,35.3-28.5c11.3,0,17.6,5.2,17.6,5.3
					c1.3-4.6-4-9.7-10.1-15.6c-2.4-2.3-4.5-4.4-6.6-6.7c-0.5-0.5-0.5-1.3-0.2-1.9c0.3-0.5,0.8-0.7,1.3-0.7c0.1,0,0.3,0,0.4,0.1
					c2.5,0.7,5.3,1.1,8.4,1.1c11.4,0,19.3-9.5,19.6-9.8c-0.5,0.1-3.3,0.5-7,0.5c-5.1,0-12.3-0.8-16.9-4.8c-3.2-2.7-4.9-6.6-4.9-11.5
					c0-10.1,8.6-12,9.9-12.2l0.9,0c14.7,0,24.3,8.7,32.8,16.5c6.2,5.7,12.1,11,18.9,11.3c0.7,0,1.3,0.5,1.4,1.2
					c0.1,0.7-0.2,1.4-0.8,1.7c-21.2,10.3-31.2,30.6-40.6,59.9c-1.9,5.8-4.5,9.4-8,10.6c-0.8,0.3-1.7,0.4-2.6,0.4c-2.8,0-5-1.4-5-1.5
					c0.8,2.1,3.7,6.2,9.3,6.2c3.8,0,7.3-2,10.5-5.8c0.3-0.4,0.7-0.6,1.2-0.6c0.2,0,0.5,0.1,0.7,0.2c0.6,0.3,1,1,0.8,1.7
					c-1.2,4.9-2.3,8.9-3.5,12.5c-5.5,16.5-22.7,22.8-23.4,23c0.1,0.1,3.3,2.1,8.9,2.1c2,0,4.1-0.3,6.2-0.8c11.3-2.8,19-9,22.9-18.5
					c0.2-0.6,0.8-0.9,1.4-0.9c0.1,0,0.2,0,0.3,0c0.7,0.1,1.2,0.8,1.2,1.5c-0.1,20.7-11.7,25.9-12.2,26c1.4,0.2,2.8,0.3,4.1,0.3
					c6,0,11.1-1.8,15.1-5.3c6.8-5.9,8.9-15.1,9.5-20.1c0.1-0.6,0.4-1,1-1.2c0.2-0.1,0.4-0.1,0.6-0.1c0.4,0,0.7,0.1,1,0.4
					c2.9,2.4,6.2,3.7,9.9,3.7c4.6,0,8-1.5,10.4-4.3c0.3-0.4,0.6-0.8,0.9-1.2c0.3-0.5,0.8-0.7,1.3-0.7c0,0,0,0,0,0
					c0.5,0,1,0.3,1.3,0.8c1.2,2.1,3.1,3.6,5.6,4.4c5.8,1.8,5.8,5.6,5.8,11.8v1.2c0,6.9-1,11.6-6.3,16.6c-1,0.9-2.4,2.4-4.1,4.1
					c-11.4,11.6-19.8,19.2-24.1,19.2c-2.3,0-3.6-1.1-5.3-2.6c-2.8-2.4-7.2-6.1-20.3-6.1c-19.8,0-27.5,14.4-28,21
					c0,0.5-0.3,0.9-0.6,1.1c-2.2,1.5-9.2,7.3-9.2,16.6c0,10.7,7.2,13,7.4,13.2c0-0.1-1.4-10,0.7-13.3c0.7-1.1,2-2.3,4.6-2.3
					c0.3,0,0.6,0,0.8,0c0.6,0.1,1.2,0.5,1.3,1.2c0.5,2.1,2.7,3.6,6,4.2c0.8,0.1,1.3,0.8,1.3,1.6c0,0.2,0,0.4,0,0.6
					c0,0.2,0,0.3,0,0.5c0,5.7,2.1,8.5,3.8,10c0.3,0.3,0.5,0.7,0.6,1.1c0,0.4-0.1,0.8-0.4,1.1c-2.1,2.2-5.5,7.1-5.5,14.3
					c0,12.6,12.9,15.4,13.4,15.6c0-0.1-3.6-8.6-1.4-14.3c1.7-4.6,6.3-7,8.2-7.9c0.2-0.1,0.4-0.1,0.6-0.1c0.2,0,0.3,0,0.5,0.1
					c0.9,0.3,1.8,0.5,2.6,0.5c0.4,0,0.7,0,1.1-0.1c0.1,0,0.3,0,0.4,0c0.6,0,1.2,0.4,1.4,0.9c1.6,3.9,4,5.2,5.3,5.6
					c0.7,0.3,1.2,1,1,1.8c-0.7,3.3-1.9,11.6,2.4,18.5c3.1,5.1,8.6,8.4,16.2,9.8c-0.7-0.8-5.2-6.5-5.2-13.5c0-8.2,4.2-11.6,5.5-12.5
					c0.3-0.2,0.6-0.3,0.9-0.3c0.9,0,3.1-0.2,5-1.8c2-1.7,3.1-4.5,3.5-8.3c0-0.5,0.3-0.9,0.7-1.1c0.3-0.2,0.6-0.3,0.9-0.3
					c0.1,0,0.3,0,0.4,0.1c0.6,0.2,1.1,0.3,1.5,0.3c0.8,0.1,1.3,0.9,1.3,1.7c-0.5,4.9-0.8,13.9,3.6,19.4c2.5,3.1,6.2,4.7,10.9,4.7
					c8.7,0,13.3-8.3,13.6-8.6c0,0-3,1.1-6.3,1.1c-4.5,0-6.5-2-7.3-3.6c-3.2-6,1.3-14.1,1.5-14.4c-0.1-0.7,0.2-1.4,0.9-1.6
					c1.6-0.7,15.5-7.5,16.5-16.5c0.5-4.8-0.8-6.2-2-7.6c-1-1.1-2-2.2-2-5c0-1,0-4.1,15.1-15.2c7.7-5.6,12.9-16.7,14-24.8
					c0.4-2.7,0.4-7.1,0.6-12.7c0.2-11.8,0.5-28,3.7-41.8c4.3-18.6,20.9-19.8,24.5-19.8c0,0,0.1,0,0.1,0c-0.1-0.2-2.9-5.6-10.1-5.6
					c-5.8,0-10.3,3-14.3,6.1c-0.3,0.2-0.6,0.3-0.9,0.3c-0.3,0-0.6-0.1-0.9-0.3c-0.5-0.4-0.8-1.1-0.6-1.7c5.1-15.2-4.9-23.9-5-24
					c0,0.4,0.9,8.9-3.6,14.1c-2.3,2.6-5.7,3.9-9.9,3.9c-4.6,0-8.1-1.6-10.2-4.7c-4-5.7-2.6-15-1.3-18.7c0-0.1,0.1-0.2,0.1-0.3
					c7.5-16.2,24.3-17.7,26.1-17.8c0,0,0.1,0,0.1,0c0.1,0,0.2,0,0.3,0c2,0.4,50,9.8,50,44.1c0,24.2-20.6,38.3-20.8,38.3
					c0.4-0.1,37.2-8.1,37.2-47.2c0-2.4-0.2-4.8-0.6-7.2c-0.1-0.6,0.1-1.2,0.6-1.5c0.3-0.2,0.6-0.3,0.9-0.3c0.3,0,0.5,0.1,0.8,0.2
					c14.1,8.2,9.7,27.7,9.4,28.5c0.4-0.3,10.6-6.9,10.6-23.2c0-12.9-4.7-20.9-6.7-23.8c-0.2-0.3-0.3-0.8-0.2-1.2
					c0.1-0.4,0.3-0.8,0.7-1c1.8-1.1,3.5-2.3,5-3.7c1-0.9,2.1-2.1,3.2-3.5c0.1-0.2,0.3-0.3,0.5-0.4c1.5-0.8,14.7-8.8,14.7-29.9
					c0-13-2.6-19.7-4.8-25.2c-1.6-4-2.9-7.4-2.9-12.3c0-8.6,3.1-16.2,8.5-20.9c4.1-3.6,9.5-5.5,15.6-5.5c1.5,0,3,0.1,4.5,0.4
					C713.8,474.1,710.7,467.8,700.9,467.8z M478.2,263.1c-2.1,0.7-4.1,0.2-5.2-0.2c0.1-1.3,0.5-3.3,1.8-4.2c1.8-1.3,4.9-0.5,7.2,0.5
					l0.6,0.2c0,0,0.1,0,0.1,0C481.4,261.3,479.9,262.6,478.2,263.1z"/>
				<path class="st3" d="M715.3,473.7c-0.1-0.3-3.6-7.5-14.4-7.5c-7.6,0-15.5,3.8-21.2,10c-1.6,1.8-3.3,4.1-4.8,7
					c-1.2-1.8-2.8-5.5-2.8-12.5c0-18.2,10.5-23,10.9-23.2c0.6-0.2,0.9-0.8,0.9-1.4c0-0.6-0.4-1.1-1-1.4c-0.3-0.1-8.3-2.9-14.6,1.2
					c-4.6,3-7.4,7.2-9,11.8c-9.5-8.3-17.8-18.6-17.8-36c0-10.9,3.1-24.5,3.1-24.6c0.1-0.6-0.1-1.3-0.7-1.6c-0.5-0.3-1.2-0.3-1.7,0.1
					c-8.4,6.9-12.7,14.9-14.8,22.1c-1.5-6.3-3.4-17.4-2.6-30.4c2-31.3,16.8-37.9,16.9-38c0.6-0.3,1-0.9,0.9-1.6
					c-0.1-0.7-0.7-1.2-1.4-1.2c-0.2,0-14.4-0.6-22.2,11.5c1.6-15,6.2-26.2,13.7-33.2c8.6-8,18.1-7.5,18.2-7.5c0.7,0,1.4-0.4,1.6-1.2
					c0.2-0.7-0.2-1.4-0.9-1.7c-8.8-3.5-17.6-2.6-25.4,2.6c-0.6,0.4-1.2,0.9-1.9,1.4c1.5-2.2,3.2-4.5,4.8-6.8c0.8-1,1.5-2.1,2.3-3.2
					c0,0,0,0,0,0c0.1-0.1,8.2-11.6,20.9-11.6c6.8,0,17.6,5.3,17.6,19.3c0,17.6-16,18.7-16.7,18.8c-0.6,0-1.1,0.4-1.3,1
					c-0.2,0.6-0.1,1.2,0.3,1.6c2.7,2.7,6.7,4.1,10.8,4.1c2.4,0,4.8-0.5,7.1-1.4c5.5-2.3,9.5-7,11.7-13.5c0.7,2.2,1.4,5.2,1.4,8.6
					c0,6.9-6.7,19.3-25.2,25.3c-6.6,2.1-11.1,5.6-13.4,10.3c-3.1,6.4-0.8,12.5-0.7,12.8c0.2,0.6,0.7,0.9,1.3,1c0,0,0.1,0,0.1,0
					c0.6,0,1.1-0.3,1.3-0.8c0.2-0.3,3.6-6.6,12.3-9.6c-2.9,4.9-7.5,15-7.5,29.5c0,21,12.1,33.1,33.3,33.1
					c21.2,0,27.9-11.7,28.2-12.2c0.3-0.5,0.2-1.2-0.2-1.7c-0.4-0.5-1-0.7-1.6-0.5c-13.2,4.2-22.7,4.1-28.2-0.3
					c-4.7-3.7-6.6-10.7-5.8-20.8c0.7-8.6,5.6-14.2,10.5-19.5c-0.4,2.9-0.6,6.7-0.1,10.8c0.9,7,7.5,12.7,7.8,13
					c0.3,0.2,0.6,0.4,1,0.4c0.3,0,0.7-0.1,0.9-0.3c0.6-0.4,0.7-1.2,0.4-1.9c0-0.1-4.3-8.3,0-17.1c1.3-2.7,3.2-5.2,5.2-7.7
					c4.8-6.3,10.3-13.5,10.3-27.6c0-22-11.4-38.4-16.6-44.7c0.5,0,1,0.1,1.6,0.1c9.8,0,15-7.1,15-13.8c0-6.4-3.8-12.9-3.9-13.2
					c-0.3-0.6-1-0.9-1.7-0.7c-0.7,0.2-1.1,0.8-1.1,1.5c0,0.1,0.1,6.3-3.3,9.8c-1.5,1.6-3.5,2.3-6,2.3c-4.4,0-8.1-3.6-12.4-7.8
					c-5.8-5.7-12.3-12.1-22.9-12.1c-2.2,0-4.2,0.2-6,0.6c2.9-4.6,10.1-12.7,23.3-11.3c0.6,0.1,1.3-0.3,1.5-0.9
					c0.3-0.6,0.1-1.3-0.5-1.7c-0.1-0.1-14.7-11.1-32.1,2.2c-3.6-18.9-20.7-23.7-20.9-23.7c-0.6-0.2-1.3,0.1-1.6,0.6
					c-0.4,0.5-0.3,1.2,0.1,1.8c0.1,0.1,5.1,6.4,7.6,15c-2.8-3.1-7.4-6-14.7-6c-15.7,0-17.2,18.4-17.3,18.6c0,0.6,0.3,1.2,0.9,1.5
					c0.6,0.2,1.3,0.1,1.7-0.4c0.2-0.2,4.2-4.9,11.6-4.9c9.3,0,11.4,14.3,11.7,17.2c-1.7,2.2-3.6,4.5-5.6,6.8
					c-11.5,13.7-25.8,30.6-25.8,67.6c0,31.2,6,41.8,7.2,43.6c2.3,13.7,6.6,23,9.6,28.3c-0.1,0-0.2-0.1-0.2-0.1
					c-14.6-7.5-15.1-28.6-15.1-28.8c0-0.6-0.4-1.1-0.9-1.4c-0.6-0.2-1.2-0.1-1.6,0.3c-0.4,0.4-3.7,4-3.7,17
					c0,17.5,10.1,24.5,18.9,30.8c2.1,1.5,4.1,2.9,5.9,4.4c-0.4,0.1-0.7,0.1-1.1,0.2c-9.8,1.5-15.8,2.3-28.3-13.5
					c-0.4-0.5-1-0.7-1.6-0.5c-0.6,0.2-1,0.7-1,1.4c0,0.6-0.4,14.4,12.8,24.9c7.8,6.2,12.4,6.9,17.4,7.6c3.1,0.5,6.2,1,10.5,2.7
					c-9.6,0.3-17.2,3.2-22.6,8.8c-9.1,9.4-8.7,22.7-8.7,23.3c0,0.7,0.5,1.3,1.2,1.4c0.1,0,0.2,0,0.3,0c0.6,0,1.1-0.3,1.4-0.9
					c0.3-0.6,7.1-15.6,26.2-15.6c10.9,0,16.4,6.9,18.5,10.2c-11.5,2.5-19.4,9.9-20.5,19.8c-1.1,9.5,4,15.3,4.2,15.5
					c0.4,0.4,0.9,0.6,1.5,0.4c0.5-0.1,0.9-0.6,1.1-1.1c0-0.2,4.8-21,20.1-21c18.8,0,19.4,23.8,19.4,26.5c0,6.5-2.4,15.3-9.1,20.4
					c-6.6,5-16.3,5.7-28.8,2c0,0-0.1,0-0.1,0c-11.4-7.5-23-11.6-27.1-12.9c0.5-1.7,1.1-4.6,1.1-8.5c0-12.9-5.8-23.3-13.6-30.5
					c-7.9-10.7-18.2-20.9-27.4-30c-2.6-2.6-5.1-5.1-7.4-7.4c-6.8-6.9-11.3-13.5-13.7-17.5c3.2,1.1,6.8,1.7,10.8,1.7
					c4.8,0,9.2-1.1,9.4-1.1c0.6-0.2,1.1-0.7,1.1-1.3c0-0.6-0.3-1.2-0.9-1.5c-0.2-0.1-18.7-7.9-18.7-27.5c0-5.3,0.7-9.2,1.4-11.9
					c1.1,6.2,3.8,11.2,8,14.9c6.9,6,16,7,21,7c2.1,0,3.5-0.2,3.7-0.2c0.7-0.1,1.2-0.6,1.3-1.3c0.1-0.7-0.3-1.3-1-1.6
					c-0.7-0.2-16-6.2-16-23.2c0-6,2-11.5,4.4-17.8c0.8-2.1,1.6-4.3,2.4-6.7c0.6,3.3,1.8,6.8,4.2,9.5c0.3,0.3,0.7,0.5,1.1,0.5
					c0.2,0,0.4,0,0.6-0.1c0.6-0.3,0.9-0.9,0.9-1.6c0-0.1-1.3-9.9,3.1-15.5c3.1-4,4.1-9.4,4.4-13.1c1.5,1.4,3.3,2.3,5.2,2.6
					c0.1,0,0.2,0,0.3,0c0.4,0,0.8-0.2,1.1-0.5c0.3-0.4,0.5-0.9,0.3-1.4c0-0.1-2.1-7.7-2.1-16.7c0-16.4-1.4-28.8-4.1-37.2
					c1.6,1.1,3.3,1.9,5,2.4c0.1,0,0.3,0.1,0.5,0.1c0.4,0,0.9-0.2,1.2-0.6c0.4-0.5,0.4-1.2,0.1-1.7c0-0.1-4.7-8.2-6.4-15.8
					c-1.2-5.5-6.9-19.5-15.9-30.9c0.9,0.1,1.9,0.1,2.9,0.1c1.3,0,2.6-0.1,4-0.2c0.7-0.1,1.2-0.6,1.3-1.3c0.1-0.7-0.3-1.4-1-1.6
					c-0.1,0-7.5-2.5-11.7-7c-0.8-0.9-1.7-2.5-2.7-4.4c-3.1-6-7.9-15.2-20.8-17.2c1.9-0.4,3.9-0.7,6.1-1c0.7-0.1,1.3-0.7,1.3-1.4
					c0.1-0.7-0.4-1.4-1.1-1.6c-0.6-0.2-13.2-3.7-26.1-1.2c3.6-2.3,6.3-3.6,6.3-3.6c0.7-0.3,1-1.1,0.7-1.9c-0.3-0.7-1-1.1-1.8-0.9
					c-14.1,4-23,10-28.3,15.1c1-1.9,2.2-3.8,3.6-5.6c0.4-0.5,0.4-1.1,0.1-1.7c-0.3-0.5-0.9-0.8-1.5-0.7c-0.5,0.1-11.6,2.1-17.3,14
					c-10,0.3-16.4,4.8-17.6,5.8c-2.1,0.8-16,6.2-27.2,22.8c0,0,0,0,0,0c0,0,0,0.1-0.1,0.1c0,0,0,0.1,0,0.1c0,0.1-0.1,0.1-0.1,0.2
					c-2,5.2-0.1,9.1,0.9,10.6c-0.7,2.4-2.6,9.5,0.5,13.9c1.6,2.4,4.3,3.5,7.9,3.5c2.5,0,4.6-0.3,6.5-0.9l1.7,3.6l0.8-4.5
					c1.7-0.8,3.2-1.7,4.6-2.7l1.2,4.3l1.5-6.5c0.6-0.6,1.3-1.2,1.9-1.7c3.1-2.9,5.8-5.5,9.9-5.5c2.5,0,7.9,0.4,12.6,3.4
					c-6.8,1.1-14.2,4.8-22,8.8c-10.7,5.4-22.9,11.6-35.3,11.6c-7.8,0-11-2.5-11-8.5c0-6.8,4-10.1,4.2-10.2c0.5-0.4,0.7-1,0.5-1.5
					c-0.1-0.6-0.6-1-1.2-1.1c-0.3-0.1-6.6-1.2-11.6,2.8c-3.8,3.1-5.7,8.2-5.7,15.3c0,4.8,1.8,15.8,18.7,15.8
					c13.9,0,25-5.6,43.5-15.5c14.9-8,24.8-8,27.1-7.8c0.3,1,0.6,2,0.8,3.2c-2.2,2.3-11.8,11.7-24.5,13.1l-2.3-3.8l-1.8,3.9
					c-1.7-0.1-3.1-0.2-4.2-0.4l-1.1-3.9l-2.2,2.8c-0.9-0.4-1.2-0.8-1.2-0.8c-0.5-0.5-1.2-0.7-1.9-0.3c-0.2,0.1-4.5,2.6-4.5,10.8
					c0,8.3,10.9,13.4,18.6,13.4c13.7,0,17.4-8.7,17.5-9.1c0.2-0.5,0.1-1.1-0.2-1.5c-0.4-0.4-0.9-0.6-1.5-0.5c0,0-1.5,0.3-3.5,0.7
					c3.8-1.7,8-4.2,12-8.2c-4.2,20.2-19.4,26.9-21.4,27.7c-0.9,0.1-1.8,0.1-2.8,0.1c-18.8,0-30-5.7-30.1-5.8
					c-0.5-0.3-1.2-0.2-1.6,0.1c-0.5,0.4-0.7,1-0.5,1.5c0.1,0.5,2.2,8.1,11.8,13.7c0.1,0.2,0.3,0.4,0.4,0.6
					c-2.4,0.5-6.4,1.3-10.8,1.3c-13.5,0-18.2-5.3-18.3-5.4c-0.4-0.5-1.1-0.7-1.7-0.4c-0.6,0.3-1,0.9-0.9,1.5c0,0.1,1,7.6,7.3,14.9
					c-0.4,0-0.7,0.1-1.2,0.1c-27-6.4-45.8-31.6-45.8-50.2c0-6.2,0.2-13.8,1.6-22.7c1.5-9.8,1.4-13-2-17.1l-0.8-1
					c-3-3.6-7.6-9-12.3-17.7c-2.2-4.1-4.7-6.5-7.6-7.1c-1.5-0.3-2.8-0.1-3.7,0.2c-2.4-3.8-7.4-10-15.3-10c-5.2,0-9.1,2-9.2,2.1
					c-0.6,0.3-0.9,0.9-0.8,1.6c0.1,0.6,0.6,1.1,1.2,1.2c8.9,1.4,10.5,7.7,10.7,10.6c-0.2,0-0.4,0.1-0.5,0.1
					c-1.3,0.5-2.2,1.6-2.9,3.5c-0.4,1.2-0.9,2.8-1.2,4.7c-4.5-9-10.6-10.4-15.6-10.4c-3.9,0-6.9,1.8-8.4,2.9
					c-1.3-0.5-3.4-0.7-7.2-0.7c-5.2,0-9.2,1.5-11.8,4.5c-4.2,4.6-3.5,11-3.5,11.3c0.1,0.7,0.6,1.2,1.2,1.3c0.1,0,0.2,0,0.3,0
					c0.5,0,1.1-0.3,1.3-0.8c0-0.1,2.9-5.3,8.2-5.3c1.5,0,2.5,0.6,3,1.1c-0.6,0.5-1.2,1.3-1.6,2.4c-0.3,0.8-0.4,1.8-0.3,2.7
					c-0.6-0.1-1.3-0.1-2.1-0.1c-4.5,0-7,1.9-8.3,3.3c-1.4-0.7-3.9-1.6-8-1.6c-4.8,0-11.4,4.6-11.4,13.2c0,9.2,5.8,9.6,6,9.6
					c0,0,0,0,0.1,0c0,0,0,0,0.1,0c0.8,0,1.5-0.7,1.5-1.5c0-0.2-0.1-0.5-0.2-0.7c-0.3-1.4-0.5-4.5,0.8-6.1c0.6-0.8,1.5-1.1,2.8-1.1
					c0.5,0,0.9,0,1.2,0.1c-0.2,2.6,0.2,4.6,1.4,6.1c1.4,1.7,3.6,2.5,6.6,2.5c1.9,0,3.8-0.3,5.4-0.6c3.3-0.5,5.2-0.7,6.5,0.6
					c-5.9,0.9-10,2.7-12,5.4c-0.7,0.9-1,1.8-1.2,2.5c-5.2,0.9-13.5,4.4-13.5,12.9c0,5.4,2.8,8,5.2,9.3c2.6,1.4,5.6,1.6,7.1,1.6
					c0.6,0,1,0,1,0c0.6-0.1,1.1-0.5,1.3-1.1c0.2-0.6,0-1.2-0.5-1.6c-0.1-0.1-2.3-1.8-2.3-4.8c0-2,1.5-3.1,4.4-3.1c0.1,0,0.2,0,0.4,0
					c8.3,11.6,30.7,10.5,36.2,10c1.6,4.5,7.9,21,18.4,34.4c-4.3-0.1-13.2-1-22.3-6c-0.6-0.3-1.3-0.2-1.8,0.3
					c-0.5,0.5-0.6,1.2-0.2,1.8c0.2,0.3,15.6,26.3,51.3,40.7c-8.7,1.9-18.2,0.8-18.3,0.8c-0.7-0.1-1.3,0.3-1.5,0.9
					c-0.3,0.6-0.1,1.3,0.4,1.7c13.6,10.9,25.7,12.9,31.6,13.1c-3,2.7-7.3,5.4-12.8,5.4c-17.4,0-29.9-3.7-41-6.9
					c-8.8-2.6-16.4-4.8-24.8-4.8c-4,0-14.5,1.4-17.2,7.4c-2.6-0.1-9,0.1-12.7,5.1c-1.9,2.5-2.6,5-2.1,7.5c0.8,4.2,4.9,6.6,5,6.7
					c0.2,0.1,0.5,0.2,0.7,0.2c0.3,0,0.6-0.1,0.8-0.3c0.5-0.3,0.7-0.9,0.6-1.4c0,0-0.6-4.4,2.1-5.4c1.3-0.5,2.5-0.7,3.7-0.7
					c0.4,0,0.7,0,1,0.1c0.3,1.4,1.1,3.9,2.7,5.8c-4.4,1.5-7.9,3.9-11,6.3c-4.2,3.3-4.3,8.4-3.6,11.4c-2,1.3-5.8,4.8-5.8,11.5
					c0,7.9,7.4,10,11.3,10c0.6,0,1.2-0.4,1.4-1c0.2-0.6,0.1-1.2-0.4-1.6c-0.1-0.1-2.7-2.5-1.6-6.9c0.6-2.6,3.7-3.4,4.6-3.6
					c0.6,0.2,1.7,0.5,3.1,0.5c-0.8,1-1.5,2.3-2.2,3.9c-2,4.6-1,7.9-0.1,9.7c-2,1.6-4.5,4.6-4.5,9.7c0,7.3,4.2,11.4,11.9,11.4
					c3.5,0,6.4-0.9,6.5-0.9c0.6-0.2,1.1-0.8,1.1-1.4c0-0.7-0.5-1.2-1.1-1.4c-0.1,0-6.7-2-6.7-5.7c0-2.4,2.3-3,2.8-3.1
					c0.2,0,0.5,0,0.9,0c2.7,0,9.4-0.5,13.3-4.7c0.7,1.8,1.7,2.9,2.5,3.6c-0.9,1.7-1.6,4.1-1.6,7.3c0,7.1,7,10.3,12,10.3
					c5.9,0,10.2-4.8,10.4-5c0.4-0.4,0.5-1.1,0.3-1.6c-0.2-0.5-0.8-0.9-1.3-0.9c-1.7,0-6.1-0.7-6.9-3.3c-0.6-2.1,1.3-4,2-4.6
					c1.8-0.2,7.5-1.6,14-9.8c4.3-5.4,9.2-14.8,10.6-17.5c6.1-0.6,11.7-2.7,15.3-4.4c0,0.1-0.1,0.2-0.1,0.3
					c-1.7,6.2-5.4,10.4-5.4,10.4c-0.4,0.5-0.5,1.1-0.2,1.7c0.3,0.5,0.8,0.8,1.3,0.8c0,0,0.1,0,0.1,0c6.6-0.6,9.2-4,13.5-9.8
					c2.6-3.5,8.4-5.1,11.9-5.9c-0.8,1.5-1.5,3-2.1,4.6c-3.6,9.2-9,15.1-9.1,15.1c-0.5,0.5-0.5,1.2-0.2,1.8c0.3,0.4,0.8,0.7,1.3,0.7
					c0.1,0,0.3,0,0.4-0.1l0.7-0.2c12.1-3.5,17.6-5.1,23.6-13.2c3.7-5,11.4-9.5,16.2-12c-4.2,8.7-5.5,15.8-5.6,15.9
					c-0.1,0.6,0.2,1.3,0.8,1.6c0.2,0.1,0.5,0.2,0.7,0.2c0.4,0,0.7-0.1,1-0.4c5-4.8,9.4-8.7,13-11.8c3.2,3.5,14.1,15.1,25.2,23.9
					c6.6,5.3,14.7,9.7,23.2,14.4c4.9,2.7,9.8,5.4,14.4,8.3c2.9,3.5,6,7.7,8.6,11.8c-20.7-15-52.9-18.9-58-19.4
					c-1.4-1.7-6-6.1-16.2-6.1c-1.5,0-3.1,0.1-4.7,0.3c-0.7,0.1-1.5,0.2-2.2,0.4c-2.1-2.1-9.3-7.1-28.8-3.7
					c-38.2,6.6-41,38.6-41.1,38.9c-0.1,0.7,0.4,1.3,1,1.5c0.2,0.1,0.3,0.1,0.5,0.1c0.5,0,0.9-0.2,1.2-0.6c3-4.3,7.4-8.4,11.5-11.7
					c-4.2,7.1-5.5,14.7-5.5,21.2c0,9.4,3.1,17.4,3.2,17.7c0.2,0.6,0.8,0.9,1.4,0.9c0.1,0,0.1,0,0.2,0c0.7-0.1,1.2-0.6,1.3-1.3
					c0.9-6.7,4.6-14.1,7.2-18.6c0.6,7.1,3,12.4,7.1,15.8c3,2.4,6.3,3.5,9.2,3.9c1.7,1.3,11.6,9.1,11.6,18.1c0,6.7-6,10.8-15.6,10.8
					c-19.1,0-24.5-7.3-29.2-13.7c-3.4-4.6-6.7-9-14.3-9c-8.8,0-13.9,4.2-15.6,5.9c-1.8-0.5-6.3-1.6-10.5-1.6
					c-6,0-14.8,4.7-14.8,14.7c0,8.2,5.9,12.1,9,12.9c0.1,0,0.3,0.1,0.4,0.1c0,0,0,0,0,0c0.8,0,1.5-0.7,1.5-1.5
					c0-0.3-0.1-0.7-0.3-0.9c-0.4-0.9-1.5-3.8-1.5-7.4c0-3.2,3.1-3.8,5.6-3.8c1.6,0,3.7,1,4.9,1.6c0.1,1.4,0.5,4.4,1.4,7.1
					c-6.8,2.9-10.3,10.1-10.3,13.6c0,2.4,0.4,4.7,0.7,6.1c-2.9,1.4-10,6-10,15.8c0,12.3,8.2,15.2,8.6,15.4c0.2,0.1,0.3,0.1,0.5,0.1
					c0.3,0,0.7-0.1,1-0.4c0.4-0.3,0.6-0.9,0.5-1.4c0-0.1-1.2-7.3,1-11.4c1.6-2.9,4.9-4.4,6.6-5.1c0.5,0.4,1.3,0.8,2.4,1.1
					c-0.4,2.1-0.5,4.2-0.5,6.3c0,6,2.4,9,4.3,10.4c-3.2,2.4-7,6.5-7,13c0,14.4,11.9,15.6,15.5,15.6c0.9,0,1.5-0.1,1.5-0.1
					c0.6-0.1,1.1-0.5,1.3-1.1c0.2-0.6-0.1-1.2-0.6-1.6c0,0-4.8-3.4-4.8-8.4c0-3.8,6-7.6,8.7-8.9c0.6,0.1,1.8,0.2,3.3,0.2
					c2.6,0,6.2-0.4,9.4-2c3.9-2,6.7-6.2,8.1-8.9c0.6,0.7,1.2,1.2,1.8,1.6c-2.2,2.4-4.3,6-4.3,11.1c0,13.3,8.7,15.7,9,15.8
					c0.1,0,0.2,0,0.4,0c0,0,0,0,0,0c0.8,0,1.5-0.7,1.5-1.5c0-0.4-0.1-0.7-0.4-1c-0.6-1.2-2.6-6.1-0.2-12.3c2-5.1,8.2-5.5,10.1-5.5
					l0.3,0c0,0,0,0,0,0c0,0,0,0,0,0c0.3,0,0.6,0,0.9,0c12.6,0,18.4-8.2,26.3-26.1c8.3-18.9,23.4-27.6,33.9-27.6
					c10.6,0,16.6,4.9,16.7,4.9c0.4,0.3,0.9,0.4,1.4,0.3c0.5-0.2,0.9-0.5,1-1c1.5-5.5-4.1-10.9-10.5-17.1c-2.1-2.1-4.4-4.3-6.6-6.6
					c2.3,0.7,5.2,1.2,8.9,1.2c12.1,0,20.5-10.1,20.8-10.5c0.4-0.5,0.4-1.2,0.1-1.7c-0.3-0.5-0.9-0.8-1.5-0.7
					c-0.2,0-15.2,2.5-22.7-3.9c-2.9-2.4-4.3-5.9-4.3-10.3c0-8.9,7.6-10.5,8.4-10.7c0.3,0,0.6,0,0.8,0c14.1,0,23.5,8.5,31.8,16.1
					c6.4,5.9,12.6,11.4,19.9,11.7c-21.5,10.4-32,31.2-41.4,60.9c-1.7,5.4-4.1,8.6-7,9.6c-3.2,1.1-6.3-0.9-6.3-0.9
					c-0.5-0.4-1.2-0.3-1.8,0c-0.5,0.4-0.7,1.1-0.5,1.7c0.9,2.5,4.3,7.2,10.7,7.2c5.1,0,9-3.1,11.7-6.4c-1,4.2-2.1,8.3-3.5,12.4
					c-5.3,16-22.3,22-22.4,22.1c-0.5,0.2-0.9,0.7-1,1.2c-0.1,0.6,0.2,1.1,0.7,1.4c0.2,0.1,3.7,2.4,9.7,2.4c1.9,0,4.1-0.2,6.5-0.8
					c14.3-3.6,20.9-12,24-19.4c-0.1,19.7-10.8,24.5-11.3,24.7c-0.6,0.3-1,0.9-0.9,1.6c0.1,0.7,0.6,1.2,1.3,1.3
					c1.5,0.2,2.9,0.3,4.3,0.3c6.4,0,11.8-1.9,16.2-5.6c7.2-6.3,9.4-16.1,10-21.1c3.1,2.6,6.8,4,10.9,4c5,0,8.9-1.7,11.6-4.9
					c0.4-0.4,0.7-0.9,1-1.4c1.1,1.9,3,4,6.5,5.1c4.5,1.4,4.8,3.6,4.7,10.4l0,1.2c0,6.7-0.9,10.9-5.8,15.5c-1,1-2.5,2.4-4.2,4.2
					c-6,6.1-18.5,18.8-23,18.8c-1.8,0-2.7-0.8-4.3-2.2c-3-2.6-7.6-6.4-21.2-6.4c-20,0-28.9,14.4-29.5,22.4
					c-2.3,1.6-9.9,7.8-9.9,17.8c0,11.9,8.2,14.5,8.6,14.6c0.1,0,0.3,0.1,0.4,0.1c0.4,0,0.7-0.1,1-0.4c0.4-0.3,0.6-0.8,0.5-1.3
					c-0.5-3.6-0.8-10.2,0.5-12.3c0.7-1.1,1.8-1.6,3.3-1.6c0.2,0,0.5,0,0.7,0c0.4,1.7,1.9,4.4,7.3,5.3c0,0.4-0.1,0.7-0.1,1.1
					c0,6.4,2.5,9.6,4.4,11.1c-2.1,2.3-5.9,7.5-5.9,15.3c0,13.9,14.5,17,14.6,17c0.1,0,0.2,0,0.3,0c0.4,0,0.9-0.2,1.1-0.5
					c0.4-0.4,0.4-1,0.2-1.5c0-0.1-3.3-8.2-1.4-13.2c1.6-4.1,6-6.4,7.4-7c0.7,0.2,1.8,0.6,3.1,0.6c0.5,0,1-0.1,1.5-0.2
					c1.8,4.2,4.4,5.9,6.2,6.5c-0.8,3.5-2,12.2,2.6,19.7c3.4,5.5,9.2,9.1,17.4,10.6c0.1,0,0.2,0,0.3,0c0.5,0,1-0.3,1.3-0.8
					c0.3-0.6,0.2-1.2-0.2-1.7c-0.1-0.1-4.9-5.6-4.9-12.6c0-7.4,3.7-10.5,4.8-11.2c0,0,0,0,0.1,0c1.2,0,3.7-0.2,6-2.2
					c2.3-2,3.7-5.1,4-9.3c0.6,0.2,1.2,0.3,1.7,0.4c-0.6,5.3-0.8,14.6,4,20.6c2.8,3.5,6.9,5.3,12.1,5.3c9.6,0,14.6-9,14.9-9.4
					c0.3-0.5,0.2-1.2-0.2-1.7c-0.4-0.5-1-0.6-1.6-0.5c0,0-2.8,0.9-5.8,0.9c-3,0-5-0.9-6-2.8c-2.8-5.3,1.5-12.9,1.5-13
					c0.2-0.3,0.2-0.6,0.1-1c2.6-1.2,16.3-8.1,17.4-17.7c0.6-5.5-1.1-7.3-2.4-8.8c-0.9-1-1.6-1.8-1.6-4c0-1,1.4-4.4,14.5-13.9
					c8.1-5.9,13.5-17.4,14.6-25.8c0.4-2.8,0.5-7.2,0.6-12.8c0.2-11.7,0.5-27.8,3.7-41.4c4.4-18.8,22.4-18.7,23.1-18.7
					c0.5,0,1-0.3,1.3-0.7c0.3-0.4,0.3-1,0.1-1.5c-0.1-0.3-3.4-6.5-11.5-6.5c-6.2,0-10.9,3.1-15.3,6.4c5.5-16.4-5.4-25.5-5.5-25.6
					c-0.5-0.4-1.1-0.4-1.7-0.1c-0.5,0.3-0.8,0.9-0.8,1.5c0,0.1,0.9,8.2-3.3,12.9c-2,2.3-5,3.4-8.8,3.4c-4.1,0-7.1-1.4-9-4
					c-3.6-5.2-2.3-14.1-1.1-17.4c0,0,0,0,0-0.1c7.1-15.3,22.9-16.8,24.9-16.9c3,0.6,48.7,9.8,48.7,42.6c0,23.3-19.9,37-20.1,37.1
					c-0.6,0.4-0.8,1.2-0.5,1.8c0.2,0.6,0.8,0.9,1.4,0.9c0.1,0,0.2,0,0.3,0c0.4-0.1,38.4-8.2,38.4-48.7c0-2.6-0.2-5.1-0.7-7.4
					c13.1,7.6,9,26,8.8,26.8c-0.1,0.6,0.1,1.2,0.6,1.6c0.3,0.2,0.6,0.3,0.9,0.3c0.3,0,0.6-0.1,0.8-0.2c0.5-0.3,11.3-7.4,11.3-24.5
					c0-13.2-4.7-21.5-6.9-24.6c1.8-1.1,3.6-2.4,5.2-3.9c1.2-1.1,2.3-2.4,3.4-3.7c1.8-1,15.5-9.3,15.5-31.3c0-13.3-2.7-20.2-4.9-25.7
					c-1.6-4-2.8-7.2-2.8-11.7c0-8.2,2.9-15.4,8-19.8c4.8-4.2,11.4-5.8,19-4.8c0.5,0.1,1.1-0.2,1.4-0.6
					C715.4,474.8,715.5,474.2,715.3,473.7z M290.8,428.6c-0.4-0.1-1-0.1-1.7-0.1c-1.6,0-3.2,0.3-4.8,0.9c-2.6,1-3.6,3.3-3.9,5.3
					c-0.6-0.8-1.2-1.7-1.5-2.8c-0.3-1.6,0.2-3.4,1.5-5.2c2.6-3.5,7-4,9.5-4c0.4,0,0.8,0,1,0C292.5,425.5,291.5,427.6,290.8,428.6z
					 M670,448.4c2.8-1.8,6.2-1.9,8.7-1.6c-3.8,3.1-9.5,10-9.5,23.9c0,9.7,2.8,13.9,4.4,15.6c-2,5-3.3,11.4-2.8,19.4
					c-0.9-0.6-1.7-1.2-2.6-1.8c-1-1.3-6.1-8.6-7.4-21.5C659.9,474.6,658,456.2,670,448.4z M640.9,400.9c-0.9,5-2.3,13.5-2.3,20.9
					c0,19.3,9.9,30.6,19.9,39.2c-0.5,1.9-0.8,3.7-1,5.6c-2.8-5.1-8.1-12.1-17.6-15.6c-1.8-3-5-7.4-10.3-12.2
					C628.9,435.8,625.2,416.3,640.9,400.9z M635.8,349.9c-5.1,4.7-12.5,15.2-13.9,37.2c-1.3,20,3.6,35.1,4.2,37
					c-0.4,2.8-0.5,5.3-0.4,7.5c-2.9-8.1-7.3-26.1-7.3-60.7c0-1.5,0-3,0.1-4.4C621.7,354.8,630.2,351.1,635.8,349.9z M646.3,379.5
					c-0.2-2-0.1-4.6,1.2-7.3c1.9-3.9,5.8-6.9,11.6-8.8c20-6.5,27.2-20.4,27.2-28.2c0-7-2.4-12.3-3.1-13.7c0.4-2.2,0.6-4.4,0.6-6.8
					c0-4.8-0.7-9.2-1.8-13.1c4.4,4.5,13,16,13,37.4c0,14.3-8.7,29.3-28.1,30.5c-1.6,0.1-3.1,0.3-4.5,0.6c0,0,0,0,0,0
					C653.9,372,648.8,376.5,646.3,379.5z M686.3,379.1c-5.1,5.6-11,12-11.8,21.9c-0.9,11.1,1.4,19,6.9,23.4
					c5.6,4.5,14.4,5.2,26.2,2.2c-3.5,3.1-10.4,7.1-22.5,7.1c-19.6,0-30.3-10.7-30.3-30.1c0-17.5,7.2-28.4,8.8-30.6
					c1.2-0.2,2.4-0.4,3.7-0.5c16.6-1,26-11.6,29.4-23.4c0,4.9-0.3,10.5-1.5,16.2C694,370.7,690.2,374.8,686.3,379.1z M710.4,351.2
					c0,13.1-4.9,19.5-9.7,25.8c-2.1,2.7-4,5.3-5.5,8.2c-2.4,4.8-2.5,9.4-2.1,12.9c-1.1-1.8-2.1-3.8-2.4-6c-0.9-7.1,0.7-13.4,1-14.8
					c2.9-3.4,5.3-6.9,6.2-11.3c3.8-18-0.2-34.4-0.4-35.1c0,0,0,0,0-0.1c-1.3-12.1-5.2-20.5-9-25.9c1.2,0.4,2.4,0.7,3.8,1
					C694.8,308.6,710.4,326.5,710.4,351.2z M662.1,275.5c9.5,0,15.5,6,20.9,11.2c4.5,4.5,8.8,8.7,14.5,8.7c3.3,0,6-1.1,8.1-3.2
					c1.8-1.9,2.9-4.3,3.4-6.5c0.8,2.1,1.4,4.6,1.4,7.1c0,5.4-4.1,10.8-12.1,10.8c-6.8,0-11.4-2-14.5-4.3c-1.4-1.3-2.3-2-2.5-2.2
					c-1.2-1.2-2-2.3-2.4-3c-5.5-10-14.8-15.3-23.8-15.3c-2.4,0-4.2,0.1-5.7,0.3C651.8,277.4,655.8,275.5,662.1,275.5z M649,268.5
					c0-1.3-0.1-2.5-0.2-3.6c10.1-8.4,19-7.8,24.4-6c-13.6,1.5-19.9,12.8-21.2,15.5c-1.5,0.6-2.7,1.3-3.8,2
					C648.7,273.7,649,271.1,649,268.5z M655.1,281.7c7.7,0,15.8,4.5,20.8,12.9c0,0.1,0.2,0.4,0.4,0.8c2.8,5.1,4.6,11.5,4.6,19.3
					c0,11.3-4.2,19.5-11.6,22.6c-4,1.7-8.5,1.6-12-0.1c5.7-1.5,15.9-6.2,15.9-21.1c0-16.3-12.6-22.3-20.6-22.3
					c-5.4,0-10.1,1.8-13.7,4c3-4.9,5.8-9.9,7.6-15.2C647.4,282.4,650,281.7,655.1,281.7z M615.9,260.9c-4.7,0-8.2,1.6-10.6,3.1
					c1.3-4.7,4.7-11.9,13.6-11.9c12.2,0,15.4,9.2,15.9,10.8c0,0.3,0,0.5,0,0.8c0,5.2-1.8,9.6-4.7,13.9
					C628.9,271.6,625.5,260.9,615.9,260.9z M601.9,386.1c-1.4-6.5-2.7-16.3-2.7-30.5c0-35.9,13.9-52.4,25.1-65.7
					c2.1-2.5,4.1-4.9,5.9-7.3c0.1-0.1,0.1-0.1,0.2-0.2c4.3-5.8,7.4-11.5,7.4-18.7c0-0.2,0-0.5,0-0.7c0-0.2,0-0.4,0-0.6c0,0,0,0,0,0
					c-0.4-8.3-3.8-15.5-6.4-19.9c5.7,3.1,14.8,10.4,14.8,26c0,13.6-8.4,26.5-16.7,38c0,0,0,0,0,0.1c-0.8,1.1-1.6,2.2-2.4,3.3
					c-4.9,6.8-9.6,13.2-11.8,18.9c0,0,0,0.1,0,0.1c-8.3,12.4-13.5,30.5-13.5,49.2C601.6,380.9,601.7,383.5,601.9,386.1z
					 M604.6,378.1c0-25.2,9.6-49.3,23.4-58.6c4.9-3.3,10-4.7,15.4-4.2c-3.7,1.1-8.2,3.1-12.5,7.2c-10.2,9.5-15.4,25.8-15.4,48.5
					c0,36.6,4.8,54.9,7.9,62.9c-1.5-1-3-2.1-4.7-3.1C617.3,429.1,604.6,412.1,604.6,378.1z M612.1,442.9
					c-8.7-6.1-17.7-12.4-17.7-28.3c0-4.4,0.4-7.5,0.9-9.8c1.3,7.4,5,19.6,16.1,25.3c13.1,6.7,20.3,14.4,24.1,19.7
					c-2.5-0.6-5.3-0.9-8.3-0.9c-2.6,0-4.9,0.2-7,0.4C617.8,446.9,615,445,612.1,442.9z M614.8,466.9c-4.7-0.7-8.8-1.3-16-7
					c-7.5-5.9-10.2-13.1-11.1-17.8c11.6,13.2,18.6,12.1,27.9,10.7c3.3-0.5,7.1-1,11.5-1c23.3,0,29.4,19.4,30,21.4
					c0,3.8,0.4,7.1,0.6,9.5c0.1,1.4,0.3,2.6,0.5,3.9c-4.6-5.4-12.9-12.1-26.2-13.7C624.2,468.3,619.2,467.5,614.8,466.9z
					 M622.6,486.6c-13.4,0-21.5,7-25.5,12.1c0.8-4.4,2.7-10.5,7.3-15.3c5.1-5.3,12.4-8,21.8-8c25.2,0,33.8,18.6,34.1,19.4
					c0,0,0,0,0,0c0.8,2.5,1.8,4.7,2.7,6.5c-4.2-1.7-8.6-2.5-12.9-2.5c-2.1,0-4,0.1-5.9,0.4C642.5,496.1,636.1,486.6,622.6,486.6z
					 M543.3,407.4c-0.9,1.5-3.8,7.2-3.8,18.4c0,15.6,10.7,24.5,16.6,28.2c-1.3,0.2-2.9,0.3-4.5,0.3c-8.3,0-14.7-2.6-19-7.6
					c-8.3-9.6-7-25.4-6.7-28.6c3.2-2.2,18.1-13.6,19.9-38c0.3,0.7,0.5,1.3,0.8,2c-0.1,0.4-3.3,9.9-3.3,24.6
					C543.3,406.9,543.3,407.2,543.3,407.4z M523.2,467c-4-3.7-9.8-11.2-9.8-23c0-5.8,1.8-12.6,2.3-14.4c2.4-1.7,4.8-3.9,7-6.5
					c0,3.8,0.3,9,1.8,14.1c-0.6,2-3,10.6-3,17.7C521.5,459.2,522.4,463.8,523.2,467z M523.1,416.7
					C523.1,416.8,523.1,416.8,523.1,416.7c0,0.1,0,0.2-0.1,0.2c0,0.1-0.1,0.4-0.1,0.8c0,0,0,0,0,0c-2.9,4.2-6,7.3-9.2,9.6
					c0,0,0,0,0,0c-6.7,4.7-13.6,5.8-18.4,5.9c-0.1,0-0.1,0-0.2,0c0,0,0,0-0.1,0c-0.5,0-0.9,0-1.4,0c7.5-5.3,12.6-14.8,13.9-17.5
					c9.1-1.6,14.5-5,17.5-8C524.5,411.1,523.9,414.2,523.1,416.7z M510.4,444.5c-5.4,12.5-14.5,14.9-19.2,15.2
					c6.1-8.5,6-19.5,5.7-23.6c4.3-0.3,9.7-1.4,15.1-4.3c-0.7,3.1-1.6,7.8-1.6,12.1C510.4,444.1,510.4,444.3,510.4,444.5z
					 M476.2,266.1c0.9,0,1.8-0.1,2.8-0.4c2.4-0.7,4.4-2.4,6-5c0.7,0.2,1.2,0.3,2.1,0.5c0.7,0.1,1.6,0.3,3.1,0.6
					c0.9,1.2,4.1,5.3,9.1,13.5c1.6,5.8,1.8,13,1.6,18.3c-3.2-6.6-10.6-15.2-26.9-15.2c-7.1,0-7.1-2.7-7.1-3.7c0-2.5,3.1-6.7,5.5-9.3
					C473.3,265.8,474.6,266.1,476.2,266.1z M473.5,262.7c0.1-1.2,0.4-3,1.6-3.8c1.6-1.2,4.4-0.4,6.4,0.4l0.5,0.2c0,0,0.1,0,0.1,0
					c-1.1,1.7-2.5,2.8-4,3.3C476.3,263.4,474.5,263,473.5,262.7z M494.3,262.3c6.8,1.4,15.1,6.2,18.4,11c2.4,3.5,3,7.9,3.1,11
					c-6.4-6.5-12.4-9.9-14-10.7C498.5,268.2,496,264.6,494.3,262.3z M571.4,317.2c-5.1-15.1-10.7-25.1-15.4-31.5
					c-1.1-1.6-4.7-7.3-6.8-14.2c0.1-0.6,0.3-1.9,0.5-3.5c1.6,1.8,4,3.7,7.6,4.8c3.6,7.3,8.2,16.5,10.4,20.6c0.9,1.6,1.8,3.1,2.6,4.6
					c0,0.1,0,0.1,0,0.1C571,303.4,571.3,311,571.4,317.2z M540.9,366.9c0,0-0.1,0.1-0.1,0.1c-3.3,6.3-8.1,12.2-13.3,16.8
					c-0.2,0.1-0.3,0.2-0.4,0.4c-2.4,2.1-4.9,3.9-7.4,5.4c2.6-4,5.8-10.5,8.2-20.4c8.5-8.8,12.7-19,14.2-33.1
					c0.4-3.9,0.5-6.9,0.5-7.9c0.1-0.2,0.3-0.5,0.4-0.9c1.1,4.5,2.5,12.4,2.5,23.1C545.4,355.8,543.6,361.5,540.9,366.9z M543,373.2
					c0.7,22.3-10.2,35-15.9,40.1c2.3-10.5,2.7-24.5,2.7-27.6c4.6-4.2,8.9-9.3,12.2-14.9C542.3,371.6,542.6,372.4,543,373.2z
					 M513.7,392.4L513.7,392.4C513.6,392.4,513.6,392.5,513.7,392.4c-0.2,0.2-0.3,0.3-0.3,0.4c0,0,0,0,0,0c-1.3,2.7-2.8,5.2-4.3,7.4
					c-1.3,0.8-8.6,4.4-22.6,4.7c1.8-1.8,4.1-4.6,6.4-8.8c10.2-4.3,14.4-10.9,15.4-12.8c1.5-0.7,3-1.5,4.5-2.4c4.2-2.6,7.9-5.3,11-8
					C519.5,387,513.7,392.4,513.7,392.4z M515.3,302.3c-1.9-8.6-6.5-17.4-9.8-22.9c8.8,6.2,25.2,21.5,25.2,49.9
					c0,4.9-2.1,11.5-6.1,17.8C525.9,317,517,304.4,515.3,302.3z M518.8,287.2c0.1-2.1,0.2-7.9-2.2-13.1c8.1,2.7,27,11.2,27,31.5
					c0,7.8-1,13.3-2,16.7C539.6,314.4,534.1,299.1,518.8,287.2z M546.5,283.8c0.7,2.5,1,5.1,1.3,7.2c-2.9-3.4-7.6-8-12.9-10.1
					c-2.3-2-4.8-3.7-7.2-5.1c-1.1-2.1-8.9-15.6-21.8-20.9c4.2,0,9.5,0.5,15.3,1.9C532.6,259.7,543.1,270.8,546.5,283.8z
					 M522.3,254.1c6-0.5,11.5,0.7,15.8,3.6c3.9,2.6,6.5,6.4,7.3,10.6c0.6,3,1.5,5.9,2.5,8.4c-0.5-0.4-0.9-0.7-1.1-0.9
					C541.7,265.1,532.6,256.8,522.3,254.1z M522.5,273.2c-4-1.7-7.2-2.6-8.4-2.9c-4.2-5-12.1-9.4-18.9-10.8c0.7-0.9,1.3-2.1,1.5-3.6
					C509.1,256.6,518.2,267.1,522.5,273.2z M548.4,350.4c0-16.1-3-25.9-3.7-28c0.3-1.2,0.6-2.5,0.9-4.1c2,4.8,5.1,12.5,7.9,20.7
					c0.5,1.4,1,2.8,1.4,4.2c0,15.6-2.2,33.8-3.4,42.7c-3-7.6-6.6-16.1-7.6-18.4C546.6,361.9,548.4,356,548.4,350.4z M546.3,312.4
					c0.2-2,0.3-4.3,0.3-6.7c0-6.4-1.7-11.7-4.3-16.1c3.6,3.5,6.1,6.9,6.1,7c0.3,0.4,0.7,0.6,1.2,0.6c0,0,0,0,0,0
					c2.3,8.1,6.1,21.2,8.5,26.7c0.9,2.2,2,4.8,3.1,7.5c1.1,7.4,0.9,17.2,0.5,24.1c-1.4-4.9-3.2-11.3-5.4-17.5
					C551.9,325.6,547.1,314.3,546.3,312.4z M560.8,322.7c-3.2-7.7-9.8-31.6-10.2-33c-0.2-2-0.6-4.4-1.2-6.7
					c-0.1-0.4-0.2-0.7-0.3-1.1c4.2,4.4,10.7,13.2,16.9,28.8c2.1,11.5,1.9,21.9,1.4,28.1C565.5,334.2,562.8,327.5,560.8,322.7z
					 M549.9,262.4c-0.4-5.6-2.4-12.2-9.3-15.1c-0.4-0.3-2-1.3-4.7-2.6c2.5,0.2,5.6,0.8,9.1,2.4c6.9,3.2,8.1,9.4,8.3,13.8
					c0.2,3.2,0.9,5.7,1.7,7.6C551.3,266.3,550.1,263.2,549.9,262.4z M539.3,250c5.8,2.3,7.3,8.3,7.6,13.3c-1.5-3.2-3.9-6-7.1-8.1
					c-6-4-14-5.1-22.5-3.3c-0.8-0.6-1.5-1.1-2.3-1.5C518.2,249,525.5,247.4,539.3,250z M511.8,248.5c-3.4-1.7-6.7-2.7-9.6-3.2
					c0.3-0.5,0.5-1.1,0.9-1.6c11.9-1.9,21.4,0,27.7,2.2C519.3,245,513.8,247.3,511.8,248.5z M512.6,252.3
					c-7.7-0.8-13.5-0.2-16.1,0.2c-0.4-1.4-1.4-3.1-2.9-4.7C497.6,247.5,504.8,247.8,512.6,252.3z M503.5,282
					c4,6.9,9.6,18.1,9.6,27.3c0,3.8-0.2,7-0.5,9.6c-1.9-10.5-7.4-16.4-9.2-18.1C503.7,298.2,504.4,290.1,503.5,282z M513.1,329.8
					c0.6-1.3,2.9-6.9,3-20c3.1,6.8,6.9,20,5.2,42.1c-7.5,9.6-19.1,17.6-33.6,17.6c-15.8,0-25.8-5.6-31.3-10c5,1.6,11.2,2.7,19.1,2.7
					C501.7,362.1,511.6,342.1,513.1,329.8z M500.1,370.6c21.1-6.5,33.5-28.4,33.5-41.3c0-12.5-3.1-22.6-7.3-30.7
					c11.4,13.8,13.1,28.6,13.2,29.1c0,0.4,0,3.7-0.4,7.9c-1.5,13.8-5.4,23.4-13.7,31.8c0,0-0.1,0-0.1,0.1
					c-3.8,3.8-8.4,7.3-14.2,10.9c-11.6,7.2-25.3,7.6-32.9,7c6.9-3.1,10.4-6.6,11.3-7.6C495.9,375,499.1,371.7,500.1,370.6z
					 M471.6,384.9c-0.6,0.2-1.1,0.8-1,1.5c0,0.7,0.5,1.2,1.2,1.4c0.4,0.1,4.9,0.9,11.3,0.9c5.6,0,12.8-0.7,20-3.2
					c-3.7,4.3-12,10.8-27.8,11.3c-22.1,0.8-35.8-3.3-42.2-5.9c11.4-2.2,21.2-7.1,23.2-8.2c1.9,0.1,3.9,0.2,6,0.2
					c7.4,0,13.4-0.8,18.4-2.1C478.3,382.3,475.3,383.7,471.6,384.9z M427.9,388.7c-0.6,0.1-1.1,0.5-1.3,1.1
					c-0.1,0.6,0.1,1.3,0.6,1.6c0.2,0.1,1.7,1,4.5,2.2c-1.5,1.1-4,2.6-7.5,4.4c-16.1-0.9-27.3-8.1-33.3-13.2
					c13.7,4.1,29.9,1.1,32.5,0.6c3.7,0.9,7.8,1.5,12.2,1.9C433,387.9,430.5,388.4,427.9,388.7z M405.1,396.9c4,1.6,8.5,2.9,13.6,3.6
					c-4.2,1.7-9.5,3.5-15.8,5c-0.6,0.1-1,0.6-1.1,1.2c-0.1,0.6,0.2,1.2,0.7,1.5c0.2,0.1,3.5,2,10.2,3.7c-2.2,0.9-6,1.8-12.4,1.8
					c-2.5,0-4.7-0.4-6.6-0.9c-0.1-0.1-0.1-0.1-0.2-0.2c-0.3-0.2-0.6-0.2-0.9-0.2c-4.1-1.5-6.7-3.8-8.1-5.5
					C398.3,404.2,403.4,399.3,405.1,396.9z M407.7,407.3c16.8-4.6,24.9-10.5,27.2-12.4c6.7,2.3,17.9,5,34.1,5
					c-3.3,3.9-12.4,11.7-32,11.7C422.2,411.6,412.6,409.1,407.7,407.3z M466,406.7c3.9-2.8,6-5.6,6.9-6.9c0.8,0,1.6,0,2.4,0
					c5-0.2,9.4-0.9,13.1-2c-3.8,5.7-7,7.3-7,7.3c-0.6,0.3-1,1-0.9,1.7c0.1,0.7,0.7,1.2,1.4,1.2c0.9,0,1.8,0,2.6,0
					c9.6,0,16.3-1.5,20.6-2.9c-5,5.7-9.7,8.8-9.8,8.9c0,0,0,0-0.1,0c0,0,0,0,0,0c-0.1,0.1-11,8.4-27.8,8.4c-8.9,0-15-0.8-18.8-1.7
					C459.5,416.9,464.9,408.6,466,406.7z M467.5,425.4c5.9,0,11.1-1,15.5-2.3c-1.8,3.4-5.7,9.1-13.2,13.8c-0.1,0.1-0.2,0.1-0.3,0.2
					c-5.4,3.3-12.7,6-22.3,6.9c4.9-3.9,13.2-11.2,17.8-18.7C465.7,425.3,466.6,425.4,467.5,425.4z M471.6,439.1
					c10.1-6.5,14.2-14.9,15.3-17.3c5.3-2,8.7-4.3,9.8-5.1c0.1,0,0.3,0,0.4,0c2.5,0,4.7-0.2,6.8-0.4c-2.4,4.4-8.2,13.6-15.7,16.6
					c-0.6,0.2-1,0.9-0.9,1.5c0.1,0.7,0.5,1.2,1.2,1.3c0.1,0,2.2,0.4,5.4,0.5c0.1,1,0.1,2.5,0,4.4c-1.6,1.8-10.5,10.1-29.8,10.3
					C466.5,448.5,469.8,444.3,471.6,439.1z M500.7,413.6c2.8-2.4,6.8-6.2,10.5-11.4c0,0,0.1-0.1,0.1-0.1c1.6-2.2,3.1-4.7,4.4-7.4
					c3.6-1.3,7.4-3.5,11-6.4c-0.1,3.2-0.4,8.2-0.9,13.6C525.2,403.2,520.3,412.6,500.7,413.6z M562.6,390.7
					c-2.5,6.6-4.6,12.3-4.6,18.8c0,12.4,7.5,19.7,12.8,23.2c-4.8-0.3-11.7-1.6-16.9-6.2c-5-4.4-7.6-11.2-7.6-20
					c0-9,1.3-16.1,2.2-20.1c0.8,2,1.6,3.9,2.2,5.7c0.2,0.6,0.8,1,1.4,1c0.1,0,0.1,0,0.2,0c0.7-0.1,1.2-0.6,1.3-1.2
					c0-0.2,3.2-20.3,4.1-39.8c2.1,7.1,3.4,12.5,3.4,12.6c0.2,0.7,0.8,1.1,1.4,1.1c0,0,0.1,0,0.1,0c0.7,0,1.3-0.6,1.4-1.3
					c0.1-0.6,1.3-12.4,1-23.8c1.1,2.8,1.9,4.8,1.9,4.8c0.2,0.6,0.8,0.9,1.4,0.9c0.1,0,0.1,0,0.2,0c0.5-0.1,0.9-0.4,1.2-0.8
					c0.3,2.6,0.5,5.3,0.5,7.8C570,370.9,565.9,381.9,562.6,390.7z M575.3,376c-2.7,3.4-3.6,7.9-3.8,11.5c-1.7-5.2-1.1-11-1.1-11.2
					c1.5-6.3,2.6-13.7,2.6-22.8c0-8.1-2-18.5-2.4-20.2c0.1-2.8,0-5.9-0.2-9.4c0.4,1.3,0.8,2.7,1.2,4.1c0.2,0.7,0.8,1.1,1.4,1.1
					c0.1,0,0.1,0,0.2,0c0.3,0,0.5-0.2,0.7-0.3c0.5,2.9,1,6.6,1,11.2c0,9.2,1.4,16.4,4.1,21C579.1,362.7,579.2,371,575.3,376z
					 M583.8,348.8c0,6.2,0.9,11.6,1.6,14.7c-4.8-2.8-7.5-11.1-7.5-23.5c0-12.3-2.9-18.8-3.5-20c-0.1-5-0.3-11.5-0.6-17.1
					c1.4,1.8,2.8,3.4,4.2,4.8C581.9,315.4,583.8,329.2,583.8,348.8z M580.2,296.7c1,4.7,3.1,9.5,4.6,12.7c-1.5-0.9-3-2.1-4.4-3.5
					c-0.1-0.1-0.2-0.2-0.3-0.3c-3.3-3.3-6.6-7.8-9.7-13.6c-2.2-4.2-7-13.8-10.6-21.1c0-0.1-0.1-0.1-0.2-0.2c0,0,0-0.1,0-0.1
					c0,0-3-3.5-3.4-9.8c1.5,1.3,3.6,2.6,6.4,3.5C572.6,275.6,579,291,580.2,296.7z M557.3,252.2c1.1,2.1,2,3.9,3.2,5.1
					c1.9,2,4.4,3.7,6.6,4.9c-9-1-11.6-6.6-12-7.7c-1.2-3.5-3.6-7.6-8.9-10c-8.5-4-15.1-2.7-17-2.3c-2.6-0.8-5.6-1.5-9-1.9
					c2-1.1,4.9-2.5,8.6-3.9C548,234.2,553.6,245,557.3,252.2z M536.5,231.1c-12.3,2.8-19.5,7.5-21.3,8.8c-3.1-0.1-6.3,0-9.9,0.4
					c1.9-2.3,4.1-4.4,6.4-6.3C520.1,230.2,529.8,230.3,536.5,231.1z M511.4,230.4c-3.8,3-7.7,6.7-10.4,10.9
					c-0.2,0.2-0.4,0.5-0.5,0.8c-0.5,0.9-1,1.9-1.4,2.8c-2.2-0.2-4.1-0.2-5.6-0.1C495.9,241.6,501.3,235.5,511.4,230.4z M495,233.4
					c-2.8,4.6-4.5,9.1-5.4,11.5c-1.4-0.7-3.2-1.3-5.3-1.6C487.5,237.7,491.9,234.8,495,233.4z M482.1,246.1
					C482.1,246.1,482.1,246.1,482.1,246.1c4.6,0,7.5,1.9,9.1,3.4c1.8,1.8,2.6,3.8,2.6,4.7c0,3.5-2.1,4.5-2.8,4.7
					c-1.7-0.4-2.7-0.5-3.4-0.7c-1.1-0.2-1.4-0.3-2.5-0.7c0,0-0.1,0-0.1-0.1c-0.1-0.1-0.2-0.1-0.4-0.1c-0.4-0.2-0.8-0.3-1.4-0.6
					l-0.5-0.2c-4-1.7-7.2-1.7-9.3-0.1c-0.5,0.4-0.9,0.8-1.2,1.3c-1-2.7-2.5-5.7-5.1-7.6C469.6,248.6,474.8,246.1,482.1,246.1z
					 M464.2,251.9c4.4,2.1,5.9,9.1,6.3,11.3c-0.1,0.1-0.2,0.2-0.3,0.3c-6.8,7.3-17.3,14.1-21.2,16.5c-1.9-4.9-5.9-7.3-9-8.3
					C449.8,258.1,461.6,252.9,464.2,251.9z M438.5,274.4c2,0.4,6.1,2,7.9,6.9c-1.3,0.4-3.8,0.7-6.9,0
					C438.9,280.4,437.6,278,438.5,274.4z M464.9,304.6c-18,9.7-28.9,15.1-42.1,15.1c-13,0-15.7-7-15.7-12.8c0-6.1,1.5-10.5,4.5-13
					c2-1.7,4.4-2.2,6.2-2.3c-1.4,2.1-3,5.4-3,10c0,11.5,10.5,11.5,14,11.5c13.1,0,25.6-6.3,36.6-11.9c8.8-4.5,17.1-8.6,24-8.7
					c1.1,1.1,2,2.4,2.8,4C488.1,296.4,478.5,297.3,464.9,304.6z M468.4,327.1c-0.7,0.1-1.4,0.5-1.5,1.3c-0.1,0.7,0.3,1.4,1,1.7
					c3.9,1.2,10.2,0.5,14.2-0.1c-2,2.1-5.9,4.5-12.8,4.5c-6.2,0-15.7-4.2-15.7-10.4c0-4.4,1.4-6.6,2.3-7.6c1.5,1,4.8,2.4,10.8,2.4
					c13.2,0,23.5-8.2,28-12.4c0,0.5,0.1,0.9,0.1,1.4c0,2-0.1,3.9-0.3,5.7C482.8,327.1,468.5,327.1,468.4,327.1z M497.2,314.7
					c0.1-0.2,0.1-0.4,0.1-0.6c0.2-2,0.4-4.1,0.4-6.3c0-1.7-0.1-3.3-0.4-4.8c0-0.1,0-0.2-0.1-0.4c-2.8-18.2-20.1-19.2-23.8-19.2
					c-5.2,0-8.5,3.1-11.9,6.3c-4,3.7-8.1,7.6-16.1,7.6c-2.6,0-4.4-0.7-5.5-2.3c-2-2.8-1.1-7.9-0.3-10.7c5.5,1.1,9.1-0.7,9.3-0.8
					c0,0,0,0,0.1,0c0,0,0,0,0,0c0.4-0.3,7.8-4.6,15.2-10.6c-0.2,0.6-0.3,1.2-0.3,1.8c0,3,1.7,6.7,10,6.7c23.6,0,26.3,19.2,26.4,20.1
					c0,0.3,2.4,23.3-9.3,36.3c-2.8,3.2-6.3,5.4-10.4,6.9C487.1,339.8,495.3,330.5,497.2,314.7z M441.5,344.9
					c4.8,1.8,14.4,4.6,27.9,4.6c1,0,2-0.1,3-0.1c0,0,0,0,0.1,0c0,0,0.1,0,0.1,0c8.6-0.6,15.6-3.8,20.8-9.6
					c9.5-10.6,10.4-26.8,10.2-34.4c2.8,3.6,6.8,10.6,6.8,21.2c0,6.9-5.9,32.6-34.9,32.6c-11.5,0-19.3-2.4-24.6-5.4
					c-0.1-0.1-0.2-0.2-0.4-0.2C445.6,350.7,442.9,347.4,441.5,344.9z M421.7,357.3c3.1,1.8,8.5,3.7,17,3.7c6,0,11.1-1.2,13.1-1.7
					c4.9,4.9,16,13.2,36.1,13.2c2.1,0,4.2-0.2,6.2-0.5c-5,3.4-14.8,8-31.7,8c-16.9,0-26.9-5.1-32.9-10.9c-0.1-0.2-0.3-0.4-0.5-0.5
					C424.8,364.6,422.7,360.3,421.7,357.3z M427.6,371.4c4.9,4.7,12.2,8.9,23.1,10.7c-1.8,0.8-4,1.7-6.6,2.6c-0.1,0-0.2,0-0.3,0
					c-22.7,0-37-7.9-43.5-12.6C410.8,373.2,424.6,371.8,427.6,371.4z M334.3,246.5c1-0.2,2.2-0.4,3.5-0.4c8.4,0,13.1,9,14,10.8
					c-0.2,1-1.5,2.4-5.6,2.4c-1,0-2.2-0.1-3.5-0.3C342.6,256.2,341.4,249.6,334.3,246.5z M299.6,266.9c-3.3,0-5.8,1.4-7.6,3
					c0.4-1.5,1.1-3.1,2.3-4.5c2.1-2.3,5.3-3.5,9.6-3.5c4.4,0,5.9,0.4,6.2,0.6c0.4,0.6,2.8,4.1,1.1,6c-1,1.2-2.5,1.7-4.3,1.7
					c-0.6,0-1.1-0.1-1.5-0.1C304.9,268.8,303.1,266.9,299.6,266.9z M285.1,288.6C285.1,288.6,285,288.6,285.1,288.6
					c-0.9-0.3-1.9-0.5-3.1-0.5c-2.8,0-4.3,1.2-5.1,2.2c-1.4,1.7-1.7,4-1.6,5.9c-0.7-0.9-1.3-2.6-1.3-5.4c0-7.2,5.6-10.2,8.4-10.2
					c5.2,0,7.2,1.6,7.2,1.5c0.8,0.9,2.9,3.8,2.3,5.7c-0.6,1.9-2.6,2.3-3.7,2.4c-0.5-0.5-1.4-1.1-2.7-1.6
					C285.3,288.6,285.2,288.6,285.1,288.6z M293.2,318c-0.2,0-0.4,0-0.6,0c-4.6,0-7.4,2.3-7.4,6.1c0,1.8,0.5,3.2,1.1,4.3
					c-3.2-0.5-6.8-2.3-6.8-7.7c0-8.9,11.5-10.1,11.8-10.1c0,0,0,0,0,0s0,0,0,0c0.5,0,4.1,0.2,4.1,3.5
					C295.5,315.5,294.1,317.1,293.2,318z M331.6,328.9c-0.2-0.7-0.9-1.1-1.6-1c-0.3,0-25.7,2.9-34.3-8.2c1.1-1.2,2.8-3.3,2.8-5.7
					c0-4-2.9-5.7-5.4-6.2c0.1-0.2,0.2-0.5,0.5-0.7c1-1.3,3.8-3.5,11.5-4.5c7.1,11.6,9.3,11.7,10.2,11.7c0,0,0,0,0,0
					c0.8,0,1.3-0.4,1.6-0.8c0.4-0.7,0.2-1.6-0.5-2.1c-0.4-0.2-0.8-0.3-1.2-0.2c-0.7-0.4-3.1-2.4-8.8-12.1c-2.4-4.1-6.4-3.4-10.2-2.8
					c-1.6,0.3-3.2,0.5-5,0.5c-2.1,0-3.5-0.5-4.3-1.4c-0.6-0.7-0.8-1.7-0.8-2.9c0.1,0.1,0.2,0.2,0.2,0.2c0.3,0.4,0.8,0.6,1.3,0.6
					c0,0,0,0,0,0c2.6,0,6-1.2,7-4.5c0.9-2.9-0.9-6-2.1-7.6c0.9-0.9,2.7-2.2,6.1-2.2c1.4,0,2.2,0.1,3,0.4c0.1,0.1,0.1,0.3,0.2,0.4
					c1,2,2.2,2.8,4,4c1.3,0.9,3,2,5.4,4.1c5.3,4.7,9.7,11.8,9.7,11.9c0.3,0.5,0.8,0.7,1.3,0.7c0.3,0,0.5-0.1,0.8-0.2
					c0.7-0.4,0.9-1.3,0.5-2c-0.2-0.3-4.6-7.6-10.3-12.6c-2.5-2.2-4.3-3.4-5.7-4.3c-1.6-1.1-2.3-1.6-3-2.8c-1.7-3.4-0.3-5,0.5-5.5
					c0.5,0.1,1.3,0.2,2.2,0.2c2.6,0,4.9-0.9,6.5-2.7c2.5-2.9,0.9-6.7-0.2-8.6c1.2-0.8,3.5-2,6.2-2c3.6,0,10.3,0,14.8,13.4
					c-0.2,4,0.3,8.1,2.3,10.8c2.8,3.9,10.1,11.6,10.4,11.9c0.3,0.3,0.7,0.5,1.1,0.5c0.4,0,0.7-0.1,1-0.4c0.6-0.6,0.6-1.5,0.1-2.1
					c-0.1-0.1-7.4-7.8-10.1-11.6c-3-4.1-1.5-14.3,0.1-18.8c0.5-1.3,0.9-1.6,1.1-1.7c0.2-0.1,0.3,0,0.4,0c0.1,0,0.1,0,0.2,0.1
					c0.1,0,0.1,0.1,0.2,0.1c1.9,0.3,3.7,0.5,5.2,0.5c3.3,0,5.7-0.8,7.2-2.3c1.4-1.5,1.4-3.2,1.4-3.4c0-0.2,0-0.4-0.1-0.5
					c0,0,0-0.1-0.1-0.2c0.4-0.1,0.9-0.1,1.6,0c1.9,0.4,3.9,2.4,5.6,5.6c4.8,9,9.6,14.5,12.7,18.2l0.8,1c2.6,3.1,2.8,5.3,1.4,14.7
					c-1.4,9.1-1.6,16.8-1.6,23.1c0,18.4,16,41.6,40.6,50.8c-6.7,0.3-14.7,0.3-20-0.9c-0.6-0.2-1.3,0.1-1.6,0.7
					c-0.3,0.6-0.2,1.3,0.2,1.8c0.4,0.5,7.6,7.7,22.1,12.6c-8,0.8-21.5,1.2-31-4.2c-0.6-0.4-1.4-0.2-1.9,0.3
					c-0.5,0.5-0.5,1.3-0.1,1.9c0.4,0.5,6.7,8.6,18.9,14.3c-1.6,1.8-5.6,5.3-15.2,7.6c-2.1-3.7-10-16.6-26.4-28.9
					C342.3,360.6,331.7,329.2,331.6,328.9z M329,364.4c10,4.1,18.7,4,21,3.9c2.7,3.2,5.7,6.1,8.9,8.5c11.3,8.5,18.5,17.3,22.4,23
					c-0.7,0.3-1.3,0.6-2.1,0.9C351.2,390.4,335.2,372.7,329,364.4z M361,406.2c5.7,0.1,15.1-0.3,22-3.9c0.4,0.7,0.8,1.3,1.1,1.7
					c-0.7,0.1-1.5,0.3-2.3,0.4c-0.5,0.1-0.9,0.4-1.1,0.8c-0.2,0.4-0.2,0.9,0,1.4c0.2,0.3,2.9,5.3,9.6,8.2c-0.2,0.3-0.4,0.6-0.7,0.9
					C386.9,415.8,375.1,415.9,361,406.2z M280.2,466.3c-0.7,2.8-0.3,5.1,0.4,6.8c-2.4-0.7-5.3-2.4-5.3-6.5c0-5.8,3.6-8.5,4.9-9.3
					c3.2,0.7,4.8,2.4,5.6,3.6C283.8,461.5,281,463,280.2,466.3z M292.7,489.1c0,3,2.1,5.1,4.2,6.4c-0.3,0-0.7,0-1,0
					c-6,0-8.9-2.7-8.9-8.4c0-5.6,3.8-7.8,4.8-8.3c2,0.2,3.4,0.9,4.2,1.9c0.7,0.9,0.8,1.9,0.9,2.6
					C295.1,484.1,292.7,485.7,292.7,489.1z M331.4,497.7c-1.5,1-3.5,2-5.8,2c-2.9,0-9-1.8-9-7.3c0-6.4,3.1-8.4,3.1-8.4
					c3.5-1.3,6-0.8,7.8,1.7c-1.3,1.3-3.3,3.9-2.4,7.1C326,495.7,329,497.1,331.4,497.7z M353.6,457.2c-0.5,0-1,0.3-1.2,0.8
					c-0.1,0.1-5.9,11.7-10.7,17.7c-5.2,6.7-9.8,8.2-11.5,8.6c-1.8-2.7-4.2-4-7.1-4c-1.4,0-2.9,0.3-4.6,1c-0.1,0-0.7,0.4-1.5,1.3
					c-0.9-0.9-2.2-2.8-2.2-6.6c0-4.6,1.4-5.9,5.2-9.2c1.2-1,2.5-2.2,4-3.7c6.6-6.5,9.7-11,9.8-11.2c0.5-0.7,0.3-1.6-0.4-2.1
					c-0.7-0.5-1.6-0.3-2.1,0.4c0,0-3.1,4.5-9.5,10.7c-1.5,1.5-2.8,2.6-3.9,3.6c-3.9,3.4-6.2,5.5-6.2,11.5c0,0.5,0.1,1,0.1,1.4
					c-2.1,4.9-8.9,5.7-11.9,5.7c-0.1-1.1-0.4-2.7-1.5-4.1c-1.4-1.8-3.7-2.9-6.7-3.1c-0.2,0-0.4,0-0.6,0.1c0,0,0,0,0,0
					c-0.6-1.2-1.2-3.5,0.3-7c1.9-4.5,3.8-5.6,7.4-7.8c0.9-0.5,1.8-1.1,2.9-1.8c2.6-1.7,4.4-3.5,6-5.1c2.3-2.3,4.2-4.1,7.7-4.8
					c0.8-0.2,1.3-0.9,1.2-1.7c-0.2-0.8-0.9-1.3-1.7-1.2c-4.4,0.9-6.8,3.2-9.2,5.6c-1.6,1.5-3.2,3.1-5.5,4.7c-1,0.7-2,1.2-2.8,1.7
					c-1.1,0.6-2,1.2-2.9,1.9c-2.3,0.8-4.4,0.4-5.3,0.2c-0.7-1.6-2.7-5-7.8-6.2c-0.4-1.6-1-5.8,2.5-8.6c5.2-4.1,10.4-6.9,18.5-7.4
					c8.8-0.5,18.1-5.3,18.4-5.5c0.7-0.4,1-1.3,0.6-2c-0.4-0.7-1.3-1-2-0.6c-0.1,0-9.1,4.7-17.2,5.1c-2,0.1-3.8,0.4-5.6,0.7
					c-2-0.7-3.1-3.8-3.4-5.6c1.4-1.8,2.8-5.4,0.5-9.5c1.7-4.4,10.6-5.9,14.6-5.9c8,0,15.4,2.2,23.9,4.7c11.2,3.3,23.9,7,41.8,7
					c10.6,0,17.2-8.2,19.3-11.3c2.1,0.6,4.4,0.9,7,0.9c10.8,0,15.1-2.5,16.7-3.8c5.2,1,11.9,1.8,20.2,1.8c9.5,0,16.7-1.8,22.1-4.1
					c-3.4,3.4-8.8,7.4-16.4,8.6c-0.6,0.1-1.1,0.6-1.2,1.3c-0.1,0.6,0.3,1.3,0.8,1.6c0.1,0.1,1.5,0.7,4.2,1.3
					c-4.5,2.3-8.4,5.2-11.7,8.4c-2.5,0.1-13.8,0.9-24.7,5.1c-1.9,0.7-3.6,1.5-5.2,2.4c-1.6-0.3-7-1.2-12.1-0.3
					c-10.5,1.7-17.5,7-21,12.5C370,452.5,362.2,456.5,353.6,457.2z M376.8,457.4c-3,4.1-4.9,6.5-7.7,7.7c1.3-2,2.7-4.9,3.7-8.3
					c0.3-1.1,0.8-2.2,1.5-3.3c0.2-0.2,0.3-0.4,0.4-0.7c3.1-4.7,9.5-9.4,18.8-11c2.7-0.4,5.5-0.3,7.6-0.1c-3.2,2.3-5.8,5-8,8.2
					C390.5,450.3,380.9,452,376.8,457.4z M403.3,460.4c-4.7,6.4-9.1,8.3-18.3,11c2-2.8,4.6-7,6.7-12.3c3.9-9.9,9.6-15.6,19.6-19.4
					c7.8-3,15.9-4.2,20.5-4.7c-3.1,3.5-5.6,7.2-7.6,10.8C421.8,446.8,408.8,452.9,403.3,460.4z M420.5,461.7
					c2.8-9.3,11.1-29.3,31.2-37.5c2.6,0.4,5.9,0.7,9.8,0.9c-6.6,9.7-19.5,19.1-19.9,19.3C441,444.9,433,450.1,420.5,461.7z
					 M481.6,491.4c-8.4-4.6-16.3-9-22.7-14.1c-10.7-8.5-21.4-19.9-24.7-23.4c4.7-3.8,7.7-5.9,8.7-6.6c10.3-0.3,18.3-2.6,24.5-5.7
					c-3,5.8-7.7,9.6-7.8,9.7c-0.5,0.4-0.7,1-0.5,1.6c0.2,0.6,0.7,1,1.4,1c1.1,0,2.2,0.1,3.2,0.1c16.2,0,25.5-5.4,29.9-8.9
					c-0.7,4.9-2.4,10.7-6.5,15.1c-0.4,0.4-0.5,1-0.3,1.5c0.2,0.5,0.7,0.9,1.2,1c0,0,0.6,0.1,1.6,0.1c4,0,14.5-1.2,21.4-12.7
					c2.5,15.2,13.8,22,14.3,22.3c0.2,0.1,0.5,0.2,0.8,0.2c0.3,0,0.7-0.1,1-0.3c0.5-0.4,0.7-1.1,0.5-1.6c0-0.1-2.9-8.3-2.9-15.7
					c0-4.2,1-9.2,1.8-12.8c1.1,2.3,2.4,4.5,4.1,6.5c1.7,2,3.7,3.6,5.9,4.9c1,1.9,6.1,11.3,16.2,21.7c2.3,2.4,4.8,4.9,7.5,7.5
					c6.7,6.7,14,14,20.6,21.6c-5.7-3.1-11.7-4.8-17.1-4.8c-22.9,0-26.3,13.4-29.7,26.4c-1.4,5.3-2.8,10.8-5.6,15.3
					c-1.7,2.7-3.5,5.2-5.2,7.3c0.5-2.5,0.9-5.5,0.9-9.2C523.8,514.7,502.3,502.8,481.6,491.4z M424.7,491.9c1.5-0.2,2.9-0.3,4.3-0.3
					c6.5,0,10.3,1.9,12.3,3.5c-9.2,1.7-36.4,9.6-39.4,44.6c-1.6-3.1-3.6-8.7-3.6-18.1C398.3,505.1,412,493.4,424.7,491.9z
					 M356.4,518.8c2.8-9,11.3-25.8,37.3-30.3c14.8-2.6,21.8-0.1,24.7,1.7c-0.6,0.2-1.3,0.4-1.9,0.7c0,0,0,0,0,0
					c-0.5,0-11.8-1-28.5,5.5c-5.3,2-9.5,4.6-13,7.4h0C374.6,504.1,364.1,510.6,356.4,518.8z M374.1,528c-1,1.6-6.1,9.6-8.8,18.2
					c-0.7-3-1.4-7-1.4-11.3c0-11.8,4.4-27.5,25.3-35.6c9.3-3.6,16.8-4.8,21.6-5.2c-3.8,2.5-7.2,5.7-9.9,9.6
					C396.7,504.2,375.5,508,374.1,528z M383.2,547.1c-4.1-3.4-6.2-9.1-6.2-17c0-17.2,15.4-21.9,21.9-23.1c-1.5,2.8-2.5,5.8-3.1,9.1
					c-2,1.4-8.3,7-8.3,19.7c0,8,2.5,12.4,4.9,14.8C389.7,550.3,386.2,549.6,383.2,547.1z M316.9,574.8c-5.4,0-8.6,2.5-8.6,6.8
					c0,2,0.3,3.9,0.6,5.3c-1.8-1.4-3.9-4-3.9-8.4c0-8.8,8.1-11.7,11.8-11.7c3.6,0,7.7,1,9.5,1.5c0.7,6.5-2,8.2-3,8.6
					C322.3,576.2,319.5,574.8,316.9,574.8z M312.5,622.8c-1.7,3.1-1.8,7.4-1.7,10.2c-1.9-1.6-4.3-4.9-4.3-11.1
					c0-8.9,6.8-12.5,8.7-13.3c5.2,2.2,5.8,5.9,5.8,7.6C319.1,616.9,314.7,618.9,312.5,622.8z M330.9,654.4c0,3.4,1.6,6.1,3.1,8
					c-4.2-0.6-10-3.1-10-12.4c0-6.7,4.7-10.3,7.4-11.8c0.2-0.1,0.3-0.1,0.5-0.3c0.8-0.4,1.3-0.6,1.4-0.6c1.5,0,6.1,0.4,7.4,5.8
					C337.8,644.6,330.9,648.9,330.9,654.4z M368.5,647.5c-1.7,4.3-1.5,8.2-0.9,10.9c-1.8-1.8-3.6-5-3.6-10.9c0-5.3,2.9-8.7,5-10.4
					c0,0,0,0,0,0c0.8-0.7,1.5-1.2,1.9-1.4c0.2,0,0.5,0,0.8,0c2.7,0,4.9,0.5,6.1,1.4c1.2,0.9,1.8,2.1,2.2,3.2
					C375.4,640.5,370.4,642.6,368.5,647.5z M442.9,543.9c0,5.3,1.8,9.6,5.4,12.6c6,5,15.4,5.4,20.9,5c-3.2,2.8-8.8,6.5-15.6,6.5
					c-9.4,0-13.1-3.4-13.8-4.2c-3.2-4.6-5.5-9.6-5.5-15.2c0-9,6.4-12.8,12.3-14.4C444.5,536.3,442.9,539.3,442.9,543.9z M488.9,547
					c-8.7-7.9-18.5-16.8-33.8-16.8c-0.4,0-0.8,0-1.2,0c0,0,0,0,0,0c0,0,0,0,0,0c-14,0.4-22.6,7.3-22.6,18.4c0,6.3,2.5,11.9,6,16.9
					c0,0,0,0,0,0c0,0,0,0,0.1,0.1c3.5,4.9,7.9,9.2,11.9,13c4.6,4.5,8.7,8.4,9.7,11.8c-2.9-1.7-8.4-4-16.1-4
					c-11.4,0-27.7,9.2-36.6,29.3c-8.2,18.7-13.4,24.2-23.2,24.3c-0.4-1.5-1.3-3.9-3.6-5.5c-2.2-1.6-5.5-1.9-7.8-1.9
					c-0.8,0-1.4,0-1.4,0c-0.2,0-0.4,0.1-0.6,0.2c-0.1,0.1-0.9,0.5-2.1,1.4c-1.1-0.5-3.7-2-3.7-7.3c0-7.4,4.9-13.4,13.8-16.8
					c5.2-2,6.7-4.8,7.8-7c1.1-2,1.7-3.3,5.1-3.8c0.8-0.1,1.4-0.9,1.2-1.7c-0.1-0.8-0.9-1.4-1.7-1.2c-4.9,0.8-6.1,3.1-7.3,5.3
					c-1,2-2.1,4-6.3,5.6c-10,3.8-15.7,11-15.7,19.6c0,1.9,0.3,3.4,0.7,4.8c-0.8,1.7-3.6,7.2-7.7,9.3c-3.8,1.9-8.4,1.7-10.4,1.6
					c-1.8-7.8-8.9-8.2-10.4-8.2c0,0-0.3,0-0.4,0c-0.1,0-0.3,0-0.4,0.1c0,0-0.7,0.3-1.6,0.7c-1.1-0.5-4.2-2.4-4.2-8.7
					c0-2.6,0.2-5,0.8-7.2c0-0.1,0-0.1,0-0.1c0,0,0,0,0,0c1.3-4.7,4.5-8.3,11.6-10.8c2.9-1,5.8-1.8,8.5-2.5c7.6-2,14.1-3.8,18.7-10.3
					c0.5-0.7,0.3-1.6-0.3-2.1c-0.7-0.5-1.6-0.3-2.1,0.3c-4,5.6-9.8,7.2-17.1,9.1c-2.8,0.7-5.7,1.5-8.7,2.6
					c-7.9,2.8-11.5,7-13.2,11.8c-0.4-0.1-0.6-0.2-0.9-0.3c0.3-3-0.9-8.3-7.5-11.1c-0.3-1.2-0.7-3.6-0.7-5.9
					c0-2.8,4.3-11.9,13.7-11.9c9.2,0,11.6,3,11.6,3c0.5,0.7,1.4,0.9,2.1,0.4c0.7-0.5,0.9-1.4,0.4-2.1c-0.3-0.4-3.2-4.3-14-4.3
					c-1.2,0-2.4,0.1-3.5,0.4c-0.8-2.1-1.1-4.6-1.2-6c0.8-0.4,1.8-1,2.7-2.2c1.7-2.2,2.3-5.5,1.8-9.7c1.2-1.2,5.7-5.1,13.7-5.1
					c6.1,0,8.5,3.3,11.9,7.8c4.9,6.6,11.1,14.9,31.6,14.9c13.7,0,18.6-7.4,18.6-13.8c0-7.7-5.8-14.3-9.7-17.9c1.2-0.1,2-0.2,2.1-0.2
					c0.7-0.1,1.2-0.7,1.2-1.4c0-0.7-0.4-1.3-1.1-1.5c-0.3-0.1-7-2.1-7-14.6c0-8,2.7-12.7,4.9-15.2c0,0.3-0.1,0.6-0.1,1
					c0,17.8,6.6,23.3,6.9,23.5c0.3,0.2,0.6,0.3,0.9,0.3c0.2,0,0.4,0,0.6-0.1c0.5-0.2,0.8-0.7,0.9-1.3c1.2-42.5,37.2-46.1,39.7-46.3
					c2.3,0.2,44.1,4.6,63.4,24.3c1.6,3.2,2.5,5.9,2.2,7.5c-2.5-0.2-8.3-0.3-12.3,2.7c-2.2,1.6-3.4,3.9-3.8,6.7
					c-0.7,5.3,0.2,10.6,2.4,14.6C493.9,551.6,491.5,549.4,488.9,547z M500.6,554.5c-3.2-3.6-4.6-9.3-3.8-15.3c0.3-2,1.1-3.6,2.7-4.7
					c4-3,11.1-2,11.2-2c0.6,0.1,1.1-0.2,1.5-0.6c1.6-2.4,0.5-6.7-1.8-11.4c0,0,0-0.1-0.1-0.1c-2.1-4.3-5.1-8.9-7.9-12.7
					c10.6,7.9,18.3,17.6,18.3,31.5c0,11-3.4,15.4-4,16c-0.4,0.2-1.2,0.8-2.6,2c-1.3,0.5-3.2,0.9-6.1,0.9
					C505.3,558.1,502.7,556.8,500.6,554.5z M460.5,636.5c-2.4,0-4.1-0.8-5.4-1.8c1.3,0.1,2.7,0.1,4.1-0.4c3.9-1.3,6.9-5.2,8.9-11.6
					c8.1-25.3,16.8-44,32.7-54.9c-4.4,4.6-9.5,10.8-14.4,19.2c-6.3,10.6-9,22.9-11.9,36c-0.1,0.3-0.2,0.7-0.2,1
					c-0.1,0.1-0.2,0.2-0.2,0.3C474.1,624.4,469.2,636.5,460.5,636.5z M486,639c-0.1,0.2-0.1,0.3-0.1,0.5c0,0.2,0.8,23.1-24.4,29.4
					c-4.8,1.2-8.5,0.7-10.9,0.1c5.6-2.7,16.6-9.5,21-22.5c2.5-7.5,4.2-15.3,5.9-22.9c2.8-12.8,5.5-24.9,11.6-35.1
					c5.7-9.7,11.7-16.5,16.5-21c-3.3,4.8-7.1,11.4-11.1,20.3C485.6,607.6,485.6,623,486,639z M493.8,672.3
					c-3.7,3.2-8.3,4.8-13.8,4.9c3.9-3.4,9.2-10.7,9.2-25.2c0-3.8-0.1-7.4-0.2-11c-0.4-16.4-0.8-31.9,8.2-52.1
					c4.8-10.8,9.4-18.1,13.1-22.9c-6.8,12.1-15.2,31.8-15.2,55.3c0,12.9,2.9,23.1,8,29.3C502.9,653,501.8,665.3,493.8,672.3z
					 M528,646.8c0,0,0,0.1,0,0.1c-0.5,1.4-1.1,2.7-2,3.8c-2,2.5-5.1,3.8-9.2,3.8c-13.7,0-18.6-17.9-18.6-33.2
					c0-22.5,8-41.5,14.5-53.3c-3.9,11.1-8.4,27.6-9.4,45.7c-0.6,10.2,1.6,18.4,6.1,23.1c2.6,2.7,5.8,4.1,9.5,4.1
					c4.5,0,7.8-1.3,10.2-3.8C529.1,639.8,529,643.5,528,646.8z M527.4,634.4c-1.7,2.3-4.6,3.5-8.7,3.5c-2.8,0-5.3-1.1-7.3-3.2
					c-3.8-4.1-5.8-11.7-5.2-20.9c0.8-15.3,4.3-29.5,7.6-40c-1.8,9.2-3.4,19.9-3.4,28.5c0,15.4,1.6,25.7,9.3,25.7
					c4.4,0,7.4-2.4,9.2-4.9C529.5,626.5,529.7,631.2,527.4,634.4z M458.1,734c-0.4-0.1-0.9-0.1-1.5-0.1c-2.5,0-4.6,1.1-5.8,3
					c-1.6,2.6-1.5,8-1.2,11.4c-1.9-1.5-4.2-4.6-4.2-10.5c0-8.6,6.7-14,8.6-15.4c1.7,0.4,6.5,1.9,6.5,5.1
					C460.6,730.8,459,733.1,458.1,734z M475.1,770.6c-1.5,4.1-0.5,9.3,0.5,12.5c-3.6-1.5-9.6-5.1-9.6-13.3c0-7.7,4.4-12.7,5.8-14
					c8.4,0.9,11,4.6,11.7,6.4C481.3,763.3,476.8,765.9,475.1,770.6z M509.5,786.7c0,4.6,1.7,8.6,3.3,11.3c-5.3-1.6-9.3-4.4-11.7-8.3
					c-4.6-7.5-2.4-17-1.9-18.6c0.5-0.6,2.5-2.9,6.8-2.9c0.7,0,1.5,0.1,2.2,0.2c4.9,0.8,6.5,3.6,7,5
					C513.4,774.8,509.5,778.7,509.5,786.7z M552.5,782.6c0.9,0,1.8-0.1,2.6-0.2c-2.1,2.2-5.4,4.8-9.9,4.8c-4.3,0-7.6-1.4-9.8-4.1
					c-5.2-6.5-3.4-18.6-2.9-21.4c2.2-1.4,4.3-2.1,6.2-2.1c3.5,0,5.5,2.5,6.3,3.6c-1.2,2.3-4.1,9.4-1.1,15
					C545.4,781.1,548.3,782.6,552.5,782.6z M572.6,612.4c4.7,0,8.4-1.5,11-4.4c3-3.4,3.8-7.9,4.1-11.1c2.8,4,6.3,12.1,0.2,24.1
					c-3.6,2.6-7.2,4.7-11.7,4.7c-6.6,0-17-5.6-17-20.6c0-0.7,0-1.3,0.1-2c0.5,1.4,1.1,2.8,1.9,4
					C563.7,610.6,567.5,612.4,572.6,612.4z M586.2,568.1c-4.3,0.6-19.4,3.6-26.4,18.7c0,0.1-0.1,0.1-0.1,0.2c0,0.1,0,0.1-0.1,0.2
					c-2.1,4.7-3.5,10.6-3.5,17.9c0,17.2,12.3,23.5,20,23.5c5.4,0,9.6-2.5,13.6-5.4c0,0,0,0,0,0c0.9-0.7,1.9-1.4,2.8-2.1
					c4.7-3.7,9.2-7.1,15.2-7.1c3.6,0,5.9,1.5,7.3,2.9c-6,0.8-19.4,4.4-23.2,20.8c-3.3,13.9-3.6,30.2-3.8,42.1
					c-0.1,5.5-0.2,9.9-0.5,12.5c-1,7.6-6.1,18.5-13.4,23.8c-13.9,10.1-15.7,14.1-15.7,16.3c0,3.3,1.3,4.8,2.4,6
					c1.1,1.3,2.1,2.4,1.7,6.5c-0.9,8.5-15.3,15.1-16,15.5c-1.5-1.7-4-3.8-7.9-3.8c-2.6,0-5.5,1-8.4,3c-0.3,0.2-0.5,0.5-0.6,0.9
					c0,0.1-0.1,0.4-0.2,1c-2.8-0.5-9.2-2.5-9.2-11.4c0-6.7,1.9-7.8,4.3-9.3c1.9-1.1,4-2.4,5.1-6c2.3-7.1,6.8-12.9,6.8-13
					c0.5-0.6,0.4-1.6-0.3-2.1c-0.6-0.5-1.6-0.4-2.1,0.3c-0.2,0.3-4.9,6.2-7.3,13.9c-0.8,2.5-2.1,3.3-3.8,4.3
					c-2.7,1.6-5.7,3.4-5.7,11.8c0,7.4,3.7,11.1,7.3,12.8c0,0,0,0.1,0,0.1c-0.2,3.7-1.2,6.4-3,8c-1.2,1-2.6,1.4-3.4,1.5
					c-0.7-2.1-2.9-6-9.4-7c-0.9-0.2-1.9-0.2-2.7-0.2c-4.9,0-7.6,2.3-8.8,3.6c-1.8-0.5-6.4-3-6.4-15.5c0-10.7,12.8-17.7,22.1-22.8
					c3.2-1.8,6-3.3,8-4.8c0.7-0.5,0.8-1.4,0.3-2.1c-0.5-0.7-1.4-0.8-2.1-0.3c-1.9,1.4-4.6,2.8-7.7,4.5c-10,5.4-23.6,12.9-23.6,25.4
					c0,3.7,0.4,6.6,1,8.9c-0.8,0.1-1.7-0.1-2.4-0.3c-0.7-2.3-3.6-8-14.9-9.1c-0.6-0.3-4.2-2.3-4.2-9.5c0-9.4,3.8-14.8,12.3-17.4
					c3.6-1.1,6.6-1.8,9.6-2.4c5.2-1.1,9.7-2.1,15.5-5.2c0.7-0.4,1-1.3,0.6-2c-0.4-0.7-1.3-1-2-0.6c-5.4,3-9.7,3.9-14.7,4.9
					c-2.9,0.6-6.1,1.3-9.8,2.5c-8.3,2.6-13,7.9-14.1,16.1c-3.5-0.7-4.4-2.3-4.6-3c1.1-1.2,3.3-4.2,3.3-8.7c0-4.9-5.6-7.1-8.2-7.8
					c0.8-6,7.8-19.1,26.5-19.1c12.6,0,16.5,3.3,19.3,5.7c1.8,1.5,3.4,2.9,6.3,2.9c5.4,0,15-9.3,25.2-19.7c1.7-1.7,3.1-3.2,4.1-4.1
					c5.6-5.3,6.7-10.5,6.7-17.7l0-1.2c0-6.4,0-11.1-6.8-13.2c-4.5-1.4-5.5-5-5.7-6.1c1.8-6,0.8-12.6,0.5-14.3
					c2.2-6.4-0.3-14.3-0.5-14.7c-0.2-0.6-0.7-1.1-1.4-1c-0.7,0-1.2,0.5-1.4,1.1c0,0.1-2,6.6-8.3,6.6c-3.1,0-6.3-2.7-6.3-22.7
					c0-17,6.8-43.9,7.7-47.3c2.3-2.5,6.1-6.9,9.6-12.4c3.1-4.8,4.5-10.6,5.9-16.1c3.3-13,6.2-24.2,26.8-24.2
					c7.6,0,16.9,3.9,24.2,10.8c0.6,0.8,1.2,1.7,1.8,2.5c0.3,0.4,0.7,0.6,1.2,0.6c5.5,6.4,9.4,14.8,9.4,24.7c0,4.3-0.8,7.3-1.2,8.4
					C596.4,550.6,588.7,555.5,586.2,568.1z M623.5,648.3c6.4-6.2,15.6-18,15.6-34.7c0-32.7-41.4-43.4-49.8-45.3
					c2.3-11.1,9-15.3,10.7-16.3c5.4,1.6,52.6,16.9,52.6,52.7C652.6,632.7,634,644.1,623.5,648.3z M674.3,601.2
					c0,10.2-4.1,16.4-7.1,19.5c0.6-7.1,0.1-21.4-13.1-27.2c-1.1-4.1-2.8-7.8-5-11.2c3.9,0,11.3-0.7,18.6-4.2
					C669.5,580.6,674.3,588.5,674.3,601.2z M673.5,570.5c-9.7,8.9-23.5,8.9-26.4,8.7c-3.4-4.7-7.6-8.9-12.1-12.4
					c10.2,1.8,18.4,0.5,24.5-4.1c7.6-5.7,10.3-15.5,10.3-22.7c0-11-4.7-29.5-22.4-29.5c-13.8,0-20,13.7-22.1,20.1
					c-1.1-2.2-2.4-5.9-1.8-10.6c1.2-10.9,11.9-18.1,26.6-18.1c11.7,0,33.7,8.5,33.7,40.7C683.9,554.8,680.4,564.2,673.5,570.5z
					 M692.7,478.3c-5.7,5-9,13-9,22c0,5.1,1.4,8.7,3,12.8c2.2,5.6,4.7,11.9,4.7,24.6c0,11.8-4.2,19.2-8,23.6
					c2.3-5.4,3.5-11.6,3.5-18.9c0-15.8-5.3-27.1-12.9-34.2c-1.6-15.6,3.4-25,8-30.1c5.1-5.7,12.2-9.1,19-9.1c4.9,0,8,1.8,9.7,3.3
					C703.5,472.3,697.4,474.2,692.7,478.3z"/>
			</g>
		</g>
		<g>
			<g>
				<path class="st0" d="M334.9,671.2h2.3c-0.2,1.1-0.4,3.3-0.5,6.5c-0.1,3.2-0.1,6.5-0.1,9.9v6.1c0,3.3,0.2,6.5,0.6,9.7l4.6,0.8
					v0.2h-16.4v-0.3l5.8-0.8c0.2-1.7,0.4-4.1,0.6-7.1c0.1-3,0.2-5.5,0.2-7.3v-5.5c0-1.1,0-2.6-0.1-4.4c-0.1-1.8-0.2-3.3-0.4-4.5
					l-5.5,0.8v-0.2L334.9,671.2z M332.8,703.6h1.5v-31.1l-1.5,0.7V703.6z"/>
				<path class="st0" d="M357.1,671.2c2,0,3.7,0.3,5.2,1c1.5,0.7,2.6,1.7,3.4,2.9c0.8,1.2,1.2,2.6,1.2,4.1c0,1.7-0.6,3.3-1.7,4.7
					c-1.2,1.4-2.8,2.4-4.8,2.9v0.1c2.1,0.9,3.7,1.6,4.9,2.3c1.1,0.6,2.1,1.5,2.9,2.7c0.8,1.1,1.2,2.6,1.2,4.3c0,2.2-0.8,4.1-2.5,5.8
					c-1,1-2.2,1.7-3.6,2.1c-1.4,0.4-3.5,0.7-6.1,0.7c-2.4,0-4.4-0.2-6.1-0.7c-1.7-0.5-3-1.3-4.1-2.3c-1.5-1.5-2.2-3.3-2.2-5.6
					c0-1.3,0.3-2.5,0.9-3.7c0.6-1.2,1.5-2.2,2.7-3c1.2-0.8,2.6-1.4,4.3-1.7c-1.1-0.7-2-1.4-2.8-2.2c-0.8-0.8-1.4-1.7-1.9-2.8
					c-0.5-1-0.7-2.1-0.7-3.3c0-0.9,0.2-1.9,0.5-2.8c0.3-0.9,0.9-1.8,1.7-2.7c0.8-0.8,1.8-1.5,3.1-2
					C353.7,671.5,355.3,671.2,357.1,671.2z M353.4,688.3l-0.2-0.1c-1.5,0.3-2.9,0.8-4.1,1.5c-1.2,0.7-2.1,1.7-2.8,2.8
					c-0.7,1.1-1,2.4-1,3.7c0,1.4,0.4,2.7,1.2,3.9c0.8,1.2,1.9,2.2,3.3,2.9c1.4,0.7,3,1.2,4.9,1.2V704c-1.7-0.2-3.1-0.6-4.3-1.4
					c-1.2-0.8-2.1-1.8-2.7-2.9c-0.6-1.2-0.9-2.3-0.9-3.5c0-1.5,0.5-3,1.6-4.6C349.5,689.9,351.2,688.9,353.4,688.3z M358.8,703.9
					v0.2c2-0.1,3.6-0.5,4.8-1.3c1.2-0.8,2.1-1.7,2.6-2.8c0.5-1.1,0.8-2.3,0.8-3.5c0-1.8-0.6-3.3-1.8-4.5c-0.7-0.7-1.5-1.2-2.4-1.7
					c-0.9-0.5-2.3-1.1-4-1.9c-1.7-0.7-3.1-1.4-4.1-2c-1-0.6-1.9-1.2-2.7-2c-0.8-0.8-1.5-1.7-1.9-2.6c-0.4-0.9-0.7-1.8-0.7-2.7
					c0-0.9,0.2-1.9,0.7-3c0.4-1,1.2-2,2.2-2.7c1-0.8,2.4-1.3,4-1.4v-0.3c-1.2,0-2.4,0.3-3.7,0.9c-1.3,0.6-2.4,1.5-3.3,2.7
					c-0.9,1.2-1.3,2.6-1.3,4.3c0,0.9,0.2,1.8,0.7,2.8c0.4,1,1.1,1.9,1.9,2.7c1,0.9,2,1.7,3.1,2.3c1.1,0.6,2.5,1.3,4.2,2.1
					c1.7,0.8,3,1.3,3.8,1.8c0.8,0.4,1.5,0.9,2.1,1.5c1.1,1.1,1.7,2.5,1.7,4.2c0,1.8-0.6,3.3-1.8,4.6
					C362.4,702.9,360.8,703.7,358.8,703.9z M354.2,688.8c-1.4,0.3-2.5,1.1-3.6,2.4c-1,1.3-1.5,3-1.5,4.9c0,1.4,0.3,2.7,1,3.8
					c0.7,1.1,1.6,2,2.8,2.7c1.2,0.7,2.7,1,4.3,1c1.7,0,3.1-0.4,4.2-1.1c1.1-0.7,1.9-1.6,2.4-2.6c0.5-1,0.7-1.9,0.7-2.7
					c0-1.2-0.3-2.2-0.9-3c-0.6-0.8-1.3-1.4-2.2-1.9c-0.9-0.5-2.1-1.1-3.8-1.8C356.1,689.7,355,689.2,354.2,688.8z M357.2,672.5
					c-1,0-2,0.3-2.9,0.8c-0.9,0.5-1.6,1.2-2.1,2.1c-0.5,0.9-0.8,1.9-0.8,3c0,0.7,0.1,1.4,0.4,2c0.3,0.7,0.7,1.3,1.2,2
					c0.5,0.6,1.3,1.3,2.2,1.9c0.9,0.6,2,1.2,3.2,1.7c1.2-0.3,2.2-1.1,3-2.2c0.9-1.2,1.3-2.6,1.3-4.4c0-2.2-0.5-3.9-1.6-5.1
					C360,673.2,358.7,672.5,357.2,672.5z M358.3,671.8v0.3c1.8,0.4,3.2,1.4,4,2.8c0.8,1.4,1.2,3,1.2,4.6c0,1-0.2,1.9-0.5,2.8
					c-0.3,0.9-0.8,1.7-1.4,2.4c-0.6,0.7-1.5,1.3-2.4,1.7l0.3,0.1c3.7-1.4,5.5-3.7,5.5-7c0-2.1-0.6-3.8-1.9-5.2
					C361.9,673,360.3,672.2,358.3,671.8z"/>
				<path class="st0" d="M385.9,671.2c2,0,3.7,0.3,5.2,1c1.5,0.7,2.6,1.7,3.4,2.9c0.8,1.2,1.2,2.6,1.2,4.1c0,1.7-0.6,3.3-1.7,4.7
					c-1.2,1.4-2.8,2.4-4.8,2.9v0.1c2.1,0.9,3.7,1.6,4.9,2.3c1.1,0.6,2.1,1.5,2.9,2.7c0.8,1.1,1.2,2.6,1.2,4.3c0,2.2-0.8,4.1-2.5,5.8
					c-1,1-2.2,1.7-3.6,2.1s-3.5,0.7-6.1,0.7c-2.4,0-4.4-0.2-6.1-0.7c-1.7-0.5-3-1.3-4.1-2.3c-1.5-1.5-2.2-3.3-2.2-5.6
					c0-1.3,0.3-2.5,0.9-3.7c0.6-1.2,1.5-2.2,2.7-3c1.2-0.8,2.6-1.4,4.3-1.7c-1.1-0.7-2-1.4-2.8-2.2c-0.8-0.8-1.4-1.7-1.9-2.8
					c-0.5-1-0.7-2.1-0.7-3.3c0-0.9,0.2-1.9,0.5-2.8c0.3-0.9,0.9-1.8,1.7-2.7c0.8-0.8,1.8-1.5,3.1-2
					C382.5,671.5,384.1,671.2,385.9,671.2z M382.1,688.3l-0.2-0.1c-1.5,0.3-2.9,0.8-4.1,1.5c-1.2,0.7-2.1,1.7-2.8,2.8
					c-0.7,1.1-1,2.4-1,3.7c0,1.4,0.4,2.7,1.2,3.9c0.8,1.2,1.9,2.2,3.3,2.9c1.4,0.7,3,1.2,4.9,1.2V704c-1.7-0.2-3.1-0.6-4.3-1.4
					c-1.2-0.8-2.1-1.8-2.7-2.9c-0.6-1.2-0.9-2.3-0.9-3.5c0-1.5,0.5-3,1.6-4.6C378.3,689.9,379.9,688.9,382.1,688.3z M387.5,703.9
					v0.2c2-0.1,3.6-0.5,4.8-1.3c1.2-0.8,2.1-1.7,2.6-2.8c0.5-1.1,0.8-2.3,0.8-3.5c0-1.8-0.6-3.3-1.8-4.5c-0.7-0.7-1.5-1.2-2.4-1.7
					c-0.9-0.5-2.3-1.1-4-1.9c-1.7-0.7-3.1-1.4-4.1-2c-1-0.6-1.9-1.2-2.7-2c-0.8-0.8-1.5-1.7-1.9-2.6c-0.4-0.9-0.7-1.8-0.7-2.7
					c0-0.9,0.2-1.9,0.7-3c0.4-1,1.2-2,2.2-2.7c1-0.8,2.4-1.3,4-1.4v-0.3c-1.2,0-2.4,0.3-3.7,0.9c-1.3,0.6-2.4,1.5-3.3,2.7
					c-0.9,1.2-1.3,2.6-1.3,4.3c0,0.9,0.2,1.8,0.7,2.8c0.4,1,1.1,1.9,1.9,2.7c1,0.9,2,1.7,3.1,2.3c1.1,0.6,2.5,1.3,4.2,2.1
					c1.7,0.8,3,1.3,3.8,1.8c0.8,0.4,1.5,0.9,2.1,1.5c1.1,1.1,1.7,2.5,1.7,4.2c0,1.8-0.6,3.3-1.8,4.6
					C391.2,702.9,389.6,703.7,387.5,703.9z M383,688.8c-1.4,0.3-2.5,1.1-3.6,2.4c-1,1.3-1.5,3-1.5,4.9c0,1.4,0.3,2.7,1,3.8
					c0.7,1.1,1.6,2,2.8,2.7c1.2,0.7,2.7,1,4.3,1c1.7,0,3.1-0.4,4.2-1.1c1.1-0.7,1.9-1.6,2.4-2.6c0.5-1,0.7-1.9,0.7-2.7
					c0-1.2-0.3-2.2-0.9-3c-0.6-0.8-1.3-1.4-2.2-1.9c-0.9-0.5-2.1-1.1-3.8-1.8C384.9,689.7,383.7,689.2,383,688.8z M386,672.5
					c-1,0-2,0.3-2.9,0.8c-0.9,0.5-1.6,1.2-2.1,2.1c-0.5,0.9-0.8,1.9-0.8,3c0,0.7,0.1,1.4,0.4,2c0.3,0.7,0.7,1.3,1.2,2
					c0.5,0.6,1.3,1.3,2.2,1.9c0.9,0.6,2,1.2,3.2,1.7c1.2-0.3,2.2-1.1,3-2.2c0.9-1.2,1.3-2.6,1.3-4.4c0-2.2-0.5-3.9-1.6-5.1
					C388.8,673.2,387.5,672.5,386,672.5z M387,671.8v0.3c1.8,0.4,3.2,1.4,4,2.8c0.8,1.4,1.2,3,1.2,4.6c0,1-0.2,1.9-0.5,2.8
					c-0.3,0.9-0.8,1.7-1.4,2.4c-0.6,0.7-1.5,1.3-2.4,1.7l0.3,0.1c3.7-1.4,5.5-3.7,5.5-7c0-2.1-0.6-3.8-1.9-5.2
					C390.6,673,389,672.2,387,671.8z"/>
				<path class="st0" d="M400.4,703.6l0.1-0.3c1.2,0.3,2.3,0.4,3.3,0.4c2.9,0,5.4-0.8,7.7-2.4c2.3-1.6,4.1-3.6,5.5-6
					c1.4-2.4,2.1-4.8,2.3-7.1l-0.1-0.1c-1.2,1.7-2.5,2.9-4.1,3.8c-1.5,0.8-3,1.2-4.5,1.2c-1.7,0-3.2-0.4-4.6-1.3
					c-1.4-0.9-2.4-2.1-3.2-3.7c-0.8-1.6-1.1-3.4-1.1-5.4c0-1.9,0.4-3.7,1.3-5.5c0.9-1.8,2.1-3.3,3.8-4.4c1.6-1.1,3.4-1.7,5.5-1.7
					c2.3,0,4.3,0.6,6.2,1.8c1.8,1.2,3.3,2.9,4.3,5.2c1.1,2.2,1.6,4.8,1.6,7.7c0,2.1-0.4,4.3-1.2,6.6c-0.8,2.3-1.9,4.3-3.4,6.2
					c-1.5,1.9-3.3,3.4-5.5,4.5c-2.2,1.1-4.6,1.7-7.3,1.7c-1.1,0-2-0.1-2.8-0.2c-0.8-0.1-1.5-0.3-2.2-0.5
					C401.4,704,400.9,703.8,400.4,703.6z M415.1,691.4v-0.3c-1,0.5-2.1,0.7-3.3,0.7c-1.2,0-2.3-0.2-3.3-0.7c-0.9-0.5-1.7-1.1-2.4-2
					c-0.7-0.9-1.2-1.9-1.5-3c-0.3-1.1-0.5-2.4-0.5-3.6c0-1.8,0.3-3.5,1-5.1c0.7-1.5,1.6-2.8,2.7-3.7c1.1-0.9,2.4-1.5,3.7-1.7v-0.4
					c-1.7,0.3-3.3,0.9-4.7,2.1c-1.4,1.1-2.5,2.5-3.2,4.2c-0.8,1.7-1.1,3.4-1.1,5.3c0,1.7,0.4,3.3,1.1,4.7c0.7,1.4,1.7,2.6,2.9,3.4
					c1.2,0.9,2.6,1.3,4.2,1.3c0.8,0,1.5-0.1,2.2-0.3C413.5,692.1,414.3,691.8,415.1,691.4z M412.7,672.8c-1.1,0-2.1,0.4-3,1.2
					c-0.9,0.8-1.7,2-2.2,3.4c-0.6,1.5-0.8,3.1-0.8,5c0,2.6,0.6,4.6,1.7,6.1c1.1,1.5,2.6,2.2,4.5,2.2c1,0,2.2-0.3,3.6-1
					c1.3-0.6,2.4-1.5,3.1-2.7c0-0.4,0-1.2,0-2.4c0-1.9-0.2-3.6-0.6-5.2c-0.4-1.5-0.9-2.8-1.6-3.8c-0.7-1-1.4-1.8-2.2-2.3
					C414.4,673,413.6,672.8,412.7,672.8z M413.7,672.1v0.3c1.4,0.3,2.5,1,3.5,2.2c1,1.1,1.8,2.6,2.3,4.4c0.5,1.8,0.8,3.8,0.8,6
					c0,2.9-0.4,5.5-1.3,7.8c-0.9,2.3-2,4.3-3.4,5.9c-1.4,1.6-2.9,2.8-4.4,3.7c-1.6,0.9-3,1.4-4.3,1.5v0.3c2.9-0.2,5.6-1.2,7.9-3
					c2.3-1.8,4.1-4,5.3-6.8c1.3-2.8,1.9-5.7,1.9-8.7c0-1.7-0.2-3.3-0.6-4.9c-0.4-1.6-1-3-1.8-4.2c-0.8-1.3-1.7-2.3-2.7-3.1
					C415.8,672.7,414.8,672.2,413.7,672.1z"/>
			</g>
			<g>
				<path class="st0" d="M624.4,696.4l-1.1,8.1h-22.2v-1.2c0.7-0.5,1.5-1.1,2.2-1.6c0.7-0.5,1.5-1.1,2.2-1.7
					c0.7-0.6,1.7-1.4,2.7-2.3c1.1-1,2-1.8,2.7-2.6c2.2-2.2,4-4.4,5.3-6.5c1.3-2.1,2-4.2,2-6.1c0-1.4-0.3-2.7-1-3.9
					c-0.7-1.2-1.6-2.1-2.7-2.8c-1.1-0.7-2.2-1-3.3-1c-2,0-3.6,0.6-4.8,1.9c-1.2,1.2-1.9,2.7-2.1,4.3h-0.4c0,0,0-0.3,0-0.7
					c0-0.4,0-0.7-0.1-0.9c0-1.7,0.4-3.2,1.1-4.4c0.8-1.2,1.8-2.1,3.1-2.7c1.3-0.6,2.8-0.9,4.4-0.9c1.4,0,2.7,0.2,4,0.7
					c1.3,0.5,2.3,1.2,3.3,2c0.9,0.9,1.7,1.9,2.2,3c0.5,1.1,0.8,2.3,0.8,3.7c0,1.4-0.3,2.9-0.9,4.3c-0.6,1.4-1.3,2.8-2.3,4.2
					c-1,1.3-2.1,2.6-3.4,3.9c-1.3,1.3-2.9,2.7-4.8,4.2c-2,1.6-4.1,3.2-6.4,4.9c0.4,0.1,0.9,0.2,1.4,0.3c0.6,0.1,1.2,0.2,2.1,0.3
					c0.8,0.1,1.8,0.2,2.8,0.3c1.1,0.1,2.3,0.1,3.7,0.1c3,0,5.2-0.2,6.8-0.6l2.4-6.2H624.4z M608.5,698.1l0.2,0.3
					c2.2-1.8,4.1-3.4,5.5-4.9c1.5-1.4,2.7-2.8,3.6-4.1c1-1.3,1.7-2.6,2.2-3.9c0.5-1.3,0.7-2.5,0.7-3.7c0-1.8-0.5-3.4-1.4-4.8
					c-0.9-1.3-2.1-2.4-3.4-3.1c-1.4-0.7-2.7-1-3.9-1c-3.1,0-5.5,1.5-7.1,4.6h0.2c0.6-1,1.5-1.9,2.5-2.5c1-0.6,2.2-0.9,3.7-0.9
					c1.4,0,2.8,0.4,4,1.1c1.2,0.7,2.1,1.7,2.8,3c0.7,1.3,1,2.7,1,4.2c0,1.5-0.4,3.1-1.2,4.8c-0.8,1.7-2,3.4-3.6,5.2
					C612.8,694.2,610.8,696.1,608.5,698.1z"/>
				<path class="st0" d="M642,671.2c2.1,0,4.2,0.5,6.3,1.5c2.1,1,3.9,2.8,5.4,5.3c1.5,2.5,2.2,6,2.2,10.2c0,2.9-0.4,5.4-1.2,7.5
					c-0.8,2.1-1.9,3.8-3.2,5.1c-1.3,1.3-2.8,2.3-4.5,2.9c-1.7,0.6-3.4,1-5.1,1c-2.3,0-4.5-0.5-6.6-1.6c-2.1-1.1-3.9-2.8-5.3-5.3
					c-1.4-2.5-2.1-5.7-2.1-9.6c0-3.3,0.5-6.1,1.4-8.4c0.9-2.3,2.1-4.1,3.5-5.3c1.4-1.2,3-2.1,4.6-2.6
					C638.8,671.5,640.4,671.2,642,671.2z M640.6,672.1v-0.4c-1.2,0.2-2.4,0.5-3.6,0.9c-1.3,0.4-2.5,1.3-3.9,2.4
					c-1.3,1.2-2.5,2.9-3.4,5.1c-0.9,2.2-1.3,5-1.3,8.3c0,3,0.5,5.6,1.5,7.9c1,2.3,2.5,4.1,4.3,5.5c1.8,1.3,4,2.1,6.4,2.4V704
					c-1.9-0.4-3.6-1-4.9-2c-1.4-0.9-2.5-2.1-3.3-3.5c-0.8-1.4-1.4-3-1.8-4.7c-0.4-1.7-0.5-3.6-0.5-5.7c0-5.3,1-9.2,3-11.6
					C635.1,674.1,637.6,672.6,640.6,672.1z M641.7,672.8c-2,0-3.8,0.8-5.4,2.4c-0.7,0.7-1.2,1.4-1.7,2.2c-0.5,0.8-0.8,1.7-1.1,2.8
					c-0.3,1.1-0.5,2.3-0.7,3.7c-0.1,1.4-0.2,2.9-0.2,4.6c0,2.1,0.1,4,0.4,5.5c0.3,1.6,0.7,2.9,1.2,4c0.5,1.1,1.2,2.1,2.1,2.9
					c1.6,1.6,3.4,2.4,5.4,2.4c2.1,0,4-0.8,5.6-2.5c0.8-0.8,1.5-1.9,2-3.1c0.5-1.3,0.9-2.7,1.2-4.3c0.2-1.6,0.4-3.4,0.4-5.4
					c0-3.4-0.3-6.1-0.9-8.1c-0.6-2-1.6-3.6-2.9-4.9C645.6,673.5,643.8,672.8,641.7,672.8z M642.8,672v0.4c2.4,0.5,4.2,1.5,5.5,3.1
					c1.3,1.6,2.2,3.4,2.7,5.6c0.5,2.2,0.7,4.6,0.7,7.3c0,3.1-0.3,5.7-1,7.8c-0.6,2.1-1.6,3.8-2.9,5c-1.3,1.2-2.9,2.1-4.9,2.6l0,0.3
					c2.4-0.4,4.3-1.2,5.8-2.5c1.5-1.3,2.5-2.7,3.2-4.4c0.7-1.7,1.1-3.2,1.3-4.7c0.2-1.5,0.3-3,0.3-4.5c0-3.8-0.5-6.8-1.5-9
					c-1-2.2-2.2-3.9-3.8-4.8C646.6,673.1,644.8,672.4,642.8,672z"/>
				<path class="st0" d="M668.3,671.2h2.3c-0.2,1.1-0.4,3.3-0.5,6.5c-0.1,3.2-0.1,6.5-0.1,9.9v6.1c0,3.3,0.2,6.5,0.6,9.7l4.6,0.8
					v0.2h-16.4v-0.3l5.8-0.8c0.2-1.7,0.4-4.1,0.6-7.1c0.1-3,0.2-5.5,0.2-7.3v-5.5c0-1.1-0.1-2.6-0.1-4.4c-0.1-1.8-0.2-3.3-0.4-4.5
					l-5.6,0.8v-0.2L668.3,671.2z M666.1,703.6h1.5v-31.1l-1.5,0.7V703.6z"/>
				<path class="st0" d="M686.5,692.2h-10.3v-1l17.4-20h2.3c0,0.4,0,1-0.1,1.6c0,0.7,0,1.4-0.1,2.1c0,0.7,0,1.2,0,1.6v9.4
					c0,1.4,0,2.9,0.1,4.6c0.4,0.1,1,0.1,1.9,0.1c1,0,1.8-0.1,2.4-0.2c0.6-0.1,1.1-0.3,1.6-0.6h0.2l-0.7,2.3h-2.7
					c-0.9,0-1.8,0-2.6,0.1c-0.1,1.1-0.2,2.6-0.2,4.3c0,2.6,0.2,4.8,0.7,6.8l5.5,0.7v0.3h-16.9v-0.3l5.4-0.7c0.3-1.1,0.5-2.4,0.6-3.8
					c0.1-1.4,0.2-2.7,0.2-4c0-1.2,0-2.3-0.1-3.3C689.1,692.2,687.6,692.2,686.5,692.2z M691.2,686.2c0-1.9,0-3.8-0.1-5.6
					c-0.1-1.8-0.2-3.2-0.3-4.2c-1.6,1.5-3.7,3.8-6.3,6.8c-2.6,3.1-4.5,5.5-5.7,7.3c1.7,0.1,4,0.2,6.8,0.2c1.9,0,3.7,0,5.5-0.1
					C691.1,689.5,691.2,688,691.2,686.2z M693.4,673.1l-1.6,1.8v28.7h1.6V673.1z"/>
			</g>
		</g>
	</g>
	<g>
		<g>
			<path class="st0" d="M408.1,200.4l17.6-16.7l-18.8,1.9l-12.8,12.7L393,187l-13,1.3l3.5,35.8l13-1.3l-1-10.6l3.8-3.6l12.1,12.7
				l17-1.7L408.1,200.4z M399.4,205.4l-6.3,5.9l0.9,9.4l-8.4,0.8l-3.1-31.3l8.4-0.8l1.4,13.9l15.6-15.6l11.3-1.1l-14.5,13.7
				l18.4,17.5l-10.9,1.1L399.4,205.4z"/>
			<path class="st0" d="M487.6,217.2l-1.1-36l-12.5,0.4l0.5,16.8L460.3,182l-11.6,0.4l1.1,36l12.5-0.4l-0.5-16.4l14,15.9
				L487.6,217.2z M459.9,215.8l-7.9,0.2l-1-31.4l8.2-0.3l17.8,20.4l-0.7-21l7.9-0.2l1,31.4l-8.5,0.3l-17.5-19.9L459.9,215.8z"/>
			<path class="st0" d="M544.2,182.8l-9.7,19.5l-8.1-20.3l-14.3-0.7l15.5,36.8l11.9,0.6l18.9-35.2L544.2,182.8z M538.1,216.3l-9-0.4
				l-13.5-32.1l9.2,0.4l9.5,23.7l11.3-22.7l9,0.4L538.1,216.3z"/>
			<g>
				<g>
					<path class="st0" d="M603.8,202.6c1.5,0,2.6-0.2,3.5-0.7c0.9-0.5,1.4-1.3,1.5-2.3c0.1-1-0.2-1.8-0.8-2.5
						c-0.6-0.7-1.7-1.2-3-1.4c-0.8-0.2-3.2-0.5-7.2-0.9l-4.8-0.5l-0.8,7.2l5.5,0.6C601,202.4,603,202.6,603.8,202.6z M595,196.8
						l2.5,0.3c4.8,0.5,6.5,0.8,7,0.9c1.2,0.2,1.7,0.6,1.8,0.8c0.2,0.2,0.2,0.3,0.2,0.6c0,0.3-0.1,0.4-0.4,0.6
						c-0.5,0.3-1.2,0.4-2.3,0.4c0,0,0,0,0,0c-0.5,0-1.9-0.1-5.9-0.5l-3.2-0.4L595,196.8z"/>
					<path class="st0" d="M617.9,207.7c-0.6-0.7-1.2-1.3-2-1.9c0.3-0.2,0.6-0.5,0.8-0.7c1.6-1.5,2.5-3.3,2.7-5.3
						c0.2-1.9-0.2-3.6-1.2-5.3c-0.9-1.5-2.1-2.7-3.6-3.7c-1.4-0.9-3.1-1.6-4.9-2.1c-1.7-0.4-4.2-0.8-7.6-1.2l-18.9-2.1l-3.9,35.8
						l16.5,1.8c5.5,0.6,8.9,0.9,10.3,0.9l0.6,0c2.3,0,4.3-0.3,6.1-1c2-0.8,3.6-2,4.9-3.5c1.3-1.6,2.1-3.3,2.3-5.2
						C620.2,211.9,619.5,209.7,617.9,207.7z M617.6,214.1c-0.2,1.4-0.7,2.8-1.8,4c-1,1.2-2.3,2.2-4,2.8c-1.6,0.6-3.5,0.9-5.8,0.9
						c-1.4,0-4.8-0.3-10.2-0.9l-14.2-1.6l3.4-31.2l16.6,1.8c3.3,0.4,5.7,0.7,7.3,1.1c1.6,0.4,3,1,4.2,1.8c1.2,0.8,2.2,1.8,2.9,3
						c0.7,1.2,1,2.4,0.9,3.8c-0.2,1.5-0.8,2.7-2,3.9c-1.2,1.1-2.7,1.9-4.6,2.3c2.5,0.8,4.3,2,5.5,3.5
						C617.3,210.7,617.8,212.3,617.6,214.1z"/>
					<path class="st0" d="M605.8,208.7c-1.1-0.4-3.6-0.8-7.4-1.3l-6.8-0.7l-0.9,8.4l7.8,0.9c3,0.3,5,0.5,5.8,0.4
						c1.3,0,2.3-0.3,3.2-0.9c0.9-0.6,1.3-1.4,1.5-2.5c0.1-0.9-0.1-1.8-0.6-2.5C607.8,209.7,607,209.1,605.8,208.7z M606.2,213.5
						c-0.5,0.3-1.1,0.5-2.2,0.5c-0.6,0-2-0.1-5.2-0.4l-5.5-0.6l0.4-3.8l4.5,0.5c4.7,0.5,6.3,0.9,6.8,1.1c0.7,0.3,1.2,0.6,1.4,0.9
						c0.1,0.2,0.3,0.4,0.2,0.9C606.6,213.2,606.4,213.4,606.2,213.5z"/>
				</g>
			</g>
		</g>
		<g>
			<g>
				<g>
					<path class="st0" d="M361.8,219c-3.7,0-6.7-3-6.7-6.7s3-6.7,6.7-6.7s6.7,3,6.7,6.7S365.5,219,361.8,219z M361.8,208.3
						c-2.2,0-4,1.8-4,4s1.8,4,4,4c2.2,0,4-1.8,4-4S364,208.3,361.8,208.3z"/>
				</g>
			</g>
			<g>
				<g>
					<path class="st0" d="M638.2,219c-3.7,0-6.7-3-6.7-6.7s3-6.7,6.7-6.7c3.7,0,6.7,3,6.7,6.7S641.9,219,638.2,219z M638.2,208.3
						c-2.2,0-4,1.8-4,4s1.8,4,4,4s4-1.8,4-4S640.4,208.3,638.2,208.3z"/>
				</g>
			</g>
		</g>
	</g>
</g>
</svg>
