<?xml version="1.0" encoding="utf-8"?>
<!-- Generator: Adobe Illustrator 23.0.1, SVG Export Plug-In . SVG Version: 6.00 Build 0)  -->
<svg version="1.1" id="Layer_1" xmlns="http://www.w3.org/2000/svg" xmlns:xlink="http://www.w3.org/1999/xlink" x="0px" y="0px"
	 viewBox="0 0 1000 1000" style="enable-background:new 0 0 1000 1000;" xml:space="preserve">
<style type="text/css">
	.st0{fill-rule:evenodd;clip-rule:evenodd;fill:#CD2027;stroke:#211F5D;stroke-width:12.431;}
	.st1{fill-rule:evenodd;clip-rule:evenodd;fill:#FFFFFF;}
</style>
<g>
	<path id="path552" class="st0" d="M114,996.3l753.4,0L374.3,496.2l511.7,0.6L114.1,3.7L114,996.3L114,996.3z"/>
	<polygon id="polygon555" class="st1" points="460.5,730.3 406.8,748 448.8,787.5 392.2,783.9 415.5,836.1 364.7,811.6 365.8,868.5 
		328.4,827 307,879.9 288.8,827.6 248.3,868.5 252,813.4 198.6,836.1 223.6,786.5 165.3,787.5 207.9,751.1 153.6,730.3 207.3,712.5 
		165.3,673 221.8,676.6 198.6,624.5 249.4,648.9 248.3,592 285.7,633.6 307,580.6 325.3,633 365.8,592 362,647.2 415.5,624.5 
		390.5,674 448.8,673 406.2,709.5 	">
	</polygon>
	<path id="path563" class="st1" d="M396,362.9l-22.5,16.7l11.1,9.2c27-20.9,46.2-39.9,61.2-71.5c3.5,42.2-35.2,136.9-136.7,138
		c-108.7-0.1-146.4-100.6-142.2-139.8c20,36.2,32.1,53.9,63.5,72.7l9.6-8.8l-21.2-17.7l27.3-7.1l-14.7-24.8l28.6,2.1l-3.6-28.8
		l25.1,14.7l7.9-26.8l18,21.6l16.9-20.5l9.2,27.8l23.5-16.3l-3,28.3l28.1-3.3l-13.2,26.2L396,362.9L396,362.9z"/>
</g>
</svg>
