<?xml version="1.0" encoding="utf-8"?>
<!-- Generator: Adobe Illustrator 23.0.1, SVG Export Plug-In . SVG Version: 6.00 Build 0)  -->
<svg version="1.1" id="Layer_1" xmlns="http://www.w3.org/2000/svg" xmlns:xlink="http://www.w3.org/1999/xlink" x="0px" y="0px"
	 viewBox="0 0 1000 1000" style="enable-background:new 0 0 1000 1000;" xml:space="preserve">
<style type="text/css">
	.st0{fill-rule:evenodd;clip-rule:evenodd;fill:#020202;stroke:#EB008B;stroke-width:0.2835;stroke-miterlimit:10;}
	.st1{fill:#020202;}
	.st2{fill-rule:evenodd;clip-rule:evenodd;fill:#020202;}
</style>
<g>
	<g>
		<path class="st1" d="M769.1,213.5l-9.8-30.5c-4.1,1.4-8.4,2.8-12.8,4.2l-1.7,40.5C753.2,223.2,761.3,218.4,769.1,213.5z"/>
		<path class="st1" d="M737.1,231.7l-9.5-38.8c-4.4,1.2-8.9,2.3-13.5,3.4l-6.5,49.4C717.5,241.3,727.4,236.7,737.1,231.7z"/>
		<path class="st1" d="M701.2,248.5l-10.6-47.6c-5.4,0.9-11,1.8-16.7,2.6l-7.9,59.3C677.7,258.3,689.5,253.6,701.2,248.5z"/>
		<path class="st1" d="M793.3,196.1L784,174c-3.3,1.3-6.7,2.6-10.3,3.9l1.8,31.3C781.8,205,787.7,200.6,793.3,196.1z"/>
		<path class="st1" d="M835.5,143.2c-5.7,5.7-12.1,10.7-19.4,15.2l4.7,9.9C826.9,160.4,831.9,152.1,835.5,143.2z"/>
		<path class="st1" d="M814.8,175.6l-5.8-13c-3.3,1.8-6.7,3.5-10.3,5.2l1,23C805.1,185.9,810.2,180.8,814.8,175.6z"/>
		<path class="st1" d="M658.2,265.8l-9.8-59.1c-5.4,0.6-10.9,1.2-16.5,1.8L625,278C635.6,274.2,646.8,270.1,658.2,265.8z"/>
		<path class="st1" d="M262.5,542l-73.7-175.7c-5.4,4.3-10.6,8.6-15.6,12.7l53.4,211.1C237.9,573.8,249.9,557.7,262.5,542z"/>
		<path class="st1" d="M353.9,445.4l-48.3-157.3c-5.6,3.1-11.1,6.2-16.6,9.4l20.7,190.4C324,472.9,338.7,458.7,353.9,445.4z"/>
		<path class="st1" d="M405.1,403.2l-33.5-146.4c-5.5,2.2-11,4.5-16.5,6.9l4.4,176.8C374.8,427.3,390,414.9,405.1,403.2z"/>
		<path class="st1" d="M305.6,492.2L241,327.8c-4.7,3.2-9.3,6.4-13.8,9.6l41.2,197.3C280.2,520.2,292.7,505.9,305.6,492.2z"/>
		<path class="st1" d="M565.9,302.2l-19-84.5c-5,0.6-10.1,1.3-15.3,1.9l-11.1,106.1C536.1,317,551.2,309.1,565.9,302.2z"/>
		<path class="st1" d="M615.4,281.4c0.3-0.1,0.7-0.2,1-0.4l-9.1-70c-5.6,0.6-11.2,1.2-17,1.8l-18.5,86.5
			C587,292.4,601.5,286.4,615.4,281.4z"/>
		<path class="st1" d="M511.3,331.1l-20.2-105.5c-5.4,0.9-10.9,1.8-16.4,2.8l-8.1,130.5C481.8,348.8,496.7,339.6,511.3,331.1z"/>
		<path class="st1" d="M459.4,363.7l-26.6-126.9c-5.6,1.4-11.2,2.9-16.7,4.5l-3.5,156C428.4,385.4,444,374.2,459.4,363.7z"/>
		<path class="st1" d="M837.4,147.2c-3.3,7.7-7.4,15-12.1,21.8l6.9,1.3C834.5,162.8,836.2,155.1,837.4,147.2z"/>
		<path class="st2" d="M212.8,610.3c-20.5,31.1-38.6,62.6-53.8,93l24.7,56.7c7.6-49.4,20.6-92.6,39-131.8L212.8,610.3z"/>
		<path class="st1" d="M274.4,544c-1.2,1.6-2.4,3.1-3.6,4.7l78.1,22c-1.2,2.3-2.5,4.5-3.7,6.8l-107.6,21.3l214.6,10.9
			c2.1-4.5,4.3-9.2,6.6-13.9L274.4,544z"/>
		<path class="st1" d="M363.4,451.6c-1.5,1.3-3,2.6-4.5,3.9l54.8,26.7c-1.8,1.9-3.6,3.8-5.3,5.8l-87.3,3.2L493.9,533
			c2.8-4.6,5.7-9.1,8.7-13.6L363.4,451.6z"/>
		<path class="st1" d="M316.1,496.2c-1.4,1.5-2.9,3-4.3,4.5l66.5,24.1c-1.6,2.2-3.2,4.5-4.8,6.7l-94.9,7.1l193.2,32.3
			c2.7-5,5.6-10.1,8.5-15.2L316.1,496.2z"/>
		<path class="st1" d="M620.9,286.8c-2,0.7-4,1.5-6,2.3l25.7,21.9c-2.6,1.5-5.2,2.9-7.8,4.4L578,304.7l90.5,48.1
			c5.3-3.9,10.6-7.8,15.8-11.8L620.9,286.8z"/>
		<path class="st1" d="M570.7,308.1c-1.8,0.9-3.6,1.8-5.5,2.7l29.9,26.9c-2.5,1.5-5,3.1-7.6,4.7l-62.3-9.9l102.6,51.1
			c4.9-3.8,9.7-7.6,14.4-11.2L570.7,308.1z"/>
		<path class="st1" d="M414.4,409.5c-1.6,1.2-3.1,2.5-4.7,3.7l45.2,28.6c-1.8,1.6-3.5,3.2-5.2,4.7l-80.1-0.3l148.7,50.1
			c3.5-4.9,7-9.7,10.6-14.4L414.4,409.5z"/>
		<path class="st1" d="M466.7,370.5c-1.6,1.1-3.1,2.2-4.7,3.3l37.8,30.4c-1.9,1.5-3.8,3-5.7,4.5l-72.6-4.8l126.5,54.2
			c3.8-4.5,7.7-8.8,11.6-13L466.7,370.5z"/>
		<path class="st1" d="M516.3,337.9c-1.7,1-3.3,2-5,3.1l34.4,29.3c-2.1,1.5-4.3,3-6.5,4.6l-65.8-9l110.5,55.3c5-4.6,9.9-9,14.7-13.2
			L516.3,337.9z"/>
		<path class="st1" d="M708,253.2c-2,0.8-3.9,1.7-5.8,2.5l17.3,10.8c-1.4,0.8-2.7,1.7-4.1,2.5l-41-2.2l68.5,26
			c3.8-3.5,7.7-7.1,11.5-10.7L708,253.2z"/>
		<path class="st1" d="M744.1,235.9c-1.8,1-3.6,1.9-5.4,2.8l13.7,6.2c-1.2,0.8-2.4,1.6-3.7,2.5l-30.7,1.3l54.2,15.4
			c3.4-3.6,6.7-7.2,9.9-10.9L744.1,235.9z"/>
		<path class="st1" d="M664.4,270.7c-2,0.8-4,1.5-5.9,2.3l23.1,15.4c-1.5,0.8-3,1.6-4.5,2.5l-45.8-7.9l79,37.8
			c4.3-3.5,8.7-7.1,13-10.8L664.4,270.7z"/>
		<path class="st1" d="M775.8,216.8c-1.4,1-2.9,2-4.3,2.9l10.1,4.2c-1.7,1.4-3.5,2.8-5.3,4.1l-23,2.8l41.6,7.1
			c2.6-3.3,5.1-6.7,7.6-10.2L775.8,216.8z"/>
		<path class="st1" d="M819,177.5c-0.9,1.1-1.7,2.1-2.6,3.2l4.2,0.7c-1.5,2.3-3,4.5-4.5,6.7l-9.7,3.5l16.9,1.2
			c2.1-4.5,4.1-9.1,5.8-13.7L819,177.5z"/>
		<path class="st1" d="M799,198.5c-1.1,1-2.3,2-3.5,3l7.6,2.3c-1.4,1.5-2.9,3.1-4.3,4.5l-14.8,2.3l26.9,4.3c2.3-3.6,4.5-7.3,6.5-11
			L799,198.5z"/>
	</g>
	<path class="st2" d="M469.1,592.5h15.9v3h-6.2v16.6h-3.4v-16.6h-6.2V592.5z M487.2,592.5h4.8l5.4,15.3h0.1l5.3-15.3h4.8v19.6h-3.3
		V597h-0.1l-5.4,15.1h-2.8l-5.4-15.1h-0.1v15.1h-3.3V592.5z"/>
	<g>
		<g>
			<path class="st1" d="M238.9,708.2h10.2l23.1,42.1h0.2v-42.1h7.5v52.3h-9.6l-23.7-43h-0.2v43h-7.5V708.2z"/>
			<path class="st1" d="M285.6,708.2h29.3v6.6h-21.8v15.3H313v6.6h-19.9v17.2h21.8v6.6h-29.3V708.2z"/>
			<path class="st1" d="M315.7,708.2h8.2l12.5,44.8h0.2l11.2-44.8h10.6l11.3,44.8h0.2l12.5-44.8h7.9l-16.1,52.3h-9.7l-11.4-45.7
				h-0.2l-11.5,45.7h-10L315.7,708.2z"/>
			<path class="st1" d="M409.6,753.8l27.1-39h-26.2v-6.6h34.8v6.7l-27.1,39h27.5v6.6h-36.2V753.8z"/>
			<path class="st1" d="M451.2,708.2h29.3v6.6h-21.8v15.3h19.9v6.6h-19.9v17.2h21.8v6.6h-29.3V708.2z"/>
			<path class="st1" d="M504.4,708.2h7.9l22.1,52.3h-8.2l-5.3-13.2h-25.6l-5.3,13.2H482L504.4,708.2z M508,715.2l-10.4,25.9h20.8
				L508,715.2z"/>
			<path class="st1" d="M537.2,708.2h7.5v45.7h21.9v6.6h-29.4V708.2z"/>
			<path class="st1" d="M589.7,708.2h7.9l22.1,52.3h-8.2l-5.3-13.2h-25.6l-5.3,13.2h-7.9L589.7,708.2z M593.4,715.2l-10.4,25.9h20.8
				L593.4,715.2z"/>
			<path class="st1" d="M622.5,708.2h10.2l23.1,42.1h0.1v-42.1h7.5v52.3h-9.6l-23.7-43H630v43h-7.5V708.2z"/>
			<path class="st1" d="M671.5,708.2H687c15.5,0,27.9,9.6,27.9,25.7c0,17.5-10.6,26.6-27.9,26.6h-15.4V708.2z M679,753.9h7.9
				c12.9,0,20-6.2,20-19.7c0-12.2-8.3-19.4-19.1-19.4H679V753.9z"/>
		</g>
		<g>
			<path class="st1" d="M309.4,794.3c-6-3.5-12.6-5.3-19.6-5.3c-21.9,0-36.4,15.8-36.4,37.1c0,22.3,16,37.1,35.8,37.1
				c6.8,0,15.9-1.8,20.7-4.6l0.8,13.2c-7.2,3-16,3.4-21.6,3.4c-30.1,0-50-19.3-50-49.5c0-29.2,21.2-48.7,50.2-48.7
				c7.3,0,14.6,1.1,21.4,4.1L309.4,794.3z"/>
			<path class="st1" d="M320.4,778.7h23.3c18.8,0,36.9,3,36.9,25.7c0,11.6-8.6,19.7-19.6,21.6v0.3c4.2,1.6,6.3,3.7,9.2,9.5l18,37.8
				h-15.5l-14.6-32.9c-4.2-9.2-8.7-9.2-15.9-9.2H334v42.2h-13.6V778.7z M334,819.5h11.6c12.9,0,20.5-5.7,20.5-14.8
				c0-8.6-6.5-14-19-14H334V819.5z"/>
			<path class="st1" d="M395.8,778.7h13.6v94.9h-13.6V778.7z"/>
			<path class="st1" d="M490.7,794.3c-6-3.5-12.7-5.3-19.6-5.3c-21.9,0-36.4,15.8-36.4,37.1c0,22.3,16,37.1,35.8,37.1
				c6.8,0,15.9-1.8,20.7-4.6l0.8,13.2c-7.2,3-16,3.4-21.6,3.4c-30.1,0-50.1-19.3-50.1-49.5c0-29.2,21.2-48.7,50.2-48.7
				c7.3,0,14.6,1.1,21.4,4.1L490.7,794.3z"/>
			<path class="st1" d="M500.4,778.7H514v41.8l40.5-41.8h18.1L528,823.6l48.1,50h-19.9L514,827.1v46.5h-13.6V778.7z"/>
			<path class="st1" d="M582.6,778.7h53.2v12h-39.6v27.7h36v12h-36v31.3h39.6v12h-53.2V778.7z"/>
			<path class="st1" d="M671.7,790.7h-29.5v-12h72.6v12h-29.5v83h-13.6V790.7z"/>
		</g>
	</g>
</g>
</svg>
