<svg xmlns="http://www.w3.org/2000/svg" viewBox="0 0 203.23 311.15"><title>Royal Challengers Bangalore logo - Brandlogos.net</title><polygon points="180.87 311.15 18.01 311.15 18.01 306.66 180.87 306.66 180.87 311.15" style="fill:#d5152c"/><path d="M591.26,541.9V663.09H428.31V543.17a83.93,83.93,0,0,0,162.94-1.36Z" transform="translate(-410.39 -356.43)" style="fill:#2b2a29"/><path d="M428.4,543.17c6.86,5.34,15.58,7.45,24.05,7.45h0c.93,0,1.86,0,2.79-.08a61.34,61.34,0,0,0,113.91-13.13,16.78,16.78,0,0,0,5.67,1,18.9,18.9,0,0,0,5.59-.85,12.27,12.27,0,0,0,10.92,4.07,83.92,83.92,0,0,1-162.94,1.44Z" transform="translate(-410.39 -356.43)" style="fill:#e5b582"/><path d="M558.48,571.28l4-4.23,1.27,1.19L561.11,571l.85.76,2.37-2.54,1.19,1.1-2.37,2.54.85.76,2.63-2.88,1.27,1.19-4.07,4.32Zm-6.1,9.57c.51-.42.68-.93.34-1.36h0c-.34-.51-.85-.42-1.36-.08l-1.1.76,1,1.44Zm-4.74-.85,2.79-2a3.25,3.25,0,0,1,2.37-.76,2.26,2.26,0,0,1,1.52,1h0a2.29,2.29,0,0,1,.08,2.71l2.88,1-1.86,1.36-2.46-.93-.76.51,1.27,1.78-1.61,1.19-4.23-5.93Zm-6.86,8h0a1.8,1.8,0,0,0-2.46-1,1.86,1.86,0,0,0-.93,2.54h0a1.9,1.9,0,0,0,2.54,1,1.86,1.86,0,0,0,.93-2.54Zm-5.25,2.29h0a3.72,3.72,0,0,1,2-5,3.79,3.79,0,0,1,5.08,1.86h0a3.89,3.89,0,0,1-7.11,3.13Zm-13.21-.17,1.95-.42,1.19,5.34,3.47-.76.42,1.69-5.42,1.19L522.32,590Zm-10.25,5.42-.85-2-.76,2Zm-1.86-4.4h1.95l3.22,7.28h-2.2l-.51-1.27-2.79.08-.51,1.36-2.12.08,3-7.37Zm-17.7,1.69h0a3.77,3.77,0,0,1,4.57-3,4.22,4.22,0,0,1,2.71,1.61l-1.44,1.19a2.67,2.67,0,0,0-1.61-1,1.91,1.91,0,0,0-2.2,1.61h0a1.92,1.92,0,0,0,1.52,2.37,1.81,1.81,0,0,0,1.19-.08l.17-.85-1.36-.25.25-1.44,3.3.68-.59,3.22a4.69,4.69,0,0,1-3.3.51,3.7,3.7,0,0,1-3.13-4.4Zm-12.79-8.47,1.69.76,1.27,4.66,1.52-3.56,1.86.76-2.79,6.69-1.61-.68-1.36-4.91-1.52,3.64-1.86-.76,2.79-6.69Zm-11.43-1.69.51-2.12-1.86,1.19Zm1.1-4.66,1.61,1.1-1.69,7.79-1.78-1.27.34-1.36-2.29-1.61-1.19.76-1.69-1.19Zm-10.84-6.35c.25-.25.25-.68-.17-1.1l-.93-.93-.93.85.85.93c.42.42.85.59,1.1.25h.08Zm-1.95.93-1-1.1-1,.93,1.1,1.1c.42.42.85.51,1.1.25h0C457,573.48,457,573.06,456.6,572.55Zm.76-5.5,2.54,2.71a2.47,2.47,0,0,1,.85,1.86,1.67,1.67,0,0,1-.51,1.19h0a1.55,1.55,0,0,1-1.95.25,1.71,1.71,0,0,1-.34,2.29h0c-.93.85-2.12.59-3.3-.68L452.11,572l5.34-5Z" transform="translate(-410.39 -356.43)" style="fill:#2b2a29"/><path d="M579.91,641.83a3.75,3.75,0,0,1,2.54,3.73c0,2.46-2.29,4.32-5.59,4.32a7.58,7.58,0,0,1-4-1l-.76.85h-.17l-.08-5H572c1.36,2.88,2.88,4.57,4.74,4.57s2.54-.93,2.54-2.12-.51-1.86-2.46-2.63c-.85-.34-1.61-.51-2.2-.76a4,4,0,0,1-2.54-3.9c0-2.79,2.37-4.23,5.17-4.23a7.77,7.77,0,0,1,3.56.93l.68-.76h.17l.08,4.66h-.17c-1-2.46-2-4.23-4.07-4.23a2.08,2.08,0,0,0-2.37,2.12c0,1.44,1,2,2.46,2.63C578.38,641.32,579.31,641.49,579.91,641.83Zm-18.29-4.66h1.52c1.95,0,2,1.1,2,1.95,0,1.78-1.86,1.86-3.56,3Zm1.61,12.11h-.34c-.76,0-1.36-.25-1.36-1.44v-3.56c0-.85.59-1.36,1.61-1.86,2.2.08.08,7.45,5.59,7.45a5.49,5.49,0,0,0,2.37-.51l-.08-.59a1.65,1.65,0,0,1-.68.08c-4.32,0-1.36-6.52-5.67-7,2.12-.76,3.3-1.44,3.3-2.79s-.17-3-4-3h-7.37v.42H557c.76,0,1.36.25,1.36.59v10c0,1.95-.59,2.2-1.36,2.2h-.34v.34h6.44v-.34ZM525,636.07h5.08v.42h-.34a1.42,1.42,0,0,0-1.61,1.44v11.77h-.51l-8.89-11.18v9.4a1.39,1.39,0,0,0,1.52,1.44h.34v.34h-5.08v-.34h.34a1.42,1.42,0,0,0,1.61-1.44V637.09a2,2,0,0,0-1.44-.59h-.42v-.42H521l5.93,7.37v-5.59a1.42,1.42,0,0,0-1.61-1.44h-.34V636Zm13,6.69h6.1v.34h-.08c-.76,0-1.36.25-1.36,1.44v4.07a12,12,0,0,1-5.42,1.36,7.08,7.08,0,0,1-.25-14.14c1.78,0,3.13.85,3.81.85s.59-.85.59-.85l.34-.08,1,4.32-.34.08s-1.86-3.39-4.83-3.39c-2.29,0-4,1.52-4,6,0,4.23,1.95,6,4.15,6a6.09,6.09,0,0,0,1.86-.34v-4.07c0-1.1-.59-1.44-1.36-1.44H538v-.34Zm18.29,2.88-1.78,4H544.42v-.34h.34c.76,0,1.36-.25,1.36-1.44v-10c0-1.1-.59-1.44-1.36-1.44h-.34V636h9.49l1.27,3.22-.34.17a5.24,5.24,0,0,0-4.15-2.29h-1.44v5h2A1.76,1.76,0,0,0,553,640.3v-.17h.34V645H553v-.17a1.69,1.69,0,0,0-1.69-1.69h-2v5.25h2.2c2.71,0,4.66-3,4.66-3l.34.17ZM515,645.47l.34.17-1.78,4H503.35v-.34h.34c.76,0,1.36-.25,1.36-1.44v-10c0-1.1-.59-1.44-1.36-1.44h-.34V636h9.49l1.27,3.22-.34.17a5.24,5.24,0,0,0-4.15-2.29h-1.44v5h2a1.76,1.76,0,0,0,1.69-1.78v-.17h.34V645h-.34v-.17a1.69,1.69,0,0,0-1.69-1.69h-2v5.25h2.2c2.71,0,4.66-3,4.66-3Zm-44.89-.34,1.86-4.57,1.86,4.57Zm21.26.34s-1.95,3-4.66,3h-2.2V637.85c0-1.1.59-1.44,1.36-1.44h.34V636h-6.44v.42h.34c.76,0,1.36.25,1.36,1.44v10c0,1.1-.59,1.44-1.27,1.44a1.94,1.94,0,0,1-1.69-1.27c-.08-.25-5.34-12.2-5.34-12.2h-.42L467.61,648a1.77,1.77,0,0,1-1.69,1.27c-.76,0-1.27-.34-1.27-1.44v-10c0-1.1.59-1.44,1.36-1.44h.34V636H459.9v.42h.34c.76,0,1.36.25,1.36,1.44v4.32h-4.83v-4.32c0-1.1.59-1.44,1.36-1.44h.34V636H452v.42h.34c.76,0,1.36.25,1.36,1.44v10c0,1.1-.59,1.44-1.36,1.44H452v.34h6.44v-.34h-.34c-.76,0-1.36-.25-1.36-1.44v-4.57h4.83v4.57c0,1.1-.59,1.44-1.36,1.44h-.34v.34h10.25v-.34h-.42c-.51,0-1.1-.34-.59-1.52l.59-1.52h4.66l.59,1.52c.51,1.19-.08,1.52-.59,1.52H474v.34h16.09l1.78-4-.34-.17Zm-50.9-4c0,4.66,2,7.28,4.66,7.28,3.39,0,5.34-4.23,5.34-4.23l.34.08-1.27,5.25-.34-.08s0-.76-.51-.76-1.86.76-3.73.76c-4.74,0-7.88-3.22-7.88-8.38s3.13-8.38,7.88-8.38c1.86,0,3.13.76,3.73.76s.51-.76.51-.76l.34-.08,1.27,5.25-.34.08s-1.95-4.23-5.34-4.23c-2.63,0-4.66,2.63-4.66,7.28Zm63,4.15-1.78,4H491.49v-.34h.34c.76,0,1.36-.25,1.36-1.44v-10c0-1.1-.59-1.44-1.36-1.44h-.34V636h6.44v.42h-.34c-.76,0-1.36.25-1.36,1.44v10.67h2.2c2.71,0,4.66-3,4.66-3Zm-20.33-30.4h1.69c1.95,0,2.88.93,2.88,2.37,0,2.63-2.88,3-4.57,4.23Zm1.61,14.82h-.25c-.76,0-1.36-.25-1.36-1.44v-4.74h0c0-.85.76-1.36,1.78-1.78,2.2.08,3,11.6,10,11.6a5.07,5.07,0,0,0,3.39-1.27l-.25-.25a3.4,3.4,0,0,1-1.95.59c-4.23,0-5.34-10.84-9.57-11.35,2.12-.76,4.49-1.69,4.49-4.07,0-1.69-1.44-3.39-5.17-3.39h-7.37v.34h.25c.76,0,1.36.25,1.36,1.44v12.79c0,1.1-.59,1.44-1.36,1.44h-.25v.34h6.35V630Zm37.52-8.64L524.1,626h-3.73l1.78-4.57Zm-6,8.64h-.34v.34h4.49v-.34h-.42c-.51,0-1.1-.34-.59-1.44l.59-1.52h4.57l.59,1.44c.51,1.19-.08,1.52-.59,1.52h-.42v.34h15.84l1.78-4-.34-.17s-1.95,3-4.57,3h-2.12v-10.5c0-1.1.59-1.36,1.36-1.36h.25v-.34h-6.35v.34h.25c.76,0,1.36.25,1.36,1.36v9.91a1.25,1.25,0,0,1-1.27,1.44,1.75,1.75,0,0,1-1.61-1.27c-.25-.59-5.25-12-5.25-12H523l-5,12a1.77,1.77,0,0,1-1.69,1.27Zm-10.76-12.7h-.34V617h6.69v.34h-.42c-.51,0-1.27.34-.59,1.52l2.54,4.4s1.95-3.22,2.63-4.4-.08-1.52-.59-1.52H515V617h4.66v.34h-.34c-.68,0-1.19.42-1.69,1.27l-3.56,6v4c0,1.1.59,1.44,1.27,1.44h.34v.34h-6.35v-.34h.34c.76,0,1.27-.25,1.27-1.44V625l-3.64-6.35c-.51-.85-.93-1.27-1.69-1.27Zm-6,.42c2.2,0,3.47,1.86,3.47,5.93s-1.36,5.93-3.47,5.93-3.47-1.86-3.47-5.93S497.34,617.78,499.45,617.78Zm0,12.87a6.95,6.95,0,1,0-6.78-6.94A6.54,6.54,0,0,0,499.45,630.65Z" transform="translate(-410.39 -356.43)" style="fill:#fefefe"/><path d="M513.34,393.35c-2.2-.51-10.42-1.19-10.59-.51s1.69.76,6,4.32a5.83,5.83,0,0,0,4.49,1.1,5.92,5.92,0,0,0,2.79-1.44c2.54-1.86.68-2.2-2.71-3.39Zm53.78,127.8c-1.36-.34-10.67-4-12.7-5C550,514,533.58,502.26,530,498.53c-4.07-4.32-11.09-7.54-11.6-6.86,0,0,7.62,8.13,6.1,16.09-.51,2.88-.85,4.07.68,2.2a11.5,11.5,0,0,0,2.46-7.62c.25.25,7.54,4.23,6.69,16.18-.08,1,4.07-4.15,4.57-6.69.85,0,5.25,7.2,4.91,10.42-.25,2.29,1.36.85,2.37-.59a8,8,0,0,0,1.1-2.71c.17-1,.42-.76,1.61-.51,3.64.93,13.64,1.95,18.29,2.71ZM497,549.43c-1.44,13.38-13.89,20.58-14,21.09C483,570.61,505.13,567.3,497,549.43Zm-57.59-102c-.93-9.65-19-19.9-12.7-42.6-13.21,15.41-3.9,22.61,1.19,28.37,1.36,1.61,2.88,2.79,3.56,4.32.76,1.69-1.61.59-3,.51-9.57-.25-11.35,7.45-10.33,7.79.68.17,8.72-10.59,19.48.59.68.68,2,2.79,1.86,1.1Zm13,92.65c1.69,0,6.18-.08,6.44-1.27a2.87,2.87,0,0,0-1.27-2.63c-1.19-.42-10.25,2.71-18.29-1.44-3-1.52-6.1-4.15-6.35-4.07-.51.25,3.3,9.65,19.56,9.4Zm-26-12.28c-.85-3.9-.17-5.67-1.19-7a4.77,4.77,0,0,0-4.07-2c-7,.08-6.52,4.07-6.35,1.95.08-2.71,1.69-9.49,10.59-8.55,1.52.17,2.2-4.49,1.61-6-3.73-8.89-10.16-2.37-10.76,1.78-1.1.51-2.29-6.52-1-10.59,2.12-6.44,9.15-10.08,15.41-2.37,2.54-6,13-37.18,3.47-46.16-3.47-3.3-9.57-3-13.21-.08-3,2.37-3.39,7-4.23,7-1.36,0-6.86-6.78-6.18-13,.93-8.3,9.49-9.23,9.91-9.74.59-.76-.76-1.61-1.52-2.46-5.08-5-5.84-15.58.25-22.27,13.55-14.91,9.4-17.19,11-16.85.85.17,3.9,3.81,4.57,7.79,1.86,10.5-5,12.28-.08,25.49-.34-.93.34-9,5.84-14.23,2.71-2.63,11.09-5.67,12-4.57.08,1.86-10.84,3.13-3.73,26.34,3,9.74,2.71,28.63-5.08,48.1-.25.59.85-.17,2.46-.17,5.59-.08,8,3.73,7.71,8.64-.17,2.37-1,.76-3,.42-16-2.37-17.19,17.11-17.62,25.32s1.27,18.72,27.52,15.5c1.44-.17,2.88,10.08,2.88,10.92.08,1.52-.85,1.95-2.37,2.2-22.44,4.15-33.2-7.37-35.06-15.58Zm126.1-58.69c2.37,2.2,3.22,5.76,4,8.72,3.22,12,13.64,12.2,13.89,11.69.08-.17-5.67-3.13-5.25-13.64.17-4.66-3-10.25-7.45-12.87-11.52-6.94-26.93-3.3-33.54-5,6.69,7.62,12.36,19.14,16.09,22.19,3.47,2.88,6.86,4.15,15.41,11.52-.17-.17-3.64-16-7.71-21.26-.42-.59-4-4.49-4.32-4.4,2.63-.85,7,1.36,8.81,3.13Zm28.79-52.85c-.08-.93-3.64,6.94-16.77,21.6-.59.59.59,3.64,2,5.5.42.59,1.69,2,2.46,1.69.42-.17-.34-4.49,4.49-11.43,3.39-4.91,6.94-11.43,7.79-17.45Zm32.35-10.42c0,.42,0,.68-.93.42-1.52-.42-3.3-1.27-4.74-.08s-1.86,3-3.9,3.9c-3.3,1.52-8.47.25-10.5,4-.85,1.52-.93,4.07,1.1,4.57,1.69.42,5.25-2.63,9.23,2,.34.34,4.4-2,4.83-1.61.42.93-2.12,5.17-3,6.52-4.4,7.37-10.59,5.59-13,4.83-2.79-.85-5.17-1.19-6.86,1.69-2.63,4.4-1.95,9.4-2.88,14.14-.17,1.1-1.52,7.45-2.79,7.28-1.1-.17-2.79-7.45-3.9-7.2-.25.08.76,8.13-2.71,11.52-.34.34-2.63-8.21-11-9.15-.34-3.56-1.69-5.5-5.67-8.89l8.38-9.91c4.57-5.42,9.91-10.33,12.28-17.19,2-5.76,3-11.69,6.69-16.6,1.78-2.37,8.3-8.47,16.85-6,.85.25,6.52-.76,7,2.54.08.34-2.2-.08-3.56.85s-2,2.88-2.37,3.13c-8.81-.76-8.55,7.11-7.62,6.18a12.47,12.47,0,0,1,15.24-1.52C612.26,402.75,613.61,405.29,613.61,405.88ZM489.88,382.42a39.66,39.66,0,0,1,28.46.17C503,371.75,489.88,382.42,489.88,382.42Zm12.79-15.92c0,1.19.51,2.2,1.19,2.2s1.19-.93,1.19-2.2-.51-2.2-1.19-2.2S502.67,365.23,502.67,366.5Zm29.22,5.42c-3.13.51-3.3,2.29-4,4.15-1,3.73-2.37,3.64-3.13,3.9-5,.85-3.3,4.83-3.22,5.08-.08,0-.08.08-.17.08-.51.42-2.2,2.12-2.46,3.22-.25-.25-16.26-8-30.06-.08,0,.08-.25-1.52-2.71-3.3,0,0,1.78-4.07-3.3-5-.76-.25-2.12-.25-3.13-3.9-.68-1.86-.85-3.64-4-4.15,0,0,1.52-1.86,5.25-.42l2.2-1.86.42,2.54,2.79-.68-1,3,2.71.51-1.78,1.69s5.34,2.63,4.74-4L489.12,374a11.83,11.83,0,0,1-1.95-4.83c-.08.08,2.63-.08,2.63-.08l-2.46-3s3.39-1.78,5.76-1.86c0-.08.17,3.64.17,3.64l2.29-1.95a25.84,25.84,0,0,1,1.44,5.5c-.17-.08-3,0-3,0s4.07,6.52,7.11-.08a3.87,3.87,0,0,1-3.22-1.36,2,2,0,0,1,1.1-1.61c-.85-.34-1.78-1.44-1.69-1.95,0-.34.59-.76,1.52-1a3.85,3.85,0,0,1-1.27-2.54,3.87,3.87,0,0,1,2.46.17s-.68-.76-.85-3.3a4.4,4.4,0,0,1,2.71.08c.17,0,.34-1.1,1.36-2.63.08-.08.08-.17.17-.17.17-.17.25-.34.42-.51h0a4.49,4.49,0,0,1,.59.76,11.28,11.28,0,0,1,1.36,2.63,5.35,5.35,0,0,1,2.71-.08c-.08,2.54-.76,3.3-.76,3.3a4.51,4.51,0,0,1,2.37-.17,3.85,3.85,0,0,1-1.27,2.54c.93.25,1.52.68,1.52,1a3.06,3.06,0,0,1-1.69,1.95,2,2,0,0,1,1.1,1.61,3.87,3.87,0,0,1-3.22,1.36c3,6.69,7.11.08,7.11.08s-2.79-.08-3,0a25.84,25.84,0,0,1,1.44-5.5l2.29,1.95s.17-3.73.17-3.64c2.29.08,5.76,1.86,5.76,1.86l-2.46,3s2.79.17,2.63.08a11.83,11.83,0,0,1-1.95,4.83l-1.95-1.19c-.59,6.52,4.74,4,4.74,4l-1.78-1.69,2.71-.51-1.1-3,2.79.68.42-2.54,2.2,1.86c3.73-1.44,5.25.42,5.25.42Zm-60.55,68.43c1.1-1,2.29-1.27.93,1.1-5,9.23-7.62,19.22.93,30.74.17.17.42.25.42,0,.51-2.63,2.71-10.33,11.6-17.11.85-.68,5.84-4.57,6.1-4.49.85.17-.68,3.39,4.91,8.13,1.44,1.19.76-.59,1.78-1.95,1.86-2.37,5.59-6.94,7.2-10,.25-.51,2.88,2.29,4.32,7.37,1.52-7.11-.08-9.74-3.56-12.62-.85-.68-.17,2.63-8.55,10.42-3.47-4.15-2.37-11.86-2.88-12.36.17.08-3.47,6-8.81,8.47-7.54,3.47-8.55,6.52-8.89,5.84-2.63-4.66.17-9.06,1.52-12.53.85-2.2,6.18-12.36,5.76-13.21-1,.76-9.91,5.5-9.74,4.15,1.52-12.7,10.33-12,11.52-21,.08-.34-4.32,2.71-4.91,3-2.37,1.36-2.71,1.86-2-.76,1.44-6,7.28-10.16,6.44-10.08-11.69.76-8.81,12.62-20.33,16.43.42,1.1,3.56.76,4.49.68s3.3-.08,4.07-.08c-8.47,9.4-4.83,16-9.32,22.78-.51.85,4.83-1.36,6.86-3ZM481.16,400c3.3.17,7-2.54,5.93-2.71-8.47-1-14.06-7.37-14.14-7.45-.59-.08.59,3.39.68,3.81,1,4.07,3,6,7.54,6.27Zm19.39,30.66c.34,0,.42-.08.59-.42.34-.76-1.78-1.95,1-8.64a22.26,22.26,0,0,0,1.27-8.81c0-3.9,3.13-7.37,3-7.54-.51-.51-6.69,4.66-6.52,8.55.08,2,.34,3.3-.76,4.91C492.42,428.58,500,430.7,500.55,430.7ZM453,444.33c10.59.59,7.11-9.32,9.32-14.31.85-1.95,3-3.9,3.56-5.5-1.36.17-11.77,2.46-10.5-9.15.08-.59,3.22,2.71,7.37,1.69,8.55-2.46,7.54-11.09,13.64-14.91-7.11-2.54-3.81-8.89-7.88-14.14-1-1.36-3.13-1.78-3.22-2.12s11.18-2.29,18.38,4.32c2.79,2.54,1.86,3,4.07.93,8.64-7.79,31.84-5.17,34.3,3.39a44.52,44.52,0,0,0,10.59,1.86c1.86,0,5,.59,4.49,2.88-1.27,5.25-4.66,5.17-4.4,6.18.93,4.23-1.95,10.08-2.54,9.91s-.51-2.29-1-2.63c-4.15-2.79-11.6-3.56-15.5-7.54-4.32,2.12-3.81,8.89-3.9,11.09-.34,6.61-2.29,7.11-1.86,7.88,1.69,2.29,4.74,3.39,8.3,3.47s3.13,1,6.52.59c1.44-.17,3.56-2.2,3.9-2s.08,3-1.1,4.83-3.73,2.54-6.18,2.29c-4-.42-10.5-1.1-12.7,3.22-1.44,2.88.68,1.52,4.15.17,10.59-4,13.13,8.21,27.69-4.66.08-.08.17,0,.17.08.08,2.12.76,7.62-6.86,11.09-3.9,1.78-11.77,1-13.8,2.71,11.09,5,20.49-2.37,26.85-2.79,4.49-.34,11.35,1.78,12.36,6.94-1.1-1.44-6-1.69-8-.93-22.1,8.55-28.88,1-30.57,2.2-1.86,1.27-1.95,5.08-1.27,6.78,1.52,3.56,5,7.79,7.2,16.18-7.28-6.35-15.75-6.78-17.53-13.47-.51-1.78-.59-4.66-1.19-6.27a42,42,0,0,0-1.86,4.74c-1.27,5.34,6.69,9.82,6.69,22.19-16.09-7.2-16.09-15.33-15.84-17.28,0-.17-.17-.17-.25-.08-.76,1.1-2.46,5.08.51,14.57a19.85,19.85,0,0,1-.76,12.62c-.42-5.08-6.94-10.5-9.23-17.19s1.95-11.77,1.78-12.11c-.25-.59-8.13,3.73-6.69,13.3,1,6.69,5.59,8.64,7.45,14s1,14.31-11.94,16.94c-1.44.25-.51-.51.25-1.61,3.9-5.17-.34-13.8-1.36-14.23-.51-.25-3.13,2.71-8.13,2.54-6.78-.25-8.89-6.86-8-6.78,11,.68,8.89-11.18,8.21-10.33s-10.16,5.08-12.53-1.69a.48.48,0,0,1,.34-.59c11-.42,6.86-11.35,6.52-15.24-.59-6.27,3.39-9.06,3-9.82-.17-.42-11.6,2.29-11.35-4Zm127,32.52A12.88,12.88,0,0,0,584.9,474c.08-.08.08-.17-.08-.25-1.61-.08-7.54-.68-11.35-7.62-3.64-6.61-9.15-12.87-17.36-12.87-3.64.08-11.6,1.95-11.26,2.46s13.47.17,19.22,8.13c4,5.5,7.2,15.58,16,13ZM520.54,415.2c-3.64-2.88-7.37-1.19-9.15,3.39-.51,1.36-.17,1.19.17,1.1,4.23-1.19,5.93-.17,8.47,1,6,2.63,10.25,1.36,12.45-3C530.7,417.66,528.08,421.13,520.54,415.2Zm86.55,110.18c-1.44-.68-1.27-3.39-3.3-3.73-1.78-.25-3.56,1.95-5.34,1.27-5.42-2.29-10.25-1.1-11.26,0,.76.59,6,1.95,7.2,2.79,2.29,1.52,3.9,4.4,2.46,8.64-.68,2.12,0,3.39-1.36,5.34-1.69,2.46-1.95,1.61-1.44-.59.08-.51-.59-.93-1.61-2.63-.68-1.1-7.62,1.36-9.91-6.35-1.69,1.1-11.35,6.52-20.24-4.23-5.42-6.52-12.36,2.2-25.75,3.3-.68.08,3.3-4,2.2-8.72-.42-1.78-.34-1.44-1.44-.59-2,1.36-5.84,3.39-8.55,3.3-.68,0,3.47-3.73.34-13.38-.17-.59-3.56,5.5-9.82,5.42,1-5,1.19-8,.25-10.08-1-2.46-3.9-4.4-8-6.61h0c.17.25.93,1.44,1.1,1.61,7.2,12.2-.25,18.55.93,18.89,7.37,2.29,12.28-2.37,12.79-2,.85.42-.68,4.57-2.37,7.45-2.63,4.49-6.52,6.78-11.52,9.4-3.9,2-11,4.66-9.91,10.25.51,2.37,6.69,10.08,7.28,14.4.68,4.91-4.32,11.35-5.17,15.67a9.29,9.29,0,0,0,.08,4.32,53,53,0,0,1-8.3-1.36,9.52,9.52,0,0,1-1.1-4c-.08-1.19.17-2.12-.51-1.44a11.88,11.88,0,0,0-2.88,4.15,56.69,56.69,0,0,1-20.07-11.6c11.09-9.74,8.47-25.75,8.13-29.39-1.27-13.55,12.79-12.7,21-36.08-6.27,12.45-31,18.12-28.12,37.43,1.36,9.32,2.54,16.26-3.9,25.24a38.89,38.89,0,0,1-3-3.47c4.07-8,.25-19.06.85-27.44,1.36-19.48,37.35-24.39,34.13-48.27,0-.17.17-.25.34-.25,6.1,2.2,9.15,6.94,10.59,9.15.25.42.59,1,.85,1.52a18.52,18.52,0,0,0,4.07-8.13,23.24,23.24,0,0,0-.08-10.25c-.08-.51,8.55,4.83,10.25,7,1.36,1.69,2.37,4.83,2.71,1.61a45.2,45.2,0,0,0-.08-9.65c1.1.76,2.88,5.5,7.11,9.82,3.39,3.56,19.31,13.89,28.12,23.71A11.34,11.34,0,0,0,576,509.71c5.34-1.86,5.08-12.45,16.68-13,3.3-.17,7.88-2.2,9.74,2.2.85,1.95-1.19,1-2.71,1.19-2,.25-3,1.19-3,3,.08,4.74-7.11,8.21-7.2,8.89,1.86.68,9.91-3,13.72.76.85.85.93,1.95,1.61,2.88,4.23,6.1,2.54,9.65,2.2,9.49ZM540.27,569.5A55.71,55.71,0,0,1,532,574c-8.13.42-16.35,2.79-16.18,2,3.81-18.55-3.64-27.44-4.66-29.9-3.81-8.89,11.43-8.55,19.9-14.4,1.1-.76,1.61.08,2.37,1.36,1.61,2.54,5.08,9.74,10.84,13.8,6.86,4.91,11.18,5.17,13.89,3.9a56.87,56.87,0,0,1-13.38,15.41c-17.45-3.22-21.34-8.13-21.43-6.35s.08,8.72.85,9.15C524.77,569.33,532.9,568.15,540.27,569.5Z" transform="translate(-410.39 -356.43)" style="fill:#e5b582"/><path d="M545.44,565.86c-32.77-6.69-33.79-21.43-34-22.61.25-2.63,6.27-5.42,11.69-5.76,1-.08-.59,10.76,29.22,21.68A56.81,56.81,0,0,1,545.44,565.86Zm-43.53,12.36a38.47,38.47,0,0,1-4.32-.76,8.86,8.86,0,0,1-1.36-6.1c.25-.59.85-1.27,1.86-3.39a28.17,28.17,0,0,0,1.36-4.32c-.17,7.28,1.1,11.77,2.54,14.48ZM421,518.35a8.08,8.08,0,0,0-5.76,1.61c2.2-3.73,5-4.91,7.88-5,12.79-.59,2.63,23.2,36.42,17.36.76-.17-1.1,2.88-1.69,3.73-.93-.42-3,.34-6.18.51-2.54.08-7.62.42-11.69-1.69-15.33-7.88-10.84-15.92-19.06-16.43Zm25.07,25c-6.86-1-15.24-5.34-17.78-11.86.76,1.27,11.52,15.58,32.27,9.32.42-.17,2,1.27,1.78,1.36-1.86.76-7,2.63-16.18,1.19Zm57.59-185.72c-.08,0,2.12,3.81.08,6.18C503.77,363.79,501.65,362.1,503.69,357.61Zm-15.58,8.64a9.66,9.66,0,0,1,1.95-.85,20.19,20.19,0,0,1,1.61,4.32c0-.08-.25-.34-1.44-.59-.08,0-2.2-2.88-2.2-2.88Zm27.69,3.47a16.19,16.19,0,0,1,1.61-4.32,13.67,13.67,0,0,1,1.95.85,32.56,32.56,0,0,1-2.2,2.88c-1.19.25-1.36.51-1.44.59Zm1,6.86c-1.61-1.86-1.19-5.67-1.19-5.67s2.37,1.36,2.46,1.36a8,8,0,0,0,.68-2.54l1.19-.08a11.62,11.62,0,0,1-1.52,4s-1.95-1.19-2-1.19c-.59,1.61.51,4.15.51,4.15Zm-27.69-3a11.62,11.62,0,0,1-1.52-4l1.19.08a8,8,0,0,0,.68,2.54c.08,0,2.46-1.36,2.46-1.36s.34,3.81-1.19,5.67c0,0,1.1-2.54.51-4.15-.08,0-2,1.19-2,1.19Zm4.57-2.37-.59-.76,3.22-.17c.17,0,.34.93.34.93Zm14.14-10.84a6.92,6.92,0,0,1-1.44,4,4.36,4.36,0,0,1,2.88-.68s-2.71,2.46-2.79,2.46a5.51,5.51,0,0,1,3.47.42l-3.3,1.44a6.32,6.32,0,0,1,2.88,1.86s-2.2-.08-3.73-.08l.34,3.22-1.86-3.22h.08c3-3,.42-5.67.42-5.67l3.3-3.73Zm5.93,10.92h-3s.17-1,.34-1l3.22.17-.59.76Zm-12.7-5.17c-.08-.08-2.79-2.46-2.79-2.46a5.06,5.06,0,0,1,2.88.68,6.41,6.41,0,0,1-1.44-4L503,364s-2.63,2.54.42,5.67l-1.86,3.22.34-3.22c-1.52.08-3.73.08-3.73.08a5.66,5.66,0,0,1,2.88-1.86l-3.39-1.44a4.89,4.89,0,0,1,3.47-.42Zm-8.64,6.27c6.18,6,10.08,1.19,11.26-1.36,1.95,3.81,5.93,6.52,11.26,1.27-1.27,4.49.51,5.84,1.36,6.44-5.84-2.54-15.5-4.66-25.32,0,.93-.42,2.54-2.37,1.36-6.35Zm37.77-.08c-2.12.34-2.37,1.36-3,3.3-.76,3-2.37,3.47-3.56,3.9a3.94,3.94,0,0,0-3.22,4.49,7.67,7.67,0,0,1-2.12-5.25c5.76,1.19,6.27-2.12,6.94-3.56C527.06,371.42,530.28,372.18,530.19,372.26Zm-46.33,7.11c-1.19-.42-2.79-.85-3.56-3.9-.68-2-.85-3-3-3.3-.08-.08,3.13-.85,5,2.88.59,1.44,1.19,4.74,6.94,3.56a7.67,7.67,0,0,1-2.12,5.25A3.91,3.91,0,0,0,483.87,379.38ZM435.26,425.7a19.87,19.87,0,0,1,12.79-18c.76-.34-14.4,9.32-8.64,25.49C439.58,433.66,435.34,426.46,435.26,425.7ZM495,438c-7.2,10.59-12.53,8.13-18.29,15.16-1.61-18,14.48-13,15.67-21.93,11.69,4.23,6.61,12.7,5.17,19.65-2.29-1.95-2.37-12.79-2.54-12.79Zm-68.26-35c-18.72,20,.76,28.2,3.13,34.55-11.86-.85-12.87,5.93-13.38,7.79-3.39-7.71,9.06-10.08,6.18-11.69-5.34-3-13.89-18.38,4.07-30.57Zm5.59,91c3.39-7.62,10.08-29.39,4.57-42.51-3-7.37-17.11-8.47-21,2.54a.33.33,0,0,1-.59,0c-1.1-3.81,4.32-11.52,11.35-11.52s12.28,5.84,13.8,12.7c1.36,6.27,1.27,24.9-8,38.79Zm-16.85,12.7c-2.46-9.23,7.2-15.33,12-5.42,2,4.74,2.79,9,1.27,8.89-.51-4.23-7.28-15.92-13.3-3.56ZM592.87,397.33c1-4.15,6.27-4.66,7.45-4.66s2.88-3,7.11-.51c.08,0,.08.17,0,.17a6.63,6.63,0,0,0-3,.34c-1.36.68-2.37,2.29-3,3.22-8.72-.93-7.54,6.35-7.88,6.27s-1.44-.93-.51-4.74Zm19.65,8.3c-2.71-1-4.32-.76-5.25,0-1.1.85-2.79,3.3-3.73,4-2.54,1.61-13-.17-10.92,8.38-1.19.59-8.64-10.84,12.87-13.55.85-1.27,4.49-3,7.11,1.27Zm-6.61,17.78c-1.52,2.29-2.54,7-9.82,7-4.49,0-7.2-3-10.5.25.68-2,1.44-3.56,5-4.07,6.18,2.63,12.79-1.1,13.13-4.57a18.77,18.77,0,0,1,4.23-2.29C608.28,420.45,606.42,422.57,605.91,423.41ZM564,437a32.26,32.26,0,0,1,1.27-4.49c3-3.47,13-14.91,16.77-21.26.08-.08.17,0,.17.08-2.46,7.37-16.26,23-18.12,25.75-.08.08-.17,0-.17-.08Zm21.77-16.77c-4.32,11.6-3.56,28.12-5.59,32.1-1.1-1-2.71-6.18-3.81-7.79C577,443,576.94,431.54,585.75,420.28ZM558.06,440.1c-.17-.08,0-.34.17-.34,1.27.25,3.47.93,6,6.61.51,1.19,10.92-3.64,9,9.74,0,.08-.17.08-.17,0-2.37-6.94-10.33-7.62-10.42-8C562.38,445.1,559.67,441.54,558.06,440.1ZM453.3,445.18c-.08-.08,5.17,4.07,16.51-2.37-.25.25-5,4.74-5.25,4.91-2.29.68-9,2.2-11.35-2.63Zm12.87,21.77c2.29,2.54,5.25,8.38,4.49,13-.59,3.64-2.63,6.27-6.27,6.61,2-.85,6.44-8.21,2.37-12.7-.25-.34-6.78,7.11-12,.68,9.91,1,11.52-7.45,11.35-7.62Zm28,21.77c.34-.76-6.18-9.4-7.71-13-3-6.69.42-13.3,1.86-15a18.26,18.26,0,0,0,1.61-1.36c-5.08.42-15.33,12.45-15.75,13.38,1.19-8.89,14.06-18.46,16-21,.25-.34.17,7.11.17,7.28s4.07,4.91,4.07,5c-1.27.42-3.39.51-3.64.76-5.17,6.94,6.18,16.85,3.3,24ZM498.69,473c-4.4-5.25-2.79-8.55-2.79-8.55S506,475.92,510,480.66c-3,0-10.5-6.52-11.43-7.62Zm11.94,34.47c-2.12,15.07-20.16,20.75-21.34,31.25-2.2,18.8-10.67,23-13.72,23.63,7.62-10.16,6.18-21.34,5.93-25.83-.17-3.56-.25-6.61,1.1-8.55,3.47-5.25,17.36-16.18,19.48-31.67-3.9,11.69-27.61,18.46-30.66,33.28-2.79-19.06,30.83-18.89,30.66-44.89.17.08,10.76,7.2,8.64,22.78ZM502,545.11c-.59.25-3.9-4.23-3.9-4.91,0-7.54,7.28-8.72,13.3-10.08,11.18-2.63,11.94-8.72,14.4-11.69-.42,3.22-3.47,11-13.8,14.82-14.65,5.34-10.08,11.86-10.08,11.86Zm9.15-79.86c-2.12-1.78-3-2.79-3.56-4.66-.08-.34-.17-.59-.25-.93-.17-.85-.42-1.95-.68-3.13-.08-.59-.25-1.36-.42-2.12a.44.44,0,0,0-.42.08c-2.29,2.29-2.63,5.93-2.63,5.5-1.61-3.56,1.19-12.2,2-12.28.17,0,1.1,5.67,1.19,5.76s15.92,18.8,16.68,19.39c-3.13-2.46-8.81-5-11.86-7.62Zm8.81,49.63c.34-1.95,5.5-12.2-7.79-16.18,11.77,2.79,10.84,8,10.84,12.53,0,.76-3,3.73-3.13,3.64Zm-43.87-9.15c1.19-1,4.74-7.28-.93-16.51-.93.42-4.4,3-8.21,3-4.07,0-8-3.13-8.13-5.5,5.42,6.18,15.67,2.79,17.62-6C476.59,480.75,492.85,496.93,476.08,505.73Zm94.09,14.82a9.25,9.25,0,0,1-1.44-.42C569.24,520.3,569.66,520.38,570.17,520.55Zm0,0a9.25,9.25,0,0,1-1.44-.42C569.24,520.3,569.66,520.38,570.17,520.55Zm-31.08-15.33c-9.23-6.78-14.4-14.4-24.05-14.82,4.07-4.74,3-10.08,2.88-13.64,2.46,1.27,29.47,37,50.81,43.36-13.89-3.9-22.53-9.74-29.64-15Zm49,6.18c.34-6.35,6.44-4.32,6.44-10.5a4.45,4.45,0,0,1,7-1.78c.08.08,0,.17-.08.17-4.49-.08-5.5,1.86-5.42,3.22.25,6.27-7.54,7.79-8,8.81ZM463.88,419.35c10.67-7.45,7.11-11.26,12.87-16.94a45.42,45.42,0,0,0,9.15.25c-.51.68-7-1.78-12.45,9.06C470.66,417.4,462.78,420.11,463.88,419.35Zm39.38-32.27c-8.21,1.44-9.32,2.88-10.42,3.64-.25.17-.34,6.86-1.44,7.88h0c-.59-1-3.3-5.34-4.66-5.84C487.68,391.57,492.68,387.51,503.26,387.08ZM524.69,431c-4.07,5-16.43-2.88-19.39,6.69-.08.17-7.2-9.91-1.52-15.75.08-.08,1.78,6.44,1.78,6.44.42,1.19,15.33,2.71,16.85,2.37.59-.17,3.3-3.56,3.64-3.81s-.08,2.46-1.36,4Zm-69.11-14.74c4.83,8.38,11.09,5.59,15.5,5.5,0,.17-4.07,1.44-4.91,2.37-3.13.34-10.59,1.78-10.67-7.88Zm82.57,17.19c.25,7-7.54,11.09-12.62,10.84-3.13-.17-6.35.17-8.47,1.61-.59-11.18,13.47,1.61,21.17-12.36Zm5.93,12.87c4.91-1.52,12.2,2.2,12.2,3-7.28-3-16.6,7.45-33.71,2.88-1.61-.42-2.54-1.44-4.49-1.27C523.25,447.55,520.46,453.39,544.08,446.28Zm-14.14-32.44c-.42-4.49-10.25-3.3-15.92-8.81-1-.93-4.74,2.79-4.91,6.86-1.61-2.71-1.86-5.17-1.95-8.64a11,11,0,0,0-6.1-3.81c4-.51,4.74,1.36,11.77,3.73.42.17,5.42-1.86,5.42-1.61,0,.68,5.76,7.2,6.52,7.45,6.94,2.12,7.11-2.88,7.37-2.63C532.4,406.82,531.38,414.27,529.94,413.84Zm1.52-15.24c3,2.46,4.49-.25,4.49,0a8.31,8.31,0,0,1-4.32,5.93c-3.22-.68-4.57-6.94-4.23-6.86,2.12.76,3.81.68,4.15.93Zm-42.09,6.69c.59.08,1.61,5.34-3.13,8.89.17-.51.59-3.39.68-4,.17-1.36-5.67,3.39-7.71,4.57C482.26,403.51,489.2,405.29,489.37,405.29Zm5.25,8.89c-.76,7.11-4.07,9.91-10.76,13.47,0,0-8,4.4-8.64,4.49C475.06,420.87,493.27,419.26,494.63,414.18Zm62,51.32c8.72,7.37,1.78,16.68,10.16,23.2-12.45-3.81-8.3-15-14.23-20.16s-14.48-2.88-14.48-2.88S547.81,458.14,556.62,465.51Zm12.53-1.44c1.95,3.3,4.23,11.77,14.91,10.33-1.44.51-10.16,8.38-18-8-4.49-9.4-17.36-10.25-20.33-10.5,14.91-3.13,19.73,2.12,23.46,8.21Zm37.69,60.47c0,.08-.17.08-.17,0-2.54-6.44-6.1-1.69-7.79-2.54-2.88-1.52-10.25-1.61-11.77-.17.42-4.15,8.55-5.76,14.91-3.56C603.28,518.35,607.52,520.21,606.84,524.53Zm-69-58.61c0,.17,15,22.1,15.67,23.71-7.11-5.84-8.72-6.27-13-10.25-5.5-5-7.79-12.87-15.07-20.24.25-.08,12.53,6.44,12.53,6.78Zm57.25,69.53c.08,1.61,1.36,2.37-.42,5.08-.08.08-.17,0-.17-.08.34-1.78-.76-2.54-1.86-4.07-5.34-.51-8.47-2.12-9.15-7.2-11.69,7.88-19.22-3.47-22.61-4.74-.34-.34,13.8,5.34,23.71-.34,2.63,7.37,9.23,4.07,10.5,11.43Zm-7.88-142.62h0Zm.08,0h0Zm-66-7.37a8.91,8.91,0,0,0-2.63,3.3c-.25-.25-16.26-8-30-.08,0,.08-.25-1.52-2.71-3.3,0,0,1.61-.85,4.66.25a37,37,0,0,1,26.08.17c0,.08,2.37-1.19,4.57-.25Zm65.8,7.37h0Zm.08,0h0ZM521.73,418.5c-1.78-1.1-3.56-2.29-5.59-2.29-3.73-.08-4.07,2.79-4.07,2.79,8.89-4.66,8.72,7.54,19.22-.34a9.22,9.22,0,0,1-9.49-.17Zm-8.81-20h.34a8.3,8.3,0,0,0,2.54-1.36c2.54-1.86.68-2.2-2.71-3.39-2.2-.51-10.5-1.19-10.59-.51v.08h-.08c-.76.17-5.84-.68-7.45-.68,2.88-1.1,18-5.84,24.48,1.27.08.08-1.19,5.84-6.44,4.74Z" transform="translate(-410.39 -356.43)" style="fill:#857040"/></svg>