<?xml version="1.0" encoding="utf-8"?>
<!-- Generator: Adobe Illustrator 23.0.1, SVG Export Plug-In . SVG Version: 6.00 Build 0)  -->
<svg version="1.1" id="Layer_1" xmlns="http://www.w3.org/2000/svg" xmlns:xlink="http://www.w3.org/1999/xlink" x="0px" y="0px"
	 viewBox="0 0 1000 1000" style="enable-background:new 0 0 1000 1000;" xml:space="preserve">
<style type="text/css">
	.st0{fill:#FCCB12;}
	.st1{fill:none;stroke:#FCCB12;stroke-width:0.2097;}
	.st2{fill:#0F793B;}
	.st3{fill:none;stroke:#0F793B;stroke-width:0.2097;}
	.st4{fill:#FFFFFF;}
	.st5{fill:none;stroke:#FFFFFF;stroke-width:0.2097;}
</style>
<g>
	<path class="st0" d="M508.8,739.4C262,577.2,265.6,379.8,265.6,379.8V153h473.6v230.3C722.7,617.2,508.8,739.4,508.8,739.4
		L508.8,739.4z"/>
	<path class="st1" d="M508.8,739.4C262,577.2,265.6,379.8,265.6,379.8V153h473.6v230.3C722.7,617.2,508.8,739.4,508.8,739.4
		L508.8,739.4z"/>
	<path class="st2" d="M356.6,330.4H275V163.6h454.8v166.9h-76.4v-42.3h-90.5v-43.5h-121v43.5h-85.2V330.4z M270.8,384.5V158.9h463
		v228c-25.8,227.4-225,345.5-225,345.5C282,583.1,270.8,384.5,270.8,384.5L270.8,384.5z"/>
	<path class="st3" d="M356.6,330.4H275V163.6h454.8v166.9h-76.4v-42.3h-90.5v-43.5h-121v43.5h-85.2V330.4z M270.8,384.5V158.9h463
		v228c-25.8,227.4-225,345.5-225,345.5C282,583.1,270.8,384.5,270.8,384.5L270.8,384.5z"/>
	<path class="st4" d="M421.9,376.9c31.7-34.7,70.5-58.2,70.5-58.2c4.7-4.1,5.9,3.5,5.9,3.5l3.5,14.7c2.9,14.1,6.5,1.2,6.5,1.2
		l1.2-15.3c0-11.2,7-3.5,7-3.5c38.8,25.3,76.4,62.3,76.4,62.3c-11.8,6.5-22.9,22.3-22.9,22.3c-0.6-19.4,0.6-38.2,0.6-38.2
		c-17.6,2.4-35.9,37.6-35.9,37.6c-14.1-28.2-27-36.4-27-36.4c-12.4,5.3-25.3,33.5-25.3,33.5c-11.2-29.4-38.2-37.6-38.2-37.6
		c2.4,12.3,3.5,37,3.5,37C438.9,386.8,421.9,376.9,421.9,376.9L421.9,376.9z"/>
	<path class="st5" d="M421.9,376.9c31.7-34.7,70.5-58.2,70.5-58.2c4.7-4.1,5.9,3.5,5.9,3.5l3.5,14.7c2.9,14.1,6.5,1.2,6.5,1.2
		l1.2-15.3c0-11.2,7-3.5,7-3.5c38.8,25.3,76.4,62.3,76.4,62.3c-11.8,6.5-22.9,22.3-22.9,22.3c-0.6-19.4,0.6-38.2,0.6-38.2
		c-17.6,2.4-35.9,37.6-35.9,37.6c-14.1-28.2-27-36.4-27-36.4c-12.4,5.3-25.3,33.5-25.3,33.5c-11.2-29.4-38.2-37.6-38.2-37.6
		c2.4,12.3,3.5,37,3.5,37C438.9,386.8,421.9,376.9,421.9,376.9L421.9,376.9z"/>
	<path class="st0" d="M416.6,373.4c37.6-35.9,72.9-58.8,72.9-58.8c7-4.7,12.3,2.9,12.3,2.9l1.8,8.2c1.8,4.7,2.4-2.9,2.4-2.9l1.2-5.9
		c1.2-9.4,14.1,0,14.1,0l77,61.1l-6.5,3.5c-47-44.6-76.4-62.8-76.4-62.8c-4.1-3.5-5.9,1.2-5.9,1.2c-0.6,11.7-2.4,18.8-2.4,18.8
		c-2.3,10-5.3-0.6-5.3-0.6l-4.7-18.2c-1.2-3.5-7,0-7,0c-38.8,25.2-68.7,57-68.7,57L416.6,373.4z"/>
	<path class="st1" d="M416.6,373.4c37.6-35.9,72.9-58.8,72.9-58.8c7-4.7,12.3,2.9,12.3,2.9l1.8,8.2c1.8,4.7,2.4-2.9,2.4-2.9l1.2-5.9
		c1.2-9.4,14.1,0,14.1,0l77,61.1l-6.5,3.5c-47-44.7-76.4-62.8-76.4-62.8c-4.1-3.5-5.9,1.2-5.9,1.2c-0.6,11.7-2.4,18.8-2.4,18.8
		c-2.3,10-5.3-0.6-5.3-0.6l-4.7-18.2c-1.2-3.5-7,0-7,0c-38.8,25.2-68.7,57-68.7,57L416.6,373.4z"/>
	<path class="st0" d="M507.7,375.7c25.3,28.2,27,72.9,27,72.9c-1.2,48.8-26.5,84-26.5,84c-28.2-44.1-26.4-85.8-26.4-85.8
		C481.8,398.6,507.7,375.7,507.7,375.7L507.7,375.7z"/>
	<path class="st1" d="M507.7,375.7c25.3,28.2,27,72.9,27,72.9c-1.2,48.8-26.5,84-26.5,84c-28.2-44.1-26.4-85.8-26.4-85.8
		C481.8,398.6,507.7,375.7,507.7,375.7L507.7,375.7z"/>
	<polygon class="st4" points="609.3,392.7 616.4,398 609.3,403.9 	"/>
	<polygon class="st5" points="609.3,392.7 616.4,398 609.3,403.9 	"/>
	<path class="st0" d="M609.3,392.1l0.6-5.9l10,9.4c11.7-15.3,28.8-22.9,28.8-22.9c-11.7,23.5-9.4,42.3-9.4,42.3
		C627.5,515.5,545.8,532,545.8,532c74.1-49.9,63.5-128.7,63.5-128.7l5.9-5.9L609.3,392.1z"/>
	<path class="st1" d="M609.3,392.1l0.6-5.9l10,9.4c11.7-15.3,28.8-22.9,28.8-22.9c-11.7,23.5-9.4,42.3-9.4,42.3
		C627.5,515.5,545.8,532,545.8,532c74.1-49.9,63.5-128.7,63.5-128.7l5.9-5.9L609.3,392.1z"/>
	<path class="st0" d="M572.9,408.6c12.4-17,32.3-28.2,32.3-28.2c-4.7,10.6-5.9,34.1-5.9,34.1c0.6,36.4-14.7,65.2-14.7,65.2
		c-20,34.1-55.2,52.3-55.2,52.3C580.5,486.8,572.9,408.6,572.9,408.6L572.9,408.6z"/>
	<path class="st1" d="M572.9,408.6c12.4-17,32.3-28.2,32.3-28.2c-4.7,10.6-5.9,34.1-5.9,34.1c0.6,36.4-14.7,65.2-14.7,65.2
		c-20,34.1-55.2,52.3-55.2,52.3C580.5,486.8,572.9,408.6,572.9,408.6L572.9,408.6z"/>
	<path class="st0" d="M540.5,406.8c9.4-22.3,25.3-32.3,25.3-32.3c-7,20.6-2.3,49.9-2.3,49.9c5.9,72.8-40.5,101-40.5,101
		c27-46.4,21.7-86.3,21.7-86.3C540.5,418.6,540.5,406.8,540.5,406.8L540.5,406.8z"/>
	<path class="st1" d="M540.5,406.8c9.4-22.3,25.3-32.3,25.3-32.3c-7,20.6-2.3,49.9-2.3,49.9c5.9,72.8-40.5,101-40.5,101
		c27-46.4,21.7-86.3,21.7-86.3C540.5,418.6,540.5,406.8,540.5,406.8L540.5,406.8z"/>
	<polygon class="st4" points="410.1,388.6 403.3,396.9 410.3,402.8 	"/>
	<polygon class="st5" points="410.1,388.6 403.3,396.9 410.3,402.8 	"/>
	<path class="st0" d="M410.1,388.6l-0.6-6.5c-2.9,6.5-9.8,12.4-9.8,12.4C388,379.3,371,371.6,371,371.6c11.7,23.5,9.4,42.3,9.4,42.3
		c11.8,100.5,93.4,116.9,93.4,116.9c-74-49.9-63.5-128.7-63.5-128.7l-5.9-5.9L410.1,388.6z"/>
	<path class="st1" d="M410.1,388.6l-0.6-6.5c-2.9,6.5-9.8,12.4-9.8,12.4C388,379.3,371,371.6,371,371.6c11.7,23.5,9.4,42.3,9.4,42.3
		c11.8,100.5,93.4,116.9,93.4,116.9c-74-49.9-63.5-128.7-63.5-128.7l-5.9-5.9L410.1,388.6z"/>
	<path class="st0" d="M445,409.2c-12.3-17-32.3-28.2-32.3-28.2c4.7,10.6,5.9,34.1,5.9,34.1c-0.6,36.4,14.7,65.2,14.7,65.2
		c20,34.1,55.2,52.3,55.2,52.3C437.4,487.4,445,409.2,445,409.2L445,409.2z"/>
	<path class="st1" d="M445,409.2c-12.3-17-32.3-28.2-32.3-28.2c4.7,10.6,5.9,34.1,5.9,34.1c-0.6,36.4,14.7,65.2,14.7,65.2
		c20,34.1,55.2,52.3,55.2,52.3C437.4,487.4,445,409.2,445,409.2L445,409.2z"/>
	<path class="st0" d="M477.3,407.5c-9.4-22.3-25.3-32.3-25.3-32.3c7.1,20.5,2.4,50,2.4,50c-5.9,72.8,40.5,101,40.5,101
		c-27-46.4-21.7-86.4-21.7-86.4C477.3,419.2,477.3,407.5,477.3,407.5L477.3,407.5z"/>
	<path class="st1" d="M477.3,407.5c-9.4-22.3-25.3-32.3-25.3-32.3c7.1,20.5,2.4,50,2.4,50c-5.9,72.8,40.5,101,40.5,101
		c-27-46.4-21.7-86.4-21.7-86.4C477.3,419.2,477.3,407.5,477.3,407.5L477.3,407.5z"/>
	<path class="st0" d="M525.3,624.8c1.8-61.1,53.5-67.6,53.5-67.6c68.8-5.3,65.8-44.1,65.8-44.1c17,79.3-31.2,88.2-31.2,88.2
		C554.1,603.7,525.3,624.8,525.3,624.8L525.3,624.8z"/>
	<path class="st1" d="M525.3,624.8c1.8-61.1,53.5-67.6,53.5-67.6c68.8-5.3,65.8-44.1,65.8-44.1c17,79.3-31.2,88.2-31.2,88.2
		C554.1,603.7,525.3,624.8,525.3,624.8L525.3,624.8z"/>
	<path class="st0" d="M488.8,623.4c-1.8-61.1-53.5-67.6-53.5-67.6c-68.8-5.3-65.8-44.1-65.8-44.1c-17.1,79.3,31.1,88.1,31.1,88.1
		C460,602.2,488.8,623.4,488.8,623.4L488.8,623.4z"/>
	<path class="st1" d="M488.8,623.4c-1.8-61.1-53.5-67.6-53.5-67.6c-68.8-5.3-65.8-44.1-65.8-44.1c-17.1,79.3,31.1,88.1,31.1,88.1
		C460,602.2,488.8,623.4,488.8,623.4L488.8,623.4z"/>
	<path class="st0" d="M495,673.5c10.6-25.3,9.1-49.8,9.1-49.8v-77h8.8v75.8c-1.2,24.1,11.5,51.7,11.5,51.7c-5.9-1.3-8,1.9-8,1.9
		c-1.3,1.6-2.3,5.7-2.3,5.7c-0.7,4.6-4,5.9-4,5.9c-2.9-0.9-4.3-6.5-4.3-6.5c-0.4-3.4-3.5-5.9-3.5-5.9C500.5,674,495,673.5,495,673.5
		L495,673.5z"/>
	<path class="st1" d="M495,673.5c10.6-25.3,9.1-49.8,9.1-49.8v-77h8.8v75.8c-1.2,24.1,11.5,51.7,11.5,51.7c-5.9-1.3-8,1.9-8,1.9
		c-1.3,1.6-2.3,5.7-2.3,5.7c-0.7,4.6-4,5.9-4,5.9c-2.9-0.9-4.3-6.5-4.3-6.5c-0.4-3.4-3.5-5.9-3.5-5.9C500.5,674,495,673.5,495,673.5
		L495,673.5z"/>
	<g>
		<path class="st0" d="M261.4,559.6C340.8,685.3,433,698.3,433,698.3l-2.4,43.5c77.6,28.8,159.8,2.4,159.8,2.4l-10-43.5
			c119.9-41.1,171-142.2,171-142.2c23.5,22.9,17,69.9,17,69.9c21.2-9.4,57-38.2,57-38.2c-11.2,75.2-71.7,115.2-71.7,115.2l21.8,24.1
			C671.6,854,502.9,846.9,502.9,846.9c-168.1,0-260.3-102.2-260.3-102.2l27.6-30C189.2,646,174.5,579,174.5,579
			c41.1,30.6,65.2,39.9,65.2,39.9C239.7,584.3,261.4,559.6,261.4,559.6L261.4,559.6z"/>
		<path class="st1" d="M261.4,559.6C340.8,685.3,433,698.3,433,698.3l-2.4,43.5c77.6,28.8,159.8,2.4,159.8,2.4l-10-43.5
			c119.9-41.1,171-142.2,171-142.2c23.5,22.9,17,69.9,17,69.9c21.2-9.4,57-38.2,57-38.2c-11.2,75.2-71.7,115.2-71.7,115.2l21.8,24.1
			C671.6,854,502.9,846.9,502.9,846.9c-168.1,0-260.3-102.2-260.3-102.2l27.6-30C189.2,646,174.5,579,174.5,579
			c41.1,30.6,65.2,39.9,65.2,39.9C239.7,584.3,261.4,559.6,261.4,559.6L261.4,559.6z"/>
		<path class="st2" d="M192.7,601.3c28.8,22.9,55.8,24.7,55.8,24.7c-3-27.6,12.9-52.9,12.9-52.9c57,104.6,167.5,133.4,167.5,133.4
			c-39.4,6.5-109.3-14.1-109.3-14.1c75.8,72.9,195.7,71.7,195.7,71.7c121.6-4.7,191.5-79.3,191.5-79.3c-73.4,17-118.7,20-118.7,20
			c116.4-41.1,163.3-134.5,163.3-134.5c14.7,24.7,10.6,66.4,10.6,66.4c15.3,1.2,51.1-27,51.1-27c-7.7,40.5-62.9,90.5-62.9,90.5
			l-24.1-22.3l-7,7c21.1,14.7,44.6,42.9,44.6,42.9C654.6,851.1,502.4,838.1,502.4,838.1C343.7,840.5,255,743.5,255,743.5
			c20.6-27,49.4-53.5,49.4-53.5l-5.9-7l-22.9,24.7C211.5,653.6,192.7,601.3,192.7,601.3L192.7,601.3z"/>
		<path class="st3" d="M192.7,601.3c28.8,22.9,55.8,24.7,55.8,24.7c-3-27.6,12.9-52.9,12.9-52.9c57,104.6,167.5,133.4,167.5,133.4
			c-39.4,6.5-109.3-14.1-109.3-14.1c75.8,72.9,195.7,71.7,195.7,71.7c121.6-4.7,191.5-79.3,191.5-79.3c-73.4,17-118.7,20-118.7,20
			c116.4-41.1,163.3-134.5,163.3-134.5c14.7,24.7,10.6,66.4,10.6,66.4c15.3,1.2,51.1-27,51.1-27c-7.7,40.5-62.9,90.5-62.9,90.5
			l-24.1-22.3l-7,7c21.1,14.7,44.6,42.9,44.6,42.9C654.6,851.1,502.4,838.1,502.4,838.1C343.7,840.5,255,743.5,255,743.5
			c20.6-27,49.4-53.5,49.4-53.5l-5.9-7l-22.9,24.7C211.5,653.6,192.7,601.3,192.7,601.3L192.7,601.3z"/>
	</g>
	<path class="st4" d="M337,770.4l7.5,2.6c-0.7,2.6-0.6,4.8,0.2,6.6c0.8,1.7,2.3,3.1,4.6,4.2c2.4,1.1,4.4,1.5,6.1,1
		c1.7-0.4,2.8-1.3,3.5-2.7c0.4-0.9,0.5-1.7,0.2-2.6c-0.2-0.9-0.8-1.8-1.9-2.8c-0.7-0.7-2.5-2.2-5.2-4.4c-3.5-2.8-5.7-5.3-6.6-7.5
		c-1.3-3.1-1.3-6.1,0.1-8.9c0.9-1.8,2.2-3.4,4-4.5c1.8-1.1,3.9-1.7,6.3-1.6c2.4,0.1,5,0.8,7.8,2.1c4.6,2.2,7.6,4.8,9,7.9
		c1.4,3.1,1.3,6.4-0.1,9.8l-7.5-3.1c0.6-2,0.5-3.7-0.2-5c-0.7-1.3-2-2.5-4.1-3.4c-2.2-1-4-1.3-5.7-1c-1,0.2-1.8,0.8-2.2,1.7
		c-0.4,0.8-0.4,1.8,0.1,2.7c0.5,1.2,2.4,3.1,5.6,5.6c3.2,2.5,5.4,4.6,6.7,6.3c1.3,1.7,2.1,3.6,2.3,5.6c0.3,2-0.1,4.2-1.2,6.5
		c-1,2.1-2.5,3.8-4.5,5.1c-2,1.3-4.3,1.9-6.8,1.8c-2.5-0.1-5.4-0.9-8.6-2.4c-4.6-2.2-7.7-4.9-9.2-8.2
		C335.6,778.5,335.6,774.7,337,770.4L337,770.4z"/>
	<path class="st4" d="M403.9,810.4l-8.4-2.7l-0.5-9.8l-15.4-5l-6,7.7l-8.2-2.7l27.5-33.5l8.2,2.7L403.9,810.4z M394.6,790.5l-0.7-16
		l-9.8,12.6L394.6,790.5z"/>
	<path class="st4" d="M454.6,804.8l7.4,3.7c-1.9,4.2-4.4,7.1-7.5,8.8c-3.1,1.7-6.8,2.1-11.1,1.5c-5.3-0.8-9.4-3.3-12.2-7.5
		c-2.8-4.2-3.8-9.4-2.8-15.6c1-6.6,3.6-11.5,7.6-14.7c4-3.1,8.8-4.3,14.4-3.4c4.9,0.8,8.6,2.9,11.2,6.2c1.5,2,2.5,4.7,2.9,8
		l-8.3,0.7c-0.1-2.1-0.9-4-2.2-5.4c-1.3-1.4-3-2.3-5.2-2.7c-3-0.5-5.5,0.2-7.7,2c-2.2,1.8-3.6,5.1-4.4,9.9c-0.8,5-0.5,8.8,1,11.2
		c1.5,2.4,3.7,3.9,6.6,4.4c2.1,0.3,4.1-0.1,5.8-1.2C452,809.5,453.5,807.6,454.6,804.8L454.6,804.8z"/>
	<path class="st4" d="M468.8,821.7l2.1-40.3l17.1,0.9c4.3,0.2,7.4,0.8,9.3,1.6c1.9,0.8,3.4,2.2,4.5,4.1c1.1,1.9,1.5,4,1.4,6.4
		c-0.1,3-1.2,5.5-3,7.4c-1.9,1.9-4.6,3-8.2,3.3c1.7,1.1,3.1,2.3,4.2,3.6c1.1,1.3,2.5,3.5,4.3,6.8l4.5,8.1l-9.8-0.5l-5.4-9.1
		c-1.9-3.2-3.3-5.3-4-6.2c-0.7-0.9-1.5-1.5-2.3-1.8c-0.8-0.4-2.2-0.6-4.1-0.7l-1.6-0.1l-0.9,16.8L468.8,821.7z M478.2,798.9l6,0.3
		c3.9,0.2,6.4,0.1,7.3-0.1c1-0.3,1.8-0.8,2.4-1.6c0.6-0.8,0.9-1.8,1-3c0.1-1.4-0.2-2.5-0.9-3.3c-0.7-0.9-1.7-1.5-3-1.7
		c-0.6-0.1-2.6-0.3-5.9-0.5l-6.4-0.3L478.2,798.9z"/>
	<polygon class="st4" points="510.9,823.4 509.5,783.1 517.7,782.8 519.1,823.1 	"/>
	<path class="st4" d="M552.4,805.2l8.2,1.5c-0.7,4.5-2.3,8-4.8,10.5c-2.5,2.5-6,3.9-10.2,4.5c-5.3,0.7-9.9-0.6-13.8-3.8
		c-3.9-3.2-6.2-8-7-14.3c-0.8-6.7,0.3-12.1,3.3-16.2c3-4.1,7.3-6.5,12.9-7.2c4.9-0.6,9.1,0.3,12.5,2.9c2,1.5,3.7,3.8,5,6.9l-7.8,2.9
		c-0.7-2-1.9-3.6-3.6-4.6c-1.6-1-3.5-1.4-5.7-1.2c-3,0.4-5.2,1.7-6.8,4.1c-1.6,2.4-2.1,5.9-1.5,10.7c0.6,5.1,2,8.6,4.1,10.5
		c2.1,1.9,4.6,2.7,7.5,2.3c2.1-0.3,3.9-1.2,5.3-2.7C551.2,810.5,552.1,808.2,552.4,805.2L552.4,805.2z"/>
	<polygon class="st4" points="570.7,817.4 560.9,778.2 568.8,776.2 573.2,793.6 584.8,772.2 595.5,769.6 584.5,788.5 606,808.6 
		595.8,811.1 580.4,795.4 575.7,803.6 578.6,815.4 	"/>
	<polygon class="st4" points="611.6,806.3 597.1,768.6 625.1,757.9 627.5,764.3 607.1,772.1 610.4,780.4 629.3,773.2 631.7,779.5 
		612.8,786.8 616.8,797 637.8,789 640.2,795.3 	"/>
	<polygon class="st4" points="655.9,787 640.1,757.4 629.6,763 626.4,756.9 654.7,741.9 657.9,747.9 647.3,753.5 663.1,783.2 	"/>
</g>
</svg>
