<?xml version="1.0" encoding="utf-8"?>
<!-- Generator: Adobe Illustrator 23.0.1, SVG Export Plug-In . SVG Version: 6.00 Build 0)  -->
<svg version="1.1" id="Layer_1" xmlns="http://www.w3.org/2000/svg" xmlns:xlink="http://www.w3.org/1999/xlink" x="0px" y="0px"
	 viewBox="0 0 1000 1000" style="enable-background:new 0 0 1000 1000;" xml:space="preserve">
<style type="text/css">
	.st0{fill:#862A36;}
	.st1{fill:#F4BD24;}
	.st2{fill:#49BBE3;}
	.st3{fill:#0099D6;}
	.st4{fill:#00A750;}
	.st5{fill:#784427;}
</style>
<g>
	<rect x="114" y="114" class="st0" width="772" height="772"/>
	<g>
		<path class="st0" d="M740.6,504c-8.5-24.1-23.8-91.4-23.8-120.7c0-29.3,26.7-64.1,26.7-64.1l-96.5-87.8c0,0-39.8,18.2-67.6,15.1
			c-25.4-2.8-82-40-82-40s-51.6,37.1-77,40c-27.8,3.1-72.6-15.7-72.6-15.7l-92.4,87.8c0,0,24.8,40,24.8,69.3
			c0,29.3-12.1,93.6-21.4,120.7c-8.2,24.2-22.9,70.3-16.7,95c6.2,24.7,24.7,62.5,58.7,81.8c33,18.7,86.4,43.2,100.3,50.9
			c13.9,7.7,78.7,37,98.8,57.1c20.1-20.1,84.9-49.4,98.8-57.1c13.9-7.7,67.3-32.2,100.3-50.9c34-19.3,52.5-57.1,58.7-81.8
			C763.9,578.9,749.9,530,740.6,504"/>
		<path class="st1" d="M703.1,379.2c0-14.7,19.6-60.1,19.6-60.1s-64-59-78-69.9c0,0-39.8,14.4-71,10.4c-31.2-4-75.7-35-75.7-35
			s-49.4,32.9-73.4,35.5c-26.4,2.9-72-12.4-72-12.4l-78.1,74.1c0,0,20.7,39.7,20.7,67.6c0,27.8-13.7,96-23.2,120
			c-9,22.5-22.5,65.6-16.7,89.1c5.9,23.4,23.4,59.3,55.7,77.6c31.4,17.8,82,41,95.2,48.3c13.2,7.3,74.7,35.2,93.7,54.2
			c19-19,80.6-46.9,93.8-54.2c13.2-7.3,63.9-30.6,95.2-48.3c32.2-18.3,53.1-53.8,57-77.6C753.5,552.5,703.1,464.1,703.1,379.2"/>
		<path class="st2" d="M714.8,510.2c-8.2-21.4-25-92.9-25-119.2c0-26.3,16.6-65.8,16.6-65.8l-63.8-60.3c0,0-46.4,11.8-71.4,9
			c-22.8-2.5-71.4-30.4-71.4-30.4s-48.6,27.9-71.4,30.4c-25,2.8-71.4-9-71.4-9l-63.8,60.3c0,0,16.6,39.5,16.6,65.8
			c0,26.3-15.3,98.4-25,119.2c-3.1,6.7-6.5,15.4-9.6,24.9h447.8C720.6,526.1,717.6,517.4,714.8,510.2"/>
		<path class="st3" d="M275.5,535.2c-6.3,19.9-10.8,43.2-7.1,58.2c5.5,22.2,22.2,56.1,52.7,73.5c29.7,16.8,77.6,38.8,90.1,45.7
			c12.5,6.9,70.7,33.3,88.7,51.3c18-18,76.2-44.4,88.7-51.3c12.5-6.9,60.4-28.9,90.1-45.7c30.5-17.3,46.4-51.5,52.7-73.5
			c3.5-12.3-1.6-36.5-8.2-58.2H275.5z"/>
		<path class="st4" d="M432.2,439.3c0,0-27.2-13.9-63.5-4.6c11.4-11.6,43.9-25.7,43.9-25.7s-34.7-22.8-82,15.3
			c1.2-15,19.6-41.6,73.9-56.6c-12.7,0-45.1-2.3-61.2,5.8c12.7-13.9,47.4-34.7,67-35.8c0,0-16.4-8.1-37.2-2.3
			c0,0,30.5-18.8,44.4-16.5c0,0-4.3-13.3-14.2-15.9c0,0,17.9,2.6,29.5,13c12.7-8.1,32.9-11.8,34.1-11.8c1.2,0-12.7,7.2-12.7,14.2
			c8.1,2.3,32.3,7.8,39.3,15.9c-15.6-1.4-27.9-2.3-37.2,3.5c10.4,2.3,55.6,10.4,74.1,42.7c-24.3-8.1-58.9-12.7-69.3-9.2
			c12.7,3.5,65.8,13.9,76.2,46.2c-15.6-8.1-63.3-24.6-80.9-15c17.3,8.1,39.3,19.6,46.2,37C479.8,431.6,449.5,428.9,432.2,439.3"/>
		<path class="st4" d="M382.9,686.9h237.2c0,0-10.8-120.1-120.1-120.1C390.6,566.8,382.9,686.9,382.9,686.9"/>
		<path class="st1" d="M614.2,438.5c34.5,0,62.5-26.4,62.5-58.9c0-32.5-28-58.9-62.5-58.9c-34.5,0-62.5,26.4-62.5,58.9
			C551.7,412.2,579.7,438.5,614.2,438.5"/>
		<path class="st5" d="M440.6,677.6c0,0-45.3-106.2-17.6-241.7h16.2c0,0-22.3,126.3,34.7,241.8L440.6,677.6z"/>
		<rect x="515.4" y="502.1" class="st1" width="9.2" height="144.8"/>
		<rect x="535.9" y="502.1" class="st1" width="9.2" height="144.8"/>
		<rect x="556.4" y="502.1" class="st1" width="9.2" height="144.8"/>
		<rect x="518.1" y="492.9" class="st1" width="45" height="9.2"/>
	</g>
</g>
</svg>
