<?xml version="1.0" encoding="utf-8"?>
<!-- Generator: Adobe Illustrator 24.2.0, SVG Export Plug-In . SVG Version: 6.00 Build 0)  -->
<svg version="1.0" id="Layer_1" xmlns="http://www.w3.org/2000/svg" xmlns:xlink="http://www.w3.org/1999/xlink" x="0px" y="0px"
	 viewBox="0 0 300.24 280.08" enable-background="new 0 0 300.24 280.08" xml:space="preserve">
<polygon fill="#DE2010" points="77.83,115.06 66.71,137.4 83.62,145.67 "/>
<polygon fill="#DE2010" points="77.83,115.06 88.96,137.4 72.05,145.67 "/>
<polygon fill="#DE2010" points="77.83,115.06 69.41,138.54 87.18,144.8 "/>
<polygon fill="#DE2010" points="77.83,115.06 86.26,138.54 68.49,144.8 "/>
<polygon fill="#DE2010" points="101.75,132.28 76.87,128.69 74.15,147.19 "/>
<polygon fill="#DE2010" points="53.92,132.28 78.8,128.69 81.51,147.19 "/>
<polygon fill="#DE2010" points="101.75,132.28 76.61,131.59 76.09,150.27 "/>
<polygon fill="#DE2010" points="53.92,132.28 79.05,131.59 79.57,150.27 "/>
<polygon fill="#DE2010" points="77.83,118.56 68.97,138.09 78.82,142.48 "/>
<polygon fill="#DE2010" points="77.83,118.56 86.7,138.09 76.85,142.48 "/>
<polygon fill="#DE2010" points="90.53,157.3 86.13,136.34 75.55,138.52 "/>
<polygon fill="#DE2010" points="90.53,157.3 71.78,146.67 77.14,137.37 "/>
<polygon fill="#DE2010" points="65.13,157.3 83.89,146.67 78.52,137.37 "/>
<polygon fill="#DE2010" points="65.13,157.3 69.54,136.34 80.12,138.52 "/>
<g>
	<rect x="44.12" y="87.58" fill="#319208" width="212" height="104.93"/>
	<rect x="44.12" y="102.45" fill="#FFD200" width="212" height="75.05"/>
	<rect x="44.12" y="117.46" fill="#DE2010" width="212" height="45.03"/>
	<rect x="44.12" y="132.47" width="212" height="15.01"/>
	<polygon points="44.12,87.58 44.12,192.5 47.98,192.5 118.64,139.97 48.16,87.58 	"/>
	<polygon fill="#FFFFFF" points="44.12,87.58 44.12,192.5 114.79,139.97 44.3,87.58 	"/>
	<g>
		<defs>
			<rect id="SVGID_1_" x="44.12" y="87.58" width="212" height="104.93"/>
		</defs>
		<clipPath id="SVGID_2_">
			<use xlink:href="#SVGID_1_"  overflow="visible"/>
		</clipPath>
		<path clip-path="url(#SVGID_2_)" fill="#FFC618" d="M68.21,133.39c1.66,3.59,2.08,3.83,6.23,5.24c4.16,1.41,15.9,2.75,17.06,2.88
			c-0.76-0.75-13.98-10.46-16.7-12.4c-2.72-1.94-3.47-2.82-3.47-2.82s-2.45-4.37-3.3-5.65c-0.85-1.28-2.4-3.09-4.45-3.09
			c-2.05,0-3.3,1.19-3.89,3.31c-0.33,0.09-2.08,1.15-2.02,2.24c0.5-0.06,3.68-0.94,4.78,2.62c1.1,3.56,1.16,9.39,0.03,12.27
			c-1.13,2.88-2.88,5.06-2.88,7.59c0,0.35,0.24,1.06,0.83,1.06c0.21,1.12,1.87,9.09,1.87,9.09h23.69l3.76-14.42"/>
		<path clip-path="url(#SVGID_2_)" fill="none" stroke="#000000" stroke-width="0.212" d="M68.21,133.39
			c1.66,3.59,2.08,3.83,6.23,5.24c4.16,1.41,15.9,2.75,17.06,2.88c-0.76-0.75-13.98-10.46-16.7-12.4c-2.72-1.94-3.47-2.82-3.47-2.82
			s-2.45-4.37-3.3-5.65c-0.85-1.28-2.4-3.09-4.45-3.09c-2.05,0-3.3,1.19-3.89,3.31c-0.33,0.09-2.08,1.15-2.02,2.24
			c0.5-0.06,3.68-0.94,4.78,2.62c1.1,3.56,1.16,9.39,0.03,12.27c-1.13,2.88-2.88,5.06-2.88,7.59c0,0.35,0.24,1.06,0.83,1.06
			c0.21,1.12,1.87,9.09,1.87,9.09h23.69l3.76-14.42"/>
		<path clip-path="url(#SVGID_2_)" fill="none" stroke="#000000" stroke-width="0.212" d="M60.43,146.63c0,0,5.05-0.29,6.41-0.29
			c1.37,0,14.08,0.01,21.17,1.64"/>
		<path clip-path="url(#SVGID_2_)" fill="none" stroke="#000000" stroke-width="0.212" d="M62.21,146.54c0,0-0.51-0.61-0.18-1.81
			c0.33-1.21,3.89-4.33,3.89-8.74"/>
		<path clip-path="url(#SVGID_2_)" fill="none" stroke="#000000" stroke-width="0.212" d="M65.27,146.34c0,0-0.42-1.97,4.13-3.65
			c1.28-0.38,4.93-2.41,5.05-4.06"/>
		<path clip-path="url(#SVGID_2_)" fill="none" stroke="#000000" stroke-width="0.212" d="M68.91,142.88c0,0,11.14,0.05,19.96,1.81"
			/>
		<path clip-path="url(#SVGID_2_)" fill="none" stroke="#000000" stroke-width="0.212" d="M71.71,141.56c0,0,3.83,0.13,4.45-0.05
			c0.62-0.18,1.73-0.64,2.17-1.93"/>
		<path clip-path="url(#SVGID_2_)" fill="none" stroke="#000000" stroke-width="0.212" d="M73.98,141.61c0,0,2.05-1.06,2.45-2.43"/>
		<path clip-path="url(#SVGID_2_)" fill="none" stroke="#000000" stroke-width="0.212" d="M67.79,155.73c0,0-0.88-6.02-1.05-9.39
			l2.29,2.16l2.42-2.1l2.08,2.2l2.4-2.02l2.08,2.32l2.38-2.01l1.89,2.18l2.37-1.7l2.82,2.66"/>
		<path clip-path="url(#SVGID_2_)" fill="none" stroke="#000000" stroke-width="0.212" d="M86.98,151.93
			c-8.48-1.2-19.83-1.13-19.83-1.13"/>
		<path clip-path="url(#SVGID_2_)" fill="none" stroke="#000000" stroke-width="0.212" d="M63.21,130.01c0,0,6.9-3.27,8.12-3.72"/>
		<polyline clip-path="url(#SVGID_2_)" fill="none" stroke="#000000" points="66.93,148.72 69.25,150.82 71.34,148.74 73.46,150.91 
			75.75,148.9 77.86,151.1 80.23,149.15 82.17,151.4 84.54,149.61 87.02,151.78 		"/>
		<path clip-path="url(#SVGID_2_)" fill="none" stroke="#000000" d="M73.51,143.84c0.51,0,0.92,0.41,0.92,0.91
			c0,0.5-0.41,0.91-0.92,0.91c-0.51,0-0.92-0.41-0.92-0.91C72.59,144.25,73,143.84,73.51,143.84z"/>
		<path clip-path="url(#SVGID_2_)" fill="none" stroke="#000000" d="M77.39,144.1c0.51,0,0.92,0.41,0.92,0.91
			c0,0.5-0.41,0.91-0.92,0.91s-0.92-0.41-0.92-0.91C76.47,144.51,76.89,144.1,77.39,144.1z"/>
		<path clip-path="url(#SVGID_2_)" fill="none" stroke="#000000" d="M62.93,119.67c0.39,0,0.71,0.32,0.71,0.71
			c0,0.39-0.32,0.71-0.71,0.71c-0.39,0-0.71-0.32-0.71-0.71C62.22,119.98,62.54,119.67,62.93,119.67z"/>
	</g>
</g>
</svg>
